<svg width="33" height="33" viewBox="0 0 33 33" fill="none" xmlns="http://www.w3.org/2000/svg">
<g clip-path="url(#clip0)">
<path d="M29.6707 5.27554C25.9269 1.53166 19.8679 1.53204 16.1244 5.27554L2.66092 18.739C-0.248953 21.6489 -0.248953 26.3835 2.66092 29.2934C5.57155 32.2041 10.3063 32.2024 13.2153 29.2934L26.6788 15.8299C28.7638 13.7449 28.7638 10.3524 26.6788 8.26741C24.5939 6.18235 21.2013 6.18235 19.1163 8.26741L7.63336 19.7504C7.19742 20.1863 7.19742 20.8932 7.63336 21.329C8.0693 21.765 8.77617 21.765 9.21205 21.329L20.695 9.8461C21.9095 8.6316 23.8856 8.6316 25.1 9.8461C26.3145 11.0606 26.3145 13.0367 25.1 14.2512L11.6366 27.7147C9.59223 29.7591 6.28373 29.7589 4.23961 27.7147C3.25173 26.7269 2.70767 25.4134 2.70767 24.0163C2.70767 22.6192 3.2518 21.3057 4.23961 20.3178L17.7031 6.85423C20.5744 3.98298 25.221 3.98335 28.092 6.85423C30.9562 9.71848 30.9562 14.3789 28.092 17.2431L22.1082 23.2269C21.6722 23.6629 21.6722 24.3697 22.1082 24.8056C22.5441 25.2415 23.251 25.2415 23.6869 24.8056L29.6707 18.8218C33.4146 15.078 33.4142 9.01891 29.6707 5.27554Z" fill="black"/>
</g>
<defs>
<clipPath id="clip0">
<rect width="32" height="32" fill="white" transform="translate(0.478516 0.97168)"/>
</clipPath>
</defs>
</svg>