<svg width="33" height="24" viewBox="0 0 33 24" fill="none" xmlns="http://www.w3.org/2000/svg">
<path d="M19.3452 0.454966C18.6952 0.106966 17.9104 0.144966 17.2971 0.553903L8.72237 6.27053H5.47155C4.63787 6.27053 3.95287 6.91415 3.88443 7.7304H3.42543C1.88287 7.7304 0.62793 8.98534 0.62793 10.5279V13.5262C0.62793 15.0687 1.88287 16.3237 3.42543 16.3237H3.88437C3.95287 17.1399 4.63793 17.7835 5.47149 17.7835H8.72224L17.2969 23.5002C17.6314 23.723 18.0167 23.8358 18.4034 23.8357C18.726 23.8357 19.0496 23.7573 19.3451 23.5991C19.9951 23.2512 20.3987 22.5772 20.3987 21.84V2.21403C20.3989 1.47684 19.9951 0.802778 19.3452 0.454966ZM3.87755 14.7406H3.42543C2.7558 14.7405 2.21105 14.1958 2.21105 13.5261V10.5278C2.21105 9.85822 2.7558 9.31347 3.42543 9.31347H3.87755V14.7406ZM8.17043 16.2004H5.47155C5.46562 16.2004 5.46068 16.1956 5.46068 16.1895V7.86447C5.46068 7.85847 5.46555 7.85359 5.47155 7.85359H8.17043V16.2004ZM18.8158 21.8401C18.8158 22.0628 18.6637 22.1683 18.5982 22.2033C18.5327 22.2383 18.3606 22.3065 18.1752 22.1829L9.75349 16.5683V7.48572L18.1752 1.87122C18.3606 1.74765 18.5328 1.81578 18.5982 1.85078C18.6636 1.88578 18.8158 1.99128 18.8158 2.21403V21.8401Z" fill="black"/>
<path d="M28.4785 1.99384C28.2002 1.71559 27.7492 1.71559 27.471 1.99384C27.1927 2.27209 27.1927 2.72309 27.471 3.00134C29.8778 5.40816 31.2032 8.61353 31.2032 12.027C31.2032 15.4406 29.8776 18.646 27.4709 21.0528C27.1926 21.331 27.1926 21.782 27.4709 22.0602C27.61 22.1994 27.7923 22.2688 27.9746 22.2688C28.157 22.2688 28.3393 22.1993 28.4784 22.0602C31.1543 19.3843 32.628 15.8211 32.628 12.0269C32.628 8.23284 31.1543 4.66966 28.4785 1.99384Z" fill="black"/>
<path d="M24.5661 5.90601C24.2879 5.6277 23.8369 5.6277 23.5586 5.90594C23.2804 6.18419 23.2804 6.63519 23.5586 6.91344C24.922 8.27688 25.6729 10.0929 25.6729 12.0269C25.6729 13.9609 24.922 15.777 23.5585 17.1404C23.2803 17.4187 23.2803 17.8697 23.5585 18.1479C23.6976 18.2871 23.8799 18.3566 24.0623 18.3566C24.2446 18.3566 24.427 18.287 24.566 18.1479C26.1986 16.5154 27.0977 14.3416 27.0977 12.0269C27.0977 9.71238 26.1987 7.53851 24.5661 5.90601Z" fill="black"/>
</svg>
