<svg width="25" height="17" viewBox="0 0 25 17" fill="none" xmlns="http://www.w3.org/2000/svg">
  <path d="M23.641 7.36084H1.64099C1.08871 7.36084 0.640991 7.80856 0.640991 8.36084C0.640991 8.91312 1.08871 9.36084 1.64099 9.36084H23.641C24.1933 9.36084 24.641 8.91312 24.641 8.36084C24.641 7.80856 24.1933 7.36084 23.641 7.36084Z" fill="black"/>
  <path d="M23.641 0.36084H1.64099C1.08871 0.36084 0.640991 0.808555 0.640991 1.36084C0.640991 1.91312 1.08871 2.36084 1.64099 2.36084H23.641C24.1933 2.36084 24.641 1.91312 24.641 1.36084C24.641 0.808555 24.1933 0.36084 23.641 0.36084Z" fill="black"/>
  <path d="M23.641 14.3608H1.64099C1.08871 14.3608 0.640991 14.8086 0.640991 15.3608C0.640991 15.9131 1.08871 16.3608 1.64099 16.3608H23.641C24.1933 16.3608 24.641 15.9131 24.641 15.3608C24.641 14.8086 24.1933 14.3608 23.641 14.3608Z" fill="black"/>
</svg>