<svg width="17" height="17" viewBox="0 0 17 17" fill="none" xmlns="http://www.w3.org/2000/svg">
<g clip-path="url(#clip0)">
<path d="M14.529 8.04845H13.3989C13.1649 8.04845 12.9752 8.23819 12.9752 8.47222V13.6244C12.9752 13.8978 12.7526 14.1203 12.4792 14.1203H2.60512C2.3317 14.1203 2.10931 13.8978 2.10931 13.6244V3.75049C2.10931 3.47697 2.3317 3.25441 2.60512 3.25441H8.02107C8.2551 3.25441 8.44483 3.06468 8.44483 2.83065V1.70062C8.44483 1.46659 8.2551 1.27686 8.02107 1.27686H2.60512C1.24128 1.27686 0.13176 2.38655 0.13176 3.75049V13.6244C0.13176 14.9884 1.24134 16.0979 2.60512 16.0979H12.4791C13.8431 16.0979 14.9527 14.9883 14.9527 13.6244V8.47227C14.9527 8.23819 14.763 8.04845 14.529 8.04845Z" fill="#0772A0"/>
<path d="M15.7079 0.0981445H11.213C10.979 0.0981445 10.7893 0.287877 10.7893 0.521906V1.65194C10.7893 1.88597 10.979 2.0757 11.213 2.0757H12.7557L6.95047 7.88084C6.78498 8.04633 6.78498 8.3146 6.95047 8.48015L7.74952 9.27925C7.82902 9.35875 7.93677 9.40339 8.04921 9.40339C8.16159 9.40339 8.26939 9.35875 8.34883 9.27925L14.1541 3.474V5.01666C14.1541 5.25069 14.3438 5.44042 14.5779 5.44042H15.7079C15.9419 5.44042 16.1317 5.25069 16.1317 5.01666V0.521906C16.1317 0.287877 15.9419 0.0981445 15.7079 0.0981445Z" fill="#0772A0"/>
</g>
<defs>
<clipPath id="clip0">
<rect width="16" height="16" fill="white" transform="translate(0.131714 0.0981445)"/>
</clipPath>
</defs>
</svg>
