<?xml version="1.0" standalone="no"?>
<!DOCTYPE svg PUBLIC "-//W3C//DTD SVG 20010904//EN"
 "http://www.w3.org/TR/2001/REC-SVG-20010904/DTD/svg10.dtd">
<svg version="1.0" xmlns="http://www.w3.org/2000/svg"
 width="512.000000pt" height="512.000000pt" viewBox="0 0 512.000000 512.000000"
 preserveAspectRatio="xMidYMid meet">

<g transform="translate(0.000000,512.000000) scale(0.100000,-0.100000)"
fill="#000000" stroke="none">
<path d="M3184 5105 c-269 -58 -452 -335 -400 -606 21 -111 62 -190 161 -314
49 -60 92 -115 97 -121 5 -7 -64 -113 -193 -295 -111 -156 -217 -315 -235
-352 -40 -84 -58 -187 -51 -288 20 -252 196 -466 449 -547 83 -26 254 -23 348
7 120 37 171 69 439 270 158 119 258 188 265 183 6 -5 61 -48 121 -97 205
-164 361 -204 565 -145 178 52 328 222 360 410 8 45 10 278 8 745 -3 676 -3
680 -26 739 -36 97 -70 146 -167 242 -108 107 -162 137 -299 164 -92 19 -140
20 -739 19 -493 0 -656 -4 -703 -14z m1398 -444 c30 -19 52 -44 66 -72 21 -43
21 -54 22 -694 l1 -650 -26 -22 c-53 -47 -75 -37 -292 126 -109 81 -209 154
-222 160 -28 16 -106 16 -145 1 -16 -6 -182 -118 -370 -249 -188 -131 -355
-246 -373 -255 -59 -30 -141 -16 -197 33 -47 41 -70 135 -47 193 5 13 121 184
259 380 268 383 274 395 252 479 -18 66 -31 86 -176 280 -142 191 -150 209
-119 269 8 16 23 34 32 39 12 7 240 10 654 11 l635 0 46 -29z"/>
<path d="M1785 2544 c-129 -28 -211 -77 -474 -283 -155 -121 -248 -188 -255
-183 -6 5 -60 49 -120 97 -123 99 -203 140 -315 161 -273 53 -549 -131 -607
-405 -11 -53 -14 -195 -14 -711 0 -607 2 -650 20 -735 30 -134 59 -185 170
-295 112 -113 164 -142 304 -170 91 -19 142 -20 730 -20 414 0 653 4 692 11
281 52 474 332 420 610 -21 111 -62 190 -161 314 -49 61 -92 115 -97 121 -5 7
66 115 193 295 111 156 210 304 221 329 25 56 47 176 47 255 1 264 -174 506
-429 594 -86 29 -229 36 -325 15z m238 -430 c45 -23 66 -44 88 -86 20 -40 25
-102 10 -140 -5 -13 -121 -184 -259 -380 -268 -383 -274 -395 -252 -479 18
-66 31 -86 176 -280 143 -191 150 -209 119 -269 -8 -16 -24 -34 -34 -40 -13
-6 -238 -10 -653 -10 l-634 0 -46 29 c-30 19 -52 44 -66 72 -21 43 -21 54 -22
694 l-1 650 26 22 c53 47 75 37 292 -125 230 -172 216 -163 259 -172 76 -17
106 -1 482 262 196 138 366 254 377 258 34 14 104 11 138 -6z"/>
</g>
</svg>
