<svg width="53" height="48" viewBox="0 0 53 48" fill="none" xmlns="http://www.w3.org/2000/svg">
<path d="M47.0603 6.88339H25.549L21.7001 2.81573C20.0586 1.02882 18.1827 0.160156 15.9654 0.160156H6.72093C3.50607 0.160156 0.890625 2.7756 0.890625 5.99046V42.1278C0.890625 45.3427 3.50607 47.9581 6.72093 47.9581H47.0603C50.2752 47.9581 52.8906 45.3427 52.8906 42.1278V12.7137C52.8906 9.49883 50.2752 6.88339 47.0603 6.88339ZM51.3149 42.1278C51.3149 44.4738 49.4063 46.3824 47.0603 46.3824H6.72093C4.37494 46.3824 2.46638 44.4738 2.46638 42.1278V17.7561C2.46638 15.4101 4.37494 13.5016 6.72093 13.5016H47.0603C49.4063 13.5016 51.3149 15.4101 51.3149 17.7561V42.1278ZM47.0603 11.9258H6.72093C5.0439 11.9258 3.53107 12.6385 2.46638 13.7758V5.99046C2.46638 3.64447 4.37494 1.73591 6.72093 1.73591H15.9654C17.7428 1.73591 19.1976 2.41906 20.5434 3.88577C20.5461 3.88871 20.5488 3.89176 20.5517 3.8946L24.6376 8.2127C24.7864 8.36996 24.9933 8.45915 25.2098 8.45915H47.0603C49.4063 8.45915 51.3149 10.3677 51.3149 12.7137V13.7758C50.2502 12.6385 48.7373 11.9258 47.0603 11.9258Z" fill="black"/>
<path d="M46.22 16.9683H35.2947C34.8596 16.9683 34.5068 17.3209 34.5068 17.7561C34.5068 18.1914 34.8596 18.544 35.2947 18.544H46.22C46.6551 18.544 47.0079 18.1914 47.0079 17.7561C47.0079 17.3209 46.6551 16.9683 46.22 16.9683Z" fill="black"/>
<path d="M46.22 21.1704H35.2947C34.8596 21.1704 34.5068 21.5231 34.5068 21.9583C34.5068 22.3935 34.8596 22.7462 35.2947 22.7462H46.22C46.6551 22.7462 47.0079 22.3935 47.0079 21.9583C47.0079 21.5231 46.6551 21.1704 46.22 21.1704Z" fill="black"/>
</svg>
