<svg width="25" height="22" viewBox="0 0 25 22" fill="none" xmlns="http://www.w3.org/2000/svg">
    <path d="M11.874 11.7776C11.6152 11.7776 11.4053 11.9876 11.4053 12.2464V12.2504C11.4053 12.5092 11.6152 12.7171 11.874 12.7171C12.1329 12.7171 12.3428 12.5052 12.3428 12.2464C12.3428 11.9876 12.1329 11.7776 11.874 11.7776Z" fill="#373A4C"/>
    <path d="M9.48438 11.7776C9.22553 11.7776 9.01562 11.9876 9.01562 12.2464V12.2504C9.01562 12.5092 9.22553 12.7171 9.48438 12.7171C9.74322 12.7171 9.95312 12.5052 9.95312 12.2464C9.95312 11.9876 9.74327 11.7776 9.48438 11.7776Z" fill="#373A4C"/>
    <path d="M7.09277 11.7776C6.83393 11.7776 6.62402 11.9876 6.62402 12.2464V12.2504C6.62402 12.5092 6.83393 12.7171 7.09277 12.7171C7.35162 12.7171 7.56152 12.5052 7.56152 12.2464C7.56152 11.9876 7.35162 11.7776 7.09277 11.7776Z" fill="#373A4C"/>
    <path d="M5.19974 2.09241C4.32655 2.09241 3.61621 2.80266 3.61621 3.6757C3.61621 4.5495 4.32655 5.26036 5.19974 5.26036C6.07218 5.26036 6.78196 4.5495 6.78196 3.6757C6.78191 2.80266 6.07218 2.09241 5.19974 2.09241ZM5.19974 4.32286C4.84349 4.32286 4.55371 4.03256 4.55371 3.6757C4.55371 3.31959 4.84354 3.02991 5.19974 3.02991C5.55524 3.02991 5.84446 3.31964 5.84446 3.6757C5.84441 4.03256 5.55524 4.32286 5.19974 4.32286Z" fill="#373A4C"/>
    <path d="M9.65546 2.09241C8.78302 2.09241 8.07324 2.80266 8.07324 3.6757C8.07324 4.5495 8.78302 5.26036 9.65546 5.26036C10.5279 5.26036 11.2377 4.5495 11.2377 3.6757C11.2377 2.80266 10.5279 2.09241 9.65546 2.09241ZM9.65546 4.32286C9.29996 4.32286 9.01074 4.03256 9.01074 3.6757C9.01074 3.31959 9.29996 3.02991 9.65546 3.02991C10.011 3.02991 10.3002 3.31964 10.3002 3.6757C10.3002 4.03256 10.011 4.32286 9.65546 4.32286Z" fill="#373A4C"/>
    <path d="M20.0533 2.09241H14.9816C14.1092 2.09241 13.3994 2.80266 13.3994 3.6757C13.3994 4.5495 14.1092 5.26036 14.9816 5.26036H20.0533C20.9258 5.26036 21.6355 4.5495 21.6355 3.6757C21.6355 2.80266 20.9258 2.09241 20.0533 2.09241ZM20.0533 4.32286H14.9816C14.6261 4.32286 14.3369 4.03256 14.3369 3.6757C14.3369 3.31959 14.6261 3.02991 14.9816 3.02991H20.0533C20.4088 3.02991 20.698 3.31964 20.698 3.6757C20.698 4.03256 20.4088 4.32286 20.0533 4.32286Z" fill="#373A4C"/>
    <path d="M22.5451 0.0708008H2.70877C1.56084 0.0708008 0.626953 1.00539 0.626953 2.15421V13.2519C0.626953 13.5107 0.836859 13.7206 1.0957 13.7206C1.35455 13.7206 1.56445 13.5107 1.56445 13.2519V7.282H23.6895V19.6905C23.6895 20.3223 23.1761 20.8364 22.5451 20.8364H2.70877C2.07778 20.8364 1.56445 20.3223 1.56445 19.6905V17.4654C1.56445 17.2066 1.35455 16.9967 1.0957 16.9967C0.836859 16.9967 0.626953 17.2066 0.626953 17.4654V19.6905C0.626953 20.8393 1.56084 21.7739 2.70877 21.7739H22.5451C23.6931 21.7739 24.627 20.8393 24.627 19.6905V2.15421C24.627 1.00539 23.6931 0.0708008 22.5451 0.0708008ZM23.6895 6.3445H1.56445V2.15421C1.56445 1.52238 2.07778 1.0083 2.70877 1.0083H22.5451C23.1761 1.0083 23.6895 1.52238 23.6895 2.15421V6.3445Z" fill="#373A4C"/>
    <path d="M16.0742 14.9556C16.3331 14.9556 16.543 14.7436 16.543 14.4848C16.543 14.226 16.3331 14.0161 16.0742 14.0161C15.8154 14.0161 15.6055 14.226 15.6055 14.4848V14.4888C15.6055 14.7476 15.8153 14.9556 16.0742 14.9556Z" fill="#373A4C"/>
    <path d="M18.4648 14.9556C18.7237 14.9556 18.9336 14.7436 18.9336 14.4848C18.9336 14.226 18.7237 14.0161 18.4648 14.0161C18.206 14.0161 17.9961 14.226 17.9961 14.4848V14.4888C17.9961 14.7476 18.206 14.9556 18.4648 14.9556Z" fill="#373A4C"/>
    <path d="M13.7216 8.81305H5.24573C4.73816 8.81305 4.3252 9.22616 4.3252 9.734V14.9676C4.3252 15.4754 4.73816 15.8885 5.24573 15.8885H6.15951L6.6997 17.3427C6.75252 17.4849 6.87088 17.5927 7.01742 17.6321C7.05754 17.6429 7.09846 17.6482 7.13906 17.6482C7.24673 17.6482 7.35248 17.6111 7.43741 17.541L9.4401 15.8886H10.9156V17.206C10.9156 17.7139 11.3286 18.127 11.8362 18.127H16.1175L18.1202 19.7806C18.2052 19.8508 18.311 19.8879 18.4187 19.8879C18.4592 19.8879 18.5001 19.8826 18.5401 19.8718C18.6867 19.8325 18.8051 19.7247 18.8579 19.5825L19.3994 18.1269H20.3121C20.8204 18.1269 21.2339 17.7138 21.2339 17.206V11.9724C21.2339 11.4645 20.8204 11.0514 20.3121 11.0514H14.6435V9.734C14.6435 9.22616 14.2299 8.81305 13.7216 8.81305ZM9.27173 14.9511C9.16288 14.9511 9.05737 14.989 8.97342 15.0583L7.3491 16.3986L6.92484 15.2566C6.85659 15.073 6.68137 14.9511 6.48543 14.9511H5.26274V9.75055H13.706V11.4939C13.7055 11.5027 13.7047 11.5113 13.7047 11.5202C13.7047 11.5291 13.7055 11.5378 13.706 11.5465V14.9511H9.27173V14.9511ZM20.2964 11.989V17.1895H19.0737C18.8778 17.1895 18.7026 17.3113 18.6344 17.4949L18.209 18.6382L16.5845 17.2969C16.5005 17.2275 16.395 17.1896 16.2861 17.1896H11.8532V15.8886H13.7216C14.2299 15.8886 14.6435 15.4755 14.6435 14.9677V11.989H20.2964V11.989Z" fill="#373A4C"/>
    <path d="M1.0957 15.8274C1.35455 15.8274 1.56445 15.6175 1.56445 15.3587V15.356C1.56445 15.0971 1.35455 14.8885 1.0957 14.8885C0.836859 14.8885 0.626953 15.0998 0.626953 15.3586C0.626953 15.6175 0.836859 15.8274 1.0957 15.8274Z" fill="#373A4C"/>
</svg>