<svg width="37" height="27" viewBox="0 0 37 27" fill="none" xmlns="http://www.w3.org/2000/svg">
  <path d="M11.0921 19.4321C11.0921 21.1326 9.16134 22.1136 7.78784 21.1109L1.8715 16.7918C0.742948 15.968 0.0756836 14.6547 0.0756836 13.2574C0.0756836 11.856 0.746914 10.5393 1.88106 9.71601L7.77983 5.43414C9.15918 4.43288 11.0921 5.41827 11.0921 7.1227C11.0921 7.83259 10.7312 8.49377 10.1341 8.87772L3.41568 13.1978L10.1672 17.703C10.7451 18.0886 11.0921 18.7374 11.0921 19.4321Z" fill="#010002"/>
  <path d="M14.428 26.3378C13.6975 26.3378 13.1686 25.6407 13.3653 24.9371L20.0524 1.02512C20.1866 0.545209 20.6239 0.213379 21.1222 0.213379C21.858 0.213379 22.3905 0.915697 22.192 1.62416L15.4905 25.5322C15.357 26.0085 14.9227 26.3378 14.428 26.3378Z" fill="#010002"/>
  <path d="M28.3588 21.109C26.9883 22.1118 25.0593 21.133 25.0593 19.4349C25.0593 18.7389 25.4083 18.0893 25.9887 17.7051L32.7342 13.2394L25.9909 8.80967C25.4095 8.42772 25.0593 7.77878 25.0593 7.08311C25.0593 5.39505 26.9742 4.41961 28.3397 5.41209L34.2815 9.73082C35.4087 10.5501 36.0757 11.8595 36.0757 13.253C36.0757 14.6417 35.4134 15.9471 34.2927 16.7671L28.3588 21.109Z" fill="#010002"/>
</svg>
