<svg width="9" height="14" viewBox="0 0 9 14" fill="none" xmlns="http://www.w3.org/2000/svg">
    <path d="M2.55269 10.1172H1.18146C0.890518 10.1172 0.611496 10.236 0.405772 10.4474C0.200047 10.6589 0.0844727 10.9456 0.0844727 11.2446L0.0844727 12.654C0.0844727 12.953 0.200047 13.2398 0.405772 13.4512C0.611496 13.6626 0.890518 13.7814 1.18146 13.7814H2.55269C2.84362 13.7814 3.12265 13.6626 3.32837 13.4512C3.5341 13.2398 3.64967 12.953 3.64967 12.654V11.2446C3.64967 10.9456 3.5341 10.6589 3.32837 10.4474C3.12265 10.236 2.84362 10.1172 2.55269 10.1172ZM2.55269 12.654H1.18146V11.2446H2.55269V12.654Z" fill="#373A4C"/>
    <path d="M2.55269 5.17969H1.18146C0.890518 5.17969 0.611496 5.29847 0.405772 5.50991C0.200047 5.72135 0.0844727 6.00812 0.0844727 6.30714L0.0844727 7.71646C0.0844727 8.01548 0.200047 8.30225 0.405772 8.51369C0.611496 8.72513 0.890518 8.84392 1.18146 8.84392H2.55269C2.84362 8.84392 3.12265 8.72513 3.32837 8.51369C3.5341 8.30225 3.64967 8.01548 3.64967 7.71646V6.30714C3.64967 6.00812 3.5341 5.72135 3.32837 5.50991C3.12265 5.29847 2.84362 5.17969 2.55269 5.17969ZM2.55269 7.71646H1.18146V6.30714H2.55269V7.71646Z" fill="#373A4C"/>
    <path d="M2.55269 0.243164H1.18146C0.890518 0.243164 0.611496 0.361949 0.405772 0.573388C0.200047 0.784827 0.0844727 1.0716 0.0844727 1.37062L0.0844727 2.77994C0.0844727 3.07896 0.200047 3.36573 0.405772 3.57717C0.611496 3.78861 0.890518 3.9074 1.18146 3.9074H2.55269C2.84362 3.9074 3.12265 3.78861 3.32837 3.57717C3.5341 3.36573 3.64967 3.07896 3.64967 2.77994V1.37062C3.64967 1.0716 3.5341 0.784827 3.32837 0.573388C3.12265 0.361949 2.84362 0.243164 2.55269 0.243164V0.243164ZM2.55269 2.77994H1.18146V1.37062H2.55269V2.77994Z" fill="#373A4C"/>
    <path d="M7.39058 10.1172H6.01935C5.72841 10.1172 5.44939 10.236 5.24366 10.4474C5.03794 10.6589 4.92236 10.9456 4.92236 11.2446V12.654C4.92236 12.953 5.03794 13.2398 5.24366 13.4512C5.44939 13.6626 5.72841 13.7814 6.01935 13.7814H7.39058C7.68151 13.7814 7.96054 13.6626 8.16626 13.4512C8.37198 13.2398 8.48756 12.953 8.48756 12.654V11.2446C8.48756 10.9456 8.37198 10.6589 8.16626 10.4474C7.96054 10.236 7.68151 10.1172 7.39058 10.1172ZM7.39058 12.654H6.01935V11.2446H7.39058V12.654Z" fill="#373A4C"/>
    <path d="M7.39058 5.17969H6.01935C5.72841 5.17969 5.44939 5.29847 5.24366 5.50991C5.03794 5.72135 4.92236 6.00812 4.92236 6.30714V7.71646C4.92236 8.01548 5.03794 8.30225 5.24366 8.51369C5.44939 8.72513 5.72841 8.84392 6.01935 8.84392H7.39058C7.68151 8.84392 7.96054 8.72513 8.16626 8.51369C8.37198 8.30225 8.48756 8.01548 8.48756 7.71646V6.30714C8.48756 6.00812 8.37198 5.72135 8.16626 5.50991C7.96054 5.29847 7.68151 5.17969 7.39058 5.17969ZM7.39058 7.71646H6.01935V6.30714H7.39058V7.71646Z" fill="#373A4C"/>
    <path d="M7.39058 0.243164H6.01935C5.72841 0.243164 5.44939 0.361949 5.24366 0.573388C5.03794 0.784827 4.92236 1.0716 4.92236 1.37062V2.77994C4.92236 3.07896 5.03794 3.36573 5.24366 3.57717C5.44939 3.78861 5.72841 3.9074 6.01935 3.9074H7.39058C7.68151 3.9074 7.96054 3.78861 8.16626 3.57717C8.37198 3.36573 8.48756 3.07896 8.48756 2.77994V1.37062C8.48756 1.0716 8.37198 0.784827 8.16626 0.573388C7.96054 0.361949 7.68151 0.243164 7.39058 0.243164V0.243164ZM7.39058 2.77994H6.01935V1.37062H7.39058V2.77994Z" fill="#373A4C"/>
</svg>
