<svg width="31" height="21" viewBox="0 0 31 21" fill="none" xmlns="http://www.w3.org/2000/svg">
    <path d="M25.8947 20.8776H23.4687C23.3541 20.8776 23.2441 20.832 23.163 20.7509C23.0819 20.6698 23.0363 20.5599 23.0363 20.4452C23.0363 20.3305 23.0819 20.2205 23.163 20.1394C23.2441 20.0583 23.3541 20.0127 23.4687 20.0127H25.8947C26.9495 20.0116 27.9607 19.5921 28.7066 18.8462C29.4524 18.1004 29.8719 17.0891 29.8731 16.0344V5.24949C29.8719 4.19471 29.4524 3.18346 28.7066 2.43762C27.9607 1.69178 26.9495 1.27226 25.8947 1.27111H5.3109C4.25612 1.27226 3.24487 1.69178 2.49903 2.43762C1.75319 3.18346 1.33367 4.19471 1.33253 5.24949V16.0344C1.33367 17.0891 1.75319 18.1004 2.49903 18.8462C3.24487 19.5921 4.25612 20.0116 5.3109 20.0127H11.8493C11.964 20.0127 12.074 20.0583 12.1551 20.1394C12.2362 20.2205 12.2817 20.3305 12.2817 20.4452C12.2817 20.5599 12.2362 20.6698 12.1551 20.7509C12.074 20.832 11.964 20.8776 11.8493 20.8776H5.3109C4.02682 20.8762 2.79572 20.3655 1.88773 19.4575C0.979744 18.5495 0.469035 17.3184 0.467661 16.0344V5.24949C0.469035 3.96541 0.979744 2.73431 1.88773 1.82632C2.79572 0.918334 4.02682 0.407624 5.3109 0.40625H25.8947C27.1788 0.407624 28.4099 0.918334 29.3179 1.82632C30.2258 2.73431 30.7366 3.96541 30.7379 5.24949V16.0344C30.7366 17.3184 30.2258 18.5495 29.3179 19.4575C28.4099 20.3655 27.1788 20.8762 25.8947 20.8776Z" fill="#D8DAE7"/>
    <path d="M21.2384 9.35127C20.787 8.61213 20.2176 7.9519 19.5529 7.39677L20.9529 5.99677C21.0439 5.90247 21.0943 5.77617 21.0932 5.64507C21.0921 5.51397 21.0395 5.38856 20.9468 5.29586C20.8541 5.20316 20.7287 5.15057 20.5976 5.14943C20.4665 5.14829 20.3402 5.19869 20.2459 5.28977L18.7234 6.81427C17.7796 6.25368 16.7006 5.9615 15.6029 5.96927C12.5074 5.96927 10.7434 8.08827 9.96736 9.35127C9.72763 9.73902 9.60064 10.1859 9.60064 10.6418C9.60064 11.0976 9.72763 11.5445 9.96736 11.9323C10.4187 12.6714 10.9881 13.3316 11.6529 13.8868L10.2529 15.2868C10.2051 15.3329 10.167 15.3881 10.1408 15.4491C10.1146 15.5101 10.1008 15.5757 10.1002 15.6421C10.0997 15.7085 10.1123 15.7743 10.1375 15.8357C10.1626 15.8972 10.1997 15.953 10.2467 16C10.2936 16.0469 10.3494 16.084 10.4109 16.1092C10.4723 16.1343 10.5382 16.147 10.6046 16.1464C10.671 16.1458 10.7366 16.132 10.7976 16.1058C10.8586 16.0796 10.9137 16.0415 10.9599 15.9938L12.4859 14.4678C13.4285 15.0283 14.5062 15.3209 15.6029 15.3143C18.6984 15.3143 20.4624 13.1953 21.2384 11.9323C21.4781 11.5445 21.6051 11.0976 21.6051 10.6418C21.6051 10.1859 21.4781 9.73902 21.2384 9.35127ZM10.8194 11.4088C10.6769 11.1783 10.6015 10.9127 10.6015 10.6418C10.6015 10.3708 10.6769 10.1052 10.8194 9.87477C11.4864 8.79177 12.9939 6.96927 15.6029 6.96927C16.433 6.96462 17.2515 7.16469 17.9859 7.55177L16.9794 8.55827C16.4993 8.23957 15.9238 8.09677 15.3505 8.15409C14.7771 8.21142 14.2413 8.46534 13.8339 8.87277C13.4264 9.2802 13.1725 9.81605 13.1152 10.3894C13.0579 10.9627 13.2007 11.5382 13.5194 12.0183L12.3644 13.1733C11.7519 12.6781 11.2293 12.0812 10.8194 11.4088ZM17.1029 10.6418C17.1029 11.0396 16.9448 11.4211 16.6635 11.7024C16.3822 11.9837 16.0007 12.1418 15.6029 12.1418C15.3801 12.1409 15.1605 12.0896 14.9604 11.9918L16.9529 9.99927C17.0507 10.1994 17.102 10.419 17.1029 10.6418ZM14.1029 10.6418C14.1029 10.2439 14.2609 9.86241 14.5422 9.58111C14.8235 9.29981 15.205 9.14177 15.6029 9.14177C15.8256 9.14263 16.0453 9.19391 16.2454 9.29177L14.2529 11.2843C14.155 11.0842 14.1037 10.8645 14.1029 10.6418ZM20.3864 11.4088C19.7194 12.4918 18.2119 14.3143 15.6029 14.3143C14.7727 14.3189 13.9542 14.1189 13.2199 13.7318L14.2264 12.7253C14.7064 13.044 15.2819 13.1868 15.8552 13.1294C16.4286 13.0721 16.9644 12.8182 17.3719 12.4108C17.7793 12.0033 18.0332 11.4675 18.0905 10.8942C18.1479 10.3208 18.0051 9.7453 17.6864 9.26527L18.8414 8.11027C19.4538 8.60541 19.9764 9.20229 20.3864 9.87477C20.5288 10.1052 20.6042 10.3708 20.6042 10.6418C20.6042 10.9127 20.5288 11.1783 20.3864 11.4088Z" fill="#D8DAE7"/>
</svg>