<svg width="31" height="21" viewBox="0 0 31 21" fill="none" xmlns="http://www.w3.org/2000/svg">
<path d="M16.1304 20.8771H14.8763C14.7616 20.8771 14.6516 20.8315 14.5705 20.7504C14.4894 20.6693 14.4439 20.5593 14.4439 20.4446C14.4439 20.33 14.4894 20.22 14.5705 20.1389C14.6516 20.0578 14.7616 20.0122 14.8763 20.0122H16.1304C16.245 20.0122 16.355 20.0578 16.4361 20.1389C16.5172 20.22 16.5628 20.33 16.5628 20.4446C16.5628 20.5593 16.5172 20.6693 16.4361 20.7504C16.355 20.8315 16.245 20.8771 16.1304 20.8771Z" fill="#373A4C"/>
<path d="M25.8947 20.8776H23.4687C23.3541 20.8776 23.2441 20.832 23.163 20.7509C23.0819 20.6698 23.0363 20.5599 23.0363 20.4452C23.0363 20.3305 23.0819 20.2205 23.163 20.1394C23.2441 20.0583 23.3541 20.0127 23.4687 20.0127H25.8947C26.9495 20.0116 27.9607 19.5921 28.7066 18.8462C29.4524 18.1004 29.8719 17.0891 29.8731 16.0344V5.24949C29.8719 4.19471 29.4524 3.18346 28.7066 2.43762C27.9607 1.69178 26.9495 1.27226 25.8947 1.27111H5.3109C4.25612 1.27226 3.24487 1.69178 2.49903 2.43762C1.75319 3.18346 1.33367 4.19471 1.33253 5.24949V16.0344C1.33367 17.0891 1.75319 18.1004 2.49903 18.8462C3.24487 19.5921 4.25612 20.0116 5.3109 20.0127H11.8493C11.964 20.0127 12.074 20.0583 12.1551 20.1394C12.2362 20.2205 12.2817 20.3305 12.2817 20.4452C12.2817 20.5599 12.2362 20.6698 12.1551 20.7509C12.074 20.832 11.964 20.8776 11.8493 20.8776H5.3109C4.02682 20.8762 2.79572 20.3655 1.88773 19.4575C0.979744 18.5495 0.469035 17.3184 0.467661 16.0344V5.24949C0.469035 3.96541 0.979744 2.73431 1.88773 1.82632C2.79572 0.918334 4.02682 0.407624 5.3109 0.40625H25.8947C27.1788 0.407624 28.4099 0.918334 29.3179 1.82632C30.2258 2.73431 30.7366 3.96541 30.7379 5.24949V16.0344C30.7366 17.3184 30.2258 18.5495 29.3179 19.4575C28.4099 20.3655 27.1788 20.8762 25.8947 20.8776Z" fill="#373A4C"/>
<path d="M20.4417 20.8771H19.1574C19.0427 20.8771 18.9327 20.8315 18.8516 20.7504C18.7705 20.6693 18.725 20.5593 18.725 20.4446C18.725 20.33 18.7705 20.22 18.8516 20.1389C18.9327 20.0578 19.0427 20.0122 19.1574 20.0122H20.4417C20.5564 20.0122 20.6664 20.0578 20.7475 20.1389C20.8286 20.22 20.8741 20.33 20.8741 20.4446C20.8741 20.5593 20.8286 20.6693 20.7475 20.7504C20.6664 20.8315 20.5564 20.8771 20.4417 20.8771Z" fill="#373A4C"/>
<path d="M13.5539 15.3678C13.1271 15.3673 12.7179 15.1976 12.416 14.8957C12.1142 14.5939 11.9444 14.1847 11.944 13.7578V7.52476C11.9439 7.22525 12.0275 6.93168 12.1853 6.67712C12.3431 6.42256 12.5689 6.21715 12.8372 6.08403C13.1055 5.95091 13.4056 5.89539 13.7038 5.92371C14.002 5.95203 14.2863 6.06308 14.5247 6.24433L18.6268 9.36087C18.8242 9.51089 18.9843 9.70453 19.0945 9.92665C19.2046 10.1488 19.262 10.3934 19.262 10.6413C19.262 10.8893 19.2046 11.1338 19.0945 11.356C18.9843 11.5781 18.8242 11.7717 18.6268 11.9217L14.5252 15.0383C14.2463 15.2515 13.905 15.3673 13.5539 15.3678ZM13.5539 6.77925C13.4381 6.7795 13.324 6.80674 13.2205 6.85882C13.0955 6.91903 12.9902 7.01368 12.917 7.13164C12.8439 7.24959 12.8059 7.38597 12.8076 7.52476V13.7578C12.8072 13.8967 12.8458 14.0328 12.9188 14.1509C12.9919 14.2689 13.0966 14.3641 13.221 14.4257C13.3454 14.4874 13.4846 14.5129 13.6227 14.4995C13.7609 14.4861 13.8926 14.4342 14.0028 14.3498L18.104 11.2329C18.1954 11.1637 18.2695 11.0743 18.3205 10.9716C18.3715 10.869 18.3981 10.7559 18.3981 10.6413C18.3981 10.5267 18.3715 10.4136 18.3205 10.311C18.2695 10.2084 18.1954 10.1189 18.104 10.0497L14.0028 6.93276C13.8746 6.83367 13.7173 6.7797 13.5552 6.77925H13.5539Z" fill="#373A4C"/>
</svg>
