<svg width="24" height="17" viewBox="0 0 24 17" fill="none" xmlns="http://www.w3.org/2000/svg">
<path d="M12.7273 8.25195H4.72727C4.52644 8.25195 4.36363 8.41476 4.36363 8.61559C4.36363 8.81642 4.52644 8.97923 4.72727 8.97923H12.7273C12.9281 8.97923 13.0909 8.81642 13.0909 8.61559C13.0909 8.41476 12.9281 8.25195 12.7273 8.25195Z" fill="#373A4C"/>
<path d="M12.7273 5.70703H4.72727C4.52644 5.70703 4.36363 5.86984 4.36363 6.07067C4.36363 6.2715 4.52644 6.4343 4.72727 6.4343H12.7273C12.9281 6.4343 13.0909 6.2715 13.0909 6.07067C13.0909 5.86984 12.9281 5.70703 12.7273 5.70703Z" fill="#373A4C"/>
<path d="M12.7273 10.7979H4.72727C4.52644 10.7979 4.36363 10.9607 4.36363 11.1615C4.36363 11.3623 4.52644 11.5251 4.72727 11.5251H12.7273C12.9281 11.5251 13.0909 11.3623 13.0909 11.1615C13.0909 10.9607 12.9281 10.7979 12.7273 10.7979Z" fill="#373A4C"/>
<path d="M22.9091 2.43404H20.7273C20.534 2.4329 20.3482 2.50881 20.2109 2.64495L18.9745 3.88858H17.8182V3.16131C17.8182 1.95631 16.8414 0.979492 15.6364 0.979492H2.54545C1.34045 0.979492 0.363632 1.95631 0.363632 3.16131V14.7977C0.363632 16.0027 1.34045 16.9795 2.54545 16.9795H15.6364C16.8414 16.9795 17.8182 16.0027 17.8182 14.7977V14.0704H18.9745L20.2182 15.314C20.3536 15.4484 20.5365 15.5241 20.7273 15.5249H22.9091C23.3108 15.5249 23.6364 15.1994 23.6364 14.7977V3.16131C23.6364 2.75963 23.3108 2.43404 22.9091 2.43404ZM22.1818 14.0704H21.0255L19.7818 12.8268C19.6464 12.6924 19.4635 12.6167 19.2727 12.6159H17.0909C16.6892 12.6159 16.3636 12.9414 16.3636 13.3431V14.7977C16.3636 15.1994 16.038 15.5249 15.6364 15.5249H2.54545C2.14377 15.5249 1.81818 15.1994 1.81818 14.7977V3.16131C1.81818 2.75963 2.14377 2.43404 2.54545 2.43404H15.6364C16.038 2.43404 16.3636 2.75963 16.3636 3.16131V10.434H17.8182V5.34313H19.2727C19.466 5.34426 19.6519 5.26836 19.7891 5.13222L21.0255 3.88858H22.1818V14.0704Z" fill="#373A4C"/>
</svg>
