<svg width="33" height="30" viewBox="0 0 33 30" fill="none" xmlns="http://www.w3.org/2000/svg">
  <path d="M28.5256 4.45134H15.2879L12.9193 1.94816C11.9092 0.848526 10.7548 0.313965 9.39029 0.313965H3.7014C1.72303 0.313965 0.113525 1.92347 0.113525 3.90184V26.1402C0.113525 28.1186 1.72303 29.7281 3.7014 29.7281H28.5256C30.504 29.7281 32.1135 28.1186 32.1135 26.1402V8.03922C32.1135 6.06084 30.504 4.45134 28.5256 4.45134ZM31.1438 26.1402C31.1438 27.5839 29.9693 28.7584 28.5256 28.7584H3.7014C2.25772 28.7584 1.08322 27.5839 1.08322 26.1402V11.1422C1.08322 9.69856 2.25772 8.52407 3.7014 8.52407H28.5256C29.9693 8.52407 31.1438 9.69856 31.1438 11.1422V26.1402ZM28.5256 7.55437H3.7014C2.66939 7.55437 1.73841 7.99293 1.08322 8.69279V3.90184C1.08322 2.45816 2.25772 1.28366 3.7014 1.28366H9.39029C10.4841 1.28366 11.3793 1.70406 12.2075 2.60665C12.2092 2.60846 12.2109 2.61034 12.2126 2.61208L14.7271 5.26938C14.8186 5.36615 14.9459 5.42104 15.0792 5.42104H28.5256C29.9693 5.42104 31.1438 6.59553 31.1438 8.03922V8.69279C30.4886 7.99293 29.5577 7.55437 28.5256 7.55437Z" fill="black"/>
  <path d="M28.0085 10.6572H21.2852C21.0175 10.6572 20.8004 10.8742 20.8004 11.1421C20.8004 11.4099 21.0175 11.6269 21.2852 11.6269H28.0085C28.2762 11.6269 28.4933 11.4099 28.4933 11.1421C28.4933 10.8742 28.2762 10.6572 28.0085 10.6572Z" fill="black"/>
  <path d="M28.0085 13.2432H21.2852C21.0175 13.2432 20.8004 13.4602 20.8004 13.728C20.8004 13.9958 21.0175 14.2129 21.2852 14.2129H28.0085C28.2762 14.2129 28.4933 13.9958 28.4933 13.728C28.4933 13.4602 28.2762 13.2432 28.0085 13.2432Z" fill="black"/>
</svg>