<?xml version="1.0" standalone="no"?>
<!DOCTYPE svg PUBLIC "-//W3C//DTD SVG 20010904//EN"
 "http://www.w3.org/TR/2001/REC-SVG-20010904/DTD/svg10.dtd">
<svg version="1.0" xmlns="http://www.w3.org/2000/svg"
 width="512.000000pt" height="512.000000pt" viewBox="0 0 512.000000 512.000000"
 preserveAspectRatio="xMidYMid meet">

<g transform="translate(0.000000,512.000000) scale(0.100000,-0.100000)"
fill="#000000" stroke="none">
<path d="M4391 5109 c-149 -29 -214 -66 -510 -288 -159 -119 -258 -188 -265
-182 -6 4 -60 48 -120 96 -123 99 -203 140 -315 161 -273 53 -549 -131 -607
-405 -11 -53 -14 -195 -14 -711 0 -607 2 -650 20 -735 29 -131 59 -185 164
-290 96 -97 145 -131 242 -167 59 -23 63 -23 739 -26 468 -2 700 0 745 8 284
49 480 330 426 611 -21 111 -62 190 -161 314 -49 61 -92 115 -97 121 -5 7 64
113 193 295 267 377 284 412 284 599 -1 176 -54 301 -184 430 -145 144 -347
207 -540 169z m192 -435 c45 -23 66 -44 88 -86 20 -40 25 -102 10 -140 -5 -13
-121 -184 -259 -380 -268 -383 -274 -395 -252 -479 18 -66 31 -86 176 -280
143 -191 150 -209 119 -269 -8 -16 -24 -34 -34 -40 -13 -6 -238 -10 -653 -10
l-634 0 -46 29 c-30 19 -52 44 -66 72 -21 44 -21 53 -22 684 0 352 0 648 0
657 0 10 13 24 30 33 61 32 76 25 287 -133 230 -172 216 -163 259 -172 76 -17
106 -1 482 262 196 138 366 254 377 258 34 14 104 11 138 -6z"/>
<path d="M624 2545 c-269 -58 -452 -335 -400 -606 21 -111 62 -190 161 -314
49 -60 92 -115 97 -121 5 -7 -64 -113 -193 -295 -111 -156 -217 -315 -235
-352 -40 -84 -58 -187 -51 -288 20 -252 196 -466 449 -547 83 -26 254 -23 348
7 120 37 171 69 439 270 158 119 258 188 265 183 6 -5 61 -48 121 -97 205
-164 361 -204 565 -145 178 52 328 222 360 410 8 45 10 278 8 745 -3 676 -3
680 -26 739 -36 97 -70 146 -167 242 -108 107 -162 137 -299 164 -92 19 -140
20 -739 19 -493 0 -656 -4 -703 -14z m1398 -444 c30 -19 52 -44 67 -73 21 -44
21 -51 21 -667 0 -685 2 -668 -61 -690 -18 -6 -42 -11 -54 -11 -14 0 -106 63
-229 155 -127 95 -221 158 -245 165 -42 11 -90 5 -135 -18 -62 -31 -686 -475
-686 -487 0 -23 -42 -45 -88 -45 -43 0 -91 19 -126 49 -47 41 -70 135 -47 193
5 13 121 184 259 380 268 383 274 395 252 479 -18 66 -31 86 -176 280 -142
191 -150 209 -119 269 8 16 23 34 32 39 12 7 240 10 654 11 l635 0 46 -29z"/>
</g>
</svg>
