<svg width="33" height="22" viewBox="0 0 33 22" fill="none" xmlns="http://www.w3.org/2000/svg">
  <path d="M13.0039 1.95262C12.681 0.908047 11.7141 0.195801 10.6203 0.195801H7.91188C6.81514 0.195801 5.84576 0.912691 5.52505 1.96262L0.423559 18.6567C0.201063 19.382 0.336173 20.1691 0.788389 20.7786C1.23931 21.3878 1.95246 21.7476 2.71095 21.7476C3.78603 21.7476 4.7287 21.0307 5.01634 19.9955L6.06516 16.2155H12.2363L13.3658 19.9719C13.6825 21.026 14.6526 21.7476 15.7553 21.7476C16.549 21.7476 17.2948 21.3705 17.7646 20.7323C18.2355 20.0936 18.3739 19.2697 18.1392 18.5125L13.0039 1.95262ZM6.76883 12.5709L8.04628 7.99755C8.3975 6.75048 8.71867 5.12064 9.03933 3.841H9.10034C9.42112 5.12064 9.8071 6.71894 10.189 7.99755L11.5325 12.5709H6.76883Z" fill="black"/>
  <path d="M32.2478 18.343V13.8914C32.2478 10.8812 30.8852 8.36719 26.6157 8.36719C25.0307 8.36719 23.7125 8.65779 22.7515 9.00011C22.1129 9.22783 21.7616 9.91002 21.9471 10.5619L21.9598 10.6048C22.0573 10.9478 22.2924 11.2357 22.6089 11.4014C22.9246 11.5672 23.2938 11.5965 23.6324 11.4822C24.3322 11.2461 25.1346 11.09 25.9096 11.09C27.8741 11.09 28.2412 12.0591 28.2412 12.7398V12.9238C23.7103 12.897 20.7255 14.4939 20.7255 17.8197C20.7255 19.8628 22.2702 21.747 24.864 21.747C26.3817 21.747 27.6895 21.1964 28.5286 20.1754H28.6059L28.7088 20.7355C28.7867 21.1544 29.1515 21.4591 29.5783 21.4591H31.4335C31.6801 21.4591 31.9151 21.3568 32.0819 21.1764C32.2497 20.996 32.3347 20.7537 32.3158 20.5084C32.2676 19.878 32.2478 19.1213 32.2478 18.343ZM28.3702 16.7982C28.3702 17.0335 28.3451 17.2697 28.2916 17.4788C28.0302 18.2907 27.2185 18.9451 26.2232 18.9451C25.3338 18.9451 24.6522 18.4479 24.6522 17.4269C24.6522 15.882 26.2766 15.3849 28.3702 15.4105V16.7982Z" fill="black"/>
</svg>
