<svg width="65" height="65" viewBox="0 0 65 65" fill="none" xmlns="http://www.w3.org/2000/svg">
<g clip-path="url(#clip0)">
<path d="M32.3044 29.2984C32.1487 29.2984 31.994 29.2643 31.85 29.1971L13.7167 20.6637C13.3434 20.4877 13.1044 20.1112 13.1044 19.6984C13.1044 19.2856 13.3434 18.9091 13.7167 18.7331L31.85 10.1997C32.138 10.0643 32.4708 10.0643 32.7588 10.1997L50.8922 18.7331C51.2655 18.9091 51.5044 19.2856 51.5044 19.6984C51.5044 20.1112 51.2655 20.4877 50.8922 20.6637L32.7588 29.1971C32.6148 29.2643 32.4602 29.2984 32.3044 29.2984ZM16.6767 19.6984L32.3044 27.0531L47.9322 19.6984L32.3044 12.3437L16.6767 19.6984Z" fill="#373A4C"/>
<path d="M32.3044 37.832C32.1412 37.832 31.977 37.7947 31.8276 37.72L19.0276 31.32C18.666 31.1387 18.4378 30.7696 18.4378 30.3654V22.2086C18.4378 21.8438 18.6244 21.5035 18.9327 21.3083C19.241 21.112 19.6282 21.0896 19.9578 21.2432L32.3044 27.0534L44.65 21.2432C44.9807 21.0886 45.3679 21.112 45.6751 21.3083C45.9844 21.5035 46.1711 21.8438 46.1711 22.2086V30.3654C46.1711 30.7696 45.9428 31.1387 45.5812 31.32L32.7812 37.72C32.6319 37.7947 32.4676 37.832 32.3044 37.832ZM20.5711 29.7062L32.3044 35.5728L44.0378 29.7062V23.8896L32.7588 29.1974C32.4708 29.3328 32.138 29.3328 31.85 29.1974L20.5711 23.8896V29.7062Z" fill="#373A4C"/>
<path d="M50.4378 20.7652H32.3044C31.7156 20.7652 31.2378 20.2873 31.2378 19.6985C31.2378 19.1097 31.7156 18.6318 32.3044 18.6318H50.4378C51.0266 18.6318 51.5044 19.1097 51.5044 19.6985C51.5044 20.2873 51.0266 20.7652 50.4378 20.7652Z" fill="#373A4C"/>
<path d="M50.4378 30.3652C49.849 30.3652 49.3711 29.8873 49.3711 29.2985V19.6985C49.3711 19.1097 49.849 18.6318 50.4378 18.6318C51.0266 18.6318 51.5044 19.1097 51.5044 19.6985V29.2985C51.5044 29.8873 51.0266 30.3652 50.4378 30.3652Z" fill="#373A4C"/>
<path d="M32.3044 22.8985C31.7156 22.8985 31.2378 22.4207 31.2378 21.8319V17.5652C31.2378 16.9764 31.7156 16.4985 32.3044 16.4985C32.8932 16.4985 33.3711 16.9764 33.3711 17.5652V21.8319C33.3711 22.4207 32.8932 22.8985 32.3044 22.8985Z" fill="#373A4C"/>
<path d="M48.3034 33.5654C48.1007 33.5654 47.8948 33.5078 47.7124 33.3862C47.2228 33.0598 47.0906 32.3974 47.417 31.9067L49.5503 28.7067C49.8767 28.216 50.538 28.0827 51.0298 28.4112C51.5194 28.7376 51.6516 29.4 51.3252 29.8907L49.1919 33.0907C48.986 33.399 48.6479 33.5654 48.3034 33.5654Z" fill="#373A4C"/>
<path d="M52.5722 33.5654C52.2276 33.5654 51.8895 33.399 51.6836 33.0907L49.5503 29.8907C49.2239 29.4011 49.3562 28.7376 49.8458 28.4112C50.3354 28.0827 50.9978 28.216 51.3252 28.7067L53.4586 31.9067C53.785 32.3963 53.6527 33.0598 53.1631 33.3862C52.9807 33.5078 52.7748 33.5654 52.5722 33.5654Z" fill="#373A4C"/>
<path d="M32.3044 32.4984C31.7156 32.4984 31.2378 32.0205 31.2378 31.4317V28.2317C31.2378 27.6429 31.7156 27.165 32.3044 27.165C32.8932 27.165 33.3711 27.6429 33.3711 28.2317V31.4317C33.3711 32.0205 32.8932 32.4984 32.3044 32.4984Z" fill="#373A4C"/>
<path d="M63.2378 42.0988H1.37111C0.78231 42.0988 0.304443 41.6209 0.304443 41.0321V5.83316C0.304443 3.4801 2.21911 1.56543 4.57218 1.56543H60.0367C62.3898 1.56543 64.3044 3.4801 64.3044 5.83316V41.0321C64.3044 41.6209 63.8266 42.0988 63.2378 42.0988ZM2.43778 39.9654H62.1711V5.83316C62.1711 4.65556 61.2143 3.69876 60.0367 3.69876H4.57218C3.39458 3.69876 2.43778 4.65556 2.43778 5.83316V39.9654Z" fill="#373A4C"/>
<path d="M60.0367 50.632H4.57218C2.21911 50.632 0.304443 48.7173 0.304443 46.3643V41.032C0.304443 40.4432 0.78231 39.9653 1.37111 39.9653H63.2378C63.8266 39.9653 64.3044 40.4432 64.3044 41.032V46.3643C64.3044 48.7173 62.3898 50.632 60.0367 50.632ZM2.43778 42.0987V46.3643C2.43778 47.5419 3.39458 48.4987 4.57218 48.4987H60.0367C61.2143 48.4987 62.1711 47.5419 62.1711 46.3643V42.0987H2.43778Z" fill="#373A4C"/>
<path d="M35.5044 46.3653H29.1044C28.5156 46.3653 28.0378 45.8874 28.0378 45.2986C28.0378 44.7098 28.5156 44.2319 29.1044 44.2319H35.5044C36.0933 44.2319 36.5711 44.7098 36.5711 45.2986C36.5711 45.8874 36.0933 46.3653 35.5044 46.3653Z" fill="#373A4C"/>
<path d="M58.9711 42.0987H5.63777C5.04897 42.0987 4.57111 41.6208 4.57111 41.032V6.8987C4.57111 6.3099 5.04897 5.83203 5.63777 5.83203H58.9711C59.5599 5.83203 60.0378 6.3099 60.0378 6.8987V41.032C60.0378 41.6208 59.5599 42.0987 58.9711 42.0987ZM6.70444 39.9654H57.9044V7.96536H6.70444V39.9654Z" fill="#373A4C"/>
<path d="M46.1711 63.4317H18.4378C16.6735 63.4317 15.2378 61.996 15.2378 60.2317C15.2378 58.4675 16.6735 57.0317 18.4378 57.0317H46.1711C47.9354 57.0317 49.3711 58.4675 49.3711 60.2317C49.3711 61.996 47.9354 63.4317 46.1711 63.4317ZM18.4378 59.1651C17.85 59.1651 17.3711 59.644 17.3711 60.2317C17.3711 60.8195 17.85 61.2984 18.4378 61.2984H46.1711C46.7589 61.2984 47.2378 60.8195 47.2378 60.2317C47.2378 59.644 46.7589 59.1651 46.1711 59.1651H18.4378Z" fill="#373A4C"/>
<path d="M44.0378 59.1652H20.5711C19.9823 59.1652 19.5044 58.6873 19.5044 58.0985C19.5044 57.5097 19.9823 57.0319 20.5711 57.0319C24.1103 57.0319 25.9044 54.5199 25.9044 49.5652C25.9044 48.9764 26.3823 48.4985 26.9711 48.4985H37.6378C38.2266 48.4985 38.7044 48.9764 38.7044 49.5652C38.7044 54.5199 40.4986 57.0319 44.0378 57.0319C44.6266 57.0319 45.1044 57.5097 45.1044 58.0985C45.1044 58.6873 44.6266 59.1652 44.0378 59.1652ZM25.7668 57.0319H38.8431C37.529 55.5769 36.7556 53.4105 36.601 50.6319H28.009C27.8532 53.4105 27.081 55.5769 25.7668 57.0319Z" fill="#373A4C"/>
</g>
<defs>
<clipPath id="clip0">
<rect width="64" height="64" fill="white" transform="translate(0.304443 0.498535)"/>
</clipPath>
</defs>
</svg>
