<svg width="33" height="23" viewBox="0 0 33 23" fill="none" xmlns="http://www.w3.org/2000/svg">
  <path d="M31.2866 2.95166H28.2866C28.0208 2.9501 27.7654 3.05447 27.5766 3.24166L25.8766 4.95166H24.2866V3.95166C24.2866 2.29479 22.9435 0.95166 21.2866 0.95166H3.28662C1.62975 0.95166 0.286621 2.29479 0.286621 3.95166V19.9517C0.286621 21.6085 1.62975 22.9517 3.28662 22.9517H21.2866C22.9435 22.9517 24.2866 21.6085 24.2866 19.9517V18.9517H25.8766L27.5866 20.6617C27.7729 20.8464 28.0243 20.9505 28.2866 20.9517H31.2866C31.8389 20.9517 32.2866 20.504 32.2866 19.9517V3.95166C32.2866 3.39935 31.8389 2.95166 31.2866 2.95166ZM30.2866 18.9517H28.6966L26.9866 17.2417C26.8004 17.0569 26.5489 16.9528 26.2866 16.9517H23.2866C22.7343 16.9517 22.2866 17.3993 22.2866 17.9517V19.9517C22.2866 20.504 21.8389 20.9517 21.2866 20.9517H3.28662C2.73431 20.9517 2.28662 20.504 2.28662 19.9517V3.95166C2.28662 3.39935 2.73431 2.95166 3.28662 2.95166H21.2866C21.8389 2.95166 22.2866 3.39935 22.2866 3.95166V13.9517H24.2866V6.95166H26.2866C26.5524 6.95322 26.8079 6.84885 26.9966 6.66166L28.6966 4.95166H30.2866V18.9517Z" fill="black"/>
</svg>