<svg width="22" height="21" viewBox="0 0 22 21" fill="none" xmlns="http://www.w3.org/2000/svg">
<g clip-path="url(#clip0_7493_6139)">
<path d="M20.1538 3.89931C19.9142 3.61172 19.6141 3.38041 19.275 3.22183C18.9359 3.06325 18.5661 2.98127 18.1917 2.98173H4.41684L4.38106 2.68268C4.30783 2.06109 4.00907 1.48798 3.54142 1.07199C3.07377 0.656007 2.46975 0.426072 1.84386 0.425781L1.65472 0.425781C1.42876 0.425781 1.21205 0.515543 1.05227 0.675321C0.892497 0.835099 0.802734 1.0518 0.802734 1.27776C0.802734 1.50372 0.892497 1.72043 1.05227 1.88021C1.21205 2.03998 1.42876 2.12975 1.65472 2.12975H1.84386C2.05254 2.12977 2.25395 2.20639 2.40989 2.34506C2.56583 2.48372 2.66546 2.6748 2.68988 2.88205L3.8622 12.8502C3.98391 13.8869 4.482 14.8428 5.26193 15.5366C6.04186 16.2303 7.04935 16.6135 8.09315 16.6134H16.9904C17.2164 16.6134 17.4331 16.5237 17.5928 16.3639C17.7526 16.2041 17.8424 15.9874 17.8424 15.7615C17.8424 15.5355 17.7526 15.3188 17.5928 15.159C17.4331 14.9992 17.2164 14.9095 16.9904 14.9095H8.09315C7.56582 14.908 7.05186 14.7435 6.62172 14.4384C6.19158 14.1333 5.86633 13.7027 5.69056 13.2055H15.8462C16.845 13.2056 17.812 12.8547 18.5783 12.2142C19.3447 11.5737 19.8616 10.6842 20.0388 9.70131L20.7076 5.99178C20.7744 5.62373 20.7594 5.2455 20.6637 4.8839C20.568 4.52229 20.3939 4.18616 20.1538 3.89931ZM19.0352 5.68933L18.3655 9.39886C18.2591 9.98928 17.9484 10.5235 17.4878 10.9079C17.0273 11.2923 16.4461 11.5025 15.8462 11.5016H5.41963L4.61791 4.68569H18.1917C18.3169 4.68495 18.4406 4.71178 18.5542 4.76429C18.6679 4.8168 18.7685 4.8937 18.849 4.98952C18.9295 5.08533 18.988 5.19771 19.0201 5.31866C19.0523 5.43962 19.0574 5.56617 19.0352 5.68933Z" fill="#0772A0"/>
<path d="M6.76671 20.8728C7.70778 20.8728 8.47067 20.1099 8.47067 19.1688C8.47067 18.2277 7.70778 17.4648 6.76671 17.4648C5.82564 17.4648 5.06274 18.2277 5.06274 19.1688C5.06274 20.1099 5.82564 20.8728 6.76671 20.8728Z" fill="#0772A0"/>
<path d="M15.2865 20.8728C16.2276 20.8728 16.9905 20.1099 16.9905 19.1688C16.9905 18.2277 16.2276 17.4648 15.2865 17.4648C14.3454 17.4648 13.5825 18.2277 13.5825 19.1688C13.5825 20.1099 14.3454 20.8728 15.2865 20.8728Z" fill="#0772A0"/>
</g>
<defs>
<clipPath id="clip0_7493_6139">
<rect width="20.4476" height="20.4476" fill="white" transform="translate(0.802734 0.425781)"/>
</clipPath>
</defs>
</svg>
