<svg width="64" height="64" viewBox="0 0 64 64" fill="none" xmlns="http://www.w3.org/2000/svg">
<path d="M63.0125 12.9134H57.8015C57.9529 12.701 58.0901 12.4779 58.2102 12.244C58.8997 10.8973 58.9929 9.31134 58.4661 7.89239L56.887 3.64823C56.3606 2.23075 55.2546 1.09109 53.8537 0.521753C52.4514 -0.0480732 50.863 -0.00266287 49.4953 0.646754L36.9982 6.58184C36.3805 6.14043 35.6251 5.87969 34.8097 5.87969H29.1906C28.3751 5.87969 27.6193 6.14092 27.0016 6.58233L14.5049 0.646266C13.1373 -0.00266281 11.5489 -0.0480732 10.1465 0.521753C8.74564 1.09109 7.63968 2.23075 7.11331 3.64774L5.5342 7.89288C5.00735 9.31134 5.10061 10.8973 5.79055 12.244C5.91018 12.4779 6.04788 12.7015 6.19924 12.9134H0.987797C0.442385 12.9134 0 13.3553 0 13.9012V21.0121C0 21.5575 0.442385 21.9999 0.987797 21.9999C1.53321 21.9999 1.97559 21.5575 1.97559 21.0121V14.8885H8.83646C8.94633 14.9271 9.05766 14.9627 9.17045 14.994L17.463 17.2767C15.6202 20.1005 13.9947 23.0707 12.6031 26.1483H1.97559V24.9628C1.97559 24.4174 1.53321 23.9755 0.987797 23.9755C0.442385 23.9755 0 24.4174 0 24.9628V27.1361C0 27.6815 0.442385 28.1239 0.987797 28.1239H4.51027V63.0933C4.51027 63.6392 4.95266 64.0811 5.49807 64.0811H58.5022C59.0476 64.0811 59.49 63.6392 59.49 63.0933V57.3579C59.49 56.8125 59.0476 56.3701 58.5022 56.3701C57.9563 56.3701 57.5144 56.8125 57.5144 57.3579V62.106H37.9259V28.7313C40.7238 34.0307 42.6179 39.7929 43.4894 45.7466C43.5471 46.1406 43.8361 46.4614 44.2224 46.56C44.3034 46.581 44.3854 46.5908 44.467 46.5908C44.7722 46.5908 45.0661 46.4492 45.2556 46.1977C46.6755 44.3139 47.9958 42.2973 49.1877 40.1918C51.1838 41.5512 53.1218 43.0669 54.9607 44.7075C55.2707 44.9839 55.7209 45.0371 56.0867 44.8398C56.4524 44.643 56.656 44.2383 56.5955 43.8271C55.8069 38.4477 54.3367 33.1576 52.2527 28.1239H57.5139V53.4068C57.5139 53.9527 57.9563 54.3946 58.5017 54.3946C59.0476 54.3946 59.4895 53.9527 59.4895 53.4068V28.1239H63.0125C63.5579 28.1239 63.9998 27.6815 63.9998 27.1361V13.9012C64.0003 13.3553 63.5584 12.9134 63.0125 12.9134ZM50.3425 2.43094C51.2238 2.01297 52.2063 1.98465 53.1101 2.35184C54.0124 2.71854 54.696 3.42313 55.0354 4.33671L56.614 8.58038C56.9538 9.49445 56.8957 10.4759 56.4514 11.3436C56.0076 12.2108 55.2453 12.8309 54.3059 13.0892L38.5827 17.4178V12.6707C42.1169 10.5067 50.9275 6.04326 53.1203 9.13849C53.4353 9.58332 54.0515 9.68927 54.4968 9.37384C54.9421 9.05841 55.0476 8.44171 54.7322 7.99688C53.0398 5.60771 49.4734 5.4915 44.131 7.65216C41.9304 8.54181 39.8986 9.62775 38.5827 10.3812V9.65216C38.5827 9.12335 38.4728 8.61944 38.2756 8.16192L50.3425 2.43094ZM29.1906 7.85479H34.8097C35.8009 7.85479 36.6071 8.66144 36.6071 9.65216V17.8168C36.6071 18.808 35.8009 19.6141 34.8097 19.6141H29.1906C28.1993 19.6141 27.3932 18.808 27.3932 17.8168V9.65216C27.3932 8.66095 28.1993 7.85479 29.1906 7.85479ZM27.5304 26.1478C28.4752 24.578 29.5035 23.0565 30.61 21.5897H33.3893C34.4962 23.0565 35.5246 24.578 36.4689 26.1478H27.5304ZM7.54886 11.3436C7.10452 10.4759 7.04642 9.49445 7.38577 8.58087L8.96537 4.33622C9.30424 3.42313 9.98783 2.71854 10.8902 2.35184C11.7935 1.98465 12.7764 2.01297 13.6573 2.43094L25.7247 8.1629C25.5275 8.61993 25.4176 9.12335 25.4176 9.65265V10.4378C24.1061 9.68293 22.0284 8.56476 19.7716 7.65216C14.4297 5.4915 10.8628 5.60771 9.17045 7.99688C8.85502 8.44171 8.96049 9.05841 9.4058 9.37384C9.85112 9.68927 10.4673 9.58381 10.7823 9.13849C12.9957 6.01396 21.9513 10.5911 25.4176 12.7308V17.4178L9.69486 13.0897C8.75492 12.8309 7.99271 12.2108 7.54886 11.3436ZM25.8609 19.5887C26.3526 20.5087 27.214 21.2025 28.2457 21.4696C23.6261 27.9149 20.4459 35.3207 18.9542 43.1049C17.9049 41.5717 16.9239 39.9648 16.0259 38.3051C15.8946 38.062 15.668 37.8852 15.4 37.8173C15.1324 37.7495 14.8487 37.7968 14.6177 37.9477C12.9727 39.0205 11.3619 40.1972 9.80619 41.4609C11.4083 33.0517 14.7183 24.9432 19.4649 17.828L25.8609 19.5887ZM6.48587 28.1239H11.7476C9.66361 33.1576 8.19339 38.4472 7.40433 43.8271C7.34427 44.2383 7.54739 44.643 7.91312 44.8398C8.27933 45.0366 8.72904 44.9839 9.0391 44.7075C10.878 43.0669 12.816 41.5512 14.8126 40.1918C16.0045 42.2973 17.3243 44.3134 18.7447 46.1977C18.9342 46.4492 19.2281 46.5913 19.5333 46.5913C19.6148 46.5913 19.6969 46.581 19.7779 46.56C20.1641 46.4614 20.4527 46.1406 20.5103 45.7466C21.3824 39.7929 23.2765 34.0302 26.0738 28.7309V62.106H6.48587V28.1239ZM28.0494 62.106V28.1239H35.9508V62.106H28.0494ZM49.3825 37.9477C49.1516 37.7968 48.8674 37.7499 48.6003 37.8178C48.3327 37.8857 48.1057 38.0624 47.9743 38.3051C47.0764 39.9648 46.0954 41.5722 45.0461 43.1049C43.5544 35.3202 40.3742 27.9149 35.7541 21.4701C36.7858 21.2035 37.6476 20.5091 38.1393 19.5887L44.5368 17.8275C49.2824 24.9442 52.5925 33.0527 54.1946 41.4609C52.6384 40.1972 51.0276 39.0205 49.3825 37.9477ZM62.0247 26.1483H51.3977C50.0061 23.0707 48.3806 20.1005 46.5383 17.2767L54.8298 14.994C54.9426 14.9627 55.0539 14.9271 55.1638 14.8885H62.0247V26.1483Z" fill="white"/>
</svg>
