<svg width="20" height="18" viewBox="0 0 20 18" fill="none" xmlns="http://www.w3.org/2000/svg">
    <path d="M8.80256 2.21635L1.74422 13.9997C1.5987 14.2517 1.5217 14.5374 1.52088 14.8284C1.52007 15.1195 1.59547 15.4056 1.73958 15.6585C1.88369 15.9113 2.09149 16.122 2.34231 16.2696C2.59313 16.4171 2.87822 16.4965 3.16922 16.4997H17.2859C17.5769 16.4965 17.862 16.4171 18.1128 16.2696C18.3636 16.122 18.5714 15.9113 18.7155 15.6585C18.8596 15.4056 18.935 15.1195 18.9342 14.8284C18.9334 14.5374 18.8564 14.2517 18.7109 13.9997L11.6526 2.21635C11.504 1.97144 11.2948 1.76895 11.0452 1.62842C10.7956 1.48789 10.514 1.41406 10.2276 1.41406C9.94111 1.41406 9.6595 1.48789 9.40989 1.62842C9.16029 1.76895 8.95112 1.97144 8.80256 2.21635V2.21635Z" stroke="#E04265" stroke-width="2" stroke-linecap="round" stroke-linejoin="round"/>
    <path d="M10.2275 6.5V9.83333" stroke="#E04265" stroke-width="2" stroke-linecap="round" stroke-linejoin="round"/>
    <path d="M10.2275 13.168H10.2359" stroke="#E04265" stroke-width="2" stroke-linecap="round" stroke-linejoin="round"/>
</svg>
