<svg width="81" height="92" viewBox="0 0 81 92" fill="none" xmlns="http://www.w3.org/2000/svg">
<path d="M66.065 72.105C65.8077 62.4135 65.4061 43.559 64.9479 43.9303C71.7574 43.5779 75.0523 43.2317 79.7844 42.9485C80.4119 42.9108 80.7258 42.1682 80.3241 41.6836C75.2217 35.5414 66.0901 27.1211 60.0213 20.0286C54.4545 13.534 46.8291 6.42896 40.1452 1.0986C39.7687 0.79652 39.3419 0.481859 38.8586 0.507032C38.3566 0.532205 37.9486 0.916092 37.5972 1.2811C24.6937 14.4969 -0.165446 40.7081 0.512361 42.5961C0.656709 42.9926 1.29686 42.8793 1.71735 42.8793C5.7026 42.873 14.8467 42.5898 15.4869 42.9171C15.1166 51.7024 15.8697 59.7388 15.7944 68.1466C15.7756 70.3618 15.6814 72.5707 15.5873 74.7796C15.3739 79.9653 15.1542 85.1446 14.9409 90.3302C28.1142 90.6512 47.6764 89.1785 63.9312 90.2295C64.2952 90.2547 64.6843 90.2673 64.9793 90.0596C65.199 89.9086 66.1341 74.6475 66.065 72.105Z" fill="#E04265"/>
<path d="M35.3569 74.9678C35.5138 76.1949 35.8025 77.4032 35.8903 78.6304C35.997 80.1408 35.7836 81.6574 35.746 83.1678C35.7146 84.4768 35.8087 85.7921 36.0284 87.0822C36.1225 87.6234 36.2229 88.2276 35.9029 88.6744C35.7899 88.8317 35.633 88.9576 35.4761 89.0709C35.0054 89.4296 31.7482 90.1911 31.2775 90.5498C32.6205 90.3799 36.7752 90.0023 38.1183 90.2099C38.0179 89.1401 38.4195 88.1017 38.6769 87.057C38.9718 85.8739 39.0911 84.6467 39.2103 83.4321C39.612 79.2597 40.0136 75.0936 40.4153 70.9212C40.9362 73.2182 41.181 75.5719 41.1496 77.9256C41.1245 79.9331 42.4675 85.704 42.6998 86.6669C42.9634 87.743 42.819 88.8632 42.8755 89.9708C42.888 90.1785 42.9257 90.4176 43.1077 90.512C43.2018 90.5624 43.3211 90.5624 43.4278 90.5561C44.4194 90.512 48.4799 90.254 49.4653 90.2099C49.2895 89.5303 45.8503 89.1149 45.3545 88.624C45.1976 88.473 45.0219 88.322 44.9403 88.1143C44.8713 87.9381 44.8838 87.743 44.9026 87.5542C45.229 83.0545 45.3231 78.5486 45.411 74.0364C45.4424 72.3875 45.4737 70.7198 45.0658 69.1276C44.6767 67.5984 43.8922 66.1698 43.6474 64.6091C43.6035 64.3448 43.5721 64.0616 43.3901 63.8665C43.2646 63.7281 43.0889 63.6588 42.9131 63.5959C41.6015 63.1302 40.0387 63.0106 38.6894 63.4071C37.5409 63.7469 37.133 65.1755 36.656 66.2453C35.451 68.964 34.9866 72.0162 35.3569 74.9678Z" fill="white"/>
<path d="M33.4489 52.3751C31.7858 53.7847 32.1937 56.3901 32.1749 56.6167C31.9113 60.3486 31.9176 61.3995 32.4134 65.1125C32.6016 66.5537 33.7062 67.8564 33.8945 69.2975C34.1204 70.9967 34.3777 72.7714 35.3819 74.1559C35.8212 73.9734 36.2605 73.7846 36.6936 73.6021C36.5304 71.8526 36.3735 70.0968 36.2103 68.3473C35.884 64.7664 35.5514 61.1919 35.1246 57.6236C36.2417 60.7828 36.907 64.1056 37.1015 67.4536C39.2103 67.3278 41.3378 67.4851 43.4089 67.9067C43.9926 64.6091 44.57 61.2989 44.7896 57.9572C45.1724 63.1176 44.6829 68.3473 43.3336 73.3441C44.0365 73.7217 44.7394 74.1056 45.436 74.4832C46.7289 70.0716 49.0447 65.8614 49.1389 61.2674C49.1828 59.2536 48.7874 57.2586 48.3983 55.2825C48.2791 54.6784 48.1598 54.0742 47.9151 53.5141C47.1055 51.645 45.0469 50.5752 43.0261 50.3801C41.2311 50.2039 39.5303 50.7011 37.7668 50.915C36.2166 51.0975 34.6664 51.343 33.4489 52.3751Z" fill="white"/>
<path d="M37.7103 49.3732C38.9216 49.3543 40.1329 49.3354 41.3441 49.3165C40.8044 49.8452 41.0492 50.7388 40.9738 51.4877C40.9676 51.5758 40.9487 51.6639 40.886 51.7268C40.8169 51.7898 40.7103 51.7961 40.6161 51.7961C40.1203 51.8024 38.5513 52.3562 38.1622 52.0667C37.8484 51.8401 37.8421 49.8263 37.7103 49.3732Z" fill="white"/>
<path d="M37.1581 44.5337C37.0828 45.1316 37.0263 45.7357 36.9886 46.3399C36.9133 47.5419 36.9761 48.9201 37.8986 49.6942C38.7145 50.3801 39.9885 50.3172 40.8797 49.7319C41.7709 49.1467 42.3169 48.146 42.5868 47.1139C42.706 46.6608 42.7814 46.1888 42.7688 45.7168C42.7249 44.4708 41.9969 43.2751 40.9174 42.6646C40.1706 42.243 38.771 41.922 37.9677 42.4003C37.271 42.822 37.2522 43.7785 37.1581 44.5337Z" fill="white"/>
<path d="M52.3208 58.9578C52.007 59.1214 51.6744 59.3228 51.5363 59.6501C51.4108 59.9395 51.4547 60.2668 51.4986 60.5815C51.8627 63.0736 52.3647 64.8986 52.7287 67.3907C52.7852 67.7746 52.7664 68.4102 52.6158 68.7689C52.4589 69.1339 51.5426 70.166 51.4171 70.5436C50.2748 73.9294 50.6451 75.0244 50.7895 76.39C50.9338 77.7557 52.2392 80.7764 52.8166 82.1232C54.5299 81.4687 58.1951 81.3239 60.0214 81.1792C60.4168 79.0332 60.5612 77.5794 60.6239 74.7286C60.6365 74.0678 60.3227 72.8721 60.1219 72.2428C59.7892 71.2107 58.6909 70.6191 58.1951 69.65C57.6428 68.5864 57.9253 67.2963 58.214 66.1321C58.5089 64.9552 58.8039 63.7784 59.0989 62.6016C59.2244 62.0981 59.3499 61.5695 59.1993 61.0786C58.9984 60.4115 58.3709 59.9899 57.8688 59.5116C57.3479 59.0207 56.9337 58.4292 56.5822 57.7998C56.3186 57.3279 56.0738 56.8181 55.6471 56.4846C55.2203 56.151 54.5362 56.0692 54.1659 56.4657C53.8145 56.8496 54.5299 57.7054 54.2413 58.1334C53.9777 58.5299 52.7476 58.7438 52.3208 58.9578Z" fill="white"/>
<path d="M52.5845 54.2127C52.3774 55.0308 52.4966 55.9119 52.8481 56.6796C53.0552 57.1264 53.3627 57.5607 53.8271 57.7306C54.3731 57.932 54.9945 57.7117 55.4777 57.3782C56.7329 56.4971 57.3668 55.7356 57.4797 54.2001C57.4986 53.9358 57.7684 52.7652 56.8208 52.3499C55.0698 51.5821 53.1054 52.1359 52.5845 54.2127Z" fill="white"/>
<path d="M55.3018 53.1428C55.1387 53.2058 55.0069 53.3442 54.9567 53.5079C55.0885 53.4449 55.2265 53.382 55.3583 53.3191C54.9378 53.275 54.5676 52.9666 54.3793 52.589C54.191 52.2051 54.1596 51.7646 54.2098 51.343C54.2663 50.915 54.4169 50.4745 54.7558 50.2102C55.1952 49.8704 55.8667 49.927 56.2872 50.292C56.7077 50.657 56.8708 51.2675 56.7579 51.8087C56.5821 52.6583 55.7349 53.3065 54.8751 53.2624C54.8374 53.319 54.7809 53.168 54.85 53.1869L55.3018 53.1428Z" fill="white"/>
<path d="M50.7267 60.852C49.8606 62.5575 49.7288 64.2252 49.4527 66.1194C49.4276 66.2894 49.4025 66.4593 49.3146 66.604C49.2079 66.7802 49.0196 66.8872 48.8439 66.9879C47.526 67.7368 46.4716 68.5675 45.1599 69.3164C45.5992 69.5492 45.9444 69.9646 46.0825 70.4429C47.1745 69.9394 48.2665 69.436 49.3648 68.9325C49.6912 68.7815 50.0301 68.6241 50.2686 68.3472C50.4443 68.1396 50.551 67.8815 50.6514 67.6298C51.2727 66.1006 51.8941 64.5713 52.5091 63.0484C52.6974 62.5889 52.8857 62.1232 52.9296 61.6324C53.0739 59.9584 52.4463 57.4663 50.7267 60.852Z" fill="white"/>
<path d="M61.0255 64.4895C61.2389 65.2196 61.4962 65.9559 61.4649 66.7173C61.446 67.1893 61.3142 67.6487 61.1699 68.1018C60.4544 70.4303 59.5758 72.7022 58.534 74.9048C57.9126 74.5965 57.285 74.2881 56.6637 73.9797C57.1846 71.8526 57.9817 69.7884 59.0235 67.8564C59.2055 67.5166 59.4001 67.1767 59.4314 66.7929C59.4565 66.5034 59.3875 66.2202 59.2996 65.9433C58.8478 64.5399 57.9252 63.9735 56.9901 62.9729C56.2683 62.1988 55.3207 59.6941 55.9796 58.8256C57.8248 56.3776 60.718 63.4575 61.0255 64.4895Z" fill="white"/>
<path d="M24.2421 51.0976C27.0851 49.8704 27.355 52.9604 27.3487 53.9044C27.3487 54.6029 27.2859 55.3203 26.947 55.9308C26.6081 56.5412 25.9303 57.0006 25.24 56.8999C24.3927 56.7741 23.8906 55.8993 23.5831 55.1001C22.9806 53.5205 22.3907 51.8968 24.2421 51.0976Z" fill="white"/>
<path d="M24.5496 56.8685C24.6625 57.1769 24.8383 57.4789 24.8006 57.8062C24.7253 58.4984 23.8592 58.725 23.263 59.0774C22.4095 59.5809 20.7149 60.2354 20.558 61.2171C20.4011 62.1989 20.0371 69.3983 20.0434 69.8199C20.0497 70.1346 20.1501 70.4367 20.2505 70.7325C20.9534 72.7652 22.9429 76.4719 23.6458 78.5046C23.9722 78.1018 24.1667 74.5965 24.5872 74.2881C24.1605 72.8596 23.3446 71.6198 22.9178 70.1912C22.83 69.9018 22.7484 69.6123 22.7421 69.3102C22.7358 69.027 22.8049 68.7438 22.8739 68.4669C23.3132 66.6859 23.2065 65.3958 23.6458 63.6148C24.0349 65.5846 23.5768 69.9521 23.3007 70.9276C22.4911 73.8099 22.422 77.8501 22.2651 80.8394C22.1835 82.356 22.2777 83.8727 22.2149 85.3894C22.127 87.3655 21.7693 89.3164 21.4179 91.2547C22.0455 91.0785 23.9471 90.7764 24.5935 90.8771C25.127 86.4529 26.3194 77.1893 26.5642 76.5096C27.0662 75.1503 27.1353 74.3385 27.2482 72.8973C27.493 74.4832 27.6248 74.9741 27.8633 76.56C28.0955 78.0767 28.3277 79.5933 28.5599 81.1037C28.7294 82.2113 28.0014 89.2849 29.3068 91.4749C29.3758 91.1162 31.2272 91.5693 31.4406 91.2672C31.5222 91.1477 31.5347 90.9966 31.541 90.8519C31.7356 86.1949 31.7105 81.5316 31.4343 76.8809C31.3151 74.8042 32.4573 73.426 31.8799 71.431C31.2523 69.2913 31.6226 66.9565 30.6812 63.4323C33.0096 65.0623 33.5556 68.1774 34.6163 70.8206C34.6476 70.015 34.9552 69.2158 35.4635 68.5928C33.5995 66.9754 34.3276 63.4953 33.0786 61.3681C32.3067 60.0529 31.4594 59.0208 29.9909 58.618C29.4699 58.4733 28.2775 57.7307 27.8445 57.416C27.3926 57.0825 26.8215 55.4085 26.7273 54.4897C25.2839 54.2568 24.1291 55.7357 24.5496 56.8685Z" fill="white"/>
<path d="M53.6576 82.2176C54.2601 84.5587 54.6367 86.2578 54.4421 88.6681C53.9714 88.8443 50.6954 89.9771 50.413 90.3862C51.4673 90.0841 55.6973 90.5058 56.7894 90.5561C56.3249 89.1464 56.0613 86.9815 56.3563 85.5278C56.6576 84.0741 57.0969 82.6329 57.1848 81.154C57.1973 80.9589 57.2036 80.7576 57.1157 80.5813C56.9274 80.1975 56.4254 80.1219 55.9986 80.1031C55.4777 80.0779 53.9652 79.7192 53.5635 80.1094C53.1116 80.5436 53.5384 81.7267 53.6576 82.2176Z" fill="white"/>
<path d="M55.8103 82.3434C55.7977 82.5448 59.921 84.7474 60.624 86.2263C61.1135 87.2395 60.3792 88.4667 60.2537 89.5869C61.3896 88.8821 62.1992 87.6675 62.4126 86.3459C62.6134 86.4843 62.8205 86.6228 63.0214 86.7612C63.1908 86.5032 63.4042 86.2704 63.649 86.0879C63.3101 85.2005 62.3561 84.7474 61.5277 84.2817C60.8624 83.8978 60.2286 83.451 59.6512 82.9475C59.4943 82.8091 59.3374 82.6643 59.2558 82.4755C59.1617 82.2679 59.1679 82.035 59.1679 81.8085C59.193 80.3988 59.2244 78.9891 59.2495 77.5794C58.4587 77.1955 57.624 76.8997 56.7705 76.7047C55.9232 76.5096 55.3082 76.239 55.3207 77.3214C55.3333 78.9954 55.9358 80.6128 55.8103 82.3434Z" fill="white"/>
<path d="M39.4425 52.4506C39.273 52.5576 39.0471 52.9541 39.1538 53.124C39.1914 53.1869 39.2542 53.231 39.3107 53.275L39.9634 53.7407C40.1768 53.8918 40.478 53.8351 40.6035 53.6086C40.7604 53.3317 40.9299 53.0673 41.1182 52.8156C41.25 52.6394 41.1684 52.4191 40.9675 52.3184C40.6349 52.1611 39.7876 52.2303 39.4425 52.4506Z" fill="#1B2C3E"/>
<path d="M25.5663 59.1151C25.4094 59.2158 25.196 59.5871 25.2964 59.7507C25.334 59.8137 25.3905 59.8514 25.4407 59.8892L26.0558 60.3297C26.2566 60.4744 26.539 60.4178 26.6583 60.2038C26.8026 59.9458 26.9658 59.6941 27.1415 59.4612C27.2671 59.2913 27.1855 59.0899 26.9972 58.9955C26.6834 58.8445 25.8926 58.9074 25.5663 59.1151Z" fill="#1B2C3E"/>
<path d="M40.6411 64.1434C40.0324 63.5707 39.6621 63.3567 39.1475 62.5134C39.1851 62.2177 39.2855 60.594 39.3295 60.2982C39.5491 58.6431 39.4801 56.8306 39.6997 55.1755C39.7876 54.5147 39.6558 52.8533 39.6997 52.6394C39.7437 52.4254 40.3022 52.2932 40.365 52.482C40.7918 55.0182 41.5261 59.8892 41.9528 62.4316C42.0344 62.9477 41.5512 63.1994 40.6411 64.1434Z" fill="#1B2C3E"/>
<path d="M26.7901 69.6562C26.2629 69.1654 25.9429 68.9829 25.5035 68.2528C25.5349 68.0011 25.6228 66.5977 25.6604 66.3397C25.8487 64.9111 25.7922 63.3504 25.9805 61.9219C26.0558 61.3492 25.9429 59.9206 25.9805 59.7318C26.0182 59.5493 26.4951 59.436 26.5516 59.5997C26.9156 61.7834 27.5558 65.9873 27.9198 68.1773C27.9888 68.6241 27.5746 68.8381 26.7901 69.6562Z" fill="#1B2C3E"/>
<path d="M54.6115 58.618C54.4484 58.7124 54.2224 59.0774 54.3103 59.241C54.3417 59.3039 54.3982 59.348 54.4484 59.3857L55.0383 59.8514C55.2329 60.0025 55.5153 59.9584 55.6471 59.7507C55.804 59.499 55.9734 59.2599 56.1617 59.027C56.2935 58.8634 56.2245 58.6557 56.0425 58.555C55.7412 58.3977 54.9442 58.4229 54.6115 58.618Z" fill="#1B2C3E"/>
<path d="M55.3835 69.1969C54.8815 68.6808 54.5677 68.4857 54.1534 67.7369C54.1974 67.4851 54.3417 66.088 54.3919 65.8363C54.643 64.4203 54.6492 62.8533 54.9003 61.4373C55.0007 60.8709 54.9505 59.4361 54.9944 59.2536C55.0384 59.0711 55.5216 58.9767 55.5718 59.1466C55.8417 61.3492 56.2998 65.572 56.576 67.7746C56.6325 68.2214 56.1994 68.4165 55.3835 69.1969Z" fill="#1B2C3E"/>
</svg>
