<svg width="60" height="78" viewBox="0 0 60 78" fill="none" xmlns="http://www.w3.org/2000/svg">
<g clip-path="url(#clip0)">
<path d="M7.48145 22.4508C7.84456 22.2002 8.23073 21.944 8.67454 21.9155C9.37194 21.8757 9.98289 22.4508 10.1962 23.1055C10.4094 23.7603 10.3172 24.4721 10.2019 25.1496C9.95408 25.1724 9.70624 25.1496 9.46993 25.0756C9.68895 24.6714 9.68894 24.1931 9.68318 23.7319C9.68318 23.4756 9.67165 23.2023 9.51027 22.9974C9.44111 22.912 9.35465 22.8493 9.26243 22.7981C8.81286 22.5646 8.27684 22.6728 7.86186 22.9233C7.59096 23.0885 7.17598 23.9141 6.95119 23.9482C6.69759 23.9881 6.39212 23.7205 6.38635 23.4586C6.37482 23.06 7.1875 22.65 7.48145 22.4508Z" fill="#373A4C"/>
<path d="M10.3748 24.324C11.1702 24.6144 11.9829 24.9447 12.6342 25.4628C13.0031 25.7532 13.0895 26.277 12.8186 26.6585L9.59671 31.2193C9.50449 31.3502 9.40075 31.4926 9.25089 31.5552C8.96847 31.6805 8.6457 31.504 8.38634 31.3389C6.24801 29.9837 3.89642 28.9702 1.44109 28.3325C1.34887 28.3097 1.25665 28.2813 1.19325 28.2129C1.07798 28.0706 1.17596 27.8656 1.27395 27.7062C1.8849 26.7439 3.34311 22.781 3.7581 22.6045C4.2653 22.3881 5.86761 22.9917 6.73216 23.1966C7.97135 23.4927 9.18173 23.8913 10.3748 24.324Z" fill="#373A4C"/>
<path d="M7.54477 21.6422C7.23929 22.0294 6.89347 22.9233 8.1903 22.855C9.54477 22.7867 8.89347 22.4109 9.16437 22.149C9.33728 21.9839 9.85025 22.8322 10.0635 22.7127C10.2364 22.6159 10.173 22.2116 9.88483 21.5397C9.64852 20.9817 10.6456 20.7483 10.8877 20.1903C11.0549 19.7974 11.2796 19.3533 11.0894 18.9661C11.026 18.8295 10.9108 18.7213 10.784 18.6416C10.4497 18.4309 10.0116 18.4252 9.63699 18.5505C9.26235 18.6757 9.44102 19.3021 9.16437 19.5811C8.48425 20.2643 8.13843 20.8906 7.54477 21.6422Z" fill="#FF8C7F"/>
<path d="M37.983 6.16076C38.4902 5.79635 39.1761 5.63692 39.7524 5.88176C40.3288 6.12659 40.6977 6.83263 40.4441 7.40202C40.398 7.5102 40.3288 7.60699 40.2366 7.68101C39.787 8.04542 39.0781 7.64116 38.5421 7.86891C38.2769 7.97709 38.0637 8.23901 37.7813 8.22762C36.2885 8.1593 37.4181 6.56502 37.983 6.16076Z" fill="#FF8C7F"/>
<path d="M20.1559 78C19.8619 66.0999 19.4931 53.3684 19.2107 41.6163C13.7697 41.2121 8.53054 41.5822 3.07233 41.6163C3.06656 46.0632 3.47002 65.1319 3.46426 67.4152C3.45273 70.6436 3.68328 74.709 3.57953 77.8748C3.568 78.2221 14.6285 77.6413 20.1559 78Z" fill="#FFCA10"/>
<path d="M34.7784 77.6981C34.6343 76.417 34.6343 69.5104 34.6343 59.4038C34.6343 51.3812 34.4153 43.2959 34.4153 35.279C40.0868 34.9658 46.738 35.353 51.4931 35.205C51.7121 43.387 52.1329 47.7713 52.0695 53.8808C52.0003 60.9354 52.594 76.9807 52.2827 77.9088C52.519 77.8063 40.5997 77.3394 34.7784 77.6981Z" fill="#E04265"/>
<path d="M18.1845 20.3157C16.2421 21.6936 14.7666 23.7035 14.0346 25.9526C13.8098 26.6472 13.6542 27.3647 13.4986 28.0821C13.3602 28.7369 13.2162 29.386 13.0778 30.0408C12.9914 30.4507 12.8934 30.8778 12.6052 31.1852C12.3862 31.4187 12.0749 31.5553 11.781 31.692C9.55045 32.7283 7.54469 34.2371 5.94238 36.0876C6.87034 36.3894 7.65996 37.0841 8.06342 37.9609C10.9568 36.0819 13.8502 34.203 16.7435 32.3297C16.8819 32.2386 17.026 32.1475 17.1355 32.0279C17.343 31.8002 17.4409 31.4984 17.5332 31.2023C18.219 29.0443 19.1989 26.9775 20.4496 25.0757C20.3285 25.0359 25.9712 26.0266 28.8992 26.6472C29.3487 26.744 29.8156 26.8465 30.1845 27.1198C30.5649 27.3988 30.8012 27.8259 31.0894 28.196C31.9712 29.3347 35.1239 33.2464 35.7291 33.8898C35.8156 33.9809 35.9136 34.0777 36.0404 34.1005C36.1787 34.1233 36.3113 34.0663 36.4381 34.0037C37.0951 33.6848 37.9366 32.6542 38.5937 32.3354C36.7435 30.5361 35.2968 28.3383 34.3862 25.9412C34.0922 25.1668 33.8156 24.3241 33.1528 23.8174C32.6167 23.4131 31.9251 23.2936 31.2623 23.1569C29.4352 22.7697 27.6772 22.1035 25.9654 21.369C25.1989 21.0388 24.4323 20.6972 23.6138 20.5263C22.9222 20.3783 22.2075 20.3612 21.5043 20.3441C20.196 20.3043 19.4813 20.3498 18.1845 20.3157Z" fill="#373A4C"/>
<path d="M3.94238 37.9437C4.98561 38.6839 6.0346 39.4298 6.98561 40.2839C7.40636 40.6597 7.81558 41.064 8.32855 41.3031C8.84152 41.5423 9.49282 41.5878 9.94238 41.2519C9.95967 40.5743 8.99137 40.227 8.58792 39.6804C7.98849 38.8718 8.23057 37.7502 8.4957 36.7822C7.8444 36.4804 7.18734 36.1786 6.53604 35.8769C6.45535 35.8427 6.37466 35.8029 6.28244 35.8029C6.17869 35.8029 6.08647 35.8541 5.99426 35.9053C5.76947 36.0363 5.54469 36.1616 5.3199 36.2925C5.05477 36.4463 4.78388 36.6 4.56486 36.8107C4.2248 37.1352 3.98849 37.4939 3.94238 37.9437Z" fill="#373A4C"/>
<path d="M37.6314 35.3417C39.2971 35.188 41.2337 35.2221 42.8821 34.9204C43.0839 34.8805 43.2914 34.5503 43.153 34.4022C42.7726 33.998 41.6257 33.9012 40.8591 33.6506C39.6026 33.2407 38.0176 31.3674 36.7957 32.4094C35.9427 33.1325 36.4095 35.4556 37.6314 35.3417Z" fill="#373A4C"/>
<path d="M27.8677 12.4068C27.6429 12.2872 27.372 12.4068 27.3029 12.6516L25.6487 18.5732C25.4066 19.4501 25.1588 20.344 25.2164 21.2493C22.0695 22.6728 18.5075 22.8835 15.0435 22.9233C15.8043 21.0557 16.5306 19.1654 17.2107 17.2693C17.7986 15.6409 18.4729 14.7242 18.4037 13.0957C18.398 13.0046 18.2827 12.9705 18.2308 13.0445C17.6314 13.8872 16.6919 13.9441 15.6718 14.4395C15.1646 14.6843 14.617 14.8665 14.1732 15.2082C13.6833 15.584 13.3605 16.1249 13.0493 16.6544C12.4038 17.7476 11.7582 18.8465 11.1127 19.9397C10.0522 19.6949 8.94554 19.6209 7.8562 19.7291C8.8879 17.8046 9.91384 15.88 10.9455 13.9555C11.1588 13.5513 11.3778 13.147 11.6891 12.8054C12.2193 12.2246 12.9628 11.8886 13.6833 11.5641C14.9225 11.0118 16.9859 9.5314 18.2424 9.01895C19.8274 8.36985 20.081 8.49512 21.7352 8.05669C23.228 7.66382 25.4354 7.5841 26.8418 8.21043C27.3778 8.44957 27.8389 8.81397 28.3288 9.14422C29.4758 9.91288 30.7611 10.4538 32.0349 10.9947C32.1617 11.046 32.2942 11.1029 32.4268 11.0858C32.5882 11.063 32.715 10.9549 32.8303 10.8467C34.1559 9.6225 35.4873 8.39832 36.813 7.17415C36.9513 7.04888 37.1069 6.91223 37.2914 6.92931C37.4354 6.9407 37.5507 7.03749 37.6602 7.12859C37.9945 7.41329 38.3288 7.69229 38.6631 7.97698C38.7899 8.08516 38.9225 8.21043 38.9167 8.37555C38.9109 8.47234 38.8533 8.55775 38.7957 8.63746C37.1991 10.915 35.4758 13.3007 32.9167 14.4281C32.738 14.5078 32.5478 14.5818 32.3519 14.5761C32.1213 14.5705 31.9023 14.4566 31.7006 14.3484C30.5997 13.7448 28.715 12.8452 27.8677 12.4068Z" fill="#373A4C"/>
<path d="M21.5563 7.91437C21.124 7.91437 20.9799 8.34141 21.2681 9.05314C21.5563 9.76487 22.9626 9.5542 24.0059 9.44602C25.0491 9.33783 25.2681 8.48376 24.905 8.23323C24.5419 7.9827 23.9309 7.55566 23.2854 7.58982C22.6399 7.62399 21.5563 7.91437 21.5563 7.91437Z" fill="#FFCA10"/>
<path d="M21.7121 6.86671C21.7178 6.80977 21.7236 6.74714 21.7582 6.70159C21.8331 6.6048 21.9887 6.63326 22.104 6.66743C22.7956 6.86102 23.5161 6.93504 24.2308 6.88949C24.1443 7.48165 24.2942 8.10797 24.64 8.59764C23.9484 8.74568 22.4729 9.22396 21.7985 8.92219C21.0377 8.58625 21.6544 7.53859 21.7121 6.86671Z" fill="#FF8C7F"/>
<path d="M23.4181 1.82764C21.47 2.85253 20.0694 6.37702 22.7495 7.43608C23.712 7.81757 24.8705 7.55565 25.6602 6.88947C26.4498 6.22329 26.8878 5.20979 26.9628 4.18489C26.9973 3.74647 26.9628 3.29096 26.7553 2.90378C26.225 1.93013 24.3691 1.32658 23.4181 1.82764Z" fill="#FF8C7F"/>
<path d="M27.5507 2.00994C27.3144 1.64553 26.9397 1.37792 26.7495 0.990741C26.617 0.72313 26.519 0.421356 26.2884 0.233459C26.006 1.17484e-05 25.6025 0.0113994 25.2337 1.17485e-05C24.3691 -0.0227636 23.8561 0.586478 23.7409 0.734518C23.493 1.04199 23.0204 0.990741 22.617 0.985047C21.8273 0.973659 20.9397 1.38362 20.7668 2.14659C20.6515 2.64196 20.859 3.18287 20.6688 3.65546C20.5247 4.01417 20.1732 4.28178 20.1213 4.65758C20.0925 4.86256 20.1616 5.06754 20.2769 5.24404C20.6227 5.76218 21.3547 5.91592 21.9657 5.76788C22.5766 5.61984 23.0953 5.22696 23.591 4.83978C24.0867 4.4526 24.5881 4.04834 25.1876 3.86613C25.7293 3.70101 26.323 3.72379 26.836 3.49603C27.3547 3.27397 28.1847 3.00067 27.5507 2.00994Z" fill="#373A4C"/>
<path d="M8.01172 19.3362C8.16158 19.2109 11.3604 19.5127 11.3604 19.7291C11.3604 19.9454 11.395 20.4066 11.2163 20.4408C11.0377 20.475 7.57945 20.1561 7.61403 20.0479C7.64861 19.9397 7.75812 19.5469 8.01172 19.3362Z" fill="#FFCA10"/>
<path d="M37.2625 6.80975C37.4757 6.89516 39.2452 8.26737 39.2452 8.37556C39.2452 8.48374 39.1357 9.12145 38.957 9.12145C38.7783 9.12145 36.5766 7.37914 36.542 7.23679C36.5074 7.09444 37.0838 6.73573 37.2625 6.80975Z" fill="#FFCA10"/>
<path d="M3.32009 25.4343C3.86188 25.7475 4.42672 26.0151 5.01461 26.2315C5.19905 26.2998 5.56793 26.0379 5.29127 25.9354C4.73219 25.7304 4.20193 25.4742 3.68897 25.1781C3.52182 25.0813 3.10107 25.3091 3.32009 25.4343Z" fill="white"/>
<path d="M8.3977 27.5639C8.6513 27.6664 8.89914 27.7689 9.15274 27.8714C9.37752 27.9625 9.63113 28.1105 9.8732 28.1618C10.1037 28.2073 10.4553 28.1105 10.3977 27.8201C10.3574 27.6152 9.88473 27.7347 9.92507 27.9454C9.93084 27.934 9.9366 27.9226 9.94237 27.9112C10.0231 27.8885 10.1037 27.8714 10.1787 27.8486C9.94237 27.8429 9.64265 27.655 9.4294 27.5696C9.17579 27.4671 8.92796 27.3646 8.67435 27.2621C8.48415 27.1881 8.12104 27.4557 8.3977 27.5639Z" fill="white"/>
<path d="M23.3257 2.26616C23.5678 2.17506 23.8099 2.10674 24.0635 2.07257C24.1615 2.05549 24.3171 2.00425 24.3228 1.88467C24.3286 1.77649 24.2018 1.71955 24.1038 1.73663C23.758 1.78788 23.4352 1.87329 23.1125 1.99855C22.8185 2.11243 23.0836 2.36296 23.3257 2.26616Z" fill="white"/>
<path d="M23.637 3.23978C23.8445 3.17146 24.052 3.10883 24.2595 3.0405C24.3171 3.02342 24.4958 2.96648 24.467 2.87538C24.4439 2.78997 24.2652 2.81844 24.2076 2.83552C24.0001 2.90385 23.7926 2.96648 23.5851 3.03481C23.5275 3.05189 23.3488 3.10883 23.3776 3.19993C23.4065 3.28533 23.5794 3.25687 23.637 3.23978Z" fill="white"/>
<path d="M21.8445 2.74439C21.5966 2.90382 21.4007 3.1031 21.2566 3.35932C21.222 3.42196 21.66 3.39918 21.7234 3.27961C21.8445 3.06324 21.9943 2.89812 22.2076 2.76147C22.294 2.70453 22.2537 2.68176 22.1788 2.65898C22.0866 2.63051 21.9194 2.69315 21.8445 2.74439Z" fill="white"/>
<path d="M22.1615 3.96862C22.0289 4.11097 21.9252 4.25901 21.8503 4.44121C21.7465 4.68036 22.2191 4.66897 22.2998 4.48677C22.3632 4.33873 22.4439 4.21346 22.5534 4.09958C22.7552 3.88322 22.2998 3.82058 22.1615 3.96862Z" fill="white"/>
<path d="M25.4124 1.22986C25.4642 1.14446 25.5507 1.00211 25.666 0.996415C25.787 0.985028 26.1847 0.797131 25.8735 0.819906C25.5046 0.848375 25.1415 0.990721 24.9455 1.31527C24.9224 1.36082 25.3432 1.34374 25.4124 1.22986Z" fill="white"/>
<path d="M25.4872 2.40282C25.6774 2.36866 25.8733 2.34019 26.0635 2.30603C26.2537 2.27186 26.4843 2.06688 26.15 2.12382C25.9598 2.15799 25.7638 2.18646 25.5736 2.22062C25.3776 2.25478 25.1529 2.45976 25.4872 2.40282Z" fill="white"/>
<path d="M25.3487 3.47324C25.4121 3.47324 25.4755 3.47324 25.5389 3.47324C25.6369 3.47324 25.8098 3.44477 25.8502 3.33659C25.8848 3.23979 25.8156 3.16577 25.7119 3.16577C25.6485 3.16577 25.5851 3.16577 25.5217 3.16577C25.4237 3.16577 25.2508 3.19424 25.2104 3.30242C25.1758 3.39922 25.245 3.47324 25.3487 3.47324Z" fill="white"/>
<path d="M26.9684 2.90379C27.0491 2.85824 27.1355 2.83546 27.222 2.82407C27.2912 2.81269 27.4871 2.76714 27.4929 2.67603C27.4987 2.57924 27.3603 2.58493 27.2912 2.59632C27.0721 2.63048 26.8762 2.69312 26.6802 2.78991C26.5995 2.82977 26.5592 2.8924 26.6341 2.95503C26.709 3.01197 26.8992 2.93795 26.9684 2.90379Z" fill="white"/>
<path d="M21.7177 1.96998C21.954 1.84471 22.1961 1.73653 22.4497 1.64543C22.5074 1.62265 22.6342 1.56571 22.588 1.49169C22.5419 1.42337 22.3344 1.486 22.2826 1.50877C21.9944 1.61126 21.7177 1.73653 21.4468 1.87887C21.1644 2.02691 21.5909 2.03261 21.7177 1.96998Z" fill="white"/>
<path d="M20.7899 4.43547C20.7381 4.64045 20.7727 4.81696 20.8764 4.99916C20.9744 5.16998 21.4297 5.00486 21.3087 4.79419C21.228 4.65753 21.228 4.53796 21.2626 4.38992C21.326 4.17925 20.8418 4.23619 20.7899 4.43547Z" fill="white"/>
<path d="M23.1531 17.4287C23.8044 18.0038 24.0753 18.5675 24.5825 19.2622C24.7496 18.5106 25.1588 18.1576 25.8447 17.2352C25.7006 16.3469 25.6199 14.7014 25.522 13.6423C25.424 12.5833 24.8995 9.58832 24.7266 9.54846C24.5767 9.75344 24.2309 9.67373 23.9715 9.65664C23.8678 9.65095 23.2799 12.4182 23.2799 12.8737C23.2741 14.3655 23.2395 15.937 23.1531 17.4287Z" fill="#FFCA10"/>
<path d="M0.322753 45.454C7.09509 45.454 13.8674 45.454 20.6398 45.454C20.83 45.454 21.1354 45.1693 20.8184 45.1693C14.0461 45.1693 7.27376 45.1693 0.501428 45.1693C0.311226 45.1693 -1.32471e-05 45.454 0.322753 45.454Z" fill="white"/>
<path d="M0.887797 50.4988C7.66013 50.8062 14.4325 50.9884 21.2106 51.0567C21.3719 51.0567 21.7178 50.8233 21.4008 50.8233C14.6227 50.755 7.85033 50.5728 1.078 50.2653C0.916616 50.2539 0.570794 50.4817 0.887797 50.4988Z" fill="white"/>
<path d="M0.461135 57.32C7.96546 56.5684 15.4871 56.335 23.026 56.6197C23.1355 56.6254 23.5678 56.4261 23.3315 56.4147C15.758 56.13 8.20177 56.3634 0.662865 57.115C0.5303 57.1321 0.15566 57.3485 0.461135 57.32Z" fill="white"/>
<path d="M1.03761 62.1541C8.67449 61.8011 16.3114 61.8751 23.9483 62.3648C24.1154 62.3762 24.4555 62.137 24.1385 62.1199C16.5073 61.6246 8.87046 61.5563 1.22781 61.9093C1.06643 61.915 0.726367 62.1712 1.03761 62.1541Z" fill="white"/>
<path d="M0.086587 66.487C7.68313 67.8877 15.8215 67.6827 23.5275 68.1553C23.6947 68.1667 24.0347 67.9275 23.7177 67.9048C16.0578 67.4322 7.93097 67.6315 0.380535 66.2422C0.236443 66.2194 -0.178543 66.4357 0.086587 66.487Z" fill="white"/>
<path d="M0.397802 73.3253C8.02316 72.83 15.6601 72.6136 23.3027 72.6705C23.5794 72.6705 23.6601 72.3118 23.3373 72.3061C15.6946 72.2492 8.05774 72.4656 0.432384 72.9609C0.16149 72.9837 0.075035 73.3481 0.397802 73.3253Z" fill="white"/>
<path d="M31.6542 38.5871C39.9367 38.012 48.2306 37.9551 56.5246 38.3992C56.6975 38.4106 57.0318 38.1658 56.7148 38.1487C48.3805 37.6989 40.0519 37.7672 31.7234 38.3423C31.4986 38.3593 31.3257 38.6099 31.6542 38.5871Z" fill="white"/>
<path d="M30.1443 43.2902C38.9397 43.3301 47.7178 43.7913 56.4671 44.6795C56.6054 44.6966 57.0204 44.4631 56.7611 44.4347C47.9772 43.5464 39.1645 43.0795 30.3345 43.0397C30.1616 43.0397 29.8273 43.2902 30.1443 43.2902Z" fill="white"/>
<path d="M30.8879 49.673C31.0378 51.2046 55.2568 49.7242 57.9599 49.6559C58.1213 49.6502 58.4672 49.4054 58.1501 49.4168C55.7928 49.4737 31.4816 50.7548 31.3605 49.5477C31.349 49.4168 30.8764 49.5136 30.8879 49.673Z" fill="white"/>
<path d="M31.5103 56.0331C40.2538 55.8395 48.9743 56.2722 57.6544 57.3313C57.8734 57.3598 58.1443 57.0523 57.8215 57.0124C49.1011 55.9477 40.3403 55.515 31.5564 55.7142C31.297 55.7199 31.1818 56.0445 31.5103 56.0331Z" fill="white"/>
<path d="M31.7984 61.6814C40.7783 61.6586 49.7408 62.0628 58.6803 62.8941C58.8993 62.9169 59.1702 62.6038 58.8474 62.5753C49.8676 61.7383 40.8647 61.3397 31.8445 61.3625C31.5852 61.3625 31.4757 61.6814 31.7984 61.6814Z" fill="white"/>
<path d="M31.5853 67.5232C39.9484 67.2499 48.3057 67.3467 56.6573 67.8193C56.836 67.8307 57.1588 67.5745 56.8418 67.5574C48.4902 67.0848 40.1328 66.988 31.7697 67.2613C31.5968 67.267 31.2683 67.5346 31.5853 67.5232Z" fill="white"/>
<path d="M30.4268 73.0805C40.1732 72.8527 49.9253 72.7047 59.6775 72.6477C59.8158 72.6477 60.1905 72.4427 59.8792 72.4427C50.1271 72.4997 40.3807 72.6477 30.6285 72.8755C30.4902 72.8812 30.1155 73.0862 30.4268 73.0805Z" fill="white"/>
<path d="M1.27393 23.4244C4.63416 25.2863 8.39208 26.8863 12.0866 27.9852C12.1904 28.0137 12.5996 27.8485 12.4785 27.8144C8.83012 26.7325 5.04338 25.1098 1.7235 23.2764C1.60246 23.208 1.22782 23.4016 1.27393 23.4244Z" fill="white"/>
<path d="M12.3751 30.2969C12.3117 30.9119 13.182 31.2706 13.6546 31.4357C13.8103 31.4926 14.208 31.2649 13.9428 31.1738C13.5797 31.0485 12.8016 30.7183 12.8477 30.2457C12.865 30.0464 12.3924 30.1318 12.3751 30.2969Z" fill="white"/>
<path d="M11.6488 31.2364C11.7294 31.7944 12.1905 32.193 12.7496 32.2442C12.8476 32.2556 13.0148 32.2328 13.0839 32.1531C13.1358 32.0905 13.1588 32.0279 13.0493 32.0165C12.5594 31.9709 12.1905 31.5837 12.1271 31.1112C12.1041 30.9859 11.6257 31.0827 11.6488 31.2364Z" fill="white"/>
<path d="M28.6172 27.2849C29.3376 27.1141 29.9659 26.7212 30.3866 26.1177C30.4385 26.0436 30.2137 26.0664 30.1964 26.0664C30.1042 26.0778 29.9774 26.1177 29.9198 26.1974C29.5912 26.6643 29.1359 27.0002 28.5768 27.1369C28.5307 27.1482 28.3405 27.1995 28.3578 27.2735C28.3809 27.3418 28.5826 27.2906 28.6172 27.2849Z" fill="white"/>
<path d="M30.0004 27.5696C30.45 27.3133 30.865 27.0229 31.2569 26.687C31.3434 26.613 31.182 26.5902 31.1417 26.5902C31.0321 26.5902 30.9111 26.6358 30.8247 26.7041C30.4846 27.0002 30.1157 27.2564 29.718 27.4841C29.4471 27.6436 29.8736 27.6436 30.0004 27.5696Z" fill="white"/>
<path d="M14.0981 22.9747C18.346 22.7583 23.7523 22.7412 27.101 19.7462C27.2105 19.6494 26.761 19.6893 26.6688 19.7747C23.5909 22.5305 18.2422 22.5704 14.2999 22.7754C14.1616 22.7754 13.7869 22.986 14.0981 22.9747Z" fill="white"/>
<path d="M19.9828 7.49308C19.954 7.44753 19.9252 7.40198 19.8906 7.35074C19.7983 7.2027 19.4641 7.32796 19.4352 7.47031C19.2969 8.13079 19.5793 8.70018 19.9367 9.24109C20.3862 9.92435 20.8877 10.7158 21.4525 11.3137C22.3517 12.2531 23.1701 10.75 23.5217 10.0268C23.6312 9.79909 23.1528 9.82187 23.0721 9.99268C22.9396 10.2717 22.5361 11.2226 22.2076 11.2681C21.8214 11.3193 21.3373 10.3856 21.1528 10.135C20.5937 9.37205 19.6946 8.44965 19.9079 7.43045C19.758 7.47031 19.6024 7.51016 19.4525 7.55002C19.4813 7.59557 19.5102 7.64112 19.5447 7.69237C19.6485 7.8461 20.1038 7.68098 19.9828 7.49308Z" fill="white"/>
<path d="M25.0665 7.75507C25.8676 8.58637 26.1904 9.69098 25.9598 10.8184C26.1039 10.7728 26.2423 10.7273 26.3864 10.676C25.8619 10.4653 25.0031 10.2888 24.6572 9.82193C24.5708 9.70236 24.1155 9.8561 24.2134 9.99844C24.5766 10.4938 25.4584 10.6703 26.006 10.8924C26.1097 10.9322 26.4036 10.8924 26.4325 10.75C26.6688 9.58849 26.3345 8.43264 25.5045 7.57287C25.4008 7.46468 24.9512 7.6355 25.0665 7.75507Z" fill="white"/>
<path d="M32.6284 12.0481C32.7091 11.3592 32.9051 10.5449 33.5506 10.1578C33.7466 10.0382 33.274 10.0951 33.1875 10.1464C32.4728 10.5734 32.2423 11.399 32.1558 12.1734C32.1501 12.2303 32.6169 12.1905 32.6284 12.0481Z" fill="white"/>
<path d="M13.6774 14.394C14.1616 14.952 14.2019 15.7435 13.7869 16.347C13.6486 16.552 14.127 16.5463 14.2365 16.3926C14.7034 15.715 14.6515 14.8154 14.1155 14.1947C13.9771 14.041 13.5276 14.2232 13.6774 14.394Z" fill="white"/>
<path d="M12.7783 14.9292C13.3374 15.362 13.5218 16.1193 13.2221 16.757C13.1875 16.8367 13.6313 16.7968 13.6889 16.6773C14.0002 16.0111 13.81 15.2253 13.2221 14.7698C13.1183 14.6844 12.6976 14.8666 12.7783 14.9292Z" fill="white"/>
<path d="M24.9454 8.7571C24.8013 8.53504 24.4901 8.48379 24.2192 8.4724C23.9137 8.46102 23.591 8.4781 23.3374 8.64322C22.9281 8.90514 22.8301 9.50868 23.0722 9.91864C23.3143 10.3343 23.8388 10.545 24.3229 10.488C24.6572 10.4482 25.2221 10.1635 25.2336 9.83323C25.2394 9.55423 24.9454 8.7571 24.9454 8.7571Z" fill="#FFCA10"/>
<path d="M3.9251 35.7288C5.88476 36.9074 7.88476 38.0234 9.91934 39.071C10.0404 39.1337 10.4208 38.9401 10.3631 38.9116C8.32856 37.8639 6.32856 36.748 4.36891 35.5693C4.25363 35.5067 3.8617 35.6946 3.9251 35.7288Z" fill="white"/>
<path d="M35.8156 34.7609C36.4093 34.0833 37.3833 33.6335 38.1787 33.2121C38.9741 32.7908 39.7868 32.4093 40.6168 32.0677C40.9222 31.9424 40.6398 31.8228 40.4381 31.9082C39.464 32.3125 38.513 32.7623 37.5908 33.2691C36.83 33.6904 35.9539 34.1118 35.3776 34.7722C35.2565 34.9032 35.7234 34.8633 35.8156 34.7609Z" fill="white"/>
</g>
<defs>
<clipPath id="clip0">
<rect width="60" height="78" fill="white"/>
</clipPath>
</defs>
</svg>
