<svg width="92" height="86" viewBox="0 0 92 86" fill="none" xmlns="http://www.w3.org/2000/svg">
<path d="M24.4687 16.2154C24.7624 16.3468 24.9624 17.3665 25.2561 17.4978C25.3561 17.5416 25.4811 17.6355 25.4374 17.7418C25.1124 18.4487 25.0561 19.1494 24.9999 19.9064C24.2812 19.9064 22.8062 19.825 22.7749 18.8554C22.7499 18.1547 23.6937 15.8713 24.4687 16.2154Z" fill="#FF8C7F"/>
<path d="M14.1562 14.4386C14.075 12.7183 14.3125 11.0917 14.5937 9.86557C15.1812 7.29439 16.9375 5.01099 19.2687 3.78483C21.6062 2.55867 24.475 2.41478 26.925 3.40322C28.6125 4.08511 30.1562 4.17269 31.9687 4.30407C32.825 4.36663 33.7125 4.37914 34.4937 4.02255C35.275 3.67222 35.9125 2.86521 35.8125 2.0144C36.35 4.16644 37.0062 6.30596 37.7312 8.40169C37.85 8.74576 37.9937 9.11486 38.3125 9.29003C35.7062 11.2043 32.4437 12.1302 29.3062 11.3357C27.6375 10.9103 26.1187 10.0533 24.5312 9.39638C22.9375 8.73951 20.7125 8.75202 19.075 9.27126C15.6437 10.3723 13.95 14.0195 14.1562 14.4386Z" fill="#E04265"/>
<path d="M62.5437 25.4491C63.7187 24.3293 65.4562 24.029 67.0812 24.0477C66.8312 23.3971 66.6249 20.7697 67.9312 19.6311C69.2437 18.4925 72.0687 18.8428 72.5312 19.7875C73.1499 18.3424 74.7999 17.4165 76.3562 17.6417C77.9124 17.8669 79.2312 19.2182 79.4124 20.7822C80.0749 19.8313 82.5124 19.9939 83.4499 20.6758C84.3937 21.3514 84.8062 22.3461 84.4499 23.3909C84.8499 23.1532 86.6749 22.5526 87.9249 23.8038C89.5937 25.4741 88.1874 26.9317 87.9437 27.4259C89.5687 26.6377 91.7062 27.9952 91.9624 29.7844C92.2187 31.5736 90.8749 33.3503 89.1562 33.9196C87.4374 34.4889 85.4999 34.0072 83.9999 33C83.5687 35.2771 80.8374 36.8035 78.6749 35.9778C77.2499 35.4335 76.2749 34.1385 75.4187 32.8811C74.9624 33.5442 74.1249 33.807 73.3499 34.0259C71.9562 34.4138 70.5187 34.7954 69.0812 34.639C67.6437 34.4826 66.1874 33.6631 65.6874 32.3055C65.6124 32.1054 65.5624 31.8989 65.4249 31.7363C65.2187 31.486 64.8812 31.4047 64.5749 31.2983C62.1374 30.4475 60.2624 27.6261 62.5437 25.4491Z" fill="#C7E7EF"/>
<path d="M67.9187 46.8881C68.8624 46.3689 69.9499 46.0436 71.0124 46.225C72.0749 46.4064 73.0749 47.1759 73.2937 48.2269C73.6124 47.1509 74.0999 45.931 75.1687 45.5994C75.9562 45.3554 76.8312 45.6995 77.4312 46.2688C78.0312 46.8318 78.4124 47.5888 78.7749 48.327C78.7562 47.1259 80.2124 46.25 81.3437 46.6567C82.4687 47.0633 83.0624 48.4459 82.7937 49.6157C83.5562 49.1528 84.6124 49.2404 85.2937 49.8159C85.9749 50.3977 86.2249 51.4237 85.8937 52.2557C85.5124 53.2003 84.5312 53.7634 84.0374 54.6517C84.9812 54.1638 86.2562 54.4453 86.8999 55.2898C87.5499 56.1344 87.4937 57.4356 86.7812 58.2238C86.2874 58.7744 85.5624 59.0496 84.8562 59.2811C79.5499 61.064 73.8812 61.7459 68.2999 61.2705C67.8937 61.2329 67.4749 61.1891 67.1187 61.0015C66.3687 60.6073 66.0624 59.7127 65.8374 58.8995C65.2812 56.8851 64.2249 54.2576 64.3312 52.1556C64.4499 49.9786 66.0624 47.9141 67.9187 46.8881Z" fill="#C7E7EF"/>
<path d="M35.7625 42.8343C34.5875 41.5205 32.2 41.533 31.1312 42.9344C31.7625 41.9897 30.9375 40.6072 29.8375 40.3382C28.7375 40.0692 27.5875 40.5947 26.6812 41.2703C25.7937 39.9628 24.0875 39.2747 22.5437 39.6062C21 39.9378 19.7187 41.264 19.4437 42.8155C18.075 42.4026 16.5812 42.0585 15.2375 42.5528C13.7375 43.1033 12.75 44.6422 12.5125 46.2187C12.275 47.8015 12.6812 49.4155 13.2937 50.8919C12.0437 50.4978 10.7687 50.0974 9.46245 50.1099C8.14995 50.1224 6.7812 50.6104 6.01245 51.6739C5.0937 52.9563 5.24995 54.6892 5.4437 56.2532C2.43745 56.4596 -1.48755 60.2945 1.01245 63.4225C2.62495 65.4369 3.3812 65.6934 4.5562 65.8185C3.6812 66.2877 1.32495 70.5104 7.4437 71.1861C13.1062 71.8117 19.25 71.4363 23.9875 68.2583C26.3 66.7068 28.0937 64.511 29.7562 62.2776C31.4437 60.013 33.05 57.667 34.1875 55.0833C35.2062 52.7624 35.3562 50.504 35.8687 48.0767C36.2312 46.3126 37.1687 44.4108 35.7625 42.8343Z" fill="#C7E7EF"/>
<path d="M10.2687 69.4845C24.0187 53.5819 37.9874 37.4792 55.4374 25.7682C56.5124 25.0487 57.6624 24.323 58.9499 24.248C61.1499 24.1166 62.9874 25.887 64.2749 27.6825C67.4124 32.0741 69.0624 37.3291 70.6687 42.484C72.6375 48.8024 74.5999 55.1209 76.5687 61.4394C78.9999 69.2467 81.6187 77.3732 86.9062 83.4915C87.5937 84.2859 87.0687 85.5309 86.0187 85.5934C68.1999 86.707 2.16245 85.3995 0.643697 83.6479C-1.03755 81.7085 0.949947 80.2446 2.51245 78.4554C5.1187 75.4839 7.6812 72.4748 10.2687 69.4845Z" fill="#373A4C"/>
<path d="M25.7623 18.9743C25.8873 18.9805 26.0248 18.993 26.1248 19.0744C26.2186 19.1494 26.2623 19.2683 26.3061 19.3871C27.3623 22.4025 28.5373 25.3741 29.8373 28.2893C30.1311 28.9462 30.4561 29.6343 31.0373 30.066C31.0936 30.1098 31.1561 30.1598 31.1436 30.2286C31.1311 30.2724 31.0936 30.2975 31.0623 30.3225C29.0248 31.68 28.2561 32.4057 26.2186 33.757C25.5623 34.1949 23.5061 34.4326 22.7811 34.7454C21.5936 32.193 21.2436 30.1848 21.1686 27.3697C21.1061 25.055 21.2998 22.7403 21.5436 20.4444C21.6311 19.5873 21.5123 18.8992 22.4498 18.7616C23.4623 18.6177 24.7311 18.9054 25.7623 18.9743Z" fill="#373A4C"/>
<path d="M26.8373 36.5721C27.8436 36.5909 28.8061 36.2155 29.7186 35.7901C31.6936 34.8705 33.8498 33.9259 35.5373 32.5558C36.3373 33.4129 37.3748 34.2261 38.3998 34.7954C39.4248 35.3647 40.0686 35.9966 40.6373 36.6659C40.8873 36.9662 41.0248 37.5355 41.3873 37.3854C41.4686 37.3541 41.5311 37.2915 41.5936 37.229C42.0998 36.7222 42.6123 36.2093 43.1186 35.7025C41.1748 33.8695 39.4936 31.7488 38.1498 29.4341C38.0123 29.1964 37.8686 28.9461 37.6248 28.8023C37.3936 28.6709 37.1186 28.6646 36.8498 28.6771C35.0936 28.771 33.4748 29.6093 31.7686 30.0034C29.4936 30.5351 25.8123 30.1723 24.3061 32.3932C23.0998 34.1886 24.9123 36.5346 26.8373 36.5721Z" fill="#373A4C"/>
<path d="M22.6875 37.1038C22.725 39.0619 22.8875 41.0138 23.175 42.9531C23.2375 43.3597 23.3 43.7851 23.1687 44.1793C23.0687 44.4858 22.8562 44.7423 22.65 44.9863C21.5562 46.3 20.4625 47.62 19.3625 48.9338C19.225 49.1027 19.075 49.2966 19.1062 49.5156C19.125 49.6407 19.2062 49.747 19.2812 49.8534C19.8187 50.5728 20.3625 51.286 20.9 52.0054C22.55 49.2841 24.8187 46.9381 27.4812 45.199C27.6812 45.0676 27.8937 44.93 28.0187 44.7235C28.125 44.5484 28.1562 44.3357 28.1875 44.1355C28.6187 41.1452 29.05 38.1548 29.4375 35.1582C29.4625 34.9518 29.4875 34.7266 29.3625 34.5577C29.2687 34.4326 29.1062 34.3763 28.9562 34.3262C28.2687 34.0947 27.5812 33.857 26.8937 33.6255C25.9937 33.319 24.2937 32.6934 23.425 33.4066C22.5375 34.1385 22.6625 36.0904 22.6875 37.1038Z" fill="#373A4C"/>
<path d="M41.4501 38.8492C42.7188 38.1861 43.9938 37.523 45.2626 36.8661C45.6188 36.6784 45.9938 36.4782 46.2001 36.1341C46.1563 36.203 44.1001 36.0653 43.8751 36.0591C43.2126 36.0403 42.2563 35.6024 41.6563 35.7901C41.1251 35.959 41.0376 36.3906 41.0126 36.8723C41.0063 37.1664 41.2563 38.9556 41.4501 38.8492Z" fill="#373A4C"/>
<path d="M19.9625 54.708C20.5 55.271 21.35 55.6902 22.05 55.3398C22.3625 55.1834 21.175 54.2388 20.9563 53.5694C20.7688 52.9939 20.6688 52.7812 20.8188 52.1931C20.9563 51.6488 21.375 51.1734 21.2375 50.5853C21.05 49.8033 20.2688 49.5844 19.575 49.7971C18.6688 50.0849 17.6375 50.7104 18.0438 51.2672C19.3938 53.1502 19.2438 53.951 19.9625 54.708Z" fill="#373A4C"/>
<path d="M19.8313 22.2085C19.1438 23.247 18.1063 25.7869 17.5688 26.9067C15.8376 30.5477 15.8751 34.7767 14.5688 38.5865C15.3188 38.5052 15.9063 38.7304 16.6563 38.6491C17.2876 36.1968 18.1813 33.4629 19.0001 31.0732C19.0751 30.8605 19.1501 30.6415 19.2876 30.4538C19.4688 30.2099 20.3438 29.4466 20.6001 29.2902C21.6438 28.6584 23.5751 22.8154 22.7751 21.6518C22.1001 20.6696 22.8001 18.4675 21.7876 19.2057C21.0313 19.7625 20.3438 21.4391 19.8313 22.2085Z" fill="#373A4C"/>
<path d="M31.1625 23.4848C32.1437 23.5599 32.0125 23.0782 32.8375 22.5402C35.0687 21.07 36.1125 20.1129 38.6875 19.4185C39.1625 19.8001 39.6312 20.5946 39.8312 21.1639C36.75 23.441 34.9062 25.005 32.3812 27.889C32.2375 28.0516 32.0812 28.2268 31.8687 28.2706C31.6625 28.3144 31.4562 28.2205 31.2625 28.1267C29.0625 27.0569 26.8937 25.9121 24.775 24.6922C23.8312 24.1479 23 20.0566 24.675 19.6312C25.8937 19.3184 30.6375 23.4473 31.1625 23.4848Z" fill="#373A4C"/>
<path d="M42.8813 19.2432C42.1126 19.9126 41.1001 20.2067 40.1188 20.4819C40.0688 20.4944 40.0063 20.5132 39.9563 20.4882C39.9063 20.4694 39.8751 20.4194 39.8501 20.3693C39.7001 20.1003 39.5563 19.8313 39.4063 19.5623C39.3626 19.481 39.3188 19.3996 39.3251 19.3121C39.3313 19.2057 39.4063 19.1244 39.4751 19.0431C39.9626 18.4988 40.6938 17.4478 41.5251 17.5667C41.9751 17.6355 43.4188 18.7803 42.8813 19.2432Z" fill="#FF8C7F"/>
<path d="M18.8875 41.1264C19.1437 41.1076 19.3687 41.3203 19.3562 41.5768C19.3 43.4098 18.9375 45.1802 18.8312 47.0257C18.8187 47.2134 18.7937 47.4386 18.6312 47.5387C18.5375 47.6013 18.4125 47.6013 18.3 47.6013C15.2937 47.6075 11.1312 47.3072 9.54371 47.0695C9.38746 46.8318 9.62496 44.5546 9.62496 43.5787C9.62496 42.7654 9.62496 41.7019 9.86246 41.3391C10.0187 41.0951 11.5687 41.1452 12.3 41.1577C12.775 41.1702 17.375 41.2202 18.8875 41.1264Z" fill="#FFCA10"/>
<path d="M17.2373 41.827C17.3748 41.0763 17.0998 40.2443 16.5248 39.7501C15.9498 39.2559 15.2748 38.918 14.5186 38.9931C13.5811 39.0869 12.9561 40.0629 12.8498 40.2693C12.3248 41.3015 12.0686 41.8333 12.2373 42.2587C12.5623 42.2524 12.7998 42.2712 13.1123 42.1836C13.1436 41.6331 13.2811 41.0888 13.5061 40.5884C13.6748 40.213 13.9248 39.8314 14.3123 39.7C14.8061 39.5311 15.3311 39.8126 15.7436 40.1254C16.2686 40.5258 16.7811 41.1201 16.6623 41.7707C17.0311 41.7269 16.8686 41.8833 17.2373 41.827Z" fill="#FFCA10"/>
<path d="M28.3938 14.5763C28.4938 14.9579 28.6126 15.4834 28.8688 15.8024C28.9688 15.9213 28.9126 16.1027 28.7563 16.1277C28.4188 16.1778 28.0126 16.1152 27.7501 16.2654C27.4876 16.4155 27.4813 16.5281 27.4063 16.8222C27.2688 17.3602 27.1626 17.6229 26.8626 18.0921C26.6813 18.3799 26.4938 18.5425 26.3563 18.5863C26.2188 18.6301 26.0751 18.5926 25.9376 18.555C24.9876 18.2923 23.9938 17.9169 23.4001 17.1224C22.8688 16.4093 22.7438 15.4271 23.0126 14.5763C23.2813 13.7255 23.9063 13.0123 24.6688 12.5556C26.6501 11.3795 27.9063 12.7245 28.3938 14.5763Z" fill="#FF8C7F"/>
<path d="M35.1562 0.218994C36.8125 6.70012 44.0437 28.8398 47.3375 35.3146C47.3875 35.4085 47.425 35.5399 47.3438 35.6024C47.2625 35.665 47.1813 35.446 47.2813 35.4836L35.1562 0.218994Z" stroke="#373A4C" stroke-width="2.126" stroke-miterlimit="10" stroke-linecap="round"/>
<path d="M13.8936 39.7751C14.2936 39.9753 14.6998 40.1567 15.1186 40.3131C15.4936 40.457 15.8811 40.5884 16.2686 40.701C16.3623 40.726 16.4748 40.751 16.5561 40.701C16.6311 40.6509 16.6561 40.5633 16.6811 40.4758C16.7686 40.1317 16.8561 39.7814 16.8436 39.4248C16.8186 38.7053 16.3248 38.0109 15.5748 37.9421C14.4186 37.8358 14.1561 38.9118 13.8936 39.7751Z" fill="#FF8C7F"/>
<path d="M14.3124 38.1111C14.3249 38.0047 14.7812 37.3792 14.7812 37.3792C14.7812 37.3792 17.1249 37.9797 17.1249 38.0548C17.1249 38.1299 17.0187 38.7304 16.9187 38.7304C16.8124 38.7367 14.2874 38.3175 14.3124 38.1111Z" fill="#C7E7EF"/>
<path d="M38.2437 19.2119C38.3 18.9929 39.3562 18.8553 39.4187 18.9491C39.475 19.043 40.4625 20.5882 40.4062 20.8259C40.3562 21.0636 39.8875 21.5328 39.7562 21.5328C39.625 21.5328 38.1937 19.4183 38.2437 19.2119Z" fill="#C7E7EF"/>
<path d="M21.6562 19.212C21.7625 18.7928 21.9687 18.6927 22.3312 18.6615C22.6937 18.6364 23.7125 18.6615 24.8562 18.8179C25.2812 18.8742 25.6875 21.0074 25.4562 21.0074C25.225 21.0074 21.6562 19.212 21.6562 19.212Z" fill="#C7E7EF"/>
<path d="M27.0499 20.6695C27.0499 20.6695 24.8874 19.1306 24.8374 18.9241C24.7874 18.7177 26.0124 18.8741 26.1687 19.0055C26.3187 19.1306 27.1749 20.5945 27.0499 20.6695Z" fill="#C7E7EF"/>
<path d="M41.7374 17.8043C41.7374 17.8043 40.8499 18.0671 40.9061 18.5363C40.9561 19.0055 41.2686 20.2066 41.5811 20.1503C41.8936 20.1002 42.8061 19.287 42.8561 19.0305C42.9061 18.7677 41.7374 17.8043 41.7374 17.8043Z" fill="#FF8C7F"/>
<path d="M39.5999 19.1056C39.5999 19.1056 40.2249 17.0474 40.5374 17.0474C40.8499 17.0474 40.4061 19.0305 40.4561 19.3933C40.5124 19.7562 39.5999 19.1056 39.5999 19.1056Z" fill="#FF8C7F"/>
<path d="M18.3812 49.3279C19.4374 50.8043 20.5874 52.2119 21.8187 53.5507C21.9249 53.6633 22.4124 53.4819 22.2999 53.363C21.0687 52.0242 19.9249 50.6167 18.8624 49.1403C18.7749 49.0151 18.2749 49.1841 18.3812 49.3279Z" fill="#C7E7EF"/>
<path d="M21.7938 35.227C24.0313 35.8401 26.35 35.7525 28.475 34.7641C30.7063 33.7256 31.4938 32.049 32.0438 29.7281C32.0875 29.5404 31.575 29.6155 31.5313 29.7906C31.1313 31.4672 30.675 32.9499 29.2063 34.0071C27.1563 35.4835 24.4563 35.5899 22.1063 34.9455C21.9438 34.9017 21.5063 35.152 21.7938 35.227Z" fill="white"/>
<path d="M35.7438 31.7925C35.3125 32.318 35.1813 33.0124 35.4438 33.6505C35.5313 33.8632 36.0375 33.7131 35.9563 33.5129C35.7375 32.9749 35.7938 32.3806 36.1688 31.9239C36.3688 31.6799 35.8813 31.6236 35.7438 31.7925Z" fill="white"/>
<path d="M26.8999 24.0603C27.4311 25.9245 28.0811 27.7512 28.8936 29.5154C29.3061 30.41 29.7499 32.1179 30.7311 32.4557C30.9561 32.5308 31.3311 32.2117 31.0249 32.1054C30.3311 31.8676 29.7811 30.191 29.5311 29.6593C29.2686 29.1025 29.0249 28.5457 28.7936 27.9765C28.2561 26.6502 27.8061 25.2989 27.4124 23.9226C27.3436 23.6849 26.8311 23.8225 26.8999 24.0603Z" fill="white"/>
<path d="M39.0687 52.4245C38.725 52.8875 38.4625 53.4005 38.2937 53.951C38.2437 54.1011 38.7562 54.0386 38.8062 53.8759C38.9687 53.3442 39.2125 52.8625 39.5437 52.4183C39.6687 52.2494 39.1625 52.3057 39.0687 52.4245Z" fill="white"/>
<path d="M45.1124 49.5468C44.7999 50.0848 44.6187 50.6729 44.5749 51.2922C44.5624 51.5362 45.0812 51.4486 45.0937 51.2422C45.1312 50.6479 45.2937 50.0974 45.5999 49.5844C45.7312 49.3592 45.2124 49.3779 45.1124 49.5468Z" fill="white"/>
<path d="M44.4625 55.4962C44.0687 55.9216 43.75 56.4096 43.525 56.9476C43.475 57.0602 43.975 57.0102 44.0312 56.8663C44.25 56.3471 44.55 55.8904 44.9312 55.4775C45.0125 55.3899 44.8625 55.3711 44.8062 55.3711C44.6937 55.3649 44.5375 55.4149 44.4625 55.4962Z" fill="white"/>
<path d="M35.9312 47.5137C35.4374 47.9203 35.1187 48.4771 35.0312 49.1152C35.0062 49.3091 35.5187 49.2153 35.5437 49.0464C35.6187 48.4708 35.8874 47.9641 36.3374 47.5887C36.4312 47.5137 36.3812 47.4511 36.2937 47.4136C36.1874 47.376 36.0124 47.4448 35.9312 47.5137Z" fill="white"/>
<path d="M31.9437 52.9501C31.6812 53.4193 31.4125 53.8822 31.15 54.3514C31.0062 54.6017 31.525 54.6204 31.6437 54.414C31.9062 53.9448 32.175 53.4818 32.4375 53.0126C32.5812 52.7624 32.0625 52.7499 31.9437 52.9501Z" fill="white"/>
<path d="M34.7999 58.6429C34.4062 59.1622 34.1187 59.744 33.9499 60.3758C33.9062 60.5322 34.4187 60.4571 34.4624 60.3007C34.6249 59.6939 34.8937 59.1372 35.2749 58.6367C35.3937 58.4678 34.8874 58.5241 34.7999 58.6429Z" fill="white"/>
<path d="M49.0562 57.3604C49.0999 57.8171 49.0187 58.2425 48.8124 58.6554C48.7624 58.7555 49.2499 58.7117 49.3187 58.5741C49.5312 58.1487 49.6062 57.6983 49.5624 57.2228C49.5562 57.1039 49.0374 57.204 49.0562 57.3604Z" fill="white"/>
<path d="M44.9938 61.7772C44.9125 62.09 44.825 62.4028 44.7438 62.7093C44.6875 62.9095 45.2063 62.8407 45.2563 62.653C45.3375 62.3402 45.425 62.0274 45.5063 61.7209C45.5625 61.5207 45.0438 61.5895 44.9938 61.7772Z" fill="white"/>
<path d="M25.6938 58.6617C25.0688 58.9808 24.5313 59.4187 24.1 59.9692C23.975 60.1319 24.4813 60.0756 24.575 59.963C24.9625 59.4625 25.4438 59.0684 26.0063 58.7806C26.0938 58.7368 26.1375 58.6743 26.0563 58.6054C25.975 58.5429 25.7688 58.6242 25.6938 58.6617Z" fill="white"/>
<path d="M27.3123 63.5789C26.9811 63.8667 26.7249 64.217 26.5561 64.6236C26.4561 64.8676 26.9686 64.8238 27.0373 64.6487C27.1936 64.2733 27.4248 63.9543 27.7311 63.6853C27.8248 63.6039 27.7686 63.5163 27.6748 63.4851C27.5623 63.4413 27.3998 63.5038 27.3123 63.5789Z" fill="white"/>
<path d="M37.8937 69.0465C37.8687 69.3905 37.8125 69.7284 37.725 70.0599C37.6687 70.2851 38.1875 70.2163 38.2437 70.0099C38.3312 69.6783 38.3875 69.3405 38.4187 68.9964C38.425 68.7587 37.9062 68.84 37.8937 69.0465Z" fill="white"/>
<path d="M39.4625 60.8701C39.2438 61.1516 39.1375 61.4644 39.125 61.821C39.125 61.8898 39.6312 61.8272 39.6375 61.6834C39.65 61.3393 39.7562 61.0453 39.9625 60.7763C40.0187 60.7074 39.775 60.7325 39.7563 60.7325C39.6625 60.745 39.525 60.7825 39.4625 60.8701Z" fill="white"/>
<path d="M58.0687 50.6354C58.0749 51.1046 58.0999 51.5738 58.1374 52.043C58.1499 52.2056 58.6687 52.0993 58.6499 51.9053C58.6124 51.4361 58.5874 50.9669 58.5812 50.4977C58.5749 50.3413 58.0624 50.4414 58.0687 50.6354Z" fill="white"/>
<path d="M56.0061 56.2969C56.0061 56.7161 56.0061 57.129 56.0061 57.5481C56.0061 57.8171 56.5249 57.742 56.5249 57.5106C56.5249 57.0914 56.5249 56.6785 56.5249 56.2594C56.5249 55.9904 56.0061 56.0655 56.0061 56.2969Z" fill="white"/>
<path d="M53.5812 62.0962C53.4999 62.6029 53.4749 63.1096 53.5124 63.6164C53.5249 63.779 54.0374 63.6727 54.0249 63.4787C53.9937 62.9908 54.0124 62.5091 54.0937 62.0274C54.1249 61.8334 53.6124 61.921 53.5812 62.0962Z" fill="white"/>
<path d="M49.425 68.5023C49.35 68.7776 49.3375 69.0466 49.375 69.3281C49.4 69.5032 49.9125 69.3844 49.8875 69.1905C49.8562 68.9277 49.875 68.69 49.9437 68.4398C49.9937 68.2521 49.475 68.3271 49.425 68.5023Z" fill="white"/>
<path d="M63.6186 50.0035C63.7248 50.479 63.8311 50.9544 63.9311 51.4299C63.9561 51.5362 64.4686 51.4111 64.4436 51.2922C64.3373 50.8168 64.2311 50.3413 64.1311 49.8659C64.1061 49.7595 63.5936 49.8847 63.6186 50.0035Z" fill="white"/>
<path d="M62.1 56.8913C62.0812 57.4231 62.1375 57.9361 62.2625 58.4553C62.3 58.5929 62.8125 58.4616 62.775 58.3177C62.6437 57.8047 62.5937 57.2855 62.6125 56.7537C62.6187 56.6474 62.1062 56.7224 62.1 56.8913Z" fill="white"/>
<path d="M61.4811 64.1668C61.5874 64.5046 61.6936 64.8425 61.7936 65.1803C61.8686 65.418 62.3811 65.2804 62.3061 65.0427C62.1999 64.7048 62.0936 64.367 61.9936 64.0292C61.9186 63.7915 61.4061 63.9291 61.4811 64.1668Z" fill="white"/>
<path d="M68.5935 47.645C68.8935 47.9265 69.1623 48.2268 69.4185 48.5458C69.5498 48.7148 70.0436 48.5208 69.8873 48.3269C69.6373 48.0078 69.3623 47.7076 69.0623 47.426C68.906 47.2822 68.4185 47.4886 68.5935 47.645Z" fill="white"/>
<path d="M68.9813 53.4067C68.9313 53.951 68.9751 54.489 69.1313 55.0145C69.1938 55.2272 69.7063 55.0895 69.6438 54.8768C69.5001 54.3764 69.4501 53.8759 69.5001 53.3567C69.5251 53.1189 69.0001 53.2003 68.9813 53.4067Z" fill="white"/>
<path d="M71.7626 59.4062C71.8501 59.6627 71.9314 59.9254 72.0189 60.1819C72.0939 60.4197 72.6064 60.282 72.5314 60.0443C72.4439 59.7878 72.3626 59.5251 72.2751 59.2686C72.2001 59.0308 71.6876 59.1685 71.7626 59.4062Z" fill="white"/>
<path d="M68.4374 63.9041C68.3999 64.2357 68.4187 64.5485 68.4874 64.8738C68.5187 65.0114 69.0312 64.8801 68.9999 64.7362C68.9312 64.4296 68.9062 64.1356 68.9437 63.8228C68.9687 63.6664 68.4562 63.7665 68.4374 63.9041Z" fill="white"/>
<path d="M66.9436 71.1547C66.9311 71.5864 67.0374 71.9805 67.2624 72.3559C67.3811 72.5498 67.8686 72.3559 67.7311 72.1307C67.5436 71.8179 67.4499 71.48 67.4624 71.1172C67.4686 70.8482 66.9499 70.9295 66.9436 71.1547Z" fill="white"/>
<path d="M55.7936 73.1566C55.8624 73.5132 55.8811 73.8635 55.8499 74.2201C55.8311 74.4015 56.3436 74.3015 56.3624 74.1451C56.3999 73.7634 56.3874 73.3943 56.3124 73.0127C56.2749 72.8626 55.7624 72.9877 55.7936 73.1566Z" fill="white"/>
<path d="M28.9248 72.6687C28.8248 73.0003 28.7311 73.3318 28.6311 73.6697C28.5873 73.8073 29.0936 73.7385 29.1436 73.5883C29.2436 73.2568 29.3373 72.9252 29.4373 72.5874C29.4748 72.4498 28.9686 72.5186 28.9248 72.6687Z" fill="white"/>
<path d="M19.4688 69.1904C19.15 69.4719 18.9313 69.8223 18.8125 70.2351C18.775 70.3665 19.2813 70.2977 19.3188 70.1538C19.4313 69.766 19.6375 69.4406 19.9375 69.1716C20.0313 69.0903 19.8563 69.0653 19.8125 69.0653C19.6938 69.059 19.5563 69.1153 19.4688 69.1904Z" fill="white"/>
<path d="M29.9687 59.7502C30.2125 59.525 30.4562 59.3061 30.7 59.0808C30.7875 58.9995 30.7437 58.9119 30.6437 58.8744C30.5312 58.8306 30.3625 58.8932 30.2812 58.9745C30.0375 59.1997 29.7937 59.4187 29.55 59.6439C29.4625 59.7252 29.5062 59.8128 29.6062 59.8503C29.7187 59.8879 29.8875 59.8253 29.9687 59.7502Z" fill="white"/>
<path d="M39.7749 57.8922C40.0124 57.7358 40.2436 57.5794 40.4811 57.4293C40.7686 57.2416 40.3186 57.204 40.1686 57.3041C39.9311 57.4605 39.6999 57.6169 39.4624 57.7671C39.1749 57.9548 39.6249 57.9923 39.7749 57.8922Z" fill="white"/>
<path d="M35.2937 53.1878C35.1999 53.5006 35.0999 53.8196 35.0062 54.1324C34.9687 54.2575 35.4687 54.195 35.5124 54.0511C35.6062 53.7383 35.7062 53.4192 35.7999 53.1064C35.8437 52.9751 35.3374 53.0439 35.2937 53.1878Z" fill="white"/>
<path d="M31.35 49.4968C31.1 49.7408 30.8188 49.9347 30.5 50.0723C30.4188 50.1036 30.3625 50.1411 30.4375 50.1974C30.5063 50.2475 30.7313 50.1599 30.7938 50.1286C31.175 49.966 31.5188 49.7408 31.8188 49.453C31.9 49.3717 31.7438 49.3779 31.7 49.3779C31.5875 49.3779 31.425 49.4217 31.35 49.4968Z" fill="white"/>
<path d="M27.6624 54.5516C27.3499 54.8581 27.1124 55.2084 26.9312 55.6026C26.8749 55.7277 27.3749 55.6776 27.4437 55.5275C27.6124 55.1521 27.8437 54.8331 28.1374 54.5391C28.2249 54.4515 28.0624 54.4139 28.0062 54.4139C27.8812 54.4139 27.7437 54.4702 27.6624 54.5516Z" fill="white"/>
<path d="M41.4062 49.2841C41.3249 49.672 41.1937 50.0286 40.9999 50.3726C40.9624 50.4414 41.4312 50.4164 41.5062 50.285C41.6999 49.941 41.8312 49.5844 41.9124 49.1965C41.9374 49.0777 41.4312 49.1527 41.4062 49.2841Z" fill="white"/>
<path d="M47.6125 52.2119C47.4125 52.4934 47.3437 52.8 47.425 53.1378C47.4875 53.3755 48 53.2441 47.9375 53.0001C47.8812 52.7749 47.9062 52.5622 48.0375 52.3683C48.2312 52.0993 47.75 52.018 47.6125 52.2119Z" fill="white"/>
<path d="M46.6687 46.3251C46.4812 46.7129 46.3375 47.1133 46.2437 47.5387C46.1875 47.7889 46.7125 47.7264 46.7625 47.5012C46.85 47.1133 46.9875 46.7442 47.1625 46.3876C47.2875 46.1249 46.7687 46.1186 46.6687 46.3251Z" fill="white"/>
<path d="M43.6562 46.6816C43.3312 46.8255 43.075 47.0694 42.9562 47.4135C42.8625 47.6825 43.375 47.6638 43.4437 47.4636C43.525 47.2321 43.65 47.0694 43.875 46.9694C44.2 46.8192 43.9125 46.569 43.6562 46.6816Z" fill="white"/>
<path d="M46.4626 43.3973C46.3626 43.7351 46.2688 44.0792 46.1688 44.417C46.1126 44.6172 46.6313 44.5484 46.6813 44.3607C46.7813 44.0229 46.8751 43.6788 46.9751 43.341C47.0376 43.1408 46.5188 43.2096 46.4626 43.3973Z" fill="white"/>
<path d="M35.8061 44.4545C35.6061 44.7422 35.4436 45.0425 35.3186 45.3678C35.2124 45.6556 35.7249 45.6681 35.8124 45.4367C35.9249 45.1426 36.0624 44.8736 36.2374 44.6171C36.4311 44.3544 35.9499 44.248 35.8061 44.4545Z" fill="white"/>
<path d="M38.2123 48.3457C38.1436 48.6898 38.1123 49.0339 38.1123 49.3842C38.1123 49.4656 38.6248 49.3967 38.6248 49.2466C38.6248 48.915 38.6561 48.5835 38.7186 48.2582C38.7436 48.1393 38.2373 48.2206 38.2123 48.3457Z" fill="white"/>
<path d="M35.6375 50.9481C35.5 51.1295 35.3688 51.3047 35.2313 51.4861C35.1563 51.5862 35.3 51.655 35.375 51.6613C35.5 51.6738 35.6375 51.6112 35.7125 51.5174C35.85 51.336 35.9813 51.1608 36.1188 50.9794C36.1938 50.8793 36.05 50.8105 35.975 50.8042C35.85 50.7855 35.7125 50.848 35.6375 50.9481Z" fill="white"/>
<path d="M56.1499 47.1196C56.2187 47.3761 56.2874 47.6326 56.3499 47.889C56.3874 48.0267 56.8999 47.8953 56.8624 47.7514C56.7937 47.4949 56.7249 47.2384 56.6624 46.9819C56.6249 46.8443 56.1124 46.9819 56.1499 47.1196Z" fill="white"/>
<path d="M55.5749 51.7364C55.2999 52.0242 55.1499 52.3808 55.1499 52.7749C55.1499 53.0376 55.6687 52.9563 55.6687 52.7311C55.6687 52.3995 55.7749 52.118 56.0062 51.8803C56.2249 51.6551 55.7312 51.58 55.5749 51.7364Z" fill="white"/>
<path d="M52.9813 56.9726C52.8001 57.3042 52.6939 57.6545 52.6626 58.0299C52.6439 58.2551 53.1626 58.1675 53.1813 57.9736C53.2126 57.6295 53.3064 57.3104 53.4688 56.9977C53.5876 56.7662 53.0688 56.8037 52.9813 56.9726Z" fill="white"/>
<path d="M63.5748 45.6307C63.6123 45.956 63.7561 46.2375 63.9936 46.4627C64.1561 46.6128 64.6436 46.4064 64.4623 46.2375C64.2436 46.031 64.1186 45.7933 64.0873 45.493C64.0623 45.2678 63.5436 45.3929 63.5748 45.6307Z" fill="white"/>
<path d="M66.1561 47.9078C66.3312 48.2019 66.4562 48.5147 66.5437 48.8462C66.5812 48.9964 67.0999 48.865 67.0562 48.7086C66.9687 48.377 66.8437 48.0705 66.6687 47.7702C66.5812 47.6138 66.0936 47.7952 66.1561 47.9078Z" fill="white"/>
<path d="M60.6249 52.9688C60.5124 53.2628 60.4374 53.5631 60.4061 53.8759C60.3811 54.1199 60.9061 54.0385 60.9249 53.8258C60.9499 53.5443 61.0124 53.2753 61.1124 53.0063C61.2124 52.7498 60.6999 52.7748 60.6249 52.9688Z" fill="white"/>
<path d="M69.2249 45.2803C69.3249 45.4617 69.4312 45.6494 69.5312 45.8308C69.6249 45.9997 70.1249 45.8308 70.0062 45.6181C69.9062 45.4367 69.7999 45.249 69.6999 45.0676C69.6062 44.8987 69.1062 45.0738 69.2249 45.2803Z" fill="white"/>
<path d="M66.4937 52.5496C66.4624 52.8124 66.4249 53.0689 66.3937 53.3316C66.3624 53.5818 66.8874 53.5068 66.9124 53.2878C66.9437 53.0251 66.9812 52.7686 67.0124 52.5058C67.0437 52.2556 66.5187 52.3307 66.4937 52.5496Z" fill="white"/>
<path d="M65.5375 57.7546C65.6688 58.1488 65.8 58.5366 65.925 58.9307C66.0063 59.1747 66.5188 59.0371 66.4375 58.7931C66.3063 58.399 66.175 58.0111 66.05 57.617C65.9688 57.3668 65.4563 57.5106 65.5375 57.7546Z" fill="white"/>
<path d="M63.2936 54.0323C63.4873 54.2638 63.5561 54.5328 63.5061 54.8268C63.4748 55.0082 63.9873 54.9206 64.0186 54.758C64.0811 54.4139 63.9936 54.1074 63.7748 53.8384C63.6623 53.707 63.1686 53.8821 63.2936 54.0323Z" fill="white"/>
<path d="M70.5999 50.8793C70.6874 51.0732 70.7936 51.2296 70.9561 51.3735C71.0999 51.5049 71.5874 51.3047 71.4311 51.1608C71.2936 51.0357 71.1936 50.9106 71.1186 50.7417C71.0249 50.5477 70.5186 50.7041 70.5999 50.8793Z" fill="white"/>
<path d="M72.4373 54.8143C72.4561 55.3085 72.6498 55.7151 73.0186 56.0404C73.1873 56.1906 73.6373 55.9403 73.4123 55.7464C73.1311 55.4962 72.9686 55.1458 72.9561 54.7705C72.9498 54.5077 72.4311 54.5891 72.4373 54.8143Z" fill="white"/>
<path d="M68.5876 59.0559C68.5 59.3249 68.4813 59.5814 68.5188 59.8629C68.55 60.1069 69.0688 59.9818 69.0313 59.7253C69.0001 59.5188 69.0188 59.3186 69.0813 59.1185C69.1688 58.8307 68.6563 58.8244 68.5876 59.0559Z" fill="white"/>
<path d="M58.675 60.2945C58.6 60.7887 58.5187 61.283 58.4437 61.7834C58.4125 62.0024 58.9312 61.9148 58.9562 61.7271C59.0312 61.2329 59.1125 60.7387 59.1875 60.2382C59.225 60.0193 58.7062 60.1069 58.675 60.2945Z" fill="white"/>
<path d="M49.1874 62.6405C49.1374 63.0033 49.0874 63.3724 49.0311 63.7353C48.9999 63.9355 49.5186 63.8479 49.5436 63.6727C49.5936 63.3099 49.6436 62.9408 49.6999 62.5779C49.7311 62.3715 49.2124 62.4653 49.1874 62.6405Z" fill="white"/>
<path d="M41.7124 37.5918C42.3311 36.9788 42.9436 36.3594 43.5186 35.6963C43.6249 35.5774 43.1374 35.64 43.0561 35.7338C42.4874 36.397 41.8686 37.01 41.2499 37.6294C41.1436 37.7357 41.6249 37.6857 41.7124 37.5918Z" fill="white"/>
<path d="M10.75 43.1783C11.2875 43.1783 11.825 43.1783 12.3625 43.1783C12.55 43.1783 12.9125 42.8968 12.5625 42.8968C12.025 42.8968 11.4875 42.8968 10.95 42.8968C10.7625 42.8906 10.4063 43.1783 10.75 43.1783Z" fill="white"/>
<path d="M16.3187 43.1846C16.875 43.1908 17.4312 43.1971 17.9875 43.2034C18.1562 43.2034 18.5375 42.9531 18.1937 42.9469C17.6375 42.9406 17.0812 42.9344 16.525 42.9281C16.3562 42.9281 15.975 43.1783 16.3187 43.1846Z" fill="white"/>
<path d="M28.1937 13.4753C28.2999 14.1509 27.0499 14.8828 26.0062 14.8828C24.9624 14.8828 24.3937 14.6764 23.9749 14.9892C23.5562 15.302 23.4562 16.2404 22.9874 16.2904C22.5187 16.3405 22.3124 14.7264 23.0937 13.5816C23.8749 12.4368 24.3937 12.124 25.6999 11.9113C26.4124 11.7987 27.8937 11.5172 28.1937 13.4753Z" fill="#373A4C"/>
<path d="M41.756 34.3324C42.1685 34.9455 43.2873 36.2092 44.0873 36.3093C44.3748 36.3469 44.6935 36.1654 44.9435 36.0591C45.0435 36.0153 45.3248 35.8339 45.4248 35.8026C45.7185 35.5899 46.7248 35.0644 47.1185 35.1895C47.6123 35.3459 47.3935 35.5586 46.7623 36.1592C46.1123 36.7723 45.031 37.5855 44.306 38.1423C43.3685 38.8617 42.8998 39.2058 42.156 38.1673C41.4123 37.1288 40.3998 36.4469 39.2185 35.9965C39.031 35.9215 38.6185 36.1967 38.9123 36.3093C40.2623 36.8286 41.1373 37.6293 41.9435 38.7867C42.2873 39.2809 42.3248 39.5186 42.981 39.431C43.556 39.3497 44.1998 38.6741 44.6373 38.3425C45.5623 37.6293 46.5998 36.9099 47.431 36.0716C47.9685 35.5273 48.2935 34.9455 47.2935 34.7891C46.7623 34.7078 46.2373 35.0519 45.7685 35.227C45.2435 35.4272 44.5373 35.8589 43.9373 35.7713C43.3498 35.6837 42.5623 34.6202 42.2248 34.1197C42.1185 33.9508 41.6248 34.1323 41.756 34.3324Z" fill="white"/>
<path d="M44.5562 32.0679C45.0875 33.0939 45.5375 34.1386 45.9 35.2334C45.9812 35.4711 46.4937 35.3335 46.4125 35.0958C46.0375 33.9697 45.5625 32.8937 45.025 31.8364C44.9187 31.63 44.4312 31.8239 44.5562 32.0679Z" fill="white"/>
<path d="M45.6999 28.7647C46.1499 31.0294 46.7312 33.2878 47.4187 35.4899C47.4687 35.6525 47.9812 35.5086 47.9312 35.3522C47.2437 33.1501 46.6624 30.8918 46.2124 28.6271C46.1812 28.4707 45.6624 28.5958 45.6999 28.7647Z" fill="white"/>
<path d="M35.9437 39.087C37.2562 41.4705 38.4562 44.905 40.3812 46.8068C40.4562 46.8756 40.5624 46.9006 40.6624 46.8693C42.5999 46.2437 44.0562 44.0417 45.1749 42.4777C45.6249 41.8521 46.4874 39.8627 47.1249 39.5374C47.8749 39.1558 47.1562 38.9306 47.6874 39.4561C47.8749 39.6375 47.9187 40.945 47.9562 41.189C48.6874 45.5994 48.7749 50.8043 51.4374 54.6141C51.5374 54.7518 51.7937 54.683 51.8874 54.5766C53.3874 52.7874 54.0624 49.4092 54.9562 47.276C55.5562 45.8434 56.0562 44.1042 56.9124 42.803C57.5187 41.8834 57.2499 41.8646 57.8312 43.1909C58.5374 44.8111 59.3937 46.3751 60.1124 48.0017C60.1937 48.1893 60.5374 48.1393 60.6124 47.9641C61.1562 46.6817 61.6624 45.3742 62.3312 44.1543C63.2187 42.5402 62.9812 42.6153 64.3124 43.1971C65.2062 43.585 66.3374 45.0927 67.3499 45.0801C69.7437 45.0489 72.4812 38.4176 73.3749 36.7035C73.5062 36.447 72.9874 36.447 72.8874 36.6472C71.9937 38.3676 69.5062 44.6547 67.0562 44.4233C65.9999 44.3232 64.5812 42.7029 63.6312 42.1962C63.5124 42.1336 63.3749 42.1524 63.2624 42.2274C62.7874 42.5465 62.5312 42.9782 62.2187 43.4473C61.7562 44.1418 61.1624 46.5127 60.5624 46.8693C60.0062 47.2009 59.5124 45.4054 59.1624 44.686C58.6437 43.6225 58.1062 42.5715 57.5312 41.5393C57.4499 41.3892 57.1624 41.4767 57.0812 41.5768C55.9749 42.9844 55.3937 45.0113 54.7124 46.6316C53.8187 48.7461 53.1249 52.0179 51.7187 53.8384C51.2624 54.4265 51.7249 54.0949 51.6999 54.0887C51.2999 53.9448 50.7187 52.0054 50.5499 51.5675C49.9187 49.966 49.5687 48.4583 49.3812 46.738C49.1874 44.8987 48.8187 43.1408 48.5062 41.3266C48.3624 40.4946 48.4687 39.0182 47.8249 38.3801C47.7187 38.2737 47.5374 38.2925 47.4187 38.3738C45.6937 39.6187 44.7499 42.5027 43.3187 44.1605C42.8749 44.6735 42.1437 45.7495 41.5312 45.9622C40.1062 46.4502 40.1562 45.6619 39.5749 44.6109C38.5187 42.6904 37.4562 40.7761 36.3999 38.8555C36.2999 38.6616 35.8124 38.8555 35.9437 39.087Z" fill="white"/>
<path d="M26.8187 20.4757C27.6875 22.2899 28.2812 24.0791 28.9062 25.9746C29.2937 27.1445 29.7312 28.502 30.9875 28.9274C31.1375 28.9774 31.6 28.7522 31.4 28.6834C29.85 28.1579 29.4875 26.0684 29.0937 24.6796C28.6625 23.1657 28.0187 21.7519 27.3375 20.3318C27.25 20.1691 26.75 20.3318 26.8187 20.4757Z" fill="white"/>
<path d="M22.8749 23.8413C22.7187 26.106 21.4374 28.9837 19.5312 30.2724C19.2437 30.4663 19.6624 30.654 19.8749 30.5101C21.9124 29.1338 23.2312 26.2123 23.3999 23.7975C23.4124 23.5348 22.8937 23.6099 22.8749 23.8413Z" fill="white"/>
<path d="M8.2499 43.9728C11.5312 43.9415 14.8124 43.954 18.0937 43.9978C18.2749 43.9978 18.6437 43.7288 18.2999 43.7226C15.0187 43.6788 11.7374 43.6663 8.45615 43.6976C8.26865 43.6976 7.90615 43.9728 8.2499 43.9728Z" fill="white"/>
</svg>
