<svg width="16" height="17" viewBox="0 0 16 17" fill="none" xmlns="http://www.w3.org/2000/svg">
<g clip-path="url(#clip0_10731_97185)">
<path d="M0 5.53259H3.54041V1.99219H0V5.53259ZM0.937622 2.92981H2.60291V4.59509H0.937622V2.92981Z" fill="black"/>
<path d="M4.66602 1.99219V5.53259H16.0005V1.99219H4.66602ZM15.0629 4.59509H5.60364V2.92981H15.0629V4.59509Z" fill="black"/>
<path d="M0 10.1263H3.54041V6.58594H0V10.1263ZM0.937622 7.52344H2.60291V9.18872H0.937622V7.52344Z" fill="black"/>
<path d="M4.66602 10.1263H16.0005V6.58594H4.66602V10.1263ZM5.60364 7.52344H15.0629V9.18872H5.60364V7.52344Z" fill="black"/>
<path d="M0 14.7202H3.54041V11.1797H0V14.7202ZM0.937622 12.1173H2.60291V13.7826H0.937622V12.1173Z" fill="black"/>
<path d="M4.66602 14.7202H16.0005V11.1797H4.66602V14.7202ZM5.60364 12.1173H15.0629V13.7826H5.60364V12.1173Z" fill="black"/>
</g>
<defs>
<clipPath id="clip0_10731_97185">
<rect width="16" height="16" fill="white" transform="translate(0 0.367188)"/>
</clipPath>
</defs>
</svg>
