<svg width="53" height="51" viewBox="0 0 49 49" fill="none" xmlns="http://www.w3.org/2000/svg">
    <g clip-path="url(#clip0_10931_26131)">
        <path d="M31.3867 30.3257C30.3442 30.3257 29.4961 29.6083 29.4961 28.7265C29.4961 27.8447 30.3442 27.1273 31.3867 27.1273C32.4292 27.1273 33.2773 27.8447 33.2773 28.7265C33.2773 29.1903 33.6622 29.5664 34.1367 29.5664C34.6113 29.5664 34.9961 29.1903 34.9961 28.7265C34.9961 27.1875 33.8227 25.8935 32.2461 25.5423V25.1055C32.2461 24.6417 31.8613 24.2656 31.3867 24.2656C30.9122 24.2656 30.5273 24.6417 30.5273 25.1055V25.5423C28.9507 25.8935 27.7773 27.1875 27.7773 28.7265C27.7773 30.5345 29.3965 32.0054 31.3867 32.0054C32.4292 32.0054 33.2773 32.7227 33.2773 33.6046C33.2773 34.4864 32.4292 35.2038 31.3867 35.2038C30.3442 35.2038 29.4961 34.4864 29.4961 33.6046C29.4961 33.1408 29.1113 32.7647 28.6367 32.7647C28.1622 32.7647 27.7773 33.1408 27.7773 33.6046C27.7773 35.1436 28.9507 36.4376 30.5273 36.7888V37.1517C30.5273 37.6154 30.9122 37.9915 31.3867 37.9915C31.8613 37.9915 32.2461 37.6154 32.2461 37.1517V36.7888C33.8227 36.4376 34.9961 35.1436 34.9961 33.6046C34.9961 31.7966 33.3769 30.3257 31.3867 30.3257Z" fill="#373A4C"/>
        <path d="M40.7999 25.328C39.6773 23.6185 38.0957 22.2505 36.2261 21.3722C35.7982 21.1712 35.2848 21.3472 35.0792 21.7653C34.8736 22.1833 35.0536 22.6851 35.4814 22.886C38.7394 24.4166 40.8444 27.6868 40.8444 31.2174C40.8444 32.7281 40.4633 34.2263 39.7426 35.5502C39.5197 35.9596 39.6786 36.4682 40.0976 36.6861C40.2262 36.7529 40.3643 36.7847 40.5005 36.7847C40.808 36.7847 41.1054 36.6229 41.2599 36.3391C42.1125 34.7733 42.5631 33.0022 42.5631 31.2174C42.5631 29.1211 41.9534 27.0846 40.7999 25.328Z" fill="#373A4C"/>
        <path d="M32.7375 20.3009L32.6797 20.3008C32.2051 20.3008 31.8203 20.6768 31.8203 21.1406C31.8203 21.6045 32.2051 21.9805 32.6797 21.9805L32.7294 21.9805C32.7308 21.9805 32.7321 21.9805 32.7336 21.9805C33.2063 21.9805 33.5906 21.6072 33.5929 21.1447C33.595 20.6808 33.2121 20.303 32.7375 20.3009Z" fill="#373A4C"/>
        <path d="M27.3004 39.551C24.0425 38.0203 21.9375 34.7501 21.9375 31.2196C21.9375 29.7089 22.3185 28.2107 23.0393 26.8868C23.2622 26.4774 23.1033 25.9688 22.6843 25.7509C22.2654 25.5331 21.7448 25.6884 21.522 26.0979C20.6694 27.6637 20.2188 29.4348 20.2188 31.2196C20.2188 33.3159 20.8285 35.3523 21.982 37.109C23.1046 38.8185 24.6862 40.1865 26.5558 41.0649C26.6758 41.1213 26.8027 41.1479 26.9275 41.1479C27.2476 41.1479 27.5547 40.9725 27.7027 40.6718C27.9082 40.2537 27.7282 39.7519 27.3004 39.551Z" fill="#373A4C"/>
        <path d="M30.1025 40.4572L30.0527 40.457C29.5759 40.4562 29.1916 40.829 29.1895 41.2929C29.1872 41.7568 29.5703 42.1345 30.0449 42.1367L30.1025 42.1369C30.577 42.1369 30.9618 41.7608 30.9618 41.297C30.9618 40.8333 30.577 40.4572 30.1025 40.4572Z" fill="#373A4C"/>
        <path d="M35.2929 17.4594C35.1883 17.2158 35.0602 16.9863 34.9111 16.7734H37.1484C39.3281 16.7734 41.1015 15.0403 41.1015 12.9101C41.1015 10.78 39.3281 9.04686 37.1484 9.04686H30.2665C30.704 8.42521 30.9609 7.67313 30.9609 6.86327C30.9609 4.7331 29.1875 3 27.0078 3H5.95312C3.7734 3 2 4.7331 2 6.86327C2 8.99345 3.7734 10.7265 5.95312 10.7265H12.835C12.3975 11.3482 12.1406 12.1003 12.1406 12.9101C12.1406 13.72 12.3974 14.4721 12.835 15.0937H10.5937C8.41402 15.0937 6.64062 16.8268 6.64062 18.957C6.64062 20.1804 7.22619 21.2721 8.13722 21.9804C7.22619 22.6888 6.64062 23.7805 6.64062 25.0039C6.64062 26.2273 7.22619 27.319 8.13722 28.0273C7.22619 28.7356 6.64062 29.8273 6.64062 31.0507C6.64062 32.2741 7.22619 33.3658 8.13722 34.0742C7.22619 34.7825 6.64062 35.8742 6.64062 37.0976C6.64062 39.2278 8.41402 40.9609 10.5937 40.9609H20.7214C23.3895 43.7497 27.185 45.4961 31.3907 45.4961C39.4463 45.4961 46 39.0913 46 31.2188C46 24.6666 41.4599 19.1319 35.2929 17.4594ZM37.1484 10.7265C38.3805 10.7265 39.3827 11.7061 39.3827 12.9101C39.3827 14.1141 38.3805 15.0937 37.1484 15.0937H31.6484H16.0937C14.8616 15.0937 13.8594 14.1141 13.8594 12.9101C13.8594 11.7061 14.8616 10.7265 16.0937 10.7265H37.1484ZM5.95312 9.04686C4.72103 9.04686 3.71875 8.06727 3.71875 6.86327C3.71875 5.65928 4.72103 4.67968 5.95312 4.67968H27.0078C28.2398 4.67968 29.2421 5.65928 29.2421 6.86327C29.2421 8.06727 28.2398 9.04686 27.0078 9.04686H5.95312ZM10.5937 16.7734H31.6484C31.9945 16.7734 32.326 16.852 32.6233 16.9928C32.2169 16.9594 31.8059 16.9415 31.3907 16.9415C27.3563 16.9415 23.6988 18.548 21.0525 21.1406H10.5937C9.36174 21.1406 8.35936 20.161 8.35936 18.957C8.35936 17.753 9.36174 16.7734 10.5937 16.7734ZM10.5937 22.8203H19.5841C18.6085 24.1265 17.8542 25.5997 17.3752 27.1875H10.5937C9.36165 27.1875 8.35936 26.2079 8.35936 25.0039C8.35936 23.7999 9.36165 22.8203 10.5937 22.8203ZM10.5937 28.8671H16.9806C16.8502 29.6325 16.7813 30.4178 16.7813 31.2188C16.7813 31.9029 16.8319 32.5756 16.9276 33.2343H10.5937C9.36165 33.2343 8.35936 32.2548 8.35936 31.0507C8.35936 29.8466 9.36165 28.8671 10.5937 28.8671ZM10.5937 39.2812C9.36165 39.2812 8.35936 38.3017 8.35936 37.0976C8.35936 35.8935 9.36165 34.914 10.5937 34.914H17.2785C17.7121 36.494 18.4165 37.9665 19.3404 39.2812H10.5937ZM31.3907 43.8164C24.2828 43.8164 18.5001 38.1651 18.5001 31.2188C18.5001 24.2724 24.2828 18.6211 31.3907 18.6211C38.4985 18.6211 44.2813 24.2724 44.2813 31.2188C44.2813 38.1651 38.4985 43.8164 31.3907 43.8164Z" fill="#373A4C"/>
    </g>
    <defs>
        <clipPath id="clip0_10931_26131">
            <rect width="44" height="43" fill="white" transform="translate(2 3)"/>
        </clipPath>
    </defs>
</svg>
