<?xml version="1.0" standalone="no"?>
<!DOCTYPE svg PUBLIC "-//W3C//DTD SVG 20010904//EN"
 "http://www.w3.org/TR/2001/REC-SVG-20010904/DTD/svg10.dtd">
<svg version="1.0" xmlns="http://www.w3.org/2000/svg"
 width="1200.000000pt" height="634.000000pt" viewBox="0 0 1200.000000 634.000000"
 preserveAspectRatio="xMidYMid meet">

<g transform="translate(0.000000,634.000000) scale(0.100000,-0.100000)"
fill="#000000" stroke="none">
<path d="M6100 4244 c-30 -8 -93 -33 -139 -55 -265 -126 -464 -376 -581 -727
-47 -144 -70 -274 -78 -456 l-7 -140 -43 -9 c-24 -5 -46 -6 -48 -4 -3 3 5 36
18 73 18 55 23 91 23 175 0 97 -2 110 -30 164 -25 50 -39 63 -84 87 -46 24
-65 28 -136 28 -71 0 -90 -4 -143 -31 -63 -31 -113 -81 -148 -149 -26 -52 -32
-201 -9 -271 23 -72 68 -142 117 -182 l40 -34 -43 -18 c-64 -26 -198 -32 -253
-11 -53 20 -118 88 -137 142 -21 59 -16 206 10 278 75 211 249 324 501 326
197 2 213 67 38 144 -129 57 -328 61 -479 9 -105 -36 -180 -85 -257 -167 -78
-84 -124 -162 -163 -277 -29 -84 -32 -107 -33 -214 -1 -66 1 -133 4 -150 4
-25 0 -33 -29 -52 -19 -13 -42 -23 -52 -23 -27 0 -25 54 6 166 70 254 86 445
45 529 -75 155 -318 181 -509 54 -33 -22 -71 -53 -84 -68 l-24 -28 -12 59
c-10 49 -21 69 -57 108 -119 127 -308 130 -440 7 l-57 -53 -31 58 c-33 65 -91
124 -132 134 -46 12 -87 -18 -138 -99 -113 -181 -176 -427 -176 -685 0 -87 -6
-97 -95 -156 -92 -61 -100 -40 -100 249 l1 230 58 108 c66 123 67 139 15 212
-62 86 -169 140 -228 115 -17 -7 -31 -15 -31 -19 0 -3 -7 -14 -14 -24 -14 -18
-16 -18 -63 -1 -102 36 -312 15 -425 -42 -138 -70 -275 -209 -343 -348 -69
-140 -88 -223 -89 -396 -1 -139 0 -147 27 -202 41 -84 130 -162 213 -188 118
-36 284 -25 391 28 54 26 143 104 180 157 l21 29 12 -44 c17 -62 43 -110 79
-144 24 -23 42 -30 85 -34 65 -5 174 25 254 70 38 22 53 26 56 16 3 -7 10 -30
16 -50 23 -76 79 -86 197 -36 93 38 163 100 163 144 0 16 -9 61 -20 99 -30
104 -37 257 -15 326 53 162 174 342 246 364 31 10 78 -14 86 -43 6 -25 1 -121
-17 -347 -5 -66 -10 -192 -10 -281 0 -291 38 -337 217 -262 91 37 163 100 163
142 0 15 -12 73 -26 129 -34 130 -30 200 16 311 43 102 121 219 166 247 43 26
100 21 128 -13 21 -26 18 -89 -14 -263 -40 -221 -35 -361 18 -464 38 -76 74
-94 172 -88 91 6 171 35 255 92 l63 43 20 -21 c39 -42 128 -87 212 -108 111
-28 292 -23 387 11 79 28 165 83 229 147 l51 51 91 -10 c85 -9 149 -4 202 17
10 3 22 -6 35 -31 10 -20 51 -66 91 -103 119 -111 248 -161 419 -161 219 0
420 73 574 207 27 23 52 43 55 43 3 0 6 -26 6 -58 0 -67 21 -145 46 -173 27
-30 110 -26 189 10 157 72 158 74 166 406 l6 260 61 240 c74 291 83 342 85
467 2 121 -7 137 -72 117 -100 -30 -203 -192 -310 -489 -48 -131 -51 -137
-151 -256 -141 -171 -275 -310 -327 -341 -58 -33 -154 -63 -207 -63 -108 0
-222 83 -281 205 -25 52 -30 74 -33 161 -8 235 86 529 212 662 56 60 105 83
175 84 63 1 89 -9 143 -58 49 -44 107 -61 148 -44 64 27 116 130 126 254 12
142 -40 239 -148 271 -64 19 -185 18 -258 -1z m-4204 -813 c-13 -20 -38 -216
-45 -350 -6 -130 -10 -152 -35 -203 -59 -123 -168 -208 -268 -208 -95 0 -138
46 -146 159 -16 225 106 434 318 545 96 51 191 81 176 57z m3156 -268 c13 -12
18 -31 18 -73 0 -62 -25 -160 -41 -160 -16 0 -59 102 -59 142 0 59 24 107 54
108 5 0 18 -7 28 -17z"/>
<path d="M7081 4249 c-200 -26 -429 -148 -527 -281 -50 -69 -60 -94 -44 -113
23 -27 75 -16 191 41 206 101 236 108 444 109 177 0 181 0 237 -28 133 -65
186 -203 144 -378 -23 -98 -118 -229 -155 -213 -49 21 -111 27 -165 15 -77
-17 -109 -46 -109 -97 0 -22 6 -50 12 -63 15 -26 97 -81 123 -81 26 0 36 -34
59 -190 10 -74 26 -184 35 -244 35 -243 93 -334 227 -356 107 -17 248 24 372
110 39 26 45 28 45 13 0 -37 22 -93 46 -123 23 -27 32 -30 83 -30 46 0 73 8
138 39 146 71 167 143 119 402 -27 144 -26 157 28 361 129 490 308 768 496
768 75 0 104 -34 121 -143 21 -129 -16 -338 -141 -795 -88 -326 -105 -420 -90
-500 19 -104 45 -132 119 -132 72 0 143 33 193 88 51 56 61 102 48 205 -23
172 31 400 151 640 90 178 190 305 274 343 63 30 80 30 110 -1 49 -49 30 -196
-79 -597 -95 -350 -105 -421 -65 -508 51 -113 147 -160 289 -140 136 19 256
85 376 205 96 97 149 201 148 292 0 45 -5 68 -18 82 -25 27 -34 21 -156 -100
-173 -171 -252 -217 -293 -171 -30 33 -21 119 38 368 72 305 87 404 88 549 0
95 -5 134 -22 186 -28 88 -83 151 -157 178 -106 40 -266 22 -357 -40 -18 -12
-60 -49 -93 -81 l-61 -60 -7 79 c-20 222 -76 321 -213 373 -77 30 -205 32
-283 6 -111 -38 -210 -122 -293 -249 l-44 -67 -7 62 c-20 188 -106 268 -286
268 -124 0 -245 -46 -331 -127 l-48 -45 -38 31 c-143 113 -424 172 -672 140z
m1012 -279 c63 -50 61 -147 -8 -525 -30 -165 -66 -372 -79 -460 l-24 -159 -67
-64 c-81 -77 -120 -102 -161 -102 -57 0 -88 59 -149 286 -25 91 -52 181 -60
201 -8 19 -15 37 -15 39 0 2 30 19 68 38 156 80 267 211 306 363 18 68 21 230
6 282 -11 41 -7 48 58 91 53 35 89 38 125 10z"/>
<path d="M10615 2876 c-55 -25 -110 -81 -131 -132 -20 -48 -17 -151 5 -199 23
-50 84 -109 133 -130 114 -47 263 8 320 119 107 208 -115 441 -327 342z"/>
</g>
</svg>
