<?xml version="1.0" encoding="iso-8859-1"?>
<!-- Generator: Adobe Illustrator 16.0.0, SVG Export Plug-In . SVG Version: 6.00 Build 0)  -->
<!DOCTYPE svg PUBLIC "-//W3C//DTD SVG 1.1//EN" "http://www.w3.org/Graphics/SVG/1.1/DTD/svg11.dtd">
<svg version="1.1" id="Capa_1" xmlns="http://www.w3.org/2000/svg" xmlns:xlink="http://www.w3.org/1999/xlink" x="0px" y="0px"
	 width="612.001px" height="612px" viewBox="0 0 612.001 612" style="enable-background:new 0 0 612.001 612;" xml:space="preserve"
	>
<g>
	<g id="Shape_6_3_">
		<g>
			<path d="M524.692,360.327l87.309-143.607l-64.663-16.253l-66.677,64.567c-45.335-16.211-312.987-110.475-398.059-107.761
				c-51.717,1.643-76.94,10.274-81.806,28c-3.87,14.111,6.34,28.827,31.245,45.006c36.885,23.972,127.194,47.879,146.236,52.756
				L320.06,457.442h78.689l-3.615-119.105L524.692,360.327z M329.994,436.184L190.109,264.111l-3.393-0.849
				c-1.06-0.254-105.767-26.463-143.288-50.848C21.365,198.07,21.08,190.999,21.08,190.956c0.042-0.106,5.227-10.634,62.182-12.436
				l3.149-0.042c91.507,0,390.276,107.686,393.288,108.768l6.128,2.216l67.694-65.543l25.498,6.414l-64.843,106.636l-140.903-23.908
				l3.743,123.113h-47.021L329.994,436.184L329.994,436.184z M344.296,163.253l55.64,12.15l-13.963,29.389l18.979,9.192
				l25.487-53.679l-85.24-18.607l-120.144,15.606l2.693,21.088L344.296,163.253z M437.245,456.307l136.535,13.996l2.12-21.162
				l-136.534-13.996L437.245,456.307z M527.724,400.784l-91.264-9.361l-2.12,21.162l91.265,9.361L527.724,400.784z"/>
		</g>
	</g>
</g>
<g>
</g>
<g>
</g>
<g>
</g>
<g>
</g>
<g>
</g>
<g>
</g>
<g>
</g>
<g>
</g>
<g>
</g>
<g>
</g>
<g>
</g>
<g>
</g>
<g>
</g>
<g>
</g>
<g>
</g>
</svg>
