<svg width="65" height="64" viewBox="0 0 65 64" fill="none" xmlns="http://www.w3.org/2000/svg">
<g clip-path="url(#clip0)">
<path d="M64.0529 24.5309C64.0529 24.5085 64.0412 24.4893 64.0402 24.468C64.0335 24.3941 64.0189 24.3211 63.9964 24.2504C63.9817 24.1873 63.9613 24.1255 63.9357 24.0659C63.9052 24.0094 63.8695 23.9557 63.829 23.9059C63.7868 23.8447 63.7382 23.7882 63.6839 23.7374C63.6668 23.7224 63.6594 23.7021 63.6413 23.6882L53.3862 15.7212V7.46396C53.3862 5.69668 51.9534 4.2639 50.1862 4.2639H38.6265L33.998 0.670215C32.8544 -0.220801 31.2515 -0.220801 30.1078 0.670215L25.4785 4.2639H13.9188C12.1515 4.2639 10.7187 5.69655 10.7187 7.46396V15.7212L0.464668 23.6882C0.446543 23.7021 0.439043 23.7224 0.422042 23.7374C0.367791 23.7882 0.319165 23.8447 0.276915 23.9059C0.236414 23.9557 0.200663 24.0094 0.170288 24.0659C0.144412 24.1254 0.124037 24.1871 0.109537 24.2504C0.0872863 24.3198 0.0726611 24.3913 0.065786 24.4638C0.065786 24.4851 0.0530357 24.5043 0.0530357 24.5266V60.7981C0.0572858 61.1417 0.117412 61.482 0.231164 61.8062C-0.0137154 62.1754 -0.00221524 62.6582 0.259789 63.0154C0.521794 63.3727 0.978802 63.5287 1.40456 63.4062C1.94357 63.7913 2.58958 63.9983 3.25209 63.9982H60.8531C61.5184 63.9968 62.1664 63.7868 62.7059 63.3977C62.7969 63.4257 62.8913 63.4411 62.9864 63.4436C63.376 63.4458 63.7353 63.2336 63.9213 62.8912C64.1073 62.5488 64.0899 62.1319 63.876 61.8063C63.9894 61.4822 64.0492 61.1417 64.0532 60.7983V24.5309H64.0529ZM31.4123 2.35349C31.7848 2.05749 32.3124 2.05749 32.6849 2.35349L35.1456 4.2639H28.9589L31.4123 2.35349ZM3.51647 61.8649L31.4125 40.1963C31.7852 39.902 32.3112 39.902 32.684 40.1963L60.5883 61.8649H3.51647ZM61.9196 60.1988L33.9959 38.512C32.853 37.6222 31.2518 37.6222 30.1089 38.512L2.1852 60.1988V26.1554L19.665 39.729C20.1308 40.0902 20.801 40.0054 21.1622 39.5396C21.5233 39.0739 21.4385 38.4036 20.9728 38.0425L3.21459 24.2525L10.7187 18.422V26.6643C10.7187 27.2534 11.1964 27.7309 11.7854 27.7309C12.3745 27.7309 12.852 27.2533 12.852 26.6643V7.46396C12.852 6.87482 13.3295 6.39732 13.9187 6.39732H50.1859C50.7751 6.39732 51.2526 6.87482 51.2526 7.46396V26.6643C51.2526 27.2534 51.7301 27.7309 52.3192 27.7309C52.9083 27.7309 53.3858 27.2533 53.3858 26.6643V18.422L60.89 24.2525L43.1 38.0671C42.6347 38.4285 42.5504 39.0988 42.9118 39.5643C43.2732 40.0297 43.9434 40.1139 44.4089 39.7525L61.9196 26.1555V60.1988Z" fill="#373A4C"/>
<path d="M21.3855 13.8657H42.7193C43.3084 13.8657 43.7859 13.3882 43.7859 12.7991C43.7859 12.2099 43.3084 11.7324 42.7193 11.7324H21.3855C20.7964 11.7324 20.3189 12.2099 20.3189 12.7991C20.3189 13.3882 20.7964 13.8657 21.3855 13.8657Z" fill="#373A4C"/>
<path d="M43.7859 19.1975C43.7859 18.6084 43.3084 18.1309 42.7193 18.1309H21.3855C20.7964 18.1309 20.3189 18.6085 20.3189 19.1975C20.3189 19.7866 20.7964 20.2641 21.3855 20.2641H42.7193C43.3084 20.2641 43.7859 19.7865 43.7859 19.1975Z" fill="#373A4C"/>
<path d="M43.7859 25.5979C43.7859 25.0088 43.3084 24.5312 42.7193 24.5312H33.1191C32.53 24.5312 32.0525 25.0088 32.0525 25.5979C32.0525 26.187 32.53 26.6645 33.1191 26.6645H42.7193C43.3084 26.6645 43.7859 26.1869 43.7859 25.5979Z" fill="#373A4C"/>
</g>
<defs>
<clipPath id="clip0">
<rect x="0.0529175" width="64" height="64" fill="white"/>
</clipPath>
</defs>
</svg>
