<svg width="50" height="36" xmlns="http://www.w3.org/2000/svg" xmlns:xlink="http://www.w3.org/1999/xlink">
 <!-- Created with SVG Editor - http://github.com/mzalive/SVG Editor/ -->
 <g>
  <title>background</title>
  <rect fill="#fff" id="canvas_background" height="38" width="52" y="-1" x="-1"/>
 </g>
 <g>
  <title>Layer 1</title>
  <metadata id="svg_81">image/svg+xml</metadata>
  <defs>
   <radialGradient id="svg_78" cx="176.73709" cy="368.26901" r="143.69025" fx="176.73709" fy="368.26901" gradientUnits="userSpaceOnUse" gradientTransform="matrix(0.44122085,0,0,0.44122085,-45.980044,-130.48804)">
    <stop offset="0%" stop-color="#bed571" id="svg_80"/>
    <stop offset="100%" stop-color="#a0c636" id="svg_79"/>
   </radialGradient>
   <radialGradient xlink:href="#svg_78" id="svg_76" gradientUnits="userSpaceOnUse" gradientTransform="matrix(0.48240704,0.0109979,-0.0109979,0.48240704,-46.209005,-144.59939)" cx="176.73709" cy="368.26901" fx="176.73709" fy="368.26901" r="143.69025"/>
  </defs>
  <g id="svg_71" stroke="null" transform="matrix(0.3013653750360884,0,0,0.2986055385992046,-0.007423583052997174,0) ">
   <path fill="#5091ce" id="svg_77" d="m50.840372,30.49489l25.20676,-25.2072c3.81327,-3.81325 10.05296,-3.8133 13.86622,0.00004l25.20705,25.20672c3.81329,3.81329 3.81338,10.05296 0.00014,13.86624l-25.20675,25.20705c-3.81327,3.81334 -10.05296,3.81338 -13.86625,0.00009l-25.20716,-25.20676c-3.81327,-3.81326 -3.81329,-10.05293 -0.00001,-13.86618z" stroke="null"/>
   <path fill="url(#svg_76)" stroke-width="2.522" id="svg_75" d="m55.940142,18.72284l32.93462,-13.64172c4.98227,-2.06369 10.7469,0.32426 12.81061,5.30649l13.64169,32.93449c2.06359,4.98227 -0.3242,10.7469 -5.30649,12.81063l-32.93447,13.64169c-4.98227,2.06372 -10.74695,-0.32421 -12.81063,-5.3064l-13.64168,-32.93457c-2.06373,-4.98229 0.32422,-10.74692 5.30635,-12.81061z" stroke="#ffffff"/>
   <path fill="#ffffff" stroke-width="2.787966" id="svg_74" d="m62.166862,25.54099l27.12601,-11.23571c2.16788,-0.89806 4.6763,0.14105 5.57422,2.30907l11.23586,27.12596c0.89786,2.16793 -0.14104,4.67622 -2.30907,5.57427l-27.126,11.23571c-2.16789,0.89801 -4.67618,-0.14094 -5.57423,-2.30897l-11.23571,-27.12596c-0.89806,-2.16803 0.14089,-4.67636 2.30892,-5.57437z" stroke="#ffffff"/>
   <path fill="#ffffff" stroke-width="0.777932" id="svg_73" d="m66.543582,18.90863c2.19184,-0.90789 4.51107,0.03101 5.18266,1.65238l15.22282,36.75115c0.67193,1.62217 -0.30098,3.92378 -2.49628,4.83311l-2.19399,0.90877c-2.1951,0.90925 -4.51049,-0.02963 -5.18266,-1.65238l-15.22282,-36.75114c-0.67114,-1.62132 0.2454,-3.90076 2.49628,-4.83311l2.19399,-0.90878z" stroke="#a7c943"/>
   <path fill="#a7c943" id="svg_72" d="m101.550242,43.67338a1.43304,1.43304 0 0 1 1.4,1.46532a1.43304,1.43304 0 1 1 -1.4,-1.46532zm-5.34879,2.21553a1.43304,1.43304 0 0 1 1.40001,1.46533a1.43304,1.43304 0 1 1 -1.40001,-1.46533zm-5.34878,2.21554a1.43304,1.43304 0 0 1 1.40001,1.46533a1.43304,1.43304 0 1 1 -1.40001,-1.46533zm8.50397,-9.7269a1.43304,1.43304 0 0 1 1.4,1.46533a1.43304,1.43304 0 1 1 -1.4,-1.46533zm-5.34879,2.21554a1.43304,1.43304 0 0 1 1.40001,1.46533a1.43304,1.43304 0 1 1 -1.40001,-1.46533zm-5.34878,2.21554a1.43304,1.43304 0 0 1 1.4,1.46533a1.43304,1.43304 0 1 1 -1.4,-1.46533zm8.50396,-9.72691a1.43304,1.43304 0 0 1 1.40001,1.46533a1.43304,1.43304 0 1 1 -1.40001,-1.46533zm-5.34878,2.21554a1.43304,1.43304 0 0 1 1.4,1.46533a1.43304,1.43304 0 1 1 -1.4,-1.46533zm-5.34878,2.21554a1.43304,1.43304 0 0 1 1.4,1.46533a1.43304,1.43304 0 1 1 -1.4,-1.46533z" stroke="null"/>
  </g>
  <g fill="#5091ce" id="svg_44" stroke="null" transform="matrix(0.3013653750360884,0,0,0.2986055385992046,-0.007423583052997174,0) ">
   <path d="m22.980432,82.24696l-3.00011,0l0,15.90001l-14.99998,-15.90001l-2.99992,0l0,21.00004l2.99992,0l0,-16.14001l14.99998,16.14001l3.00011,0l0,-21.00004z" id="svg_70" stroke="null"/>
   <path d="m28.980372,85.24694l18.00003,0l0,-2.99998l-21.00001,0l0,21.00004l21.00001,0l0,-2.99997l-18.00003,0l0,-6.00008l14.99994,0l0,-2.99996l-14.99994,0l0,-6.00005z" id="svg_69" stroke="null"/>
   <path d="m67.980342,100.24703c-0.55497,-0.005 -1.06003,-0.14507 -1.50991,-0.41001c-0.45006,-0.27006 -0.81005,-0.63003 -1.08006,-1.08007c-0.26496,-0.44994 -0.40506,-0.95494 -0.41002,-1.51l0,-14.99999l-2.99998,0l0,14.99999c-0.005,0.55506 -0.14505,1.06006 -0.41,1.51c-0.27001,0.45004 -0.62501,0.81001 -1.08007,1.08007c-0.44987,0.26494 -0.95494,0.40499 -1.5099,0.41001l-3.00007,0c-0.55497,-0.005 -1.05998,-0.14507 -1.51002,-0.41001c-0.44994,-0.27006 -0.80989,-0.63003 -1.07995,-1.08007c-0.26507,-0.44994 -0.40501,-0.95494 -0.41003,-1.51l0,-14.99999l-2.99997,0l0,14.99999c0.005,0.85003 0.17007,1.63997 0.48501,2.37005c0.31992,0.72492 0.75499,1.35994 1.30995,1.89993c0.55507,0.5451 1.19506,0.96508 1.915,1.27005c0.715,0.29998 1.48,0.455 2.29001,0.46002l3.00007,0c0.89999,0 1.72496,-0.17 2.47497,-0.51502c0.75002,-0.34003 1.42499,-0.84997 2.02494,-1.525c0.60007,0.67503 1.27502,1.18497 2.02505,1.525c0.75002,0.34502 1.57499,0.51502 2.47498,0.51502l3.00008,0c0.8449,-0.005 1.63001,-0.17 2.35497,-0.48996c0.72492,-0.32008 1.35994,-0.75999 1.90503,-1.32008c0.54496,-0.55496 0.96993,-1.19495 1.27493,-1.91005c0.30508,-0.71994 0.46001,-1.47994 0.46496,-2.27996l0,-14.99999l-2.99992,0l0,14.99999c-0.005,0.55506 -0.13999,1.06006 -0.41,1.51c-0.27007,0.45004 -0.62508,0.81001 -1.07996,1.08007c-0.45005,0.26494 -0.95511,0.40499 -1.51001,0.41001l-3.00008,0z" id="svg_68" stroke="null"/>
   <path d="m79.980372,94.24695l15,0l0,-2.99996l-15,0l0,2.99996z" id="svg_67" stroke="null"/>
   <path d="m115.980362,85.24694l0,-2.99998l-20.99999,0l0,2.99998l8.99998,0l0,18.00006l2.99998,0l0,-18.00006l9.00003,0z" id="svg_66" stroke="null"/>
   <path d="m121.980402,85.24694l18.00003,0l0,-2.99998l-21,0l0,21.00004l21,0l0,-2.99997l-18.00003,0l0,-6.00008l14.99994,0l0,-2.99996l-14.99994,0l0,-6.00005z" id="svg_65" stroke="null"/>
   <path d="m145.980182,82.24696l-2.99975,0l0,21.00004l20.99989,0l0,-2.99997l-18.00014,0l0,-18.00007z" id="svg_64" stroke="null"/>
   <path d="m9.106542,111.44901l-2.66251,0l0,5.95101l-1.78805,0l0,-5.95101l-2.67556,0l0,-1.2561l7.12612,0l0,1.2561z" id="svg_63" stroke="null"/>
   <path d="m10.037892,110.19291l5.41638,0l0,1.2561l-3.62832,0l0,1.67822l3.30203,0l0,1.2561l-3.30203,0l0,1.76059l3.69357,0l0,1.2561l-5.48163,0l0,-7.20711z" id="svg_62" stroke="null"/>
   <path d="m21.620902,111.44901l-1.94468,0q-0.05221,0.97811 -0.11746,1.78118q-0.06526,0.80308 -0.18272,1.45172q-0.10441,0.63834 -0.28713,1.13255q-0.18273,0.4942 -0.46986,0.85455q-0.18272,0.2368 -0.41765,0.39124q-0.22187,0.15444 -0.46985,0.24711q-0.24798,0.09266 -0.49596,0.12355q-0.23493,0.04119 -0.44375,0.04119q-0.30018,0 -0.50901,-0.04119q-0.19577,-0.03088 -0.39154,-0.10296l0.19577,-1.21492q0.0783,0.02059 0.15662,0.03088q0.07831,0.0103 0.15662,0.0103q0.20882,0 0.40459,-0.08237q0.20883,-0.08236 0.35239,-0.27798q0.19577,-0.22651 0.33934,-0.65894q0.14357,-0.44272 0.24798,-1.12225q0.11746,-0.67952 0.18272,-1.61645q0.06526,-0.94722 0.09136,-2.20331l5.39027,0l0,7.2071l-1.78805,0l0,-5.95101l0,0.00001z" id="svg_61" stroke="null"/>
   <path d="m24.975752,110.19291l5.41637,0l0,1.2561l-3.62832,0l0,1.67822l3.30204,0l0,1.2561l-3.30204,0l0,1.76059l3.69358,0l0,1.2561l-5.48163,0l0,-7.20711z" id="svg_60" stroke="null"/>
   <path d="m35.358012,116.61753q-0.24798,0.0309 -0.509,0.04119q-0.26103,0.0103 -0.56122,0.0103q-0.62647,0 -1.16158,-0.16473q-0.53511,-0.17503 -0.93971,-0.52509q-0.39155,-0.36036 -0.62647,-0.89574q-0.22188,-0.54568 -0.22188,-1.28699q0,-0.70011 0.22188,-1.2458q0.23492,-0.55597 0.65258,-0.93692q0.43069,-0.39124 1.01801,-0.59716q0.58732,-0.20592 1.30515,-0.20592q0.16967,0 0.41765,0.0103q0.24798,0.0103 0.40459,0.04119l0,-0.87514l1.74891,0l0,0.90603q0.24797,-0.05149 0.56121,-0.06177q0.32629,-0.02058 0.52206,-0.02058q0.63952,0 1.17464,0.18533q0.53511,0.17503 0.92665,0.54568q0.4046,0.36036 0.62647,0.90604q0.22189,0.53538 0.20883,1.24579q0.013,0.73101 -0.23492,1.28699q-0.24798,0.55597 -0.67868,0.93692q-0.4307,0.37065 -1.00497,0.56627q-0.56121,0.18533 -1.21379,0.18533q-0.20882,0 -0.4568,-0.0103q-0.23492,-0.02059 -0.4307,-0.06177l0,1.009l-1.74891,0l0,-0.98841l0,-0.00004zm2.41454,-4.67432q-0.13052,0.0103 -0.3524,0.02058q-0.22187,0.0103 -0.37849,0.04119l0,3.50059q0.11746,0.02058 0.27408,0.02058q0.16967,0 0.31324,0.0103q0.36544,-0.0103 0.67868,-0.11325q0.31324,-0.10296 0.54816,-0.32947q0.23493,-0.22651 0.36544,-0.56627q0.13052,-0.33976 0.11747,-0.82367q0.013,-0.82367 -0.4046,-1.28698q-0.41765,-0.46331 -1.16158,-0.47361l0,0.00001zm-3.02795,3.58296q0.10441,0 0.31324,0q0.22187,-0.0103 0.36543,-0.05148l0,-3.4903q-0.13051,-0.02058 -0.30018,-0.02058q-0.16967,-0.0103 -0.31323,-0.0103q-0.71784,0 -1.20075,0.44272q-0.4829,0.43243 -0.4829,1.38994q0,0.83397 0.44375,1.28699q0.44375,0.45302 1.17464,0.45302l0,-0.00001z" id="svg_59" stroke="null"/>
   <path d="m41.971662,113.79646q0,-1.80177 1.00496,-2.76958q1.00498,-0.97811 2.87135,-0.97811q0.97886,0 1.70974,0.26769q0.73089,0.2677 1.21379,0.7619q0.48291,0.4942 0.71783,1.18402q0.23493,0.68982 0.23493,1.53408q0,1.80178 -1.01802,2.77989q-1.00496,0.96781 -2.85827,0.96781q-0.99192,0 -1.72281,-0.26769q-0.73088,-0.2677 -1.21379,-0.7619q-0.46986,-0.4942 -0.70478,-1.18402q-0.23493,-0.68983 -0.23493,-1.53409zm1.87943,0q0,0.54569 0.11745,1.009q0.11747,0.45302 0.3524,0.78248q0.24798,0.32947 0.62647,0.5148q0.37849,0.18533 0.90056,0.18533q0.95275,0 1.47481,-0.58687q0.52207,-0.58687 0.52207,-1.90474q0,-0.52508 -0.11747,-0.9781q-0.10442,-0.45302 -0.33934,-0.79278q-0.23493,-0.33977 -0.61342,-0.52509q-0.3785,-0.19562 -0.92665,-0.19562q-0.95277,0 -1.47483,0.60745q-0.52205,0.59716 -0.52205,1.88414z" id="svg_58" stroke="null"/>
   <path d="m56.131532,114.38333l-3.34118,0l0,3.01669l-1.78807,0l0,-7.20711l1.78807,0l0,2.93432l3.34118,0l0,-2.93432l1.78805,0l0,7.20711l-1.78805,0l0,-3.01669z" id="svg_57" stroke="null"/>
   <path d="m64.811512,112.76908c-1.33356,1.53904 -2.65744,3.08646 -3.98471,4.63094l-1.3443,0l0,-7.20711l1.78805,0c-0.00053,1.52211 0.002,3.04422 -0.002,4.56632c1.33029,-1.52341 2.66329,-3.04445 3.99535,-4.56632l1.33126,0l0,7.20711l-1.78805,0c-0.002,-1.70395 0.00026,-3.07255 0.004,-4.63094l0.0004,0z" id="svg_56" stroke="null"/>
   <path d="m74.174022,117.40002l-1.78806,0l0,-2.85196l-0.9397,0.19563l-1.90552,2.65633l-2.0752,0l1.87942,-2.39894l0.78309,-0.44272q-0.41765,-0.08236 -0.78309,-0.2471q-0.36544,-0.17503 -0.63952,-0.44272q-0.27409,-0.2677 -0.4307,-0.62805q-0.15662,-0.37065 -0.15662,-0.83397q0,-0.64864 0.28713,-1.09136q0.28713,-0.44272 0.79615,-0.71041q0.509,-0.27799 1.21379,-0.39125q0.70477,-0.12355 1.52702,-0.12355q0.22188,0 0.50901,0.0103q0.28713,0.0103 0.58732,0.03087q0.31323,0.02058 0.60037,0.05149q0.30017,0.03086 0.53511,0.08237l0,7.13504zm-2.45369,-6.05397q-0.35239,0 -0.66562,0.05149q-0.31324,0.05148 -0.54816,0.17503q-0.23493,0.12355 -0.3785,0.33976q-0.13052,0.21622 -0.13052,0.55598q0,0.31917 0.13052,0.54568q0.13052,0.21621 0.36544,0.36035q0.23493,0.13385 0.54817,0.19563q0.31323,0.06177 0.67867,0.06177l0.66563,0l0,-2.23421q-0.14357,-0.02058 -0.30019,-0.03086q-0.14356,-0.02058 -0.36544,-0.02058l0,-0.00004z" id="svg_55" stroke="null"/>
   <path d="m89.274002,118.687l-1.266,0l-0.19577,-1.28698l-5.87318,0l-0.19578,1.28698l-1.26599,0l0,-2.54308l0.96581,0q0.0914,-0.11325 0.30018,-0.50449q0.20883,-0.39125 0.41766,-1.10166q0.20881,-0.72071 0.35238,-1.79148q0.14357,-1.08107 0.13052,-2.55338l5.46858,0l0,5.95101l1.16159,0l0,2.54308zm-2.94965,-2.54308l0,-4.69491l-2.02298,0q-0.0783,1.83266 -0.3785,3.00639q-0.28713,1.16343 -0.58732,1.68852l2.9888,0z" id="svg_54" stroke="null"/>
   <path d="m95.443482,111.44901l-1.94467,0q-0.0523,0.97811 -0.11747,1.78118q-0.0653,0.80308 -0.18272,1.45172q-0.10441,0.63834 -0.28713,1.13255q-0.18272,0.4942 -0.46985,0.85455q-0.18273,0.2368 -0.41765,0.39124q-0.22187,0.15444 -0.46985,0.24711q-0.24798,0.09266 -0.49596,0.12355q-0.23493,0.04119 -0.44375,0.04119q-0.30019,0 -0.50902,-0.04119q-0.19577,-0.03088 -0.39154,-0.10296l0.19577,-1.21492q0.0783,0.02059 0.15662,0.03088q0.0783,0.0103 0.15662,0.0103q0.20883,0 0.4046,-0.08237q0.20882,-0.08236 0.35239,-0.27798q0.19578,-0.22651 0.33934,-0.65894q0.14357,-0.44272 0.24797,-1.12225q0.11747,-0.67952 0.18273,-1.61645q0.0653,-0.94722 0.0914,-2.20331l5.39027,0l0,7.2071l-1.78805,0l0,-5.95101l-0.00005,0.00001z" id="svg_53" stroke="null"/>
   <path d="m104.788982,117.40002l-1.78806,0l0,-2.85196l-0.9397,0.19563l-1.90552,2.65633l-2.0752,0l1.87942,-2.39894l0.78309,-0.44272q-0.41765,-0.08236 -0.78309,-0.2471q-0.36544,-0.17503 -0.63952,-0.44272q-0.27409,-0.2677 -0.4307,-0.62805q-0.15662,-0.37065 -0.15662,-0.83397q0,-0.64864 0.28713,-1.09136q0.28713,-0.44272 0.79615,-0.71041q0.509,-0.27799 1.21379,-0.39125q0.70477,-0.12355 1.52701,-0.12355q0.22189,0 0.50902,0.0103q0.28713,0.0103 0.58732,0.03087q0.31323,0.02058 0.60037,0.05149q0.30017,0.03086 0.53511,0.08237l0,7.13504zm-2.45369,-6.05397q-0.35239,0 -0.66562,0.05149q-0.31324,0.05148 -0.54816,0.17503q-0.23493,0.12355 -0.3785,0.33976q-0.13052,0.21622 -0.13052,0.55598q0,0.31917 0.13052,0.54568q0.13052,0.21621 0.36544,0.36035q0.23493,0.13385 0.54817,0.19563q0.31323,0.06177 0.67867,0.06177l0.66563,0l0,-2.23421q-0.14357,-0.02058 -0.30019,-0.03086q-0.14357,-0.02058 -0.36544,-0.02058l0,-0.00004z" id="svg_52" stroke="null"/>
   <path d="m111.875342,110.19291l5.6252,0l0,1.2561l-3.83715,0l0,1.50319q0.22188,-0.03085 0.53511,-0.06177q0.32629,-0.03086 0.63953,-0.03086q0.73088,0 1.34431,0.11326q0.61342,0.11325 1.04411,0.38095q0.44376,0.25739 0.69174,0.68982q0.24797,0.42213 0.24797,1.03988q0,0.60746 -0.26103,1.06048q-0.24798,0.45301 -0.73088,0.75159q-0.46985,0.29858 -1.14853,0.45302q-0.66563,0.15444 -1.50093,0.15444q-0.22187,0 -0.56121,-0.0103q-0.32629,-0.0103 -0.70479,-0.03088q-0.36543,-0.02058 -0.73088,-0.05149q-0.36544,-0.03089 -0.65257,-0.08237l0,-7.13503l0,-0.00003zm2.77997,6.14663q0.33934,0 0.62647,-0.06177q0.30019,-0.07207 0.52206,-0.20592q0.22188,-0.14414 0.35239,-0.36035q0.13051,-0.21621 0.13051,-0.52509q0,-0.37065 -0.14356,-0.59716q-0.14357,-0.22651 -0.39155,-0.35006q-0.24798,-0.13385 -0.57426,-0.17503q-0.31323,-0.04119 -0.67868,-0.04119q-0.18272,0 -0.45681,0.03088q-0.27407,0.02058 -0.37849,0.04119l0,2.19302q0.14357,0.03088 0.4307,0.04119q0.30019,0.0103 0.56122,0.0103l0,-0.00001z" id="svg_51" stroke="null"/>
   <path d="m124.647742,112.76908c-1.33356,1.53904 -2.65744,3.08646 -3.98471,4.63094l-1.3443,0l0,-7.20711l1.78805,0c-0.00053,1.52211 0.002,3.04422 -0.002,4.56632c1.33029,-1.52341 2.66329,-3.04445 3.99535,-4.56632l1.33126,0l0,7.20711l-1.78805,0c-0.002,-1.70395 0.00026,-3.07255 0.004,-4.63094l0.0004,0z" id="svg_50" stroke="null"/>
   <path d="m128.794372,114.2083l0,-1.10166l0.31324,0q0.11746,0 0.28713,0q0.16967,0 0.33934,0q0.18272,-0.0103 0.35239,-0.02059q0.16967,-0.02059 0.27408,-0.04119q0.45681,-0.08237 0.78309,-0.28828q0.32629,-0.21622 0.32629,-0.57657q0,-0.4942 -0.40459,-0.66923q-0.39155,-0.18533 -1.04413,-0.18533q-0.58732,0 -1.09632,0.12355q-0.50901,0.12355 -0.77005,0.23681l-0.45679,-1.19432q0.14356,-0.06177 0.40459,-0.13385q0.27409,-0.07207 0.61342,-0.13384q0.3524,-0.07207 0.75699,-0.11326q0.4046,-0.04119 0.82224,-0.04119q0.57427,0 1.12243,0.08236q0.54817,0.08237 0.97886,0.28829q0.43071,0.20591 0.69173,0.55597q0.26104,0.33977 0.26104,0.87515q0,0.53539 -0.36545,0.9884q-0.35238,0.45302 -1.14853,0.65894l0,0.05148q0.84836,0.13384 1.31821,0.57657q0.4829,0.44272 0.4829,1.18402q0,0.58686 -0.30019,1.00899q-0.30018,0.41184 -0.79614,0.67953q-0.48291,0.26769 -1.12243,0.39124q-0.63951,0.13385 -1.30515,0.13385q-0.86139,0 -1.56618,-0.11325q-0.70478,-0.11326 -1.08328,-0.2677l0.45681,-1.2252q0.30019,0.11325 0.86139,0.2368q0.56122,0.11326 1.33126,0.11326q0.28713,0 0.57427,-0.05149q0.30018,-0.06177 0.53511,-0.18533q0.23493,-0.13384 0.3785,-0.33976q0.14356,-0.20592 0.14356,-0.4942q0,-0.48391 -0.4568,-0.73101q-0.45681,-0.2471 -1.63143,-0.26769q-0.15662,-0.0103 -0.23494,-0.0103q-0.0783,0 -0.27408,0l-0.35239,0l0,0.00003z" id="svg_49" stroke="null"/>
   <path d="m139.997662,114.38333l-3.34118,0l0,3.01669l-1.78806,0l0,-7.20711l1.78806,0l0,2.93432l3.34118,0l0,-2.93432l1.78805,0l0,7.20711l-1.78805,0l0,-3.01669z" id="svg_48" stroke="null"/>
   <path d="m143.356992,110.19291l5.41637,0l0,1.2561l-3.62831,0l0,1.67822l3.30203,0l0,1.2561l-3.30203,0l0,1.76059l3.69357,0l0,1.2561l-5.48163,0l0,-7.20711z" id="svg_47" stroke="null"/>
   <path d="m156.149562,117.10144q-0.41764,0.2368 -1.07022,0.33976q-0.63952,0.10296 -1.3182,0.10296q-0.82224,0 -1.56618,-0.19562q-0.73089,-0.20592 -1.2921,-0.64864q-0.56122,-0.45302 -0.90055,-1.16343q-0.32629,-0.72071 -0.32629,-1.74001q0,-1.06047 0.36544,-1.77088q0.3785,-0.72071 0.96581,-1.15314q0.60037,-0.44272 1.33125,-0.62805q0.73089,-0.19562 1.46177,-0.19562q0.78309,0 1.3182,0.08237q0.54817,0.08237 0.90056,0.19562l-0.35239,1.19432q-0.30019,-0.11325 -0.71783,-0.16473q-0.4046,-0.05148 -0.99192,-0.05148q-1.08327,0 -1.7489,0.60745q-0.65258,0.60746 -0.65258,1.88415q0,0.55597 0.15662,1.01929q0.15662,0.45301 0.46985,0.78248q0.3263,0.31917 0.79615,0.5045q0.4829,0.17503 1.10937,0.17503q0.58732,0 0.99192,-0.09266q0.4046,-0.09266 0.70479,-0.23681l0.36543,1.15314z" id="svg_46" stroke="null"/>
   <path d="m158.351102,116.29541l-0.4788,1.10461l-1.78805,0l3.28897,-7.25859l1.31821,0l3.28898,7.25859l-1.87941,0l-0.50459,-1.10175m-0.41373,-1.14554l-1.18702,-2.79794l-1.15064,2.8012" id="svg_45" stroke="null"/>
  </g>
 </g>
</svg>