<?xml version="1.0" standalone="no"?>
<!DOCTYPE svg PUBLIC "-//W3C//DTD SVG 20010904//EN"
 "http://www.w3.org/TR/2001/REC-SVG-20010904/DTD/svg10.dtd">
<svg version="1.0" xmlns="http://www.w3.org/2000/svg"
 width="512.000000pt" height="512.000000pt" viewBox="0 0 512.000000 512.000000"
 preserveAspectRatio="xMidYMid meet">

<g transform="translate(0.000000,512.000000) scale(0.100000,-0.100000)"
fill="#000000" stroke="none">
<path d="M4086 5105 c-193 -40 -343 -122 -472 -256 -156 -165 -231 -338 -241
-564 -9 -201 38 -372 144 -528 l55 -80 -365 -365 -364 -364 -74 36 c-167 82
-369 59 -507 -57 -24 -21 -46 -37 -48 -37 -11 0 -595 403 -592 409 2 3 20 41
41 83 108 219 116 491 22 711 -53 125 -94 185 -190 283 -137 138 -286 217
-477 250 -466 82 -921 -243 -1004 -718 -50 -288 48 -575 269 -785 95 -90 200
-152 331 -195 98 -32 106 -33 266 -33 154 1 171 3 250 29 139 46 242 106 347
200 l53 48 297 -203 c164 -111 299 -203 300 -203 1 -1 -8 -28 -19 -61 -40
-119 -21 -274 47 -391 101 -172 327 -264 525 -213 31 8 54 9 59 3 5 -5 79
-128 164 -273 l156 -263 -67 -67 c-112 -110 -193 -246 -238 -401 -15 -53 -19
-97 -19 -230 1 -158 2 -169 33 -260 47 -140 105 -235 210 -344 338 -348 894
-353 1238 -11 285 284 342 708 143 1062 -53 93 -205 251 -291 301 -169 100
-315 137 -502 129 -142 -6 -225 -26 -371 -93 -8 -3 -303 479 -323 527 -2 4 18
34 44 66 128 157 153 349 68 522 l-36 74 364 364 365 365 80 -55 c93 -63 213
-112 328 -134 98 -19 291 -13 380 12 306 85 542 322 627 630 31 113 31 325 -1
440 -27 100 -99 247 -148 302 -47 53 -79 62 -116 33 -37 -29 -36 -72 4 -130
148 -218 177 -468 83 -701 -78 -193 -245 -348 -449 -416 -71 -24 -95 -27 -220
-28 -157 0 -217 14 -350 83 -96 50 -237 191 -287 287 -69 133 -83 193 -83 350
1 125 4 149 28 220 130 388 536 592 923 464 108 -36 139 -33 162 14 31 64 -21
107 -177 149 -100 26 -281 33 -375 13z m-3011 -645 c126 -39 222 -96 310 -185
141 -141 204 -284 212 -480 6 -141 -12 -231 -71 -350 -74 -150 -179 -255 -328
-330 -121 -61 -211 -79 -357 -72 -179 8 -326 68 -452 184 -327 303 -314 812
28 1095 96 80 216 133 363 162 56 11 226 -3 295 -24z m1585 -1592 c109 -34
201 -141 219 -257 34 -215 -155 -404 -369 -370 -136 21 -248 133 -269 268 -37
237 186 429 419 359z m1163 -1301 c183 -59 340 -193 421 -358 63 -128 80 -200
80 -334 0 -221 -87 -410 -256 -552 -357 -302 -904 -189 -1113 231 -54 110 -75
199 -75 326 0 198 71 368 211 509 67 67 119 102 212 147 107 50 180 64 322 60
95 -2 136 -8 198 -29z"/>
</g>
</svg>
