<?xml version="1.0" standalone="no"?>
<!DOCTYPE svg PUBLIC "-//W3C//DTD SVG 20010904//EN"
 "http://www.w3.org/TR/2001/REC-SVG-20010904/DTD/svg10.dtd">
<svg version="1.0" xmlns="http://www.w3.org/2000/svg"
 width="610.000000pt" height="620.000000pt" viewBox="0 0 610.000000 620.000000"
 preserveAspectRatio="xMidYMid meet">

<g transform="translate(0.000000,620.000000) scale(0.100000,-0.100000)"
fill="#000000" stroke="none">
<path d="M1253 4550 c-61 -37 -87 -108 -61 -170 29 -68 340 -596 369 -625 l29
-30 873 -5 c820 -5 875 -6 900 -23 40 -26 67 -76 67 -123 0 -35 -56 -137 -427
-779 -378 -657 -426 -744 -426 -782 0 -36 19 -77 133 -275 258 -449 242 -428
328 -435 57 -5 100 19 135 74 13 21 288 497 612 1058 323 561 708 1227 854
1480 262 454 266 461 266 517 0 46 -4 61 -25 83 -55 59 73 55 -1837 55 -1725
0 -1759 0 -1790 -20z"/>
<path d="M1957 3279 c-124 -29 -250 -141 -293 -261 -98 -272 86 -560 368 -576
230 -13 412 133 451 363 26 150 -48 321 -178 410 -94 65 -234 91 -348 64z"/>
</g>
</svg>
