<svg width="63" height="63" viewBox="0 0 63 63" fill="none" xmlns="http://www.w3.org/2000/svg">
<g clip-path="url(#clip0)">
<path d="M31.0954 62.66C48.2604 62.66 62.1754 48.745 62.1754 31.58C62.1754 14.415 48.2604 0.5 31.0954 0.5C13.9304 0.5 0.0153809 14.415 0.0153809 31.58C0.0153809 48.745 13.9304 62.66 31.0954 62.66Z" fill="#3B5998"/>
<path d="M38.9088 32.7959H33.363V53.1133H24.9606V32.7959H20.9644V25.6556H24.9606V21.035C24.9606 17.7307 26.5301 12.5566 33.4378 12.5566L39.6618 12.5827V19.5136H35.1459C34.4051 19.5136 33.3636 19.8837 33.3636 21.4599V25.6622H39.6429L38.9088 32.7959Z" fill="white"/>
</g>
<defs>
<clipPath id="clip0">
<rect width="62.16" height="62.16" fill="white" transform="translate(0.0153809 0.5)"/>
</clipPath>
</defs>
</svg>
