<svg width="65" height="65" viewBox="0 0 65 65" fill="none" xmlns="http://www.w3.org/2000/svg">
<g clip-path="url(#clip0)">
<path d="M58.775 22.2142H53.4416V6.21423C53.4417 3.27336 51.0491 0.880859 48.1083 0.880859H20.375C17.4342 0.880859 15.0416 3.27336 15.0416 6.21423V13.6809H5.44159C2.50084 13.6809 0.108337 16.0734 0.108337 19.0142V42.4809C0.108337 45.4216 2.50084 47.8142 5.44171 47.8142H12.9083V55.2809C12.9083 55.7117 13.1676 56.1011 13.5665 56.2665C13.6987 56.3209 13.8373 56.3475 13.975 56.3475C14.2523 56.3475 14.5253 56.2387 14.7291 56.035L22.9498 47.8142H25.7083V51.0142C25.7083 53.955 28.1008 56.3476 31.0417 56.3476H40.6417V63.8142C40.6417 64.2451 40.901 64.6345 41.2998 64.7999C41.4321 64.8542 41.5707 64.8809 41.7083 64.8809C41.9857 64.8809 42.2587 64.7721 42.4625 64.5684L50.6832 56.3476H58.775C61.7157 56.3476 64.1083 53.9551 64.1083 51.0142V27.5475C64.1083 24.6067 61.7158 22.2142 58.775 22.2142ZM17.175 6.21423C17.175 4.44998 18.6107 3.01423 20.375 3.01423H48.1083C49.8726 3.01423 51.3083 4.44998 51.3083 6.21423V29.6809C51.3083 31.4451 49.8726 32.8809 48.1083 32.8809H41.7083C41.4246 32.8809 41.1537 32.9929 40.9542 33.1934L34.2417 39.9059V33.9475C34.2417 33.3587 33.765 32.8809 33.1751 32.8809H20.3751C18.6108 32.8809 17.1751 31.4451 17.1751 29.6809V6.21423H17.175ZM22.5083 45.6809C22.2246 45.6809 21.9537 45.7929 21.7542 45.9934L15.0417 52.7059V46.7475C15.0417 46.1587 14.565 45.6809 13.9751 45.6809H5.44171C3.67746 45.6809 2.24171 44.2451 2.24171 42.4809V19.0142C2.24171 17.25 3.67746 15.8142 5.44171 15.8142H15.0417V29.6809C15.0417 32.6216 17.4342 35.0142 20.3751 35.0142H25.7083V45.6809H22.5083ZM61.975 51.0142C61.975 52.7785 60.5392 54.2142 58.775 54.2142H50.2416C49.9578 54.2142 49.687 54.3262 49.4875 54.5267L42.775 61.2392V55.2809C42.775 54.6921 42.2982 54.2142 41.7083 54.2142H31.0417C29.2775 54.2142 27.8417 52.7785 27.8417 51.0142V46.7476V35.0142H32.1083V42.4809C32.1083 42.9119 32.3676 43.3011 32.7665 43.4665C32.8987 43.5209 33.0373 43.5476 33.175 43.5476C33.4523 43.5476 33.7253 43.4389 33.9291 43.2351L42.1498 35.0144H48.1083C51.0491 35.0144 53.4417 32.6219 53.4417 29.681V24.3476H58.7751C60.5393 24.3476 61.9751 25.7834 61.9751 27.5476V51.0142H61.975Z" fill="#373A4C"/>
<path d="M24.6417 9.4145H39.5751C40.1649 9.4145 40.6417 8.93663 40.6417 8.34788C40.6417 7.75913 40.1649 7.28125 39.5751 7.28125H24.6417C24.0518 7.28125 23.5751 7.75913 23.5751 8.34788C23.5751 8.93663 24.0518 9.4145 24.6417 9.4145Z" fill="#373A4C"/>
<path d="M24.6417 15.8149H43.8417C44.4316 15.8149 44.9083 15.337 44.9083 14.7483C44.9083 14.1595 44.4316 13.6816 43.8417 13.6816H24.6417C24.0518 13.6816 23.5751 14.1595 23.5751 14.7483C23.5751 15.337 24.0518 15.8149 24.6417 15.8149Z" fill="#373A4C"/>
<path d="M24.6417 22.2133H33.1751C33.7649 22.2133 34.2417 21.7355 34.2417 21.1467C34.2417 20.558 33.7649 20.0801 33.1751 20.0801H24.6417C24.0518 20.0801 23.5751 20.558 23.5751 21.1467C23.5749 21.7355 24.0518 22.2133 24.6417 22.2133Z" fill="#373A4C"/>
<path d="M24.6417 28.6137H41.7083C42.2982 28.6137 42.775 28.1358 42.775 27.5471C42.775 26.9583 42.2982 26.4805 41.7083 26.4805H24.6417C24.0518 26.4805 23.5751 26.9583 23.5751 27.5471C23.5749 28.1358 24.0518 28.6137 24.6417 28.6137Z" fill="#373A4C"/>
<path d="M9.70833 22.2133H11.8417C12.4316 22.2133 12.9083 21.7355 12.9083 21.1467C12.9083 20.558 12.4316 20.0801 11.8417 20.0801H9.70833C9.11846 20.0801 8.64171 20.558 8.64171 21.1467C8.64171 21.7355 9.11846 22.2133 9.70833 22.2133Z" fill="#373A4C"/>
<path d="M9.70833 28.6137H11.8417C12.4316 28.6137 12.9083 28.1358 12.9083 27.5471C12.9083 26.9583 12.4316 26.4805 11.8417 26.4805H9.70833C9.11846 26.4805 8.64171 26.9583 8.64171 27.5471C8.64171 28.1358 9.11846 28.6137 9.70833 28.6137Z" fill="#373A4C"/>
<path d="M9.70833 35.0141H13.975C14.5648 35.0141 15.0416 34.5362 15.0416 33.9475C15.0416 33.3587 14.5648 32.8809 13.975 32.8809H9.70833C9.11846 32.8809 8.64171 33.3587 8.64171 33.9475C8.64171 34.5362 9.11846 35.0141 9.70833 35.0141Z" fill="#373A4C"/>
<path d="M22.5083 39.2812H9.70833C9.11846 39.2812 8.64171 39.7591 8.64171 40.3479C8.64171 40.9366 9.11846 41.4145 9.70833 41.4145H22.5083C23.0982 41.4145 23.575 40.9366 23.575 40.3479C23.575 39.7591 23.0982 39.2812 22.5083 39.2812Z" fill="#373A4C"/>
<path d="M38.5083 43.5473H44.9083C45.4982 43.5473 45.975 43.0694 45.975 42.4807C45.975 41.8919 45.4982 41.4141 44.9083 41.4141H38.5083C37.9185 41.4141 37.4417 41.8919 37.4417 42.4807C37.4417 43.0694 37.9185 43.5473 38.5083 43.5473Z" fill="#373A4C"/>
<path d="M53.4417 47.8145H38.5083C37.9185 47.8145 37.4417 48.2923 37.4417 48.8811C37.4417 49.4698 37.9185 49.9477 38.5083 49.9477H53.4417C54.0316 49.9477 54.5083 49.4698 54.5083 48.8811C54.5083 48.2923 54.0316 47.8145 53.4417 47.8145Z" fill="#373A4C"/>
</g>
<defs>
<clipPath id="clip0">
<rect x="0.108337" y="0.880859" width="64" height="64" fill="white"/>
</clipPath>
</defs>
</svg>
