<svg width="48" height="36" viewBox="0 0 48 36" fill="none" xmlns="http://www.w3.org/2000/svg">
<path d="M43.3125 0.179688H17.8125C17.2947 0.179688 16.875 0.599365 16.875 1.11719C16.875 1.63501 17.2947 2.05469 17.8125 2.05469H43.3125C44.8634 2.05469 46.125 3.31628 46.125 4.86719V31.1172C46.125 32.6681 44.8634 33.9297 43.3125 33.9297H4.6875C3.1366 33.9297 1.875 32.6681 1.875 31.1172V4.86719C1.875 3.31628 3.1366 2.05469 4.6875 2.05469H10.3125C10.8303 2.05469 11.25 1.63501 11.25 1.11719C11.25 0.599365 10.8303 0.179688 10.3125 0.179688H4.6875C2.10278 0.179688 0 2.28247 0 4.86719V31.1172C0 33.7019 2.10278 35.8047 4.6875 35.8047H43.3125C45.8972 35.8047 48 33.7019 48 31.1172V4.86719C48 2.28247 45.8972 0.179688 43.3125 0.179688Z" fill="#373A4C"/>
<path d="M14.0625 5.05469C9.09998 5.05469 5.0625 9.09216 5.0625 14.0547C5.0625 19.0172 9.09998 23.0547 14.0625 23.0547C19.025 23.0547 23.0625 19.0172 23.0625 14.0547C23.0625 9.09216 19.025 5.05469 14.0625 5.05469ZM9.9917 19.8972C10.667 18.2738 12.2633 17.1843 14.0625 17.1843C15.8617 17.1843 17.4584 18.2738 18.1337 19.8972C16.9786 20.7043 15.5753 21.1797 14.0625 21.1797C12.5497 21.1797 11.1464 20.7043 9.9917 19.8972ZM12.3567 13.6035V13.2512C12.3567 12.3104 13.1221 11.5454 14.0625 11.5454C15.0029 11.5454 15.7683 12.3104 15.7683 13.2512V13.6035C15.7683 14.5439 15.0029 15.3093 14.0625 15.3093C13.1221 15.3093 12.3567 14.5439 12.3567 13.6035ZM19.5718 18.5671C18.9368 17.4114 17.9553 16.4922 16.7823 15.9286C17.3185 15.3024 17.6433 14.4905 17.6433 13.6035V13.2512C17.6433 11.2766 16.0367 9.67041 14.0625 9.67041C12.0883 9.67041 10.4817 11.2766 10.4817 13.2512V13.6035C10.4817 14.4905 10.8065 15.3024 11.3427 15.9286C10.1697 16.4918 9.18823 17.4114 8.55322 18.5671C7.54431 17.3374 6.9375 15.7656 6.9375 14.0547C6.9375 10.126 10.1338 6.92969 14.0625 6.92969C17.9912 6.92969 21.1875 10.126 21.1875 14.0547C21.1875 15.7656 20.5807 17.3374 19.5718 18.5671Z" fill="#373A4C"/>
<path d="M28.5 18.9297H42C42.5178 18.9297 42.9375 18.51 42.9375 17.9922V10.4922C42.9375 9.97437 42.5178 9.55469 42 9.55469H28.5C27.9822 9.55469 27.5625 9.97437 27.5625 10.4922V17.9922C27.5625 18.51 27.9822 18.9297 28.5 18.9297ZM29.4375 11.4297H41.0625V17.0547H29.4375V11.4297Z" fill="#373A4C"/>
<path d="M28.5 22.6797H42C42.5178 22.6797 42.9375 22.26 42.9375 21.7422C42.9375 21.2244 42.5178 20.8047 42 20.8047H28.5C27.9822 20.8047 27.5625 21.2244 27.5625 21.7422C27.5625 22.26 27.9822 22.6797 28.5 22.6797Z" fill="#373A4C"/>
<path d="M27.8372 26.155C28.0115 26.3293 28.2535 26.4297 28.5 26.4297C28.7465 26.4297 28.9885 26.3293 29.1628 26.155C29.3372 25.9807 29.4375 25.7386 29.4375 25.4922C29.4375 25.2457 29.3372 25.0037 29.1628 24.8293C28.9885 24.655 28.7465 24.5547 28.5 24.5547C28.2535 24.5547 28.0115 24.655 27.8372 24.8293C27.6628 25.0037 27.5625 25.2457 27.5625 25.4922C27.5625 25.7386 27.6628 25.9807 27.8372 26.155Z" fill="#373A4C"/>
<path d="M31.5872 24.8293C31.4128 25.0037 31.3125 25.2457 31.3125 25.4922C31.3125 25.7386 31.4128 25.9807 31.5872 26.155C31.7615 26.3293 32.0035 26.4297 32.25 26.4297C32.4965 26.4297 32.7385 26.3293 32.9128 26.155C33.0872 25.9807 33.1875 25.7386 33.1875 25.4922C33.1875 25.2457 33.0872 25.0037 32.9128 24.8293C32.7385 24.655 32.4965 24.5547 32.25 24.5547C32.0035 24.5547 31.7615 24.655 31.5872 24.8293Z" fill="#373A4C"/>
<path d="M42 24.5547H36C35.4822 24.5547 35.0625 24.9744 35.0625 25.4922C35.0625 26.01 35.4822 26.4297 36 26.4297H42C42.5178 26.4297 42.9375 26.01 42.9375 25.4922C42.9375 24.9744 42.5178 24.5547 42 24.5547Z" fill="#373A4C"/>
<path d="M20.7815 25.875C20.7815 25.3575 20.3615 24.9375 19.844 24.9375H8.28125C7.76379 24.9375 7.34375 25.3575 7.34375 25.875C7.34375 26.3928 7.76379 26.8125 8.28125 26.8125H19.844C20.3615 26.8125 20.7815 26.3928 20.7815 25.875Z" fill="#373A4C"/>
<path d="M9.78125 28.6875C9.26379 28.6875 8.84375 29.1075 8.84375 29.625C8.84375 30.1428 9.26379 30.5625 9.78125 30.5625H18.344C18.8615 30.5625 19.2815 30.1428 19.2815 29.625C19.2815 29.1075 18.8615 28.6875 18.344 28.6875H9.78125Z" fill="#373A4C"/>
<path d="M14.0625 2.05469C14.309 2.05469 14.551 1.95435 14.7253 1.78003C14.8997 1.60571 15 1.36365 15 1.11719C15 0.870728 14.8997 0.628662 14.7253 0.454346C14.551 0.280029 14.309 0.179688 14.0625 0.179688C13.816 0.179688 13.574 0.280029 13.3997 0.454346C13.2253 0.628662 13.125 0.870728 13.125 1.11719C13.125 1.36365 13.2253 1.60571 13.3997 1.78003C13.574 1.95435 13.816 2.05469 14.0625 2.05469Z" fill="#373A4C"/>
</svg>