<?xml version="1.0" standalone="no"?>
<!DOCTYPE svg PUBLIC "-//W3C//DTD SVG 20010904//EN"
 "http://www.w3.org/TR/2001/REC-SVG-20010904/DTD/svg10.dtd">
<svg version="1.0" xmlns="http://www.w3.org/2000/svg"
 width="65.000000pt" height="65.000000pt" viewBox="0 0 65.000000 65.000000"
 preserveAspectRatio="xMidYMid meet">

<g transform="translate(0.000000,65.000000) scale(0.100000,-0.100000)"
fill="#000000" stroke="none">
<path d="M294 642 c-6 -4 -16 -17 -23 -29 -7 -15 -21 -23 -36 -23 -22 0 -25
-4 -25 -40 l0 -40 110 0 110 0 0 40 c0 36 -3 40 -25 40 -15 0 -29 8 -36 23
-14 26 -28 37 -49 37 -8 0 -20 -4 -26 -8z m42 -33 c10 -17 -13 -36 -27 -22
-12 12 -4 33 11 33 5 0 12 -5 16 -11z"/>
<path d="M100 551 c-6 -12 -10 -115 -10 -265 0 -209 2 -247 16 -260 23 -24
405 -24 428 0 14 13 16 51 16 260 0 150 -4 253 -10 265 -15 27 -70 27 -70 -1
0 -13 7 -20 20 -20 19 0 20 -7 20 -240 l0 -240 -190 0 -190 0 0 240 c0 233 1
240 20 240 13 0 20 7 20 20 0 28 -55 28 -70 1z"/>
<path d="M225 440 c-10 -11 -25 -20 -34 -20 -12 0 -12 -3 -3 -12 10 -10 19 -5
44 20 18 18 28 32 22 32 -6 0 -19 -9 -29 -20z"/>
<path d="M150 410 l0 -40 45 0 c40 0 45 2 45 23 -1 20 -2 21 -14 5 -7 -10 -23
-18 -35 -18 -31 0 -30 57 2 63 16 3 13 5 -10 6 -32 1 -33 0 -33 -39z"/>
<path d="M291 446 c7 -7 159 -10 166 -3 3 4 -33 7 -82 7 -49 0 -86 -2 -84 -4z"/>
<path d="M318 403 c17 -2 47 -2 65 0 17 2 3 4 -33 4 -36 0 -50 -2 -32 -4z"/>
<path d="M154 316 c-3 -8 -4 -27 -2 -43 3 -25 7 -28 46 -31 l43 -3 -3 43 c-3
42 -4 43 -41 46 -26 2 -39 -1 -43 -12z m66 -36 c0 -25 -4 -30 -25 -30 -21 0
-25 5 -25 30 0 25 4 30 25 30 21 0 25 -5 25 -30z"/>
<path d="M333 313 c26 -2 67 -2 90 0 23 2 2 3 -48 3 -49 0 -68 -1 -42 -3z"/>
<path d="M318 273 c17 -2 47 -2 65 0 17 2 3 4 -33 4 -36 0 -50 -2 -32 -4z"/>
<path d="M154 186 c-3 -8 -4 -27 -2 -43 3 -25 7 -28 46 -31 l42 -3 0 45 0 46
-40 0 c-26 0 -43 -5 -46 -14z m66 -31 c0 -20 -5 -25 -25 -25 -20 0 -25 5 -25
25 0 20 5 25 25 25 20 0 25 -5 25 -25z"/>
<path d="M333 183 c26 -2 67 -2 90 0 23 2 2 3 -48 3 -49 0 -68 -1 -42 -3z"/>
<path d="M290 150 c0 -5 24 -10 54 -10 30 0 58 5 61 10 4 6 -17 10 -54 10 -34
0 -61 -4 -61 -10z"/>
</g>
</svg>
