<svg width="25" height="25" viewBox="0 0 25 25" fill="none" xmlns="http://www.w3.org/2000/svg">
<g clip-path="url(#clip0)">
<path d="M18.2802 7.78387C18.2802 8.16656 18.4074 8.51996 18.6218 8.80432C17.8797 8.93762 17.3145 9.58765 17.3145 10.3677V11.8695C17.3145 12.2313 17.6087 12.5256 17.9705 12.5256H21.9858C22.3475 12.5256 22.6417 12.2313 22.6417 11.8695V10.3677C22.6417 9.58765 22.0767 8.93762 21.3344 8.80432C21.5488 8.51996 21.676 8.16656 21.676 7.78387C21.676 6.84766 20.9143 6.08594 19.9781 6.08594C19.0419 6.08594 18.2802 6.84766 18.2802 7.78387ZM21.9386 10.3677V11.8224H21.3891V10.9675C21.3891 10.7733 21.2318 10.616 21.0375 10.616C20.8433 10.616 20.686 10.7733 20.686 10.9675V11.8224H19.2702V10.9675C19.2702 10.7733 19.1129 10.616 18.9186 10.616C18.7245 10.616 18.5671 10.7733 18.5671 10.9675V11.8224H18.0176V10.3677C18.0176 9.87933 18.4149 9.48199 18.9034 9.48199H21.0527C21.5413 9.48199 21.9386 9.87933 21.9386 10.3677ZM19.9781 6.78925C20.5267 6.78925 20.9729 7.23547 20.9729 7.78387C20.9729 8.33246 20.5267 8.77869 19.9781 8.77869C19.4295 8.77869 18.9833 8.33246 18.9833 7.78387C18.9833 7.23547 19.4295 6.78925 19.9781 6.78925Z" fill="black"/>
<path d="M9.93164 15.4811V16.983C9.93164 17.3446 10.2259 17.639 10.5877 17.639H14.6028C14.9647 17.639 15.2589 17.3446 15.2589 16.983V15.4811C15.2589 14.7011 14.6938 14.0509 13.9515 13.9176C14.166 13.6332 14.2932 13.2798 14.2932 12.8972C14.2932 11.9609 13.5315 11.1992 12.5953 11.1992C11.6591 11.1992 10.8973 11.9609 10.8973 12.8972C10.8973 13.2798 11.0246 13.6332 11.239 13.9176C10.4967 14.0509 9.93164 14.7009 9.93164 15.4811ZM12.5953 11.9023C13.1439 11.9023 13.5901 12.3488 13.5901 12.8972C13.5901 13.4457 13.1439 13.892 12.5953 13.892C12.0467 13.892 11.6005 13.4457 11.6005 12.8972C11.6005 12.3488 12.0467 11.9023 12.5953 11.9023ZM10.6348 15.4811C10.6348 14.9926 11.0323 14.5953 11.5206 14.5953H13.6699C14.1584 14.5953 14.5558 14.9926 14.5558 15.4811V16.9357H14.0063V16.0808C14.0063 15.8865 13.8488 15.7292 13.6547 15.7292C13.4604 15.7292 13.3032 15.8865 13.3032 16.0808V16.9357H11.8874V16.0808C11.8874 15.8865 11.7301 15.7292 11.5358 15.7292C11.3416 15.7292 11.1843 15.8865 11.1843 16.0808V16.9357H10.6348V15.4811Z" fill="black"/>
<path d="M3.2049 7.3244H7.22021C7.58185 7.3244 7.8761 7.03015 7.8761 6.66833V5.1665C7.8761 4.38647 7.31104 3.73627 6.56873 3.60297C6.78314 3.31879 6.9104 2.96539 6.9104 2.5827C6.9104 1.64648 6.14868 0.884766 5.21246 0.884766C4.27625 0.884766 3.51453 1.64648 3.51453 2.5827C3.51453 2.96539 3.64178 3.31879 3.8562 3.60297C3.11407 3.73645 2.54883 4.38647 2.54883 5.1665V6.66833C2.54883 7.03015 2.84308 7.3244 3.2049 7.3244ZM5.21246 1.58789C5.76105 1.58789 6.20728 2.0343 6.20728 2.5827C6.20728 3.13129 5.76105 3.57751 5.21246 3.57751C4.66406 3.57751 4.21765 3.13129 4.21765 2.5827C4.21765 2.0343 4.66406 1.58789 5.21246 1.58789ZM3.25195 5.1665C3.25195 4.67816 3.64948 4.28064 4.13782 4.28064H6.28711C6.77563 4.28064 7.17297 4.67816 7.17297 5.1665V6.62128H6.62347V5.76617C6.62347 5.57208 6.46619 5.41461 6.27191 5.41461C6.07764 5.41461 5.92035 5.57208 5.92035 5.76617V6.62128H4.50458V5.76617C4.50458 5.57208 4.34729 5.41461 4.15302 5.41461C3.95892 5.41461 3.80145 5.57208 3.80145 5.76617V6.62128H3.25195V5.1665Z" fill="black"/>
<path d="M2.61914 24.8818H22.6514C22.8457 24.8818 23.0032 24.7243 23.0032 24.5302C23.0032 24.3359 22.8457 24.1786 22.6514 24.1786H22.6075V19.8163C22.6075 19.6223 22.4502 19.4648 22.2559 19.4648C22.0618 19.4648 21.9044 19.6223 21.9044 19.8163V24.1786H18.065V13.8132H21.9044V18.1755C21.9044 18.3698 22.0618 18.5273 22.2559 18.5273C22.4502 18.5273 22.6075 18.3698 22.6075 18.1755V13.7662C22.6075 13.4044 22.3132 13.1101 21.9514 13.1101H18.0179C17.6561 13.1101 17.3619 13.4044 17.3619 13.7662V24.1786H15.2225V18.8994C15.2225 18.5375 14.9282 18.2433 14.5666 18.2433H13.4557C13.2616 18.2433 13.1041 18.4008 13.1041 18.5948C13.1041 18.7891 13.2616 18.9464 13.4557 18.9464H14.5193V24.1786H10.6802V18.9464H11.8151C12.0092 18.9464 12.1666 18.7891 12.1666 18.5948C12.1666 18.4008 12.0092 18.2433 11.8151 18.2433H10.6329C10.2713 18.2433 9.97687 18.5375 9.97687 18.8994V24.1786H7.83765V8.57404C7.83765 8.21222 7.54321 7.91797 7.18158 7.91797H3.24792C2.88611 7.91797 2.59186 8.21222 2.59186 8.57404V24.1799C2.4104 24.1938 2.26758 24.3453 2.26758 24.5302C2.26758 24.7243 2.42487 24.8818 2.61914 24.8818ZM3.29498 8.62109H7.13434V24.1786H3.29498V8.62109Z" fill="black"/>
</g>
<defs>
<clipPath id="clip0">
<rect width="24" height="24" fill="white" transform="translate(0.626953 0.884766)"/>
</clipPath>
</defs>
</svg>
