<svg width="65" height="65" viewBox="0 0 65 65" fill="none" xmlns="http://www.w3.org/2000/svg">
<g clip-path="url(#clip0)">
<path d="M45.4212 65.0037C46.8671 64.9998 48.1323 64.0313 48.5136 62.6367L51.4624 51.6273L62.63 48.6418C64.3317 48.179 65.3392 46.4286 64.8857 44.725L59.0954 23.1439L59.5538 21.4378C59.9682 19.8665 59.1384 18.2342 57.6247 17.6426L55.0175 7.91005C54.5509 6.20987 52.8048 5.20088 51.0987 5.64509L32.0535 10.7539L16.0836 6.47248C15.429 6.29285 14.7339 6.33044 14.1027 6.57939L10.1132 2.59666C8.76836 1.23964 6.80067 0.705615 4.95453 1.19717C3.10839 1.68873 1.66643 3.1302 1.17439 4.97634C0.682345 6.82248 1.21539 8.79065 2.57193 10.1355L9.84373 17.4073L1.13143 49.931C0.675511 51.6365 1.684 53.3894 3.38761 53.8532L44.5909 64.8929C44.8613 64.9666 45.1405 65.0042 45.4212 65.0037ZM62.8224 45.2761C62.9732 45.8418 62.6398 46.4237 62.0755 46.5794L52.1009 49.2451L57.9883 27.2667L62.8224 45.2761ZM51.6445 7.70747C51.9193 7.6323 52.2127 7.67038 52.4592 7.81291C52.7057 7.95496 52.8848 8.19024 52.9571 8.46555L55.2318 16.9626L36.1729 11.8567L51.6445 7.70747ZM33.3032 33.3318L27.9195 31.5374L31.5088 27.9447L33.3032 33.3279V33.3318ZM28.9631 27.48L19.915 18.4309C19.4986 18.0145 18.823 18.0145 18.4066 18.4314C17.9903 18.8478 17.9908 19.5234 18.4076 19.9397L27.4562 28.9864L25.9489 30.4957L10.8674 15.4142L12.3752 13.9063L15.3904 16.923C15.6604 17.1925 16.0528 17.2979 16.4214 17.1988C16.7894 17.1002 17.077 16.8127 17.1756 16.4447C17.2742 16.0766 17.1692 15.6837 16.8998 15.4142L13.884 12.3985L15.3919 10.8896L30.471 25.9712L28.9631 27.48ZM7.85066 12.3985L12.3752 7.87393L13.8831 9.38179L9.35949 13.9063L7.85066 12.3985ZM3.14354 6.36607C3.14354 5.07201 3.9231 3.90487 5.11855 3.4099C6.31449 2.91493 7.69055 3.18878 8.60532 4.10404L10.8674 6.36607L6.3428 10.8906L4.07979 8.62762C3.4784 8.02916 3.1411 7.21494 3.14354 6.36607ZM3.19284 50.4909L11.5869 19.1504L25.1937 32.7573C25.305 32.8661 25.4388 32.9486 25.5862 32.9994C25.5945 32.9994 25.6008 33.0111 25.6106 33.014L32.6349 35.36C32.8541 35.4323 33.084 35.4679 33.3149 35.4669C33.7166 35.4655 34.1096 35.3498 34.4474 35.133L46.7104 38.426C46.8007 38.4509 46.8939 38.4636 46.9876 38.4631C47.5231 38.4631 47.9751 38.0663 48.0445 37.5357C48.1143 37.0051 47.7799 36.5052 47.263 36.3671L35.4266 33.1893C35.4158 33.0082 35.3831 32.829 35.3285 32.6557L32.9825 25.6309C32.9825 25.6212 32.9707 25.6148 32.9664 25.6051C32.9156 25.4591 32.8331 25.3259 32.7252 25.2151L16.2437 8.72671L56.7343 19.5727C57.0081 19.6459 57.2415 19.8245 57.383 20.0701C57.5246 20.3151 57.5627 20.6065 57.4894 20.8804L46.4546 62.0788C46.3819 62.3526 46.2027 62.5864 45.9572 62.728C45.7116 62.8696 45.4197 62.9076 45.1464 62.8339L3.9475 51.7981C3.67414 51.7249 3.44081 51.5462 3.29877 51.3012C3.15721 51.0556 3.11913 50.7642 3.19284 50.4909Z" fill="#373A4C"/>
<path d="M50.3021 26.0973C50.8371 26.0968 51.2891 25.6999 51.3589 25.1693C51.4282 24.6392 51.0939 24.1389 50.5774 24.0007L35.4105 19.937C35.0385 19.8262 34.6363 19.9262 34.3595 20.1981C34.0827 20.4695 33.9753 20.8703 34.0788 21.2437C34.1823 21.6176 34.4811 21.9056 34.8579 21.996L50.0258 26.0607C50.1161 26.0851 50.2089 26.0973 50.3021 26.0973Z" fill="#373A4C"/>
<path d="M48.6449 32.2787C49.1799 32.2782 49.6319 31.8818 49.7017 31.3512C49.7715 30.8206 49.4371 30.3208 48.9202 30.1821L38.6083 27.4237C38.2378 27.3182 37.8394 27.4202 37.5656 27.6916C37.2918 27.9626 37.1858 28.3604 37.2878 28.7319C37.3899 29.1033 37.6842 29.3908 38.0581 29.4836L48.3701 32.2426C48.4594 32.2665 48.5521 32.2787 48.6449 32.2787Z" fill="#373A4C"/>
<path d="M15.7404 34.5372L12.6481 33.7089C12.2771 33.6005 11.8763 33.7011 11.601 33.9725C11.3257 34.2434 11.2183 34.6422 11.3208 35.0151C11.4233 35.3876 11.7192 35.6756 12.0945 35.7678L15.1869 36.5977C15.2777 36.6216 15.3704 36.6338 15.4642 36.6338C15.9996 36.6343 16.4521 36.2374 16.522 35.7068C16.5918 35.1762 16.2574 34.6759 15.7404 34.5372Z" fill="#373A4C"/>
<path d="M46.3638 43.8458C46.5161 43.2771 46.1783 42.6933 45.6101 42.5405L21.9188 36.1937C21.3692 36.0864 20.8302 36.4232 20.6848 36.964C20.5398 37.5049 20.8381 38.0662 21.3677 38.2483L45.0575 44.5956C45.1478 44.6205 45.2406 44.6327 45.3338 44.6327C45.8156 44.6332 46.2379 44.3105 46.3638 43.8458Z" fill="#373A4C"/>
<path d="M14.0832 40.7175L10.9909 39.8887C10.4231 39.7398 9.84178 40.0776 9.68997 40.6443C9.53815 41.2115 9.87351 41.7948 10.4397 41.9491L13.5321 42.7765C13.6219 42.8014 13.7147 42.8141 13.8084 42.8136C14.3434 42.8141 14.7959 42.4172 14.8657 41.8866C14.936 41.356 14.6016 40.8557 14.0842 40.7175H14.0832Z" fill="#373A4C"/>
<path d="M43.9539 48.7224L20.264 42.3742C19.8921 42.2639 19.4898 42.3639 19.2131 42.6353C18.9363 42.9072 18.8289 43.3075 18.9324 43.6814C19.0359 44.0549 19.3346 44.3429 19.7114 44.4336L43.4018 50.7814C43.4921 50.8063 43.5853 50.819 43.679 50.819C44.214 50.8185 44.6661 50.4216 44.7359 49.891C44.8052 49.3604 44.4708 48.8606 43.9539 48.7224Z" fill="#373A4C"/>
</g>
<defs>
<clipPath id="clip0">
<rect x="0.994263" y="0.998047" width="64" height="64" fill="white"/>
</clipPath>
</defs>
</svg>
