<?xml version="1.0" encoding="UTF-8"?>
<!DOCTYPE svg PUBLIC "-//W3C//DTD SVG 1.1//EN" "http://www.w3.org/Graphics/SVG/1.1/DTD/svg11.dtd">
<svg xmlns="http://www.w3.org/2000/svg" version="1.1" width="82px" height="62px" style="shape-rendering:geometricPrecision; text-rendering:geometricPrecision; image-rendering:optimizeQuality; fill-rule:evenodd; clip-rule:evenodd" xmlns:xlink="http://www.w3.org/1999/xlink">
<g><path style="opacity:0.999" fill="#f9f9fa" d="M -0.5,-0.5 C 26.8333,-0.5 54.1667,-0.5 81.5,-0.5C 81.5,1.5 81.5,3.5 81.5,5.5C 62.5,5.5 43.5,5.5 24.5,5.5C 16.1667,5.5 7.83333,5.5 -0.5,5.5C -0.5,3.5 -0.5,1.5 -0.5,-0.5 Z"/></g>
<g><path style="opacity:1" fill="#b6bdc6" d="M 3.5,1.5 C 20.7493,1.85445 20.7493,2.85445 3.5,4.5C 3.5,3.5 3.5,2.5 3.5,1.5 Z"/></g>
<g><path style="opacity:1" fill="#1f92b7" d="M 70.5,1.5 C 73.5,1.5 76.5,1.5 79.5,1.5C 79.5,2.5 79.5,3.5 79.5,4.5C 76.5,4.5 73.5,4.5 70.5,4.5C 70.5,3.5 70.5,2.5 70.5,1.5 Z"/></g>
<g><path style="opacity:1" fill="#b39a8f" d="M 66.5,7.5 C 71.3054,6.51283 76.3054,6.17949 81.5,6.5C 81.5,7.16667 81.5,7.83333 81.5,8.5C 76.4725,8.49708 71.4725,8.16374 66.5,7.5 Z"/></g>
<g><path style="opacity:1" fill="#b7b2b0" d="M 24.5,5.5 C 43.5,5.5 62.5,5.5 81.5,5.5C 81.5,5.83333 81.5,6.16667 81.5,6.5C 76.3054,6.17949 71.3054,6.51283 66.5,7.5C 62.1539,7.33432 57.8206,7.50098 53.5,8C 54.1667,8.33333 54.8333,8.66667 55.5,9C 54.5842,9.27842 53.9175,9.77842 53.5,10.5C 53.1667,10.5 52.8333,10.5 52.5,10.5C 49.9196,8.98442 47.9196,9.65109 46.5,12.5C 44.9261,14.1016 44.2594,16.1016 44.5,18.5C 44.5,19.1667 44.1667,19.5 43.5,19.5C 43.2041,17.597 42.5375,15.9303 41.5,14.5C 41.0472,13.5416 40.3805,12.7083 39.5,12C 35.9295,10.8814 32.5961,9.21474 29.5,7C 28.365,6.25061 27.365,6.41728 26.5,7.5C 27.7701,8.28763 28.7701,9.28763 29.5,10.5C 26.5,10.1667 24.8333,8.5 24.5,5.5 Z"/></g>
<g><path style="opacity:1" fill="#5f8189" d="M -0.5,6.5 C 27.2259,5.88146 27.2259,7.21479 -0.5,10.5C -0.5,9.16667 -0.5,7.83333 -0.5,6.5 Z"/></g>
<g><path style="opacity:1" fill="#361e21" d="M 52.5,10.5 C 52.762,11.9778 52.4287,13.3112 51.5,14.5C 50.8076,13.9747 50.3076,13.3081 50,12.5C 48.4455,14.9272 47.2789,14.9272 46.5,12.5C 47.9196,9.65109 49.9196,8.98442 52.5,10.5 Z"/></g>
<g><path style="opacity:1" fill="#90a5aa" d="M -0.5,6.5 C -0.5,6.16667 -0.5,5.83333 -0.5,5.5C 7.83333,5.5 16.1667,5.5 24.5,5.5C 24.8333,8.5 26.5,10.1667 29.5,10.5C 29.8417,11.3382 30.5084,11.6716 31.5,11.5C 31.4142,12.4959 31.7476,13.3292 32.5,14C 26.2407,14.2018 20.0741,15.0351 14,16.5C 9.18539,15.5494 4.35206,15.5494 -0.5,16.5C -0.5,14.5 -0.5,12.5 -0.5,10.5C 27.2259,7.21479 27.2259,5.88146 -0.5,6.5 Z"/></g>
<g><path style="opacity:1" fill="#99685c" d="M 41.5,14.5 C 40.6236,14.3691 39.9569,14.7025 39.5,15.5C 40.9861,20.4859 40.1528,20.8192 37,16.5C 36.5357,17.0944 36.369,17.7611 36.5,18.5C 36.1667,18.5 35.8333,18.5 35.5,18.5C 35.5,17.8333 35.5,17.1667 35.5,16.5C 34.9202,14.2512 33.5869,12.5846 31.5,11.5C 30.5084,11.6716 29.8417,11.3382 29.5,10.5C 28.7701,9.28763 27.7701,8.28763 26.5,7.5C 27.365,6.41728 28.365,6.25061 29.5,7C 32.5961,9.21474 35.9295,10.8814 39.5,12C 40.3805,12.7083 41.0472,13.5416 41.5,14.5 Z"/></g>
<g><path style="opacity:1" fill="#efe1d6" d="M 66.5,7.5 C 71.4725,8.16374 76.4725,8.49708 81.5,8.5C 81.5,9.5 81.5,10.5 81.5,11.5C 78.4377,12.6662 75.4377,14.1662 72.5,16C 69.1064,16.7517 65.773,16.5851 62.5,15.5C 61.8503,17.1836 60.8503,18.5169 59.5,19.5C 59.719,18.325 59.3857,17.325 58.5,16.5C 57.8218,21.0834 55.3218,24.0834 51,25.5C 48.0912,24.5715 46.9245,22.5715 47.5,19.5C 48.5,19.5 49.5,19.5 50.5,19.5C 50.4521,16.7081 51.7854,14.8747 54.5,14C 53.6634,12.9887 53.33,11.8221 53.5,10.5C 53.9175,9.77842 54.5842,9.27842 55.5,9C 54.8333,8.66667 54.1667,8.33333 53.5,8C 57.8206,7.50098 62.1539,7.33432 66.5,7.5 Z"/></g>
<g><path style="opacity:1" fill="#b6c4c7" d="M 31.5,11.5 C 33.5869,12.5846 34.9202,14.2512 35.5,16.5C 33.3093,15.7093 31.3093,15.7093 29.5,16.5C 19.6159,18.4349 9.61589,19.4349 -0.5,19.5C -0.5,18.5 -0.5,17.5 -0.5,16.5C 4.35206,15.5494 9.18539,15.5494 14,16.5C 20.0741,15.0351 26.2407,14.2018 32.5,14C 31.7476,13.3292 31.4142,12.4959 31.5,11.5 Z"/></g>
<g><path style="opacity:1" fill="#fbf4ee" d="M 81.5,11.5 C 81.5,16.8333 81.5,22.1667 81.5,27.5C 78.333,27.5999 75.333,26.9332 72.5,25.5C 71.8076,26.0253 71.3076,26.6919 71,27.5C 69.1667,25.6667 67.3333,23.8333 65.5,22C 63.5594,21.2571 61.7261,21.4238 60,22.5C 59.5357,21.9056 59.369,21.2389 59.5,20.5C 59.5,20.1667 59.5,19.8333 59.5,19.5C 60.8503,18.5169 61.8503,17.1836 62.5,15.5C 65.773,16.5851 69.1064,16.7517 72.5,16C 75.4377,14.1662 78.4377,12.6662 81.5,11.5 Z"/></g>
<g><path style="opacity:1" fill="#934945" d="M 41.5,14.5 C 42.5375,15.9303 43.2041,17.597 43.5,19.5C 43.2178,20.7777 42.5511,21.7777 41.5,22.5C 39.9826,22.5106 38.8159,23.1772 38,24.5C 37.6466,23.3284 37.8132,22.1618 38.5,21C 38.3613,19.699 37.6946,18.8656 36.5,18.5C 36.369,17.7611 36.5357,17.0944 37,16.5C 40.1528,20.8192 40.9861,20.4859 39.5,15.5C 39.9569,14.7025 40.6236,14.3691 41.5,14.5 Z"/></g>
<g><path style="opacity:1" fill="#d6e6e9" d="M 29.5,16.5 C 31.8312,16.8593 31.6645,17.526 29,18.5C 28.3162,19.7839 28.4829,20.9505 29.5,22C 28.8333,22.1667 28.1667,22.3333 27.5,22.5C 22.2339,22.3493 16.9006,22.1826 11.5,22C 10.9747,21.3076 10.3081,20.8076 9.5,20.5C 6.24232,21.4173 2.90899,21.7507 -0.5,21.5C -0.5,20.8333 -0.5,20.1667 -0.5,19.5C 9.61589,19.4349 19.6159,18.4349 29.5,16.5 Z"/></g>
<g><path style="opacity:1" fill="#f0f5f2" d="M 29.5,16.5 C 31.3093,15.7093 33.3093,15.7093 35.5,16.5C 35.5,17.1667 35.5,17.8333 35.5,18.5C 34.5655,19.5676 34.2322,20.901 34.5,22.5C 32.8564,22.8102 31.8564,23.8102 31.5,25.5C 31.1667,25.5 30.8333,25.5 30.5,25.5C 28.7354,24.5386 26.7354,24.2053 24.5,24.5C 16.1667,24.5 7.83333,24.5 -0.5,24.5C -0.5,23.5 -0.5,22.5 -0.5,21.5C 2.90899,21.7507 6.24232,21.4173 9.5,20.5C 10.3081,20.8076 10.9747,21.3076 11.5,22C 16.9006,22.1826 22.2339,22.3493 27.5,22.5C 28.1667,22.3333 28.8333,22.1667 29.5,22C 28.4829,20.9505 28.3162,19.7839 29,18.5C 31.6645,17.526 31.8312,16.8593 29.5,16.5 Z"/></g>
<g><path style="opacity:1" fill="#ed6d74" d="M 44.5,18.5 C 46.5124,20.2082 46.8458,22.2082 45.5,24.5C 44.078,25.925 42.4113,26.925 40.5,27.5C 41.2341,26.2921 41.5674,24.9587 41.5,23.5C 41.5,23.1667 41.5,22.8333 41.5,22.5C 42.5511,21.7777 43.2178,20.7777 43.5,19.5C 44.1667,19.5 44.5,19.1667 44.5,18.5 Z"/></g>
<g><path style="opacity:1" fill="#5a2931" d="M 35.5,18.5 C 35.6576,21.9023 35.3242,25.2356 34.5,28.5C 34.5,29.5 34.5,30.5 34.5,31.5C 32.1667,31.5 29.8333,31.5 27.5,31.5C 27.5,30.8333 27.5,30.1667 27.5,29.5C 27.8333,29.5 28.1667,29.5 28.5,29.5C 31.6248,28.3205 33.6248,25.9872 34.5,22.5C 34.2322,20.901 34.5655,19.5676 35.5,18.5 Z"/></g>
<g><path style="opacity:1" fill="#83483c" d="M 52.5,10.5 C 52.8333,10.5 53.1667,10.5 53.5,10.5C 53.33,11.8221 53.6634,12.9887 54.5,14C 51.7854,14.8747 50.4521,16.7081 50.5,19.5C 49.5,19.5 48.5,19.5 47.5,19.5C 46.9245,22.5715 48.0912,24.5715 51,25.5C 55.3218,24.0834 57.8218,21.0834 58.5,16.5C 59.3857,17.325 59.719,18.325 59.5,19.5C 59.5,19.8333 59.5,20.1667 59.5,20.5C 57.4525,22.5496 55.7859,24.883 54.5,27.5C 52.5,28.8333 50.5,28.8333 48.5,27.5C 47.7281,26.3065 46.7281,25.3065 45.5,24.5C 46.8458,22.2082 46.5124,20.2082 44.5,18.5C 44.2594,16.1016 44.9261,14.1016 46.5,12.5C 47.2789,14.9272 48.4455,14.9272 50,12.5C 50.3076,13.3081 50.8076,13.9747 51.5,14.5C 52.4287,13.3112 52.762,11.9778 52.5,10.5 Z"/></g>
<g><path style="opacity:1" fill="#54060c" d="M 35.5,18.5 C 35.8333,18.5 36.1667,18.5 36.5,18.5C 37.6946,18.8656 38.3613,19.699 38.5,21C 37.8132,22.1618 37.6466,23.3284 38,24.5C 38.8159,23.1772 39.9826,22.5106 41.5,22.5C 41.5,22.8333 41.5,23.1667 41.5,23.5C 39.0053,24.9895 36.6719,26.6561 34.5,28.5C 35.3242,25.2356 35.6576,21.9023 35.5,18.5 Z"/></g>
<g><path style="opacity:1" fill="#96bdcc" d="M -0.5,25.5 C -0.5,25.1667 -0.5,24.8333 -0.5,24.5C 7.83333,24.5 16.1667,24.5 24.5,24.5C 24.0825,25.2216 23.4158,25.7216 22.5,26C 14.7978,26.7311 7.13108,26.5644 -0.5,25.5 Z"/></g>
<g><path style="opacity:1" fill="#879ba3" d="M 24.5,24.5 C 26.7354,24.2053 28.7354,24.5386 30.5,25.5C 29.7777,26.5511 28.7777,27.2178 27.5,27.5C 19.4931,27.3336 11.4931,27.5003 3.5,28C 2.94404,28.3826 2.61071,28.8826 2.5,29.5C 1.5,29.5 0.5,29.5 -0.5,29.5C -0.5,28.1667 -0.5,26.8333 -0.5,25.5C 7.13108,26.5644 14.7978,26.7311 22.5,26C 23.4158,25.7216 24.0825,25.2216 24.5,24.5 Z"/></g>
<g><path style="opacity:1" fill="#bb3346" d="M 34.5,22.5 C 33.6248,25.9872 31.6248,28.3205 28.5,29.5C 29.853,28.4739 30.853,27.1405 31.5,25.5C 31.8564,23.8102 32.8564,22.8102 34.5,22.5 Z"/></g>
<g><path style="opacity:1" fill="#f499a5" d="M 30.5,25.5 C 30.8333,25.5 31.1667,25.5 31.5,25.5C 30.853,27.1405 29.853,28.4739 28.5,29.5C 28.1667,29.5 27.8333,29.5 27.5,29.5C 27.5,29.1667 27.5,28.8333 27.5,28.5C 27.5,28.1667 27.5,27.8333 27.5,27.5C 28.7777,27.2178 29.7777,26.5511 30.5,25.5 Z"/></g>
<g><path style="opacity:1" fill="#e0c7b1" d="M 59.5,20.5 C 59.369,21.2389 59.5357,21.9056 60,22.5C 61.7261,21.4238 63.5594,21.2571 65.5,22C 67.3333,23.8333 69.1667,25.6667 71,27.5C 71.3076,26.6919 71.8076,26.0253 72.5,25.5C 75.333,26.9332 78.333,27.5999 81.5,27.5C 81.5,28.8333 81.5,30.1667 81.5,31.5C 77.1667,31.5 72.8333,31.5 68.5,31.5C 64.0914,29.6812 59.4247,28.3479 54.5,27.5C 55.7859,24.883 57.4525,22.5496 59.5,20.5 Z"/></g>
<g><path style="opacity:1" fill="#b0b3af" d="M 27.5,27.5 C 27.5,27.8333 27.5,28.1667 27.5,28.5C 19.2517,29.4686 10.9183,29.8019 2.5,29.5C 2.61071,28.8826 2.94404,28.3826 3.5,28C 11.4931,27.5003 19.4931,27.3336 27.5,27.5 Z"/></g>
<g><path style="opacity:1" fill="#9a252d" d="M 41.5,23.5 C 41.5674,24.9587 41.2341,26.2921 40.5,27.5C 39.2921,30.0442 37.2921,31.3775 34.5,31.5C 34.5,30.5 34.5,29.5 34.5,28.5C 36.6719,26.6561 39.0053,24.9895 41.5,23.5 Z"/></g>
<g><path style="opacity:1" fill="#888884" d="M 27.5,28.5 C 27.5,28.8333 27.5,29.1667 27.5,29.5C 27.5,30.1667 27.5,30.8333 27.5,31.5C 18.1667,31.5 8.83333,31.5 -0.5,31.5C -0.5,30.8333 -0.5,30.1667 -0.5,29.5C 0.5,29.5 1.5,29.5 2.5,29.5C 10.9183,29.8019 19.2517,29.4686 27.5,28.5 Z"/></g>
<g><path style="opacity:1" fill="#cdaa92" d="M 48.5,27.5 C 50.5,28.8333 52.5,28.8333 54.5,27.5C 59.4247,28.3479 64.0914,29.6812 68.5,31.5C 59.8333,31.5 51.1667,31.5 42.5,31.5C 42.5,30.5 42.5,29.5 42.5,28.5C 44.7354,28.7947 46.7354,28.4614 48.5,27.5 Z"/></g>
<g><path style="opacity:0.995" fill="#fbfbfb" d="M 45.5,24.5 C 46.7281,25.3065 47.7281,26.3065 48.5,27.5C 46.7354,28.4614 44.7354,28.7947 42.5,28.5C 42.5,29.5 42.5,30.5 42.5,31.5C 51.1667,31.5 59.8333,31.5 68.5,31.5C 72.8333,31.5 77.1667,31.5 81.5,31.5C 81.5,41.5 81.5,51.5 81.5,61.5C 80.5,61.5 79.5,61.5 78.5,61.5C 78.5,53.5 78.5,45.5 78.5,37.5C 71.1667,37.5 63.8333,37.5 56.5,37.5C 56.5,45.5 56.5,53.5 56.5,61.5C 37.5,61.5 18.5,61.5 -0.5,61.5C -0.5,51.5 -0.5,41.5 -0.5,31.5C 8.83333,31.5 18.1667,31.5 27.5,31.5C 29.8333,31.5 32.1667,31.5 34.5,31.5C 37.2921,31.3775 39.2921,30.0442 40.5,27.5C 42.4113,26.925 44.078,25.925 45.5,24.5 Z"/></g>
<g><path style="opacity:0.997" fill="#efedef" d="M 78.5,61.5 C 71.1667,61.5 63.8333,61.5 56.5,61.5C 56.5,53.5 56.5,45.5 56.5,37.5C 63.8333,37.5 71.1667,37.5 78.5,37.5C 78.5,45.5 78.5,53.5 78.5,61.5 Z"/></g>
<g><path style="opacity:1" fill="#aeaeae" d="M 3.5,38.5 C 7.49075,39.8348 11.8241,39.8348 16.5,38.5C 18.808,38.3647 20.808,39.0314 22.5,40.5C 18.1618,41.017 13.6618,41.3504 9,41.5C 6.67424,41.12 4.84091,40.12 3.5,38.5 Z"/></g>
<g><path style="opacity:1" fill="#fbcd2c" d="M 39.5,42.5 C 44.1667,42.5 48.8333,42.5 53.5,42.5C 53.5,43.5 53.5,44.5 53.5,45.5C 48.8333,45.5 44.1667,45.5 39.5,45.5C 39.5,44.5 39.5,43.5 39.5,42.5 Z"/></g>
<g><path style="opacity:1" fill="#9491ea" d="M 72.5,49.5 C 72.6395,47.663 73.3061,47.3296 74.5,48.5C 74.0431,49.2975 73.3764,49.6309 72.5,49.5 Z"/></g>
<g><path style="opacity:1" fill="#b993aa" d="M 72.5,49.5 C 69.3601,50.6408 66.0267,50.8075 62.5,50C 63.1029,48.1746 63.7696,46.3413 64.5,44.5C 65.3857,45.325 65.719,46.325 65.5,47.5C 67.9115,47.8633 69.4115,46.8633 70,44.5C 70.0995,46.6526 70.9328,48.3192 72.5,49.5 Z"/></g>
<g><path style="opacity:1" fill="#d7d8da" d="M 5.5,49.5 C 65.4667,49.837 65.4667,50.837 5.5,52.5C 5.5,51.5 5.5,50.5 5.5,49.5 Z"/></g>
<g><path style="opacity:1" fill="#d7d8da" d="M 5.5,53.5 C 64.1316,53.8374 64.1316,54.8374 5.5,56.5C 5.5,55.5 5.5,54.5 5.5,53.5 Z"/></g>
<g><path style="opacity:1" fill="#d6d7d9" d="M 5.5,57.5 C 19.1829,57.1675 32.8496,57.5008 46.5,58.5C 43.5535,59.3214 40.5535,59.8214 37.5,60C 26.8385,60.4998 16.1719,60.6665 5.5,60.5C 5.5,59.5 5.5,58.5 5.5,57.5 Z"/></g>
</svg>
