<svg width="65" height="65" viewBox="0 0 65 65" fill="none" xmlns="http://www.w3.org/2000/svg">
<g clip-path="url(#clip0)">
<path d="M32.6329 29.2999C32.4784 29.2999 32.3249 29.2657 32.182 29.1985L14.1851 20.6652C13.8146 20.4892 13.5774 20.1127 13.5774 19.6999C13.5774 19.2871 13.8146 18.9105 14.1851 18.7345L32.182 10.2012C32.4678 10.0657 32.7981 10.0657 33.0839 10.2012L51.0808 18.7345C51.4513 18.9105 51.6884 19.2871 51.6884 19.6999C51.6884 20.1127 51.4513 20.4892 51.0808 20.6652L33.0839 29.1985C32.941 29.2657 32.7875 29.2999 32.6329 29.2999ZM17.1228 19.6999L32.6329 27.0545L48.1431 19.6999L32.6329 12.3452L17.1228 19.6999Z" fill="#373A4C"/>
<path d="M32.6329 37.8325C32.471 37.8325 32.3079 37.7952 32.1597 37.7205L19.4561 31.3205C19.0972 31.1392 18.8706 30.7701 18.8706 30.3659V22.2091C18.8706 21.8443 19.0559 21.504 19.3619 21.3088C19.6678 21.1125 20.0521 21.0901 20.3792 21.2437L32.6329 27.0539L44.8856 21.2437C45.2138 21.0891 45.5981 21.1125 45.903 21.3088C46.21 21.504 46.3953 21.8443 46.3953 22.2091V30.3659C46.3953 30.7701 46.1687 31.1392 45.8098 31.3205L33.1062 37.7205C32.9579 37.7952 32.7949 37.8325 32.6329 37.8325ZM20.9879 29.7067L32.6329 35.5733L44.278 29.7067V23.8901L33.0839 29.1979C32.7981 29.3333 32.4678 29.3333 32.182 29.1979L20.9879 23.8901V29.7067Z" fill="#373A4C"/>
<path d="M50.6298 20.7661H32.6329C32.0486 20.7661 31.5743 20.2883 31.5743 19.6995C31.5743 19.1107 32.0486 18.6328 32.6329 18.6328H50.6298C51.2142 18.6328 51.6884 19.1107 51.6884 19.6995C51.6884 20.2883 51.2142 20.7661 50.6298 20.7661Z" fill="#373A4C"/>
<path d="M50.6298 30.3661C50.0454 30.3661 49.5712 29.8883 49.5712 29.2995V19.6995C49.5712 19.1107 50.0454 18.6328 50.6298 18.6328C51.2142 18.6328 51.6884 19.1107 51.6884 19.6995V29.2995C51.6884 29.8883 51.2142 30.3661 50.6298 30.3661Z" fill="#373A4C"/>
<path d="M32.6329 22.9C32.0486 22.9 31.5743 22.4221 31.5743 21.8333V17.5667C31.5743 16.9779 32.0486 16.5 32.6329 16.5C33.2173 16.5 33.6916 16.9779 33.6916 17.5667V21.8333C33.6916 22.4221 33.2173 22.9 32.6329 22.9Z" fill="#373A4C"/>
<path d="M48.5115 33.5668C48.3103 33.5668 48.106 33.5092 47.925 33.3876C47.4391 33.0612 47.3078 32.3988 47.6317 31.9082L49.749 28.7082C50.073 28.2175 50.7293 28.0842 51.2174 28.4127C51.7033 28.7391 51.8345 29.4015 51.5106 29.8922L49.3933 33.0922C49.189 33.4004 48.8534 33.5668 48.5115 33.5668Z" fill="#373A4C"/>
<path d="M52.7481 33.5668C52.4062 33.5668 52.0706 33.4004 51.8663 33.0922L49.749 29.8922C49.4251 29.4026 49.5563 28.7391 50.0423 28.4127C50.5282 28.0842 51.1856 28.2175 51.5106 28.7082L53.6279 31.9082C53.9518 32.3978 53.8205 33.0612 53.3346 33.3876C53.1536 33.5092 52.9493 33.5668 52.7481 33.5668Z" fill="#373A4C"/>
<path d="M32.6329 32.4993C32.0486 32.4993 31.5743 32.0215 31.5743 31.4327V28.2327C31.5743 27.6439 32.0486 27.166 32.6329 27.166C33.2173 27.166 33.6916 27.6439 33.6916 28.2327V31.4327C33.6916 32.0215 33.2173 32.4993 32.6329 32.4993Z" fill="#373A4C"/>
<path d="M63.3335 42.0997H1.93243C1.34806 42.0997 0.873787 41.6219 0.873787 41.0331V5.83414C0.873787 3.48107 2.77404 1.56641 5.1094 1.56641H60.1565C62.4918 1.56641 64.3921 3.48107 64.3921 5.83414V41.0331C64.3921 41.6219 63.9178 42.0997 63.3335 42.0997ZM2.99106 39.9664H62.2748V5.83414C62.2748 4.65654 61.3252 3.69974 60.1565 3.69974H5.1094C3.94066 3.69974 2.99106 4.65654 2.99106 5.83414V39.9664Z" fill="#373A4C"/>
<path d="M60.1565 50.6335H5.1094C2.77404 50.6335 0.873787 48.7188 0.873787 46.3657V41.0335C0.873787 40.4447 1.34806 39.9668 1.93243 39.9668H63.3335C63.9178 39.9668 64.3921 40.4447 64.3921 41.0335V46.3657C64.3921 48.7188 62.4918 50.6335 60.1565 50.6335ZM2.99106 42.1001V46.3657C2.99106 47.5433 3.94066 48.5001 5.1094 48.5001H60.1565C61.3252 48.5001 62.2748 47.5433 62.2748 46.3657V42.1001H2.99106Z" fill="#373A4C"/>
<path d="M35.8089 46.3657H29.457C28.8727 46.3657 28.3984 45.8879 28.3984 45.2991C28.3984 44.7103 28.8727 44.2324 29.457 44.2324H35.8089C36.3932 44.2324 36.8675 44.7103 36.8675 45.2991C36.8675 45.8879 36.3932 46.3657 35.8089 46.3657Z" fill="#373A4C"/>
<path d="M59.0989 42.1007H6.16698C5.58261 42.1007 5.10834 41.6228 5.10834 41.034V6.90065C5.10834 6.31185 5.58261 5.83398 6.16698 5.83398H59.0989C59.6833 5.83398 60.1576 6.31185 60.1576 6.90065V41.034C60.1576 41.6228 59.6833 42.1007 59.0989 42.1007ZM7.22561 39.9673H58.0403V7.96732H7.22561V39.9673Z" fill="#373A4C"/>
<path d="M46.3953 63.4332H18.8706C17.1197 63.4332 15.6947 61.9975 15.6947 60.2332C15.6947 58.4689 17.1197 57.0332 18.8706 57.0332H46.3953C48.1462 57.0332 49.5712 58.4689 49.5712 60.2332C49.5712 61.9975 48.1462 63.4332 46.3953 63.4332ZM18.8706 59.1665C18.2873 59.1665 17.812 59.6455 17.812 60.2332C17.812 60.8209 18.2873 61.2999 18.8706 61.2999H46.3953C46.9786 61.2999 47.4539 60.8209 47.4539 60.2332C47.4539 59.6455 46.9786 59.1665 46.3953 59.1665H18.8706Z" fill="#373A4C"/>
<path d="M44.278 59.1667H20.9879C20.4035 59.1667 19.9293 58.6888 19.9293 58.1C19.9293 57.5112 20.4035 57.0333 20.9879 57.0333C24.5005 57.0333 26.2811 54.5213 26.2811 49.5667C26.2811 48.9779 26.7554 48.5 27.3397 48.5H37.9261C38.5105 48.5 38.9848 48.9779 38.9848 49.5667C38.9848 54.5213 40.7654 57.0333 44.278 57.0333C44.8623 57.0333 45.3366 57.5112 45.3366 58.1C45.3366 58.6888 44.8623 59.1667 44.278 59.1667ZM26.1445 57.0333H39.1224C37.8182 55.5784 37.0506 53.412 36.8971 50.6333H28.3698C28.2152 53.412 27.4488 55.5784 26.1445 57.0333Z" fill="#373A4C"/>
</g>
<defs>
<clipPath id="clip0">
<rect x="0.873787" y="0.5" width="63.5183" height="64" fill="white"/>
</clipPath>
</defs>
</svg>
