<?xml version="1.0" encoding="utf-8"?>
<!-- Generator: Adobe Illustrator 24.3.0, SVG Export Plug-In . SVG Version: 6.00 Build 0)  -->
<svg version="1.1"
	 id="svg8" sodipodi:docname="community_logo_black.svg" xmlns:cc="http://creativecommons.org/ns#" xmlns:dc="http://purl.org/dc/elements/1.1/" xmlns:rdf="http://www.w3.org/1999/02/22-rdf-syntax-ns#" xmlns:sodipodi="http://sodipodi.sourceforge.net/DTD/sodipodi-0.dtd" xmlns:svg="http://www.w3.org/2000/svg"
	 xmlns="http://www.w3.org/2000/svg" xmlns:xlink="http://www.w3.org/1999/xlink" x="0px" y="0px" viewBox="0 0 22 22.5"
	 style="enable-background:new 0 0 22 22.5;" xml:space="preserve">
<style type="text/css">
	.st0{fill:#5A6069;}
	.st1{fill:#383F4A;}
	.st2{fill:#242C36;}
</style>
<sodipodi:namedview  bordercolor="#666666" borderlayer="true" borderopacity="1.0" fit-margin-bottom="1" fit-margin-left="1" fit-margin-right="1" fit-margin-top="1" id="base" pagecolor="#c8c8c8" showgrid="false" showguides="true">
	</sodipodi:namedview>
<g>
	<path class="st0" d="M14.1,17c1.4,0,2.6-0.5,3.5-1.4c0.8-0.9,1.3-2,1.3-3.3c-0.1-1.2-0.6-2.3-1.5-3c-0.8-0.7-2-1.2-3.2-1.2
		c-1.2,0-2.4,0.5-3.2,1.2c-0.9,0.8-1.4,1.8-1.5,3c-0.1,1.2,0.4,2.4,1.3,3.2C11.5,16.4,12.7,17,14.1,17z"/>
	<path class="st1" d="M2.7,16.5L6.9,13c0,0-0.1,0.5-0.1,0.7v0C6.9,14,7,14.6,7.1,15c0.3,0.9,0.8,1.7,1.4,2.5
		c0.7,0.8,1.5,1.4,2.5,1.8c1,0.4,2.1,0.7,3.3,0.7c1.1,0,2.2-0.2,3.3-0.7c1-0.4,1.8-1,2.5-1.8c0.7-0.7,1.1-1.6,1.4-2.5
		c0.1-0.5,0.2-0.9,0.3-1.4c0-0.5,0-0.9,0-1.4c-0.1-0.9-0.4-1.7-0.9-2.5c-0.4-0.7-1-1.3-1.6-1.8l0,0l-6.7-5.1c0,0,0,0,0,0
		c-0.4-0.3-1.2-0.3-1.7,0c-0.5,0.3-0.5,0.9-0.1,1.3l0,0l2.8,2.3l-8.5,0c0,0,0,0,0,0c-0.7,0-1.4,0.5-1.5,1C3.3,8,3.7,8.5,4.5,8.5l0,0
		l4.3,0l-7.7,5.9c0,0,0,0,0,0c-0.7,0.6-1,1.5-0.5,2.1C1,17,2,17,2.7,16.5z M10.2,10.7c0.3-0.5,0.6-0.9,1-1.2c0.8-0.7,1.9-1.1,3-1.1
		c1.1,0,2.2,0.4,3,1c0.4,0.3,0.8,0.8,1,1.2c0.3,0.5,0.4,1,0.5,1.5c0,0.6,0,1.1-0.2,1.6c-0.2,0.5-0.5,1-0.9,1.4
		c-0.9,0.9-2.1,1.4-3.4,1.4c-1.3,0-2.5-0.5-3.4-1.4c-0.4-0.4-0.7-0.9-0.9-1.4c-0.2-0.5-0.3-1.1-0.2-1.6C9.8,11.7,9.9,11.2,10.2,10.7
		z"/>
	<path class="st2" d="M14.3,15.1c0.8,0,1.6-0.3,2.1-0.8c0.5-0.5,0.8-1.2,0.8-1.9c0-0.7-0.4-1.3-0.9-1.8c-0.5-0.4-1.2-0.7-2-0.7
		c-0.8,0-1.5,0.3-2,0.7c-0.5,0.4-0.9,1.1-0.9,1.8c0,0.7,0.3,1.4,0.8,1.9C12.8,14.8,13.5,15.1,14.3,15.1z"/>
</g>
</svg>
