<svg xmlns="http://www.w3.org/2000/svg" viewBox="0 0 512 512"><path d="M256 386c-5.5 0-10 4.5-10 10s4.5 10 10 10 10-4.5 10-10-4.5-10-10-10z"/><path d="M469.1 61.4C444.5 51.5 412.5 46 379 46s-65.5 5.5-90.1 15.4c-14.5 5.9-25.6 13-32.9 21-7.3-8-18.4-15.2-32.9-21C198.5 51.5 166.5 46 133 46s-65.5 5.5-90.1 15.4C15.2 72.5 0 88.4 0 106v240c0 17.6 15.2 33.5 42.9 44.6 22.9 9.2 52.2 14.6 83.1 15.3v.1c0 34.2 55.9 60 130 60s130-25.8 130-60v-.1c30.9-.7 60.2-6.1 83.1-15.3 27.7-11.1 42.9-27 42.9-44.6V106c0-17.6-15.2-33.5-42.9-44.6zM492 286c0 8.5-11.6 18.5-30.4 26.1-20.3 8.2-47.5 13.1-75.6 13.8v-40c30.9-.7 60.2-6.1 83.1-15.3 9-3.6 16.6-7.7 22.9-12.2V286zM246 166c0 8.5-11.6 18.5-30.4 26.1-22 8.8-52.1 13.9-82.6 13.9s-60.6-5.1-82.6-13.9C31.6 184.5 20 174.5 20 166v-27.6c6.3 4.5 13.9 8.6 22.9 12.2C67.5 160.5 99.5 166 133 166s65.5-5.5 90.1-15.4c9-3.6 16.6-7.7 22.9-12.2V166zM42.9 210.6C67.5 220.5 99.5 226 133 226s65.5-5.5 90.1-15.4c9-3.6 16.6-7.7 22.9-12.2v27.8c-25.9.9-50.7 5.1-70.7 12.2-20.1 7.1-34.6 16.5-42.5 27.6-30.5 0-60.5-5.1-82.4-13.9C31.6 244.5 20 234.5 20 226v-27.6c6.3 4.5 13.9 8.6 22.9 12.2zM20 258.4c6.3 4.5 13.9 8.6 22.9 12.2 22.9 9.2 52.2 14.6 83.1 15.3v40c-28.1-.7-55.3-5.7-75.6-13.8C31.6 304.5 20 294.5 20 286v-27.6zm127.1 22.7c7.4-17.2 50.2-35.1 108.9-35.1s101.5 17.8 108.9 35.1c.7 1.7 1.1 3.3 1.1 4.9 0 8.8-10.8 18.6-29 26.1-21.5 8.9-50.2 13.9-81 13.9s-59.5-4.9-81-13.9c-18.2-7.6-29-17.3-29-26.1 0-1.6.3-3.3 1.1-4.9zM492 226c0 8.5-11.6 18.5-30.4 26.1-21.9 8.8-51.9 13.9-82.4 13.9-7.9-11.1-22.4-20.5-42.5-27.6s-44.9-11.3-70.7-12.2v-27.8c6.3 4.5 13.9 8.6 22.9 12.2 24.6 9.9 56.6 15.4 90.1 15.4s65.5-5.5 90.1-15.4c9-3.6 16.6-7.7 22.9-12.2V226zm0-60c0 8.5-11.6 18.5-30.4 26.1-22 8.8-52.1 13.9-82.6 13.9s-60.6-5.1-82.6-13.9c-18.7-7.5-30.4-17.5-30.4-26.1v-27.6c6.3 4.5 13.9 8.6 22.9 12.2 24.6 9.9 56.6 15.4 90.1 15.4s65.5-5.5 90.1-15.4c9-3.6 16.6-7.7 22.9-12.2V166zM296.4 79.9c22-8.8 52.1-13.9 82.6-13.9s60.6 5.1 82.6 13.9C480.4 87.5 492 97.5 492 106s-11.6 18.5-30.4 26.1c-22 8.8-52.1 13.9-82.6 13.9s-60.6-5.1-82.6-13.9c-18.7-7.5-30.4-17.5-30.4-26.1s11.6-18.5 30.4-26.1zm-246 0C72.4 71.1 102.5 66 133 66s60.6 5.1 82.6 13.9C234.4 87.5 246 97.5 246 106s-11.6 18.5-30.4 26.1c-22 8.8-52.1 13.9-82.6 13.9s-60.6-5.1-82.6-13.9C31.6 124.5 20 114.5 20 106s11.6-18.5 30.4-26.1zm0 292.2C31.6 364.5 20 354.5 20 346v-27.6c6.3 4.5 13.9 8.6 22.9 12.2 22.9 9.2 52.2 14.6 83.1 15.3v40c-28.1-.7-55.3-5.7-75.6-13.8zm286.6 60c-21.5 8.9-50.2 13.9-81 13.9s-59.5-4.9-81-13.9c-18.2-7.6-29-17.3-29-26.1v-27c2.3 1.6 4.8 3.3 7.5 4.9 15.5 9 36.7 15.6 61.1 19.2.5.1 1 .1 1.5.1 4.9 0 9.2-3.6 9.9-8.5.8-5.5-3-10.5-8.4-11.3C171.1 376.5 146 359 146 346v-27.1c22.6 16.6 62.6 27.1 110 27.1s87.4-10.6 110-27.1V346c0 13-25.1 30.5-71.6 37.3-5.5.8-9.2 5.9-8.4 11.3.7 5 5 8.5 9.9 8.5.5 0 1 0 1.5-.1 24.4-3.6 45.6-10.2 61.1-19.2 2.8-1.6 5.3-3.2 7.5-4.9v27c0 8.9-10.8 18.7-29 26.2zm124.6-60c-20.3 8.2-47.5 13.1-75.6 13.8v-40c30.9-.7 60.2-6.1 83.1-15.3 9-3.6 16.6-7.7 22.9-12.2V346c0 8.5-11.6 18.5-30.4 26.1z" fill="#3f4753"/></svg>