<?xml version="1.0" encoding="utf-8"?>
<!-- Generator: Adobe Illustrator 24.3.0, SVG Export Plug-In . SVG Version: 6.00 Build 0)  -->
<svg version="1.1" id="Layer_1" xmlns="http://www.w3.org/2000/svg" xmlns:xlink="http://www.w3.org/1999/xlink" x="0px" y="0px"
	 viewBox="0 0 115.2 100.9" style="enable-background:new 0 0 115.2 100.9;" xml:space="preserve">
<style type="text/css">
	.st0{clip-path:url(#SVGID_2_);}
	.st1{clip-path:url(#SVGID_4_);fill:#3F4753;}
</style>
<g>
	<g>
		<defs>
			<path id="SVGID_1_" d="M97,75.5c-3,0-4.2-1.8-4.2-1.8c-0.2-0.8-0.4-12.7-0.5-24.5c-0.1-12.3,0-24.5,0.6-24.6
				C96.4,18.1,107.4,5,107.4,5C86.8,9.1,75.6,22.6,75.6,22.6c-3.3-2.6-10.1-2.2-10.1-2.2c3.2,1.7,6.3,6.8,6.3,11v41.4
				c0,0-6.9,6.1-12.2,6.1c-3.2,0-5.1-1.7-6.2-3.1c-0.7-1-1-1.8-1-1.8V22.9c-0.7,0.5-1.6,0.9-2.5,0.9c-1.1,0-2.3-0.6-3.1-2.2
				c-0.6-1.3-1-3.1-1-5.9C45.8,6.3,56.5,0,56.5,0C43,3.6,30.4,10.6,13.7,29.8s-13.5,35-13.5,35s4.5-11,15.6-22.5
				c5.3-5.4,9.2-7.2,11.9-7.3c3,0,4.4,2.2,4.4,4.2v38.9c0,3.8-2.5,4.7-4.8,4.6c-1.9,0-3.7-0.7-3.7-0.7
				c11.4,16.5,38.6,18.9,38.6,18.9l12-12.8l0.3,0.2l11,9.3c20-11.9,29.7-34,29.7-34C106.1,73.3,100.4,75.5,97,75.5"/>
		</defs>
		<use xlink:href="#SVGID_1_"  style="overflow:visible;fill:#3F4753;"/>
		<clipPath id="SVGID_2_">
			<use xlink:href="#SVGID_1_"  style="overflow:visible;"/>
		</clipPath>
		<g class="st0">
			<g>
				<defs>
					<rect id="SVGID_3_" x="-101.8" y="-129.2" width="705.6" height="470.4"/>
				</defs>
				<use xlink:href="#SVGID_3_"  style="overflow:visible;fill:#3F4753;"/>
				<clipPath id="SVGID_4_">
					<use xlink:href="#SVGID_3_"  style="overflow:visible;"/>
				</clipPath>
				<rect x="-1.3" y="-1.2" class="st1" width="117.6" height="103.4"/>
			</g>
		</g>
	</g>
</g>
</svg>
