<?xml version="1.0" encoding="utf-8"?>
<!-- Generator: Adobe Illustrator 24.3.0, SVG Export Plug-In . SVG Version: 6.00 Build 0)  -->
<svg version="1.1" id="Layer_1" xmlns="http://www.w3.org/2000/svg" xmlns:xlink="http://www.w3.org/1999/xlink" x="0px" y="0px"
	 viewBox="0 0 391.5 345" style="enable-background:new 0 0 391.5 345;" xml:space="preserve">
<style type="text/css">
	.st0{fill-rule:evenodd;clip-rule:evenodd;fill:#3F4753;}
	.st1{fill:#3F4753;}
</style>
<g>
	<path class="st0" d="M230.6,2.5c18-1,30.9,18.4,36.3,31.4c3.1,7.4,5.7,19.5-1.8,23.2c-5.8,2.9-12.8,3.3-21,4.4
		c-19.7,2.6-32.2-2.1-39.3-14c-2-3.4-4.2-9.4-2.9-15.4c2.5-11.8,9.8-21.1,18.8-26.4C222.5,4.6,226.8,2.7,230.6,2.5"/>
	<path class="st1" d="M175.6,73.3c10.5,0,21.5,1.7,31.8,4.4c11.2,3,21.8,6.9,30.6,10.5c16.9,6.8,29.4,11.7,29.4,11.7
		s8.6-5.9,11.8-8.1c7.9-4.9,15.2-9.8,25-11.9c3.1-0.7,9-0.7,11.9-0.2c11.5,2.1,18.5,7.1,19.5,16.8c1.3,13.1-15.5,27-19.4,30.8
		c-3.5,3.3-20.4,19.3-41.3,21c-10.1,0.8-19.7-2.5-26.6-5.4c-2.3-1-8.3-4-8.3-4s-9.2,8.8-17.7,17.7c-8.5,8.9-29.7,34.8-29.7,34.8
		c23.3-1.7,50.1,5.8,67.1,12.3c39.9,15.4,78.5,42.6,104.5,79.3c8.9,12.6,17.5,26.5,23.9,41.5c1.8,4.1,5.3,12.8,2.2,16.5
		c-3.2,3.8-10.6-0.7-14.8-2.8c-7.6-3.7-23.8-16.1-35.5-25.5c-5.4-4.3-13.6-11.7-15.1-18.3c-0.9-4.2,1.6-9.7,2.5-14
		c1.4-6.9-2.6-12.2-5.4-15.7c-6.5-8.1-17.7-13.2-28.2-17.3c-20.9-8.2-35.5-10.8-70.9-15.3c-35.4-4.5-59.1-1.7-61.7-1.6
		c-2.7,3.2-6.2,7.4-9,10.6c-7.5,7.8-35.5,35.5-43.6,41.6c-14.5,11-30.7,21.6-47.8,29.9c-33,15.9-54,13.4-56.4,10.8
		c-2.4-2.6-2.5-10.1,2.5-20.4c5.1-10.4,17.1-23.8,22.7-29.6c5.6-5.7,15.9-15.2,29.9-25.8c19.4-14.7,48.8-29.5,63.5-36.7
		c20.4-10,40.9-14.9,46-16.3c28.1-38.6,57.9-63.1,57.9-63.1s-11.9-7.6-17-11c-11-7.3-21.8-15.2-34.4-20.7c-8-3.5-21.1-8.4-32.5-5.5
		c-14,3.5-32.5,14.1-39.9,23.2c-2.5,3-4.6,8.5-5.4,13.2C97,134.6,98,140,97,142.7c-1.8,4.7-9.4,8.8-15.3,11.4
		c-8.1,3.5-16.3,7.2-25.5,9.5c-3.1,0.8-8.6,2.3-10.2,0c-2.2-3,1.2-7.6,2.4-9.7c4.8-8.5,10.6-15.7,16.7-23
		c18.6-22.2,38.8-38.7,67.2-50C139.4,78.1,153.1,73.3,175.6,73.3 M314.3,92.6c-4.8,0.5-10.1,1.4-14.5,3.1
		c-6.5,2.5-12.2,5.5-18.1,9.1c13,4,28.1,6.2,39.9-0.9c2.9-1.7,5.5-4.1,5.6-6.9C327.3,93.8,319.1,92.1,314.3,92.6 M137.7,233.6
		c0,0-6.5,1.2-10,1.9c-3.5,0.7-11.6,3-17,4.4c-14.8,3.9-53.8,19-71.3,36.4c-5.7,5.7-10.2,12.5-13.5,20.6c-0.9,2.2-2.8,7.4-0.9,10.5
		c1.6,2.6,6.3,3.2,10.3,2.3c8.3-1.8,15.8-5.2,22.4-8.9c25-13.8,49-33.8,63.9-49.9c4.8-5.2,11-11.6,12.8-13.6
		C136,235.5,137.7,233.6,137.7,233.6"/>
</g>
</svg>
