<?xml version="1.0" encoding="utf-8"?>
<!-- Generator: Adobe Illustrator 24.3.0, SVG Export Plug-In . SVG Version: 6.00 Build 0)  -->
<svg version="1.1" id="Слой_1" xmlns="http://www.w3.org/2000/svg" xmlns:xlink="http://www.w3.org/1999/xlink" x="0px" y="0px"
	 viewBox="0 0 512 512" style="enable-background:new 0 0 512 512;" xml:space="preserve">
<style type="text/css">
	.st0{fill:#5C6BC0;}
	.st1{fill:url(#SVGID_1_);}
</style>
<polygon class="st0" points="300.9,121.2 300.7,121.5 301.4,121.2 "/>
<linearGradient id="SVGID_1_" gradientUnits="userSpaceOnUse" x1="9.3009" y1="238.8315" x2="505.8336" y2="238.8315">
	<stop  offset="0" style="stop-color:#D8A0FE"/>
	<stop  offset="1" style="stop-color:#7683D9"/>
</linearGradient>
<path class="st1" d="M326.6,69.5l-6.3,6.2c70.9,20.2,105.2,51.7,105.2,51.7c-184.8-90.9-337.3-3-340.8-2.2c0,0,34.2-33.7,109.8-51.7
	l-4.6-4.5c0,0-57.2-2.2-118.9,42.8l0,0c0,0-61.7,105.9-61.7,236.3c0,0,34.2,58.6,128,60.8c0,0,13.7-17.9,27.5-33.7
	c-52.7-15.8-73.2-47.3-73.2-47.3s4.6,2.2,11.4,6.7h2c1,0,1.5,0.5,2.1,1v0.2c0.5,0.5,1,1,2.1,1c112,45.5,205.6,56,312.5-11.3
	c0,0-20.5,31.5-75.4,47.3c11.3,15.7,27.2,33.7,27.2,33.7c93.8-2,130.3-60.6,132.3-58.1c0-130.3-62.1-236.3-62.1-236.3
	C388.3,71.3,336.4,69.5,326.6,69.5z M178.5,307.6c-23.9,0-43.4-20.2-43.4-44.9c0-24.9,19.5-45,43.4-45l0.1-0.1
	c23.9,0,43.3,20.2,43.3,44.9C221.9,287.4,202.5,307.6,178.5,307.6z M334,307.6c-23.9,0-43.4-20.2-43.4-44.9
	c0.1-24.9,19.6-45,43.4-45v-0.1c24,0,43.4,20.2,43.4,44.9C377.4,287.4,357.9,307.6,334,307.6z"/>
</svg>
