<?xml version="1.0" encoding="iso-8859-1"?>
<!-- Generator: Adobe Illustrator 19.0.0, SVG Export Plug-In . SVG Version: 6.00 Build 0)  -->
<svg version="1.1" id="Capa_1" xmlns="http://www.w3.org/2000/svg" xmlns:xlink="http://www.w3.org/1999/xlink" x="0px" y="0px"
	 viewBox="0 0 360 360" style="enable-background:new 0 0 360 360;" xml:space="preserve">
<g id="XMLID_1036_">
	<path id="XMLID_1037_" d="M345.089,124.239h-50.178V77.834L211.889,0H14.911v360h280v-53.034h50.178V124.239z M315.089,276.966
		h-210V154.239h210V276.966z"/>
	<path id="XMLID_1040_" d="M177.061,243.294c2.544-0.736,4.784-1.809,6.716-3.22c1.932-1.41,3.45-3.158,4.554-5.244
		c1.104-2.084,1.656-4.508,1.656-7.268c0-4.292-1.09-7.866-3.266-10.718c-2.178-2.852-5.138-4.83-8.878-5.934
		c3.065-1.349,5.396-3.419,6.991-6.21c1.595-2.79,2.392-5.78,2.392-8.97c0-2.024-0.354-4.032-1.059-6.026
		c-0.705-1.993-1.701-3.772-2.989-5.336c-1.288-1.564-2.853-2.837-4.692-3.818c-1.84-0.98-3.896-1.472-6.164-1.472h-34.96v65.32
		h31.556C171.802,244.398,174.516,244.03,177.061,243.294z M150.06,189.934h17.479c2.024,0,3.727,0.736,5.106,2.208
		c1.38,1.472,2.07,3.466,2.07,5.98c0,2.576-0.752,4.6-2.255,6.072c-1.503,1.472-3.327,2.208-5.474,2.208H150.06V189.934z
		 M150.06,216.43h19.504c1.104,0,2.116,0.23,3.036,0.69c0.92,0.46,1.716,1.089,2.392,1.886c0.675,0.798,1.211,1.734,1.61,2.806
		c0.398,1.074,0.598,2.193,0.598,3.358c0,1.166-0.216,2.27-0.644,3.312c-0.43,1.044-1.013,1.948-1.748,2.714
		c-0.736,0.768-1.61,1.366-2.622,1.794c-1.012,0.43-2.102,0.644-3.267,0.644H150.06V216.43z"/>
	<rect id="XMLID_1044_" x="199.923" y="179.078" width="12.696" height="65.32"/>
	<polygon id="XMLID_1045_" points="238.931,202.538 272.511,244.398 282.815,244.398 282.815,179.17 270.118,179.17 270.118,221.95 
		236.078,179.078 226.234,179.078 226.234,244.398 238.931,244.398 	"/>
</g>
<g>
</g>
<g>
</g>
<g>
</g>
<g>
</g>
<g>
</g>
<g>
</g>
<g>
</g>
<g>
</g>
<g>
</g>
<g>
</g>
<g>
</g>
<g>
</g>
<g>
</g>
<g>
</g>
<g>
</g>
</svg>
