<?xml version="1.0" encoding="iso-8859-1"?>
<!-- Generator: Adobe Illustrator 19.0.0, SVG Export Plug-In . SVG Version: 6.00 Build 0)  -->
<svg version="1.1" id="Layer_1" xmlns="http://www.w3.org/2000/svg" xmlns:xlink="http://www.w3.org/1999/xlink" x="0px" y="0px"
	 viewBox="0 0 512.005 512.005" style="enable-background:new 0 0 512.005 512.005;" xml:space="preserve">
<g>
	<g>
		<path d="M472.661,341.741l-3.157-0.533C450.795,338.157,448,333.293,448,330.669c0-4.245,8.512-10.667,21.355-10.667
			c12.629,0,20.949,5.995,21.355,10.304c0.576,5.888,5.995,10.389,11.648,9.6c5.845-0.555,10.155-5.76,9.6-11.627
			c-1.621-16.896-19.925-29.632-42.603-29.632c-23.936,0-42.688,14.059-42.688,32c0,16.704,13.248,27.328,39.424,31.595
			l1.707-10.517l1.408,11.051c17.728,2.923,21.461,7.36,21.461,10.56c0,4.245-8.512,10.667-21.355,10.667
			c-12.629,0-20.949-6.016-21.355-10.325c-0.555-5.867-5.867-10.24-11.648-9.6c-5.845,0.555-10.155,5.76-9.6,11.627
			c1.621,16.896,19.925,29.632,42.603,29.632c23.936,0,42.688-14.059,42.688-32C512,356.653,498.773,346.029,472.661,341.741z"/>
	</g>
</g>
<g>
	<g>
		<path d="M365.973,341.741l-3.157-0.533c-18.709-3.051-21.504-7.915-21.504-10.539c0-4.245,8.512-10.667,21.355-10.667
			c12.629,0,20.949,6.016,21.355,10.304c0.576,5.888,5.931,10.389,11.648,9.6c5.845-0.555,10.155-5.76,9.6-11.627
			c-1.621-16.896-19.925-29.632-42.603-29.632c-23.936,0-42.688,14.059-42.688,32c0,16.704,13.248,27.328,39.424,31.595
			l1.707-10.517l1.429,11.051c17.707,2.923,21.44,7.36,21.44,10.56c0,4.245-8.512,10.667-21.355,10.667
			c-12.629,0-20.949-6.016-21.355-10.325c-0.576-5.867-5.824-10.24-11.648-9.6c-5.845,0.555-10.155,5.76-9.6,11.627
			c1.621,16.896,19.925,29.632,42.603,29.632c23.936,0,42.688-14.059,42.688-32C405.312,356.653,392.085,346.029,365.973,341.741z"
			/>
	</g>
</g>
<g>
	<g>
		<path d="M288,362.669c-5.888,0-10.667,4.779-10.667,10.667c0,5.888-4.8,10.667-10.667,10.667h-21.333
			c-5.867,0-10.667-4.779-10.667-10.667v-42.667c0-5.888,4.8-10.667,10.667-10.667h21.333c5.867,0,10.667,4.779,10.667,10.667
			s4.779,10.667,10.667,10.667s10.667-4.779,10.667-10.667c0-17.643-14.357-32-32-32h-21.333c-17.643,0-32,14.357-32,32v42.667
			c0,17.643,14.357,32,32,32h21.333c17.643,0,32-14.357,32-32C298.667,367.448,293.888,362.669,288,362.669z"/>
	</g>
</g>
<g>
	<g>
		<path d="M373.333,277.336c5.888,0,10.667-4.779,10.667-10.667v-256c0-5.888-4.779-10.667-10.667-10.667H138.667
			c-1.451,0-2.837,0.299-4.139,0.832c-0.405,0.171-0.704,0.491-1.067,0.725c-0.811,0.469-1.664,0.896-2.347,1.557l-128,128
			c-0.491,0.491-0.768,1.152-1.152,1.728c-0.384,0.576-0.875,1.067-1.131,1.707C0.299,135.853,0,137.24,0,138.669v362.667
			c0,5.888,4.779,10.667,10.667,10.667h362.667c5.888,0,10.667-4.779,10.667-10.667v-64c0-5.888-4.779-10.667-10.667-10.667
			c-5.888,0-10.667,4.779-10.667,10.667v53.333H21.333V149.336h117.333c5.888,0,10.667-4.779,10.667-10.667V21.336h213.333v245.333
			C362.667,272.557,367.445,277.336,373.333,277.336z M128,128.003H36.416L128,36.419V128.003z"/>
	</g>
</g>
<g>
</g>
<g>
</g>
<g>
</g>
<g>
</g>
<g>
</g>
<g>
</g>
<g>
</g>
<g>
</g>
<g>
</g>
<g>
</g>
<g>
</g>
<g>
</g>
<g>
</g>
<g>
</g>
<g>
</g>
</svg>
