<?xml version="1.0" encoding="iso-8859-1"?>
<!-- Generator: Adobe Illustrator 19.0.0, SVG Export Plug-In . SVG Version: 6.00 Build 0)  -->
<svg version="1.1" id="Layer_1" xmlns="http://www.w3.org/2000/svg" xmlns:xlink="http://www.w3.org/1999/xlink" x="0px" y="0px"
	 viewBox="0 0 512 512" style="enable-background:new 0 0 512 512;" xml:space="preserve">
<g>
	<g>
		<path d="M224,298.667c-5.888,0-10.667,4.779-10.667,10.667v32h-42.667v-32c0-5.888-4.779-10.667-10.667-10.667
			s-10.667,4.779-10.667,10.667v85.333c0,5.888,4.779,10.667,10.667,10.667s10.667-4.779,10.667-10.667v-32h42.667v32
			c0,5.888,4.779,10.667,10.667,10.667s10.667-4.779,10.667-10.667v-85.333C234.667,303.445,229.888,298.667,224,298.667z"/>
	</g>
</g>
<g>
	<g>
		<path d="M309.333,298.667h-42.667c-5.888,0-10.667,4.779-10.667,10.667S260.779,320,266.667,320h10.667v74.667
			c0,5.888,4.779,10.667,10.667,10.667s10.667-4.779,10.667-10.667V320h10.667c5.888,0,10.667-4.779,10.667-10.667
			S315.221,298.667,309.333,298.667z"/>
	</g>
</g>
<g>
	<g>
		<path d="M420.075,299.477c-3.989-1.685-8.555-0.747-11.627,2.304L384,326.229l-24.448-24.448
			c-3.051-3.029-7.637-3.968-11.627-2.304c-3.989,1.643-6.592,5.547-6.592,9.856v85.333c0,5.888,4.779,10.667,10.667,10.667
			c5.888,0,10.667-4.779,10.667-10.667v-59.584l13.803,13.781c4.16,4.16,10.923,4.16,15.083,0l13.781-13.781v59.584
			c0,5.888,4.779,10.667,10.667,10.667c5.888,0,10.667-4.779,10.667-10.667v-85.333C426.667,305.024,424.064,301.12,420.075,299.477
			z"/>
	</g>
</g>
<g>
	<g>
		<path d="M501.333,384h-32v-74.667c0-5.888-4.779-10.667-10.667-10.667S448,303.445,448,309.333v85.333
			c0,5.888,4.779,10.667,10.667,10.667h42.667c5.888,0,10.667-4.779,10.667-10.667S507.221,384,501.333,384z"/>
	</g>
</g>
<g>
	<g>
		<path d="M373.333,277.333c5.888,0,10.667-4.779,10.667-10.667v-256C384,4.779,379.221,0,373.333,0H138.667
			c-1.429,0-2.837,0.299-4.139,0.832c-0.405,0.171-0.704,0.491-1.067,0.725c-0.811,0.469-1.664,0.896-2.347,1.557l-128,128
			c-0.491,0.491-0.768,1.152-1.152,1.728c-0.384,0.576-0.875,1.067-1.131,1.707C0.299,135.851,0,137.237,0,138.667v362.667
			C0,507.221,4.779,512,10.667,512h362.667c5.888,0,10.667-4.779,10.667-10.667v-64c0-5.888-4.779-10.667-10.667-10.667
			c-5.888,0-10.667,4.779-10.667,10.667v53.333H21.333V149.333h117.333c5.888,0,10.667-4.779,10.667-10.667V21.333h213.333v245.333
			C362.667,272.555,367.445,277.333,373.333,277.333z M128,128H36.416L128,36.416V128z"/>
	</g>
</g>
<g>
</g>
<g>
</g>
<g>
</g>
<g>
</g>
<g>
</g>
<g>
</g>
<g>
</g>
<g>
</g>
<g>
</g>
<g>
</g>
<g>
</g>
<g>
</g>
<g>
</g>
<g>
</g>
<g>
</g>
</svg>
