<?xml version="1.0" encoding="iso-8859-1"?>
<!-- Generator: Adobe Illustrator 19.0.0, SVG Export Plug-In . SVG Version: 6.00 Build 0)  -->
<svg version="1.1" id="Capa_1" xmlns="http://www.w3.org/2000/svg" xmlns:xlink="http://www.w3.org/1999/xlink" x="0px" y="0px"
	 viewBox="0 0 360 360" style="enable-background:new 0 0 360 360;" xml:space="preserve">
<g id="XMLID_822_">
	<path id="XMLID_823_" d="M344.971,127.272h-49.942V77.834L212.006,0H15.029v360h280v-50h49.942V127.272z M314.971,280h-210V157.273
		h210V280z"/>
	<rect id="XMLID_826_" x="137.613" y="182.112" width="12.696" height="65.319"/>
	<path id="XMLID_827_" d="M168.847,237.357c2.79,3.16,6.118,5.721,9.982,7.683c3.864,1.964,8.126,2.944,12.788,2.944
		c2.636,0,5.336-0.338,8.096-1.012c2.76-0.675,5.351-1.656,7.774-2.944c2.422-1.288,4.6-2.866,6.531-4.738
		c1.933-1.87,3.419-4.032,4.462-6.485l-10.395-5.98c-0.736,1.779-1.718,3.297-2.944,4.554c-1.227,1.258-2.561,2.286-4.002,3.082
		c-1.441,0.798-2.96,1.38-4.554,1.748c-1.596,0.368-3.128,0.552-4.6,0.552c-2.822,0-5.414-0.611-7.774-1.84
		c-2.361-1.227-4.386-2.852-6.072-4.876c-1.688-2.024-2.989-4.37-3.91-7.038c-0.92-2.668-1.38-5.441-1.38-8.326
		c0-2.576,0.398-5.166,1.196-7.773c0.797-2.606,1.978-4.937,3.542-6.992c1.564-2.055,3.526-3.727,5.888-5.014
		c2.36-1.288,5.137-1.932,8.326-1.932c1.472,0,2.975,0.169,4.508,0.506c1.533,0.338,3.005,0.873,4.416,1.609
		c1.41,0.736,2.729,1.734,3.956,2.99c1.227,1.258,2.269,2.807,3.128,4.646l9.752-6.717c-2.147-4.232-5.413-7.666-9.798-10.304
		c-4.386-2.636-9.584-3.956-15.594-3.956c-5.092,0-9.63,0.951-13.616,2.852c-3.987,1.902-7.359,4.387-10.12,7.453
		c-2.76,3.066-4.861,6.547-6.302,10.441c-1.441,3.895-2.162,7.836-2.162,11.822c0,4.172,0.782,8.266,2.347,12.281
		C163.879,230.611,166.056,234.199,168.847,237.357z"/>
	<path id="XMLID_828_" d="M231.223,237.635c2.79,3.098,6.133,5.581,10.028,7.451c3.893,1.871,8.233,2.807,13.018,2.807
		c4.601,0,8.862-0.904,12.788-2.715c3.925-1.809,7.298-4.231,10.12-7.268c2.82-3.036,5.028-6.532,6.624-10.488
		c1.594-3.955,2.392-8.11,2.392-12.466c0-4.108-0.768-8.156-2.3-12.144c-1.533-3.986-3.68-7.545-6.44-10.672
		c-2.761-3.129-6.088-5.658-9.982-7.59c-3.896-1.933-8.204-2.898-12.926-2.898c-4.601,0-8.864,0.905-12.788,2.714
		c-3.926,1.81-7.314,4.247-10.166,7.314c-2.853,3.068-5.092,6.594-6.716,10.58c-1.626,3.988-2.439,8.158-2.439,12.512
		c0,4.172,0.767,8.25,2.3,12.236C226.27,230.996,228.431,234.537,231.223,237.635z M236.559,206.814
		c0.828-2.607,2.038-4.937,3.634-6.992c1.595-2.055,3.588-3.711,5.98-4.969c2.392-1.256,5.12-1.885,8.188-1.885
		c2.944,0,5.597,0.598,7.958,1.793c2.36,1.196,4.355,2.807,5.98,4.83c1.624,2.024,2.882,4.355,3.772,6.992
		c0.889,2.639,1.334,5.367,1.334,8.188c0,2.7-0.414,5.352-1.241,7.959c-0.828,2.607-2.056,4.953-3.681,7.037
		c-1.626,2.086-3.619,3.758-5.979,5.015c-2.362,1.258-5.076,1.886-8.143,1.886c-3.006,0-5.689-0.612-8.05-1.84
		c-2.361-1.227-4.355-2.852-5.979-4.876c-1.626-2.024-2.868-4.354-3.727-6.992c-0.859-2.636-1.288-5.366-1.288-8.189
		C235.316,212.074,235.73,209.422,236.559,206.814z"/>
</g>
<g>
</g>
<g>
</g>
<g>
</g>
<g>
</g>
<g>
</g>
<g>
</g>
<g>
</g>
<g>
</g>
<g>
</g>
<g>
</g>
<g>
</g>
<g>
</g>
<g>
</g>
<g>
</g>
<g>
</g>
</svg>
