<?xml version="1.0" encoding="iso-8859-1"?>
<!-- Generator: Adobe Illustrator 19.0.0, SVG Export Plug-In . SVG Version: 6.00 Build 0)  -->
<svg version="1.1" id="Layer_1" xmlns="http://www.w3.org/2000/svg" xmlns:xlink="http://www.w3.org/1999/xlink" x="0px" y="0px"
	 viewBox="0 0 512 512" style="enable-background:new 0 0 512 512;" xml:space="preserve">
<g>
	<g>
		<path d="M511.381,389.76c-2.027-4.352-20.352-53.909-31.424-84.117c-1.515-4.181-5.504-6.976-9.963-6.997
			c-0.021,0-0.043,0-0.043,0c-4.437,0-8.427,2.752-9.984,6.912l-32,85.333c-2.069,5.525,0.725,11.669,6.229,13.739
			c5.504,2.048,11.669-0.725,13.739-6.229l5.397-14.4h33.173c7.36,18.133,10.304,21.568,14.251,21.568
			c0.917,0,1.92-0.171,3.051-0.405l-1.963-10.965L511.381,389.76z M461.333,362.667l8.491-22.677
			c3.221,8.768,5.931,16.064,8.427,22.677H461.333z"/>
	</g>
</g>
<g>
	<g>
		<path d="M340.715,389.76c-2.005-4.352-20.331-53.909-31.403-84.117c-1.536-4.203-5.867-7.317-10.005-6.997
			c-4.437,0-8.427,2.752-9.984,6.912l-32,85.333c-2.069,5.525,0.725,11.669,6.229,13.739c5.483,2.048,11.669-0.725,13.739-6.229
			l5.376-14.4h33.173c7.36,18.133,10.304,21.568,14.251,21.568c0.917,0,1.92-0.171,3.051-0.405l-1.963-10.965L340.715,389.76z
			 M290.667,362.667l8.491-22.677c3.221,8.768,5.931,16.064,8.427,22.677H290.667z"/>
	</g>
</g>
<g>
	<g>
		<path d="M420.373,299.349c-5.504-2.069-11.669,0.704-13.739,6.229l-22.016,58.709l-22.016-58.709
			c-2.069-5.525-8.235-8.277-13.739-6.229c-5.504,2.069-8.299,8.213-6.229,13.739l32,85.333c1.536,4.16,5.525,6.912,9.984,6.912
			c4.459,0,8.427-2.752,9.984-6.912l32-85.333C428.672,307.563,425.877,301.419,420.373,299.349z"/>
	</g>
</g>
<g>
	<g>
		<path d="M224.619,298.667c-5.888,0-10.667,4.779-10.667,10.667v64c0,5.888-4.779,10.667-10.667,10.667
			s-10.667-4.779-10.667-10.667c0-5.888-4.779-10.667-10.667-10.667s-10.667,4.779-10.667,10.667c0,17.643,14.357,32,32,32
			s32-14.357,32-32v-64C235.285,303.445,230.507,298.667,224.619,298.667z"/>
	</g>
</g>
<g>
	<g>
		<path d="M373.952,277.333c5.888,0,10.667-4.779,10.667-10.667v-256C384.619,4.779,379.84,0,373.952,0H139.285
			c-1.451,0-2.859,0.299-4.139,0.832c-0.405,0.171-0.704,0.491-1.067,0.725c-0.811,0.469-1.664,0.896-2.347,1.557l-128,128
			c-0.512,0.491-0.768,1.152-1.152,1.728c-0.384,0.576-0.875,1.067-1.131,1.707c-0.555,1.301-0.832,2.688-0.832,4.117v362.667
			c0,5.888,4.779,10.667,10.667,10.667h362.667c5.888,0,10.667-4.779,10.667-10.667v-64c0-5.888-4.779-10.667-10.667-10.667
			s-10.667,4.779-10.667,10.667v53.333H21.952V149.333h117.333c5.888,0,10.667-4.779,10.667-10.667V21.333h213.333v245.333
			C363.285,272.555,368.064,277.333,373.952,277.333z M128.597,128H37.013l91.584-91.584V128z"/>
	</g>
</g>
<g>
</g>
<g>
</g>
<g>
</g>
<g>
</g>
<g>
</g>
<g>
</g>
<g>
</g>
<g>
</g>
<g>
</g>
<g>
</g>
<g>
</g>
<g>
</g>
<g>
</g>
<g>
</g>
<g>
</g>
</svg>
