<?xml version="1.0" encoding="iso-8859-1"?>
<!-- Generator: Adobe Illustrator 19.0.0, SVG Export Plug-In . SVG Version: 6.00 Build 0)  -->
<svg version="1.1" id="Layer_1" xmlns="http://www.w3.org/2000/svg" xmlns:xlink="http://www.w3.org/1999/xlink" x="0px" y="0px"
	 viewBox="0 0 512 512" style="enable-background:new 0 0 512 512;" xml:space="preserve">
<g>
	<g>
		<path d="M346.747,0H47.628v512h416.744V117.625L346.747,0z M357.209,60.979l46.184,46.184h-46.184V60.979z M428.651,476.279
			H83.349v-35.721h345.302V476.279z M428.651,404.837H83.349V250.047h345.302V404.837z M428.651,214.326H83.349V35.721h238.14
			v107.163h107.163V214.326z"/>
	</g>
</g>
<g>
	<g>
		<path d="M249.624,286.434h-32.469v76.086v0h17.573v-24.539h15.431c13.353,0,24.326-11.181,24.326-25.826
			C274.486,299.413,263.661,286.434,249.624,286.434z M249.09,322.654h-14.361v-20.788h13.718c5.02,0,8.252,4.17,8.252,10.288
			C256.699,318.091,253.765,322.654,249.09,322.654z"/>
	</g>
</g>
<g>
	<g>
		<path d="M326.779,322.761v12.754h14.79v2.356c-5.502,6.359-11.68,9.539-18.54,9.539c-12.016,0-20.253-10.045-20.253-22.826
			c0-13.414,8.683-23.041,19.504-23.041c7.337,0,13.886,3.376,18.003,10.823l13.074-9.859c-5.321-9.979-15.466-16.609-30.434-16.609
			c-20.319,0-37.936,15.895-37.936,38.042c0,21.91,15.606,39.116,36.542,39.116c7.572,0,14.253-2.679,20.039-8.037h0v7.501h14.574
			v-39.759H326.779z"/>
	</g>
</g>
<g>
	<g>
		<path d="M180.505,286.434v38.686c0,16.638-1.753,22.933-12.002,22.933c-5.973,0-10.364-2.054-12.645-3.428l-3.857,14.357
			c4.57,3.146,10.073,4.716,16.502,4.716c23.944,0,29.577-11.597,29.577-38.579v-38.686H180.505z"/>
	</g>
</g>
<g>
</g>
<g>
</g>
<g>
</g>
<g>
</g>
<g>
</g>
<g>
</g>
<g>
</g>
<g>
</g>
<g>
</g>
<g>
</g>
<g>
</g>
<g>
</g>
<g>
</g>
<g>
</g>
<g>
</g>
</svg>
