<?xml version="1.0" encoding="iso-8859-1"?>
<!-- Generator: Adobe Illustrator 19.0.0, SVG Export Plug-In . SVG Version: 6.00 Build 0)  -->
<svg version="1.1" id="Capa_1" xmlns="http://www.w3.org/2000/svg" xmlns:xlink="http://www.w3.org/1999/xlink" x="0px" y="0px"
	 viewBox="0 0 360 360" style="enable-background:new 0 0 360 360;" xml:space="preserve">
<g id="XMLID_1057_">
	<path id="XMLID_1068_" d="M345.417,124.552h-50.834V77.834L211.561,0H14.583v360h280v-52.721h50.834V124.552z M315.417,277.279
		h-210V154.552h210V277.279z"/>
	<polygon id="XMLID_1071_" points="142.828,225.005 151.019,216.455 170.908,244.085 184.858,244.085 158.849,208.535 
		183.328,180.185 169.648,180.185 142.828,210.605 142.828,180.275 130.408,180.275 130.408,244.085 142.828,244.085 	"/>
	<polygon id="XMLID_1072_" points="234.987,233.195 203.037,233.195 203.037,216.545 229.947,216.545 229.947,206.465 
		203.037,206.465 203.037,191.075 234.178,191.075 234.178,180.185 190.617,180.185 190.617,244.085 234.987,244.085 	"/>
	<polygon id="XMLID_1073_" points="261.537,244.085 273.867,244.085 273.867,221.765 297.087,180.185 283.677,180.185 
		267.657,210.965 251.907,180.185 238.407,180.185 261.537,221.585 	"/>
</g>
<g>
</g>
<g>
</g>
<g>
</g>
<g>
</g>
<g>
</g>
<g>
</g>
<g>
</g>
<g>
</g>
<g>
</g>
<g>
</g>
<g>
</g>
<g>
</g>
<g>
</g>
<g>
</g>
<g>
</g>
</svg>
