<?xml version="1.0" encoding="iso-8859-1"?>
<!-- Generator: Adobe Illustrator 19.0.0, SVG Export Plug-In . SVG Version: 6.00 Build 0)  -->
<svg version="1.1" id="Layer_1" xmlns="http://www.w3.org/2000/svg" xmlns:xlink="http://www.w3.org/1999/xlink" x="0px" y="0px"
	 viewBox="0 0 512 512" style="enable-background:new 0 0 512 512;" xml:space="preserve">
<g>
	<g>
		<path d="M280.661,341.739l-3.157-0.533C258.795,338.155,256,333.291,256,330.667c0-4.245,8.512-10.667,21.355-10.667
			c12.608,0,20.928,5.995,21.355,10.304c0.555,5.867,5.76,10.261,11.627,9.6c5.867-0.555,10.155-5.76,9.6-11.627
			c-1.621-16.896-19.925-29.632-42.603-29.632c-23.936,0-42.688,14.059-42.688,32c0,16.704,13.248,27.328,39.403,31.595
			l1.728-10.517l1.429,11.051c17.728,2.923,21.44,7.36,21.44,10.56c0,4.245-8.512,10.667-21.355,10.667
			c-12.608,0-20.928-6.016-21.355-10.325c-0.555-5.867-5.76-10.389-11.627-9.6c-5.867,0.555-10.155,5.76-9.6,11.627
			c1.621,16.896,19.925,29.632,42.603,29.632c23.936,0,42.688-14.059,42.688-32C320,356.651,306.773,346.027,280.661,341.739z"/>
	</g>
</g>
<g>
	<g>
		<path d="M426.667,330.667c0-17.643-14.357-32-32-32h-21.333c-17.643,0-32,14.357-32,32v42.667c0,17.643,14.357,32,32,32h21.333
			c4.928,0,9.536-1.216,13.696-3.2l0.085,0.085c2.091,2.069,4.821,3.115,7.552,3.115c2.731,0,5.461-1.045,7.531-3.115
			c4.16-4.16,4.16-10.923,0-15.083l-0.085-0.085c2.005-4.16,3.221-8.789,3.221-13.717V330.667z M405.333,368.939l-3.136-3.136
			c-4.16-4.16-10.923-4.16-15.083,0s-4.16,10.923,0,15.083l3.115,3.115h-16.896c-5.888,0-10.667-4.779-10.667-10.667v-42.667
			c0-5.888,4.779-10.667,10.667-10.667h21.333c5.888,0,10.667,4.779,10.667,10.667V368.939z"/>
	</g>
</g>
<g>
	<g>
		<path d="M501.333,384h-32v-74.667c0-5.888-4.779-10.667-10.667-10.667S448,303.445,448,309.333v85.333
			c0,5.888,4.779,10.667,10.667,10.667h42.667c5.888,0,10.667-4.779,10.667-10.667S507.221,384,501.333,384z"/>
	</g>
</g>
<g>
	<g>
		<path d="M207.445,342.443c-5.269-2.624-11.648-0.491-14.315,4.779l-11.797,23.616l-11.797-23.595
			c-2.645-5.269-9.067-7.403-14.315-4.779c-5.269,2.645-7.424,9.045-4.779,14.315l18.965,37.909l-18.944,37.867
			c-2.624,5.269-0.491,11.669,4.779,14.315C156.779,447.637,158.4,448,160,448c3.904,0,7.659-2.155,9.557-5.909l42.667-85.333
			C214.848,351.488,212.715,345.088,207.445,342.443z"/>
	</g>
</g>
<g>
	<g>
		<path d="M120.704,299.221c-4.352-1.472-9.152,0.043-11.904,3.712l-23.467,31.275l-23.467-31.275
			c-2.752-3.669-7.509-5.184-11.904-3.712c-4.352,1.451-7.296,5.525-7.296,10.112v85.333c0,5.888,4.779,10.667,10.667,10.667
			S64,400.555,64,394.667v-53.333L76.8,358.4c4.032,5.376,13.056,5.376,17.067,0l12.8-17.067v53.333
			c0,5.888,4.779,10.667,10.667,10.667S128,400.555,128,394.667v-85.333C128,304.747,125.056,300.672,120.704,299.221z"/>
	</g>
</g>
<g>
	<g>
		<path d="M373.333,277.333c5.888,0,10.667-4.779,10.667-10.667v-256C384,4.779,379.221,0,373.333,0H138.667
			c-1.429,0-2.837,0.299-4.139,0.832c-0.405,0.171-0.704,0.491-1.067,0.725c-0.811,0.469-1.664,0.896-2.347,1.557l-128,128
			c-0.491,0.491-0.768,1.152-1.152,1.728c-0.384,0.576-0.875,1.067-1.131,1.707C0.299,135.851,0,137.237,0,138.667v362.667
			C0,507.221,4.779,512,10.667,512h362.667c5.888,0,10.667-4.779,10.667-10.667v-64c0-5.888-4.779-10.667-10.667-10.667
			c-5.888,0-10.667,4.779-10.667,10.667v53.333H21.333V149.333h117.333c5.888,0,10.667-4.779,10.667-10.667V21.333h213.333v245.333
			C362.667,272.555,367.445,277.333,373.333,277.333z M128,128H36.416L128,36.416V128z"/>
	</g>
</g>
<g>
</g>
<g>
</g>
<g>
</g>
<g>
</g>
<g>
</g>
<g>
</g>
<g>
</g>
<g>
</g>
<g>
</g>
<g>
</g>
<g>
</g>
<g>
</g>
<g>
</g>
<g>
</g>
<g>
</g>
</svg>
