<?xml version="1.0" encoding="iso-8859-1"?>
<!-- Generator: Adobe Illustrator 19.0.0, SVG Export Plug-In . SVG Version: 6.00 Build 0)  -->
<svg version="1.1" id="Layer_1" xmlns="http://www.w3.org/2000/svg" xmlns:xlink="http://www.w3.org/1999/xlink" x="0px" y="0px"
	 viewBox="0 0 512 512" style="enable-background:new 0 0 512 512;" xml:space="preserve">
<g>
	<g>
		<path d="M480,298.667h-21.333c-5.888,0-10.667,4.779-10.667,10.667v85.333c0,5.888,4.779,10.667,10.667,10.667
			s10.667-4.779,10.667-10.667v-32H480c17.643,0,32-14.357,32-32C512,313.024,497.643,298.667,480,298.667z M480,341.333h-10.667
			V320H480c5.867,0,10.667,4.779,10.667,10.667S485.867,341.333,480,341.333z"/>
	</g>
</g>
<g>
	<g>
		<path d="M288,298.667h-21.333c-5.888,0-10.667,4.779-10.667,10.667v85.333c0,5.888,4.779,10.667,10.667,10.667
			s10.667-4.779,10.667-10.667v-32H288c17.643,0,32-14.357,32-32C320,313.024,305.643,298.667,288,298.667z M288,341.333h-10.667
			V320H288c5.867,0,10.667,4.779,10.667,10.667S293.867,341.333,288,341.333z"/>
	</g>
</g>
<g>
	<g>
		<path d="M416,298.667c-5.888,0-10.667,4.779-10.667,10.667v32h-42.667v-32c0-5.888-4.779-10.667-10.667-10.667
			c-5.888,0-10.667,4.779-10.667,10.667v85.333c0,5.888,4.779,10.667,10.667,10.667c5.888,0,10.667-4.779,10.667-10.667v-32h42.667
			v32c0,5.888,4.779,10.667,10.667,10.667c5.888,0,10.667-4.779,10.667-10.667v-85.333C426.667,303.445,421.888,298.667,416,298.667
			z"/>
	</g>
</g>
<g>
	<g>
		<path d="M373.333,277.333c5.888,0,10.667-4.779,10.667-10.667v-256C384,4.779,379.221,0,373.333,0H138.667
			c-1.429,0-2.837,0.299-4.139,0.832c-0.405,0.171-0.704,0.491-1.067,0.725c-0.811,0.469-1.664,0.896-2.347,1.557l-128,128
			c-0.491,0.491-0.768,1.152-1.152,1.728c-0.384,0.576-0.875,1.067-1.131,1.707C0.299,135.851,0,137.237,0,138.667v362.667
			C0,507.221,4.779,512,10.667,512h362.667c5.888,0,10.667-4.779,10.667-10.667v-64c0-5.888-4.779-10.667-10.667-10.667
			c-5.888,0-10.667,4.779-10.667,10.667v53.333H21.333V149.333h117.333c5.888,0,10.667-4.779,10.667-10.667V21.333h213.333v245.333
			C362.667,272.555,367.445,277.333,373.333,277.333z M128,128H36.416L128,36.416V128z"/>
	</g>
</g>
<g>
</g>
<g>
</g>
<g>
</g>
<g>
</g>
<g>
</g>
<g>
</g>
<g>
</g>
<g>
</g>
<g>
</g>
<g>
</g>
<g>
</g>
<g>
</g>
<g>
</g>
<g>
</g>
<g>
</g>
</svg>
