<?xml version="1.0" encoding="iso-8859-1"?>
<!-- Generator: Adobe Illustrator 19.0.0, SVG Export Plug-In . SVG Version: 6.00 Build 0)  -->
<svg version="1.1" id="Layer_1" xmlns="http://www.w3.org/2000/svg" xmlns:xlink="http://www.w3.org/1999/xlink" x="0px" y="0px"
	 viewBox="0 0 512 512" style="enable-background:new 0 0 512 512;" xml:space="preserve">
<g>
	<g>
		<path d="M346.747,0H47.628v512h416.744V117.625L346.747,0z M357.209,60.979l46.184,46.184h-46.184V60.979z M428.651,476.279
			H83.349v-35.721h345.302V476.279z M428.651,404.837H83.349V250.047h345.302V404.837z M428.651,214.326H83.349V35.721h238.14
			v107.163h107.163V214.326z"/>
	</g>
</g>
<g>
	<g>
		<polygon points="265.966,286.541 265.966,331.228 230.495,286.541 216.778,286.541 216.778,362.627 234.351,362.627 
			234.351,319.119 269.395,362.627 283.542,362.627 283.542,286.541 		"/>
	</g>
</g>
<g>
	<g>
		<path d="M177.128,286.541h-32.469v76.086v0h17.573v-24.539h15.431c13.352,0,24.326-11.181,24.326-25.826
			C201.99,299.52,191.165,286.541,177.128,286.541z M176.594,322.761h-14.36v-20.788h13.717c5.02,0,8.252,4.17,8.252,10.288
			C184.202,318.198,181.268,322.761,176.594,322.761z"/>
	</g>
</g>
<g>
	<g>
		<path d="M340.978,322.867v12.754h14.79v2.358c-5.502,6.359-11.68,9.539-18.54,9.539c-12.017,0-20.253-10.045-20.253-22.826
			c0-13.414,8.683-23.041,19.504-23.041c7.337,0,13.886,3.376,18.003,10.823l13.074-9.859c-5.322-9.979-15.467-16.609-30.435-16.609
			c-20.319,0-37.936,15.895-37.936,38.042c0,21.91,15.607,39.116,36.543,39.116c7.572,0,14.253-2.679,20.039-8.037h0.001v7.5h14.574
			v-39.759H340.978z"/>
	</g>
</g>
<g>
</g>
<g>
</g>
<g>
</g>
<g>
</g>
<g>
</g>
<g>
</g>
<g>
</g>
<g>
</g>
<g>
</g>
<g>
</g>
<g>
</g>
<g>
</g>
<g>
</g>
<g>
</g>
<g>
</g>
</svg>
