<?xml version="1.0" standalone="no"?>
<!DOCTYPE svg PUBLIC "-//W3C//DTD SVG 20010904//EN"
 "http://www.w3.org/TR/2001/REC-SVG-20010904/DTD/svg10.dtd">
<svg version="1.0" xmlns="http://www.w3.org/2000/svg"
 width="512.000000pt" height="512.000000pt" viewBox="0 0 512.000000 512.000000"
 preserveAspectRatio="xMidYMid meet">

<g transform="translate(0.000000,512.000000) scale(0.100000,-0.100000)"
fill="#000000" stroke="none">
<path d="M159 5106 c-77 -27 -143 -105 -154 -179 -3 -23 -5 -235 -3 -472 l3
-430 28 -48 c30 -51 96 -101 148 -112 l29 -7 0 -87 0 -87 -44 -12 c-58 -15
-113 -64 -142 -127 -24 -50 -24 -50 -24 -490 0 -440 0 -440 24 -490 29 -63 84
-112 142 -127 l44 -12 0 -87 0 -87 -29 -7 c-52 -11 -118 -61 -148 -112 l-28
-48 0 -465 c0 -514 -3 -491 66 -559 70 -70 17 -66 810 -69 l716 -3 5 -97 c5
-109 14 -134 57 -151 24 -10 34 -10 60 3 17 9 31 22 32 29 0 6 2 89 3 182 2
147 5 180 25 240 92 279 302 482 576 556 112 31 297 31 409 1 277 -76 490
-283 578 -562 20 -65 23 -95 23 -230 0 -148 -1 -159 -32 -246 -125 -358 -452
-582 -818 -560 -117 7 -192 25 -292 71 -127 59 -227 139 -311 250 -25 33 -52
66 -60 73 -41 32 -112 -7 -112 -62 0 -42 69 -136 172 -231 216 -201 520 -291
811 -240 304 53 568 252 702 530 58 119 84 218 92 342 l6 103 726 0 c683 0
728 2 766 19 48 22 69 44 90 94 13 32 15 149 15 934 0 850 -1 900 -19 938 -10
22 -27 48 -37 57 -26 23 -88 48 -119 48 -25 0 -25 1 -25 88 0 95 -18 149 -61
189 -39 35 -74 43 -199 43 -100 0 -121 -3 -141 -18 -30 -25 -30 -75 0 -105 19
-19 35 -23 134 -27 l112 -5 3 -82 3 -83 -725 0 -725 0 -21 71 c-12 39 -24 78
-27 85 -4 12 73 14 480 14 475 0 485 0 511 21 33 26 36 79 6 109 -19 19 -33
20 -505 20 l-485 0 0 43 c0 70 -18 115 -68 167 -34 36 -60 52 -95 61 l-47 13
0 86 0 87 38 11 c63 19 117 65 146 124 l27 54 -3 456 -3 455 -30 49 c-19 30
-49 60 -79 79 l-49 30 -1157 3 -1157 2 -26 -21 c-37 -28 -37 -80 -1 -108 27
-21 29 -21 1156 -21 839 0 1135 -3 1151 -12 47 -24 46 -20 47 -469 l0 -426
-26 -27 -27 -26 -1434 0 -1435 0 -29 29 -29 29 0 422 0 422 29 29 29 29 140 0
c77 0 148 3 157 6 8 4 23 20 31 36 13 25 13 35 3 59 -6 17 -20 34 -30 39 -27
15 -307 12 -350 -4z m2761 -1331 l0 -85 -1280 0 -1280 0 0 85 0 85 1280 0
1280 0 0 -85z m186 -268 c17 -19 24 -40 24 -68 l0 -39 -370 0 c-475 0 -456 7
-522 -205 l-34 -110 -50 -6 c-84 -11 -130 -43 -159 -112 -12 -28 -15 -77 -15
-217 l0 -180 -870 0 c-931 0 -923 0 -949 48 -15 28 -15 845 0 873 26 50 -26
49 1497 46 l1424 -2 24 -28z m51 -402 c24 -77 51 -147 59 -155 13 -13 129 -16
882 -20 l867 -5 0 -890 0 -890 -729 0 -729 0 -19 73 c-136 524 -716 835 -1228
658 -52 -18 -103 -36 -113 -40 -16 -8 -17 20 -15 540 l3 549 77 5 c60 4 82 9
97 25 15 16 52 122 97 278 5 16 28 17 357 15 l351 -3 43 -140z m-1177 -770 l0
-85 -810 0 -810 0 0 85 0 85 810 0 810 0 0 -85z m0 -414 l0 -180 -89 -88
c-132 -131 -221 -280 -261 -437 l-18 -71 -702 -3 -701 -2 -30 29 -29 29 0 422
0 422 29 29 29 29 886 0 886 0 0 -179z"/>
<path d="M476 3275 c-86 -31 -149 -123 -149 -220 0 -200 238 -310 384 -178 58
52 82 105 82 178 0 164 -161 276 -317 220z m140 -159 c58 -49 20 -146 -56
-146 -16 0 -41 11 -56 24 -58 49 -20 146 56 146 16 0 41 -11 56 -24z"/>
<path d="M1099 3262 c-37 -19 -64 -43 -86 -75 -133 -198 77 -444 293 -343 148
69 182 259 66 375 -77 77 -178 93 -273 43z m166 -147 c53 -52 16 -145 -58
-145 -55 0 -96 52 -83 105 16 64 96 86 141 40z"/>
<path d="M487 1844 c-110 -34 -183 -158 -157 -271 55 -248 408 -247 460 2 24
117 -47 235 -161 269 -63 19 -79 19 -142 0z m108 -146 c101 -46 34 -197 -68
-154 -66 27 -71 117 -8 151 32 18 43 18 76 3z"/>
<path d="M1155 1851 c-50 -13 -91 -38 -127 -81 -78 -91 -77 -213 4 -304 142
-162 408 -60 408 157 0 149 -142 262 -285 228z m113 -173 c30 -29 29 -79 -2
-114 -67 -78 -189 20 -130 104 32 46 88 50 132 10z"/>
<path d="M497 4716 c-185 -51 -232 -296 -79 -413 95 -72 222 -64 307 22 170
169 4 454 -228 391z m97 -150 c67 -28 66 -127 -3 -155 -42 -18 -87 1 -108 45
-21 43 -3 91 41 110 38 16 31 16 70 0z"/>
<path d="M1157 4719 c-110 -26 -187 -121 -187 -229 0 -148 151 -267 291 -230
108 29 179 121 179 229 -1 150 -141 264 -283 230z m111 -175 c49 -55 11 -138
-65 -138 -69 0 -107 81 -63 137 34 43 89 43 128 1z"/>
<path d="M1670 4723 c-52 -20 -68 -85 -30 -123 29 -29 139 -29 165 0 25 27 23
76 -2 102 -22 21 -102 34 -133 21z"/>
<path d="M2013 4720 c-45 -19 -57 -86 -23 -120 28 -28 178 -30 203 -2 29 32
31 67 4 98 -22 25 -32 29 -93 31 -38 2 -79 -1 -91 -7z"/>
<path d="M2403 4720 c-45 -19 -57 -86 -23 -120 17 -17 33 -20 104 -20 79 0 86
2 105 26 27 35 26 57 -3 91 -21 24 -31 28 -92 30 -38 2 -79 -1 -91 -7z"/>
<path d="M2793 4720 c-45 -19 -57 -86 -23 -120 16 -16 33 -20 84 -20 58 0 67
3 85 26 27 34 26 57 -2 90 -18 21 -34 27 -73 30 -27 2 -59 0 -71 -6z"/>
<path d="M1640 4380 c-30 -30 -27 -83 6 -109 38 -30 114 -29 150 2 35 31 38
82 5 109 -34 26 -134 25 -161 -2z"/>
<path d="M1990 4380 c-27 -27 -26 -81 1 -106 15 -14 40 -20 95 -22 71 -4 74
-3 105 27 25 25 30 37 25 59 -12 48 -39 62 -127 62 -66 0 -82 -3 -99 -20z"/>
<path d="M2380 4380 c-25 -25 -26 -71 -1 -101 15 -19 30 -24 85 -27 77 -5 119
9 135 44 16 35 14 48 -10 78 -19 24 -26 26 -105 26 -71 0 -87 -3 -104 -20z"/>
<path d="M2772 4377 c-48 -51 -16 -116 61 -124 57 -7 100 10 116 43 16 35 14
48 -10 78 -18 23 -27 26 -83 26 -52 0 -66 -4 -84 -23z"/>
<path d="M2436 1509 c-121 -29 -266 -140 -320 -247 -26 -51 -27 -52 -49 -37
-29 20 -60 19 -88 -4 -39 -31 -30 -74 34 -173 56 -87 79 -108 115 -108 22 0
189 102 208 128 14 18 18 51 8 77 -9 23 -57 45 -84 38 -22 -6 -22 -5 8 39 57
82 148 134 259 148 79 10 103 29 103 81 0 51 -27 69 -100 68 -30 -1 -72 -5
-94 -10z"/>
<path d="M2895 939 c-105 -67 -125 -86 -125 -121 0 -43 43 -82 81 -74 l30 6
-18 -31 c-24 -42 -95 -103 -149 -129 -24 -12 -76 -26 -116 -32 -40 -6 -81 -17
-90 -26 -26 -22 -24 -84 3 -108 39 -35 180 -14 294 43 63 32 172 143 204 206
21 45 24 47 40 33 36 -33 103 -10 115 39 7 29 -7 60 -75 161 -69 103 -81 105
-194 33z"/>
</g>
</svg>
