<?xml version="1.0" encoding="iso-8859-1"?>
<!-- Generator: Adobe Illustrator 19.0.0, SVG Export Plug-In . SVG Version: 6.00 Build 0)  -->
<svg version="1.1" id="Layer_1" xmlns="http://www.w3.org/2000/svg" xmlns:xlink="http://www.w3.org/1999/xlink" x="0px" y="0px"
	 viewBox="0 0 512 512" style="enable-background:new 0 0 512 512;" xml:space="preserve">
<g>
	<g>
		<path d="M330.667,362.667c-5.888,0-10.667,4.779-10.667,10.667c0,5.888-4.779,10.667-10.667,10.667H288
			c-5.888,0-10.667-4.779-10.667-10.667v-42.667c0-5.888,4.779-10.667,10.667-10.667h21.333c5.888,0,10.667,4.779,10.667,10.667
			s4.779,10.667,10.667,10.667s10.667-4.779,10.667-10.667c0-17.643-14.357-32-32-32H288c-17.643,0-32,14.357-32,32v42.667
			c0,17.643,14.357,32,32,32h21.333c17.643,0,32-14.357,32-32C341.333,367.445,336.555,362.667,330.667,362.667z"/>
	</g>
</g>
<g>
	<g>
		<path d="M416,341.333h-10.667v-10.667c0-5.888-4.779-10.667-10.667-10.667S384,324.779,384,330.667v10.667h-10.667
			c-5.888,0-10.667,4.779-10.667,10.667c0,5.888,4.779,10.667,10.667,10.667H384v10.667c0,5.888,4.779,10.667,10.667,10.667
			s10.667-4.779,10.667-10.667v-10.667H416c5.888,0,10.667-4.779,10.667-10.667C426.667,346.112,421.888,341.333,416,341.333z"/>
	</g>
</g>
<g>
	<g>
		<path d="M501.333,341.333h-10.667v-10.667c0-5.888-4.779-10.667-10.667-10.667c-5.888,0-10.667,4.779-10.667,10.667v10.667
			h-10.667c-5.888,0-10.667,4.779-10.667,10.667c0,5.888,4.779,10.667,10.667,10.667h10.667v10.667
			c0,5.888,4.779,10.667,10.667,10.667c5.888,0,10.667-4.779,10.667-10.667v-10.667h10.667c5.888,0,10.667-4.779,10.667-10.667
			C512,346.112,507.221,341.333,501.333,341.333z"/>
	</g>
</g>
<g>
	<g>
		<path d="M373.333,277.333c5.888,0,10.667-4.779,10.667-10.667v-256C384,4.779,379.221,0,373.333,0H138.667
			c-1.429,0-2.837,0.299-4.139,0.832c-0.405,0.171-0.704,0.491-1.067,0.725c-0.811,0.469-1.664,0.896-2.347,1.557l-128,128
			c-0.491,0.491-0.768,1.152-1.152,1.728c-0.384,0.576-0.875,1.067-1.131,1.707C0.299,135.851,0,137.237,0,138.667v362.667
			C0,507.221,4.779,512,10.667,512h362.667c5.888,0,10.667-4.779,10.667-10.667v-64c0-5.888-4.779-10.667-10.667-10.667
			c-5.888,0-10.667,4.779-10.667,10.667v53.333H21.333V149.333h117.333c5.888,0,10.667-4.779,10.667-10.667V21.333h213.333v245.333
			C362.667,272.555,367.445,277.333,373.333,277.333z M128,128H36.416L128,36.416V128z"/>
	</g>
</g>
<g>
</g>
<g>
</g>
<g>
</g>
<g>
</g>
<g>
</g>
<g>
</g>
<g>
</g>
<g>
</g>
<g>
</g>
<g>
</g>
<g>
</g>
<g>
</g>
<g>
</g>
<g>
</g>
<g>
</g>
</svg>
