<?xml version="1.0" encoding="iso-8859-1"?>
<!-- Generator: Adobe Illustrator 19.0.0, SVG Export Plug-In . SVG Version: 6.00 Build 0)  -->
<svg version="1.1" id="Layer_1" xmlns="http://www.w3.org/2000/svg" xmlns:xlink="http://www.w3.org/1999/xlink" x="0px" y="0px"
	 viewBox="0 0 512 512" style="enable-background:new 0 0 512 512;" xml:space="preserve">
<g>
	<g>
		<path d="M346.747,0H47.628v512h416.744V117.625L346.747,0z M357.209,60.979l46.184,46.184h-46.184V60.979z M428.651,476.279
			H83.349v-35.721h345.302V476.279z M428.651,404.837H83.349V250.047h345.302V404.837z M428.651,214.326H83.349V35.721h238.14
			v107.163h107.163V214.326z"/>
	</g>
</g>
<g>
	<g>
		<polygon points="268.053,287.077 250.372,341.087 232.475,287.077 232.475,287.077 213.829,287.077 242.977,363.163 
			257.766,363.163 286.593,287.077 		"/>
	</g>
</g>
<g>
	<g>
		<path d="M333.746,323.404v12.754h14.79v2.356c-5.502,6.359-11.68,9.539-18.54,9.539c-12.017,0-20.253-10.045-20.253-22.826
			c0-13.414,8.683-23.041,19.504-23.041c7.337,0,13.886,3.376,18.003,10.823l13.074-9.859c-5.322-9.979-15.467-16.609-30.435-16.609
			c-20.319,0-37.936,15.895-37.936,38.042c0,21.91,15.607,39.116,36.543,39.116c7.572,0,14.253-2.679,20.039-8.037h0.001v7.501
			h14.574v-39.759H333.746z"/>
	</g>
</g>
<g>
	<g>
		<path d="M183.825,317.726c-8.302-2.265-15.967-3.753-15.967-9.323c0-4.214,3.143-6.323,9.43-6.323
			c5.287,0,13.919,2.515,20.254,7.287l7.716-14.572c-8.469-4.71-16.804-8.359-27.434-8.359c-19.66,0-28.077,12.132-28.077,24.753
			c0,12.457,6.989,17.568,27.808,23.147c6.209,1.665,11.093,3.971,11.093,8.144c0,3.786-3.108,5.68-9.323,5.68
			c-9.997,0-18.406-4.347-25.077-8.896l-7.715,15.324c9.326,6.118,19.968,9.432,32.47,9.432c19.646,0,28.505-10.483,28.505-23.256
			C207.508,327.888,200.619,322.308,183.825,317.726z"/>
	</g>
</g>
<g>
</g>
<g>
</g>
<g>
</g>
<g>
</g>
<g>
</g>
<g>
</g>
<g>
</g>
<g>
</g>
<g>
</g>
<g>
</g>
<g>
</g>
<g>
</g>
<g>
</g>
<g>
</g>
<g>
</g>
</svg>
