<svg width="13" height="15" viewBox="0 0 13 15" fill="none" xmlns="http://www.w3.org/2000/svg">
    <path d="M11.3497 8.37143L10.6905 7.9631L11.3502 7.55476C11.8083 7.2824 12.1631 6.8657 12.3588 6.37001C12.4814 6.04226 12.527 5.69076 12.4923 5.34258C12.4576 4.99439 12.3434 4.65882 12.1586 4.36172C11.9738 4.06462 11.7232 3.81391 11.4262 3.62892C11.1292 3.44392 10.7937 3.32957 10.4455 3.29468C9.91428 3.25123 9.38368 3.38542 8.93699 3.67618L8.70307 3.82143V3.39676C8.71294 2.80454 8.50354 2.22957 8.11515 1.78238C7.72675 1.33519 7.18676 1.04735 6.59899 0.97418C6.2748 0.942173 5.9475 0.978406 5.63816 1.08055C5.32882 1.18269 5.04429 1.34847 4.8029 1.56722C4.5615 1.78598 4.36859 2.05286 4.23658 2.35068C4.10457 2.6485 4.03638 2.97066 4.03641 3.29643V3.82143L3.80307 3.6756C3.35647 3.38401 2.8256 3.24919 2.29399 3.29235C1.94577 3.32693 1.61013 3.44102 1.31296 3.62581C1.0158 3.81061 0.76503 4.06117 0.579999 4.35819C0.394967 4.65521 0.280611 4.99075 0.245747 5.33895C0.210882 5.68715 0.25644 6.0387 0.378908 6.36651C0.574697 6.86236 0.929679 7.2791 1.38807 7.55126L2.04899 7.9631L1.38924 8.37143C0.93115 8.64379 0.576412 9.06049 0.380658 9.55618C0.25795 9.88418 0.21226 10.236 0.247115 10.5845C0.28197 10.9329 0.396437 11.2687 0.58168 11.5659C0.766923 11.8631 1.01799 12.1138 1.31549 12.2985C1.61299 12.4833 1.94897 12.5972 2.29749 12.6315C2.82753 12.6748 3.35698 12.5413 3.80307 12.2518L4.03641 12.1048V12.6298C4.03641 13.2486 4.28224 13.8421 4.71983 14.2797C5.15741 14.7173 5.7509 14.9631 6.36974 14.9631C6.98858 14.9631 7.58207 14.7173 8.01966 14.2797C8.45724 13.8421 8.70307 13.2486 8.70307 12.6298V12.1048L8.93641 12.2512C9.38223 12.5409 9.91144 12.6748 10.4414 12.6321C10.7898 12.5976 11.1257 12.4836 11.423 12.2988C11.7204 12.1139 11.9713 11.8633 12.1564 11.5661C12.3415 11.2689 12.4559 10.9332 12.4907 10.5848C12.5255 10.2364 12.4798 9.88468 12.3571 9.55676C12.1617 9.06108 11.8074 8.64421 11.3497 8.37143ZM11.1682 10.9486C11.0115 11.2001 10.7613 11.3791 10.4726 11.4462C10.1839 11.5132 9.88039 11.4629 9.62882 11.3062L8.42774 10.5583C8.33934 10.5034 8.23783 10.4731 8.13377 10.4706C8.0297 10.4681 7.92686 10.4935 7.83591 10.5441C7.74497 10.5948 7.66923 10.6688 7.61657 10.7586C7.5639 10.8484 7.53623 10.9507 7.53641 11.0548V12.6298C7.53641 12.9392 7.41349 13.2359 7.1947 13.4547C6.97591 13.6735 6.67916 13.7964 6.36974 13.7964C6.06032 13.7964 5.76358 13.6735 5.54478 13.4547C5.32599 13.2359 5.20307 12.9392 5.20307 12.6298V11.0548C5.20305 10.9508 5.17522 10.8487 5.12247 10.759C5.06972 10.6694 4.99397 10.5955 4.90306 10.545C4.81215 10.4945 4.70939 10.4692 4.60542 10.4717C4.50146 10.4743 4.40006 10.5046 4.31174 10.5595L3.11066 11.3085C2.9861 11.3861 2.84748 11.4383 2.70272 11.4623C2.55797 11.4863 2.4099 11.4816 2.26698 11.4483C2.12406 11.4151 1.98908 11.3541 1.86976 11.2687C1.75043 11.1833 1.6491 11.0752 1.57153 10.9506C1.49397 10.8261 1.4417 10.6875 1.41771 10.5427C1.39372 10.3979 1.39848 10.2499 1.43171 10.107C1.46494 9.96404 1.526 9.82906 1.61139 9.70974C1.69679 9.59041 1.80485 9.48908 1.92941 9.41151L3.46066 8.45835C3.54507 8.40603 3.61473 8.33303 3.66304 8.24626C3.71135 8.15949 3.7367 8.06182 3.7367 7.96251C3.7367 7.8632 3.71135 7.76554 3.66304 7.67877C3.61473 7.592 3.54507 7.519 3.46066 7.46668L1.92941 6.5141C1.67785 6.35745 1.49882 6.10729 1.43171 5.81865C1.36459 5.53001 1.41489 5.22653 1.57153 4.97497C1.72818 4.72341 1.97834 4.54439 2.26698 4.47727C2.55562 4.41016 2.8591 4.46045 3.11066 4.6171L4.31174 5.36493C4.39994 5.41976 4.50117 5.45006 4.60499 5.45269C4.70881 5.45531 4.81144 5.43018 4.9023 5.37987C4.99315 5.32957 5.06893 5.25592 5.12181 5.16654C5.17468 5.07716 5.20274 4.97528 5.20307 4.87143V3.35885C5.19678 3.07485 5.29056 2.79769 5.46802 2.57587C5.64547 2.35405 5.89529 2.20171 6.17374 2.14551C6.34119 2.11698 6.51286 2.12535 6.67674 2.17005C6.84062 2.21475 6.99276 2.29469 7.12254 2.4043C7.25231 2.51391 7.35658 2.65053 7.42807 2.80463C7.49956 2.95872 7.53653 3.12656 7.53641 3.29643V4.87143C7.53654 4.97538 7.56444 5.07741 7.61723 5.16695C7.67002 5.2565 7.74579 5.33031 7.83668 5.38076C7.92757 5.4312 8.03029 5.45644 8.1342 5.45386C8.23812 5.45128 8.33946 5.42098 8.42774 5.3661L9.62882 4.61885C9.75338 4.54129 9.892 4.48902 10.0368 4.46502C10.1815 4.44103 10.3296 4.44579 10.4725 4.47902C10.6154 4.51225 10.7504 4.57331 10.8697 4.65871C10.9891 4.7441 11.0904 4.85216 11.1679 4.97672C11.2455 5.10128 11.2978 5.2399 11.3218 5.38466C11.3458 5.52942 11.341 5.67748 11.3078 5.8204C11.2745 5.96332 11.2135 6.0983 11.1281 6.21762C11.0427 6.33695 10.9346 6.43828 10.8101 6.51585L9.27882 7.46901C9.19441 7.52133 9.12475 7.59433 9.07644 7.6811C9.02814 7.76787 9.00278 7.86554 9.00278 7.96485C9.00278 8.06416 9.02814 8.16182 9.07644 8.24859C9.12475 8.33536 9.19441 8.40836 9.27882 8.46068L10.8101 9.41385C10.9347 9.49131 11.0428 9.59257 11.1283 9.71186C11.2138 9.83114 11.2749 9.9661 11.3081 10.109C11.3414 10.2519 11.3462 10.4 11.3222 10.5448C11.2982 10.6895 11.2459 10.8281 11.1682 10.9527V10.9486Z" fill="#E04265"/>
</svg>
