<svg width="14" height="15" viewBox="0 0 14 15" fill="none" xmlns="http://www.w3.org/2000/svg">
  <path d="M14 7.2793C14 9.13581 13.2625 10.9163 11.9497 12.229C10.637 13.5418 8.85651 14.2793 7 14.2793C5.14348 14.2793 3.36301 13.5418 2.05025 12.229C0.737498 10.9163 0 9.13581 0 7.2793C0 7.12459 0.0614582 6.97621 0.170854 6.86682C0.280251 6.75742 0.428624 6.69596 0.583333 6.69596C0.738043 6.69596 0.886416 6.75742 0.995812 6.86682C1.10521 6.97621 1.16667 7.12459 1.16667 7.2793C1.16667 8.43302 1.50879 9.56084 2.14976 10.5201C2.79074 11.4794 3.70178 12.2271 4.76768 12.6686C5.83358 13.1101 7.00647 13.2256 8.13803 13.0005C9.26958 12.7755 10.309 12.2199 11.1248 11.4041C11.9406 10.5883 12.4962 9.54888 12.7212 8.41732C12.9463 7.28577 12.8308 6.11288 12.3893 5.04698C11.9478 3.98107 11.2001 3.07003 10.2408 2.42906C9.28154 1.78808 8.15372 1.44596 7 1.44596C6.84529 1.44596 6.69692 1.38451 6.58752 1.27511C6.47812 1.16571 6.41667 1.01734 6.41667 0.86263C6.41667 0.707921 6.47812 0.559547 6.58752 0.450151C6.69692 0.340755 6.84529 0.279297 7 0.279297C8.8559 0.281304 10.6352 1.01945 11.9475 2.33177C13.2599 3.64409 13.998 5.4234 14 7.2793ZM5.99492 6.69596H4.66667C4.51196 6.69596 4.36358 6.75742 4.25419 6.86682C4.14479 6.97621 4.08333 7.12459 4.08333 7.2793C4.08333 7.43401 4.14479 7.58238 4.25419 7.69178C4.36358 7.80117 4.51196 7.86263 4.66667 7.86263H5.99492C6.084 8.01735 6.2075 8.14948 6.35586 8.2488C6.50421 8.34811 6.67344 8.41194 6.85043 8.43535C7.02742 8.45876 7.20742 8.44111 7.37649 8.38377C7.54557 8.32643 7.69917 8.23095 7.82541 8.10471C7.95165 7.97847 8.04714 7.82486 8.10447 7.65579C8.16181 7.48672 8.17946 7.30672 8.15605 7.12973C8.13265 6.95274 8.06881 6.78351 7.9695 6.63516C7.87018 6.4868 7.73805 6.3633 7.58333 6.27421V4.36263C7.58333 4.20792 7.52187 4.05955 7.41248 3.95015C7.30308 3.84075 7.15471 3.7793 7 3.7793C6.84529 3.7793 6.69692 3.84075 6.58752 3.95015C6.47812 4.05955 6.41667 4.20792 6.41667 4.36263V6.27421C6.24192 6.37588 6.09658 6.52121 5.99492 6.69596ZM1.06575 5.4033C1.18112 5.4033 1.2939 5.36908 1.38983 5.30499C1.48576 5.24089 1.56053 5.14979 1.60468 5.0432C1.64883 4.9366 1.66038 4.81932 1.63787 4.70616C1.61537 4.59301 1.55981 4.48907 1.47823 4.40748C1.39665 4.3259 1.29271 4.27035 1.17955 4.24784C1.0664 4.22533 0.949108 4.23688 0.842518 4.28103C0.735928 4.32518 0.644823 4.39995 0.580726 4.49588C0.516629 4.59181 0.482417 4.70459 0.482417 4.81996C0.482417 4.97467 0.543875 5.12305 0.653271 5.23244C0.762667 5.34184 0.91104 5.4033 1.06575 5.4033ZM2.46225 3.31671C2.57762 3.31671 2.6904 3.2825 2.78633 3.2184C2.88226 3.15431 2.95703 3.0632 3.00118 2.95661C3.04533 2.85002 3.05688 2.73273 3.03437 2.61958C3.01187 2.50642 2.95631 2.40248 2.87473 2.3209C2.79315 2.23932 2.68921 2.18376 2.57605 2.16126C2.4629 2.13875 2.34561 2.1503 2.23902 2.19445C2.13243 2.2386 2.04132 2.31337 1.97723 2.4093C1.91313 2.50523 1.87892 2.61801 1.87892 2.73338C1.87892 2.88809 1.94037 3.03646 2.04977 3.14586C2.15917 3.25526 2.30754 3.31671 2.46225 3.31671ZM4.53775 1.93655C4.65312 1.93655 4.7659 1.90233 4.86183 1.83824C4.95776 1.77414 5.03253 1.68304 5.07668 1.57645C5.12083 1.46986 5.13238 1.35257 5.10987 1.23941C5.08737 1.12626 5.03181 1.02232 4.95023 0.940735C4.86865 0.859154 4.76471 0.803597 4.65155 0.781089C4.5384 0.758581 4.42111 0.770133 4.31452 0.814284C4.20793 0.858435 4.11682 0.933202 4.05273 1.02913C3.98863 1.12506 3.95442 1.23784 3.95442 1.35321C3.95442 1.50792 4.01587 1.6563 4.12527 1.76569C4.23467 1.87509 4.38304 1.93655 4.53775 1.93655Z" fill="#373A4C"/>
</svg>
