<svg width="16" height="14" viewBox="0 0 16 14" fill="none" xmlns="http://www.w3.org/2000/svg">
    <path d="M15.182 5.14824C14.8694 4.78797 14.483 4.49909 14.0491 4.30114C13.6151 4.10319 13.1436 4.0008 12.6667 4.0009H10.0073L10.2313 2.64024C10.3106 2.16108 10.215 1.66939 9.96191 1.25486C9.70885 0.840332 9.31521 0.530578 8.8528 0.382097C8.39038 0.233617 7.89 0.256303 7.44292 0.44602C6.99584 0.635736 6.63184 0.97984 6.41733 1.41557L5.14133 4.0009H3.33333C2.4496 4.00196 1.60237 4.35349 0.97748 4.97838C0.352588 5.60327 0.00105857 6.45051 0 7.33424L0 10.6676C0.00105857 11.5513 0.352588 12.3985 0.97748 13.0234C1.60237 13.6483 2.4496 13.9998 3.33333 14.0009H12.2C13.0023 13.9976 13.7768 13.7064 14.3825 13.1803C14.9883 12.6542 15.3851 11.9282 15.5007 11.1342L15.9707 7.8009C16.0369 7.32806 16.0007 6.84651 15.8646 6.38886C15.7286 5.9312 15.4958 5.50811 15.182 5.14824ZM1.33333 10.6676V7.33424C1.33333 6.8038 1.54405 6.2951 1.91912 5.92002C2.29419 5.54495 2.8029 5.33424 3.33333 5.33424H4.66667V12.6676H3.33333C2.8029 12.6676 2.29419 12.4569 1.91912 12.0818C1.54405 11.7067 1.33333 11.198 1.33333 10.6676ZM14.6473 7.61357L14.1767 10.9469C14.1079 11.4229 13.8705 11.8584 13.5077 12.1742C13.145 12.4899 12.6809 12.665 12.2 12.6676H6V5.1569C6.06283 5.10217 6.11484 5.03614 6.15333 4.96224L7.61267 2.00557C7.66739 1.90686 7.74476 1.82254 7.83842 1.75954C7.93207 1.69655 8.03934 1.65668 8.1514 1.64321C8.26346 1.62974 8.37712 1.64305 8.48304 1.68205C8.58896 1.72106 8.6841 1.78464 8.76067 1.86757C8.82617 1.94373 8.87405 2.03341 8.9009 2.13021C8.92775 2.22701 8.93291 2.32855 8.916 2.42757L8.564 4.5609C8.54855 4.65622 8.55399 4.75376 8.57995 4.84677C8.60591 4.93978 8.65176 5.02604 8.71433 5.09959C8.77691 5.17313 8.85472 5.23221 8.94237 5.27272C9.03003 5.31324 9.12544 5.33422 9.222 5.33424H12.6667C12.9529 5.3342 13.2359 5.39561 13.4964 5.51433C13.7569 5.63305 13.9888 5.80631 14.1766 6.02239C14.3644 6.23848 14.5036 6.49235 14.5848 6.76686C14.666 7.04137 14.6873 7.33011 14.6473 7.61357Z" fill="#E04265"/>
</svg>
