<?xml version="1.0" standalone="no"?>
<!DOCTYPE svg PUBLIC "-//W3C//DTD SVG 1.1//EN" "http://www.w3.org/Graphics/SVG/1.1/DTD/svg11.dtd" >
<svg xmlns="http://www.w3.org/2000/svg">
<metadata>Generated by IcoMoon</metadata>
<defs>
<font id="icomoon" horiz-adv-x="1024">
<font-face units-per-em="1024" ascent="960" descent="-64" />
<missing-glyph horiz-adv-x="1024" />
<glyph unicode="&#x20;" horiz-adv-x="512" d="" />
<glyph unicode="&#xe900;" glyph-name="facebook" d="M512 961.088c-282.912 0-513.12-230.144-513.12-513.088s230.208-513.088 513.12-513.088 513.12 230.144 513.12 513.088-230.208 513.088-513.12 513.088zM512-30.912c-264.064 0-478.88 214.848-478.88 478.912s214.816 478.912 478.88 478.912 478.88-214.848 478.88-478.912-214.816-478.912-478.88-478.912zM624 736h-85.376c-108.736 1.088-122.624-66.208-122.624-139.040v-52.96h-48c-9.44 1.088-17.12-6.56-16-16v-96c-1.12-9.44 6.56-17.088 16-16h48v-240c-0.992-9.44 6.656-17.088 16.096-16h97.76c9.44-1.088 17.088 6.56 14.080 16l0.064 240h80c9.44-1.088 17.12 6.56 16 16v96c1.12 9.44-6.56 17.088-16 16h-80.096l0.096 48c3.104 20.448 3.104 17.12 22.080 16h57.248c4.448 0.992 9.184 0.448 12.512 3.68s5.248 7.648 4.128 12.32v96c1.152 9.44-6.528 17.088-15.968 16zM606.88 641.792l-40.128 1.536c-49.696 0-53.856-26.976-53.856-54.592l-0.128-60.672c0-4.544 1.792-8.896 4.992-12.128 3.2-3.2 7.552-4.992 12.096-4.992h78.144v-61.824h-78.080c-9.44 0-17.088-7.648-17.12-17.088l-0.032-240.032h-64.768v240c0 9.44-6.432 17.088-15.904 17.088h-48.096v61.824h48.096c4.544 0 8.896 1.792 12.096 4.992 3.2 3.232 3.776 7.584 3.776 12.128v68.96c0 71.744 14.496 105.92 90.624 105.92h68.256v-61.12z" />
<glyph unicode="&#xe901;" glyph-name="instagram" horiz-adv-x="878" d="M585.143 438.857c0 80.571-65.714 146.286-146.286 146.286s-146.286-65.714-146.286-146.286 65.714-146.286 146.286-146.286 146.286 65.714 146.286 146.286zM664 438.857c0-124.571-100.571-225.143-225.143-225.143s-225.143 100.571-225.143 225.143 100.571 225.143 225.143 225.143 225.143-100.571 225.143-225.143zM725.714 673.143c0-29.143-23.429-52.571-52.571-52.571s-52.571 23.429-52.571 52.571 23.429 52.571 52.571 52.571 52.571-23.429 52.571-52.571zM438.857 798.857c-64 0-201.143 5.143-258.857-17.714-20-8-34.857-17.714-50.286-33.143s-25.143-30.286-33.143-50.286c-22.857-57.714-17.714-194.857-17.714-258.857s-5.143-201.143 17.714-258.857c8-20 17.714-34.857 33.143-50.286s30.286-25.143 50.286-33.143c57.714-22.857 194.857-17.714 258.857-17.714s201.143-5.143 258.857 17.714c20 8 34.857 17.714 50.286 33.143s25.143 30.286 33.143 50.286c22.857 57.714 17.714 194.857 17.714 258.857s5.143 201.143-17.714 258.857c-8 20-17.714 34.857-33.143 50.286s-30.286 25.143-50.286 33.143c-57.714 22.857-194.857 17.714-258.857 17.714zM877.714 438.857c0-60.571 0.571-120.571-2.857-181.143-3.429-70.286-19.429-132.571-70.857-184s-113.714-67.429-184-70.857c-60.571-3.429-120.571-2.857-181.143-2.857s-120.571-0.571-181.143 2.857c-70.286 3.429-132.571 19.429-184 70.857s-67.429 113.714-70.857 184c-3.429 60.571-2.857 120.571-2.857 181.143s-0.571 120.571 2.857 181.143c3.429 70.286 19.429 132.571 70.857 184s113.714 67.429 184 70.857c60.571 3.429 120.571 2.857 181.143 2.857s120.571 0.571 181.143-2.857c70.286-3.429 132.571-19.429 184-70.857s67.429-113.714 70.857-184c3.429-60.571 2.857-120.571 2.857-181.143z" />
<glyph unicode="&#xe902;" glyph-name="facebook1" horiz-adv-x="602" d="M548 944v-150.857h-89.714c-70.286 0-83.429-33.714-83.429-82.286v-108h167.429l-22.286-169.143h-145.143v-433.714h-174.857v433.714h-145.714v169.143h145.714v124.571c0 144.571 88.571 223.429 217.714 223.429 61.714 0 114.857-4.571 130.286-6.857z" />
<glyph unicode="&#xe903;" glyph-name="check" d="M392.108 65.464c-9.774-9.832-23.11-15.312-36.964-15.312s-27.189 5.48-36.964 15.312l-295.203 295.254c-30.636 30.635-30.636 80.313 0 110.891l36.964 36.974c30.645 30.636 80.266 30.636 110.901 0l184.302-184.312 498.016 498.022c30.64 30.636 80.312 30.636 110.896 0l36.968-36.974c30.632-30.635 30.632-80.304 0-110.891l-608.916-608.964z" />
<glyph unicode="&#xe904;" glyph-name="close" d="M512 960c-282.304 0-512-229.696-512-512s229.696-512 512-512c282.304 0 512 229.696 512 512s-229.696 512-512 512zM512 0c-247.040 0-448 200.96-448 448s200.96 448 448 448c247.040 0 448-200.96 448-448s-200.96-448-448-448zM726.624 617.376l-45.248 45.248-169.376-169.376-169.376 169.376-45.248-45.248 169.376-169.376-169.376-169.376 45.248-45.248 169.376 169.376 169.376-169.376 45.248 45.248-169.376 169.376 169.376 169.376z" />
<glyph unicode="&#xe905;" glyph-name="youtube" horiz-adv-x="878" d="M554.857 240v-120.571c0-25.714-7.429-38.286-22.286-38.286-8.571 0-17.143 4-25.714 12.571v172c8.571 8.571 17.143 12.571 25.714 12.571 14.857 0 22.286-13.143 22.286-38.286zM748 239.428v-26.286h-51.429v26.286c0 25.714 8.571 38.857 25.714 38.857s25.714-13.143 25.714-38.857zM196 364h61.143v53.714h-178.286v-53.714h60v-325.143h57.143v325.143zM360.571 38.857h50.857v282.286h-50.857v-216c-11.429-16-22.286-24-32.571-24-6.857 0-10.857 4-12 12-0.571 1.714-0.571 8-0.571 20v208h-50.857v-223.429c0-20 1.714-33.143 4.571-41.714 4.571-14.286 16.571-21.143 33.143-21.143 18.286 0 37.714 11.429 58.286 34.857v-30.857zM605.714 123.428v112.571c0 26.286-1.143 45.143-5.143 56.571-6.286 21.143-20.571 32-40.571 32-18.857 0-36.571-10.286-53.143-30.857v124h-50.857v-378.857h50.857v27.429c17.143-21.143 34.857-31.429 53.143-31.429 20 0 34.286 10.857 40.571 31.429 4 12 5.143 30.857 5.143 57.143zM798.857 129.143v7.429h-52c0-20.571-0.571-32-1.143-34.857-2.857-13.714-10.286-20.571-22.857-20.571-17.714 0-26.286 13.143-26.286 39.429v49.714h102.286v58.857c0 30.286-5.143 52-15.429 66.286-14.857 19.429-34.857 29.143-60.571 29.143-26.286 0-46.286-9.714-61.143-29.143-10.857-14.286-16-36-16-66.286v-98.857c0-30.286 5.714-52.571 16.571-66.286 14.857-19.429 34.857-29.143 61.714-29.143s48 10.286 61.714 30.286c6.286 9.143 10.857 19.429 12 30.857 1.143 5.143 1.143 16.571 1.143 33.143zM451.429 650.857v120c0 26.286-7.429 39.429-24.571 39.429-16.571 0-24.571-13.143-24.571-39.429v-120c0-26.286 8-40 24.571-40 17.143 0 24.571 13.714 24.571 40zM862.286 221.714c0-65.714-0.571-136-14.857-200-10.857-45.143-47.429-78.286-91.429-82.857-105.143-12-211.429-12-317.143-12s-212 0-317.143 12c-44 4.571-81.143 37.714-91.429 82.857-14.857 64-14.857 134.286-14.857 200v0c0 66.286 0.571 136 14.857 200 10.857 45.143 47.429 78.286 92 83.429 104.571 11.429 210.857 11.429 316.571 11.429s212 0 317.143-11.429c44-5.143 81.143-38.286 91.429-83.429 14.857-64 14.857-133.714 14.857-200zM292 950.857h58.286l-69.143-228v-154.857h-57.143v154.857c-5.143 28-16.571 68-34.857 121.143-12.571 35.429-25.143 71.429-37.143 106.857h60.571l40.571-150.286zM503.429 760.571v-100c0-30.286-5.143-53.143-16-67.429-14.286-19.429-34.286-29.143-60.571-29.143-25.714 0-45.714 9.714-60 29.143-10.857 14.857-16 37.143-16 67.429v100c0 30.286 5.143 52.571 16 66.857 14.286 19.429 34.286 29.143 60 29.143 26.286 0 46.286-9.714 60.571-29.143 10.857-14.286 16-36.571 16-66.857zM694.857 853.143v-285.143h-52v31.429c-20.571-24-40-35.429-58.857-35.429-16.571 0-28.571 6.857-33.714 21.143-2.857 8.571-4.571 22.286-4.571 42.857v225.143h52v-209.714c0-12 0-18.857 0.571-20 1.143-8 5.143-12.571 12-12.571 10.286 0 21.143 8 32.571 24.571v217.714h52z" />
<glyph unicode="&#xe906;" glyph-name="twitter" horiz-adv-x="951" d="M925.714 717.714c-25.143-36.571-56.571-69.143-92.571-95.429 0.571-8 0.571-16 0.571-24 0-244-185.714-525.143-525.143-525.143-104.571 0-201.714 30.286-283.429 82.857 14.857-1.714 29.143-2.286 44.571-2.286 86.286 0 165.714 29.143 229.143 78.857-81.143 1.714-149.143 54.857-172.571 128 11.429-1.714 22.857-2.857 34.857-2.857 16.571 0 33.143 2.286 48.571 6.286-84.571 17.143-148 91.429-148 181.143v2.286c24.571-13.714 53.143-22.286 83.429-23.429-49.714 33.143-82.286 89.714-82.286 153.714 0 34.286 9.143 65.714 25.143 93.143 90.857-112 227.429-185.143 380.571-193.143-2.857 13.714-4.571 28-4.571 42.286 0 101.714 82.286 184.571 184.571 184.571 53.143 0 101.143-22.286 134.857-58.286 41.714 8 81.714 23.429 117.143 44.571-13.714-42.857-42.857-78.857-81.143-101.714 37.143 4 73.143 14.286 106.286 28.571z" />
<glyph unicode="&#xe907;" glyph-name="odnoklassniki" horiz-adv-x="731" d="M365.714 432.571c-142.857 0-259.429 116-259.429 258.857 0 143.429 116.571 259.429 259.429 259.429s259.429-116 259.429-259.429c0-142.857-116.571-258.857-259.429-258.857zM365.714 819.428c-70.286 0-127.429-57.143-127.429-128 0-70.286 57.143-127.429 127.429-127.429s127.429 57.143 127.429 127.429c0 70.857-57.143 128-127.429 128zM664.571 401.143c25.143-51.429-3.429-76-68.571-118.286-54.857-34.857-130.286-48.571-180-53.714l41.714-41.143 152.571-152.571c22.857-23.429 22.857-61.143 0-84l-6.857-7.429c-23.429-22.857-61.143-22.857-84.571 0-38.286 38.857-94.286 94.857-152.571 153.143l-152.571-153.143c-23.429-22.857-61.143-22.857-84 0l-6.857 7.429c-23.429 22.857-23.429 60.571 0 84 38.857 38.857 94.286 94.857 152.571 152.571l41.143 41.143c-49.143 5.143-125.714 18.286-181.143 53.714-65.143 42.286-93.714 66.857-68.571 118.286 14.857 29.143 55.429 53.714 109.143 11.429 0 0 72.571-57.714 189.714-57.714s189.714 57.714 189.714 57.714c53.714 42.286 94.286 17.714 109.143-11.429z" />
<glyph unicode="&#xe908;" glyph-name="google-plus" horiz-adv-x="1317" d="M821.143 429.143c0-239.429-160.571-409.143-402.286-409.143-231.429 0-418.857 187.429-418.857 418.857s187.429 418.857 418.857 418.857c113.143 0 207.429-41.143 280.571-109.714l-113.714-109.143c-30.857 29.714-85.143 64.571-166.857 64.571-142.857 0-259.429-118.286-259.429-264.571s116.571-264.571 259.429-264.571c165.714 0 228 119.429 237.714 180.571h-237.714v144h395.429c4-21.143 6.857-42.286 6.857-69.714zM1316.571 498.857v-120h-119.429v-119.429h-120v119.429h-119.429v120h119.429v119.429h120v-119.429h119.429z" />
<glyph unicode="&#xe909;" glyph-name="face-i" d="M491.549 939.52c-271.018 0-491.549-220.47-491.549-491.52s220.531-491.52 491.549-491.52c271.020 0 491.553 220.471 491.553 491.52s-220.533 491.52-491.553 491.52zM491.549-10.781c-252.962 0-458.748 205.816-458.748 458.781s205.786 458.781 458.748 458.781c252.965 0 458.752-205.817 458.752-458.781s-205.787-458.781-458.752-458.781zM598.835 723.894h-81.789c-104.165 1.042-117.468-63.425-117.468-133.195v-50.733h-45.983c-2.078 0.277-4.193 0.072-6.179-0.6s-3.79-1.793-5.273-3.276c-1.483-1.483-2.603-3.287-3.276-5.273s-0.877-4.099-0.6-6.18v-91.963c-0.278-2.077-0.072-4.194 0.6-6.177 0.672-1.987 1.793-3.793 3.276-5.276s3.287-2.605 5.273-3.277c1.986-0.672 4.101-0.877 6.179-0.598h45.983v-229.913c-0.256-2.081-0.032-4.194 0.654-6.177s1.816-3.781 3.304-5.259c1.488-1.479 3.294-2.597 5.28-3.273s4.101-0.885 6.182-0.618h93.651c9.044-1.040 16.368 6.283 13.488 15.327l0.061 229.913h76.636c2.077-0.279 4.194-0.074 6.177 0.598 1.987 0.672 3.793 1.794 5.276 3.277s2.605 3.289 3.277 5.276c0.672 1.982 0.877 4.1 0.598 6.177v91.963c0.279 2.081 0.074 4.194-0.598 6.18s-1.794 3.79-3.277 5.273c-1.483 1.483-3.289 2.604-5.276 3.276-1.982 0.672-4.1 0.877-6.177 0.6h-76.73l0.094 45.982c2.974 19.588 2.974 16.4 21.152 15.328h54.841c4.26 0.95 8.798 0.429 11.985 3.525s5.026 7.327 3.957 11.802v91.965c0.283 2.077 0.082 4.191-0.586 6.177-0.672 1.986-1.786 3.792-3.269 5.275-1.479 1.483-3.285 2.605-5.267 3.277-1.987 0.672-4.1 0.877-6.177 0.598zM582.435 633.646l-38.441 1.471c-47.608 0-51.593-25.842-51.593-52.297l-0.123-58.123c-0.004-2.15 0.418-4.284 1.237-6.271 0.823-1.991 2.028-3.801 3.547-5.325 1.52-1.52 3.326-2.728 5.317-3.555 1.987-0.823 4.116-1.249 6.271-1.249h74.858v-59.224h-74.797c-4.346 0-8.511-1.724-11.588-4.792s-4.805-7.234-4.813-11.575l-0.033-229.945h-62.046v229.913c0 9.044-6.16 16.372-15.233 16.372h-46.075v59.224h46.075c2.15-0.004 4.28 0.418 6.271 1.237 1.987 0.819 3.793 2.023 5.317 3.543 3.064 3.097 3.617 7.266 3.617 11.62v66.060c0 68.728 13.885 101.468 86.815 101.468h65.389v-58.551h0.029z" />
<glyph unicode="&#xe90a;" glyph-name="insta-2" d="M740.397-64h-456.793c-156.63 0-283.603 126.974-283.603 283.603v0 456.793c-0.001 0.265-0.001 0.578-0.001 0.892 0 156.138 126.575 282.713 282.713 282.713 0.314 0 0.627-0.001 0.941-0.002h456.744c156.63 0 283.603-126.974 283.603-283.603v0-456.793c-0.253-156.528-127.075-283.35-283.579-283.603h-0.025zM283.603 915.478c-0.132 0-0.289 0-0.446 0-131.795 0-238.637-106.841-238.637-238.637 0-0.157 0-0.313 0-0.47v0.024-456.793c0-0.132 0-0.289 0-0.446 0-131.795 106.841-238.637 238.637-238.637 0.157 0 0.313 0 0.47 0h456.769c0.132 0 0.289 0 0.446 0 131.795 0 238.637 106.841 238.637 238.637 0 0.157 0 0.313 0 0.47v-0.024 456.793c0 0.132 0 0.289 0 0.446 0 131.795-106.841 238.637-238.637 238.637-0.157 0-0.313 0-0.47 0h0.024zM512 197.343c-138.434 0-250.657 112.223-250.657 250.657s112.223 250.657 250.657 250.657c138.434 0 250.657-112.223 250.657-250.657v0c0-138.434-112.223-250.657-250.657-250.657v0zM512 654.136c-113.846 0-206.136-92.29-206.136-206.136s92.29-206.136 206.136-206.136c113.846 0 206.136 92.29 206.136 206.136v0c-0.253 113.744-92.392 205.883-206.111 206.136h-0.024zM805.843 687.082c-30.244 0-54.762 24.518-54.762 54.762s24.518 54.762 54.762 54.762c30.244 0 54.762-24.518 54.762-54.762v0c0-30.244-24.518-54.762-54.762-54.762v0zM805.843 752.083c-5.655 0-10.24-4.585-10.24-10.24v0c0-11.576 20.48-11.576 20.48 0 0 5.655-4.585 10.24-10.24 10.24v0z" />
<glyph unicode="&#xe90b;" glyph-name="pencil" d="M904.386 878.379c0.815-4.97-0.24-10.241-3.491-14.58-0.714-0.929-1.683-1.459-2.521-2.227l-44.676-59.286 15.205-11.459c1.016-0.507 2.118-0.747 3.041-1.445 4.321-3.274 6.788-8.052 7.37-13.034 0.815-4.97-0.233-10.241-3.491-14.58-0.69-0.926-1.683-1.459-2.521-2.227l-526.678-699.002c-1.566-4.414-4.481-8.355-8.799-10.713l-178.927-100.895c-1.036-0.752-2.122-1.303-3.305-1.862l-0.218-0.132c-0.147-0.078-0.326-0.062-0.453-0.14-1.729-0.737-3.469-1.396-5.404-1.645-1.886-0.326-3.693-0.225-5.58 0.023-0.403 0.062-0.759-0.070-1.184 0.008-0.163 0.039-0.278 0.163-0.441 0.194-1.79 0.403-3.395 1.164-5.021 2.071-0.83 0.442-1.69 0.815-2.417 1.358-0.727 0.551-1.322 1.272-1.969 1.955-1.324 1.288-2.48 2.645-3.376 4.251-0.099 0.147-0.229 0.225-0.308 0.372-0.19 0.365-0.167 0.76-0.34 1.156-0.733 1.707-1.33 3.437-1.555 5.314-0.272 1.932-0.137 3.786 0.090 5.671 0.056 0.163-0.024 0.31 0.015 0.458l0.081 0.264c0.216 1.272 0.42 2.482 0.861 3.685l47.663 199.812c1.098 4.81 4.079 8.696 7.893 11.419l461.074 611.843c-7.367 15.399-23.918 25.073-41.734 22.57-11.767-1.654-21.51-8.324-27.654-17.464l-0.064 0.030-53.974-71.628 0.067-0.050-113.545-150.684c-6.327-8.398-18.269-10.076-26.685-3.751-8.397 6.328-10.078 18.289-3.75 26.686l166.89 221.456c0.282 0.375 0.674 0.528 0.981 0.867 12.006 16.782 30.442 28.891 52.49 31.989 28.019 3.938 54.282-7.82 70.896-28.304l41.753 55.388c0.51 0.998 0.75 2.096 1.448 3.021 3.271 4.342 8.048 6.806 13.053 7.372 4.966 0.836 10.238-0.217 14.579-3.488 0.926-0.698 1.459-1.687 2.225-2.505l15.206-11.46 44.677 59.286c0.504 0.998 0.745 2.096 1.443 3.021 3.274 4.342 8.052 6.806 13.056 7.372 4.965 0.836 10.232-0.217 14.576-3.488 0.923-0.698 1.458-1.687 2.226-2.505l60.866-45.872c1.024-0.507 2.102-0.75 3.041-1.445 4.267-3.283 6.734-8.060 7.315-13.042zM177.345 5.128l116.409 65.66-85.4 64.357-31.009-130.017zM731.588 846.587l-508.498-674.826 101.797-76.715 508.501 674.828-101.8 76.712zM822.768 898.813l-35.188-46.701 35.685-26.889 35.188 46.701-35.685 26.888z" />
<glyph unicode="&#xe90c;" glyph-name="remove" d="M653.25 589.006c-13.246 0-23.982-10.735-23.982-23.981v-453.249c0-13.232 10.735-23.976 23.982-23.976s23.981 10.744 23.981 23.976v453.249c0 13.246-10.735 23.981-23.981 23.981zM370.259 589.006c-13.246 0-23.981-10.735-23.981-23.981v-453.249c0-13.232 10.735-23.976 23.981-23.976s23.982 10.744 23.982 23.976v453.249c0 13.246-10.735 23.981-23.982 23.981zM164.032 655.151v-590.847c0-34.92 12.806-67.72 35.175-91.248 22.267-23.6 53.255-36.992 85.686-37.048h453.731c32.44 0.056 63.431 13.448 85.687 37.048 22.368 23.528 35.176 56.328 35.176 91.248v590.847c44.464 11.803 73.28 54.763 67.336 100.393-5.96 45.621-44.824 79.747-90.84 79.757h-122.783v29.976c0.141 25.209-9.826 49.415-27.672 67.222-17.845 17.799-42.089 27.71-67.297 27.503h-212.946c-25.208 0.206-49.452-9.705-67.298-27.503-17.845-17.808-27.812-42.014-27.672-67.222v-29.976h-122.782c-46.014-0.010-84.88-34.136-90.838-79.757-5.948-45.63 22.867-88.59 67.335-100.393zM738.625-16.032h-453.731c-41.002 0-72.899 35.224-72.899 80.336v588.739h599.534v-588.739c0-45.112-31.901-80.336-72.903-80.336zM358.279 865.277c-0.159 12.487 4.75 24.506 13.611 33.321 8.853 8.815 20.899 13.658 33.396 13.443h212.946c12.496 0.215 24.543-4.628 33.395-13.443 8.862-8.806 13.771-20.834 13.611-33.321v-29.976h-306.959v29.976zM187.535 787.338h648.449c23.84 0 43.168-19.326 43.168-43.166s-19.328-43.166-43.168-43.166h-648.449c-23.841 0-43.166 19.326-43.166 43.166s19.326 43.166 43.166 43.166zM511.762 589.006c-13.246 0-23.981-10.735-23.981-23.981v-453.249c0-13.232 10.735-23.976 23.981-23.976s23.982 10.744 23.982 23.976v453.249c0 13.246-10.735 23.981-23.982 23.981z" />
<glyph unicode="&#xe90d;" glyph-name="surface" d="M812 565.984v94.016c0 165.422-134.578 300-300 300s-300-134.578-300-300v-94.016c-45.594-9.289-80-49.695-80-97.984v-113.539c0-11.046 8.953-20 20-20s20 8.954 20 20v113.539c0 33.086 26.914 60 60 60h560c33.086 0 60-26.914 60-60v-432c0-26.072-16.718-48.304-40-56.56v120.56c0 11.048-8.953 20-20 20s-20-8.952-20-20v-124h-540c-33.086 0-60 26.912-60 60v158c0 11.047-8.953 20-20 20s-20-8.953-20-20v-158c0-55.144 44.859-100 100-100h560c55.141 0 100 44.856 100 100v432c0 48.289-34.406 88.695-80 97.984zM360 568v92c0 83.813 68.187 152 152 152s152-68.187 152-152v-92h-304zM704 568v92c0 105.867-86.133 192-192 192s-192-86.133-192-192v-92h-68v92c0 143.367 116.633 260 260 260s260-116.633 260-260v-92h-68zM152 255.023c5.258 0 10.422 2.133 14.141 5.86 3.719 3.718 5.859 8.874 5.859 14.14 0 5.258-2.141 10.422-5.859 14.133-3.719 3.727-8.883 5.867-14.141 5.867s-10.422-2.14-14.141-5.867c-3.719-3.71-5.859-8.874-5.859-14.133 0-5.266 2.141-10.422 5.859-14.14 3.719-3.727 8.883-5.86 14.141-5.86zM512 44c33.086 0 60 26.912 60 60v106.203c30.047 19.89 48.258 53.328 48.258 89.969 0 59.546-48.454 108-108 108-59.555 0-108-48.454-108-108 0-36.375 18.007-69.688 47.742-89.625v-106.547c0-33.088 26.914-60 60-60zM444.258 300.172c0 37.5 30.5 68 68 68 37.492 0 68-30.5 68-68 0-25.75-14.298-48.992-37.305-60.672-6.719-3.406-10.954-10.297-10.954-17.836v-117.664c0-11.032-8.969-20-20-20s-20 8.968-20 20v117.93c0 7.485-4.179 14.344-10.836 17.774-22.766 11.734-36.906 34.906-36.906 60.469zM792.001 162c5.281 0 10.422 2.141 14.14 5.859s5.86 8.859 5.86 14.141c0 5.282-2.141 10.422-5.86 14.141s-8.859 5.859-14.14 5.859c-5.258 0-10.422-2.141-14.141-5.859s-5.859-8.883-5.859-14.141c0-5.258 2.14-10.422 5.859-14.141s8.882-5.859 14.141-5.859z" />
<glyph unicode="&#xe90e;" glyph-name="vk-i" d="M874.022 810.032c-92.702 92.685-220.553 149.968-362.027 149.968s-269.328-57.283-362.030-149.966c-92.693-92.713-149.966-220.849-149.966-362.030 0-141.47 57.272-269.325 149.966-362.039 92.702-92.693 220.556-149.965 362.030-149.965s269.325 57.276 362.027 149.965c92.693 92.715 149.978 220.57 149.978 362.039 0 141.179-57.28 269.315-149.978 362.028zM845.679 114.044c-85.342-85.329-203.277-138.069-333.683-138.069s-248.345 52.74-333.687 138.069c-85.596 85.615-138.334 203.546-138.334 333.961 0 130.397 52.738 248.335 138.334 333.666 85.342 85.334 203.28 138.353 333.687 138.353s248.341-53.021 333.683-138.353c85.606-85.331 138.325-203.269 138.325-333.666 0-130.415-52.719-248.346-138.325-333.961zM795.204 590.605c-7.65 5.664-35.149 5.664-62.362 5.664-27.785-0.566-55.578-0.566-62.101-3.12-5.935-2.264-19.264-34.585-36.548-67.743-19.866-37.44-43.947-73.719-59.264-73.135-20.122 0-15.296 61.513-13.884 107.143 0.273 29.777-4.54 39.422-8.794 41.955-10.492 7.381-39.398 14.449-39.398 14.449s-86.769 6.534-98.945-30.889c16.722-2.27 45.074 2.847 34.019-113.1-0.849-5.683-13.329-53.303-53.587 11.055-10.208 16.145-48.751 112.819-62.362 113.385-44.529 0.858-88.735 2.838-104.031-5.664-14.47-8.512 19.265-74.842 76.254-163.87 46.195-73.135 95.248-129.843 180.296-144.009 16.158-1.715 57.557-3.392 70.886 2.829 8.772 4.262-2.283 67.187 28.058 73.438 13.329 2.543 65.19-65.783 84.749-73.438 11.938-4.817 38.007-6.797 64.653-5.653 28.919 0.836 61.786-2.85 64.905 16.994 7.1 43.375-87.573 100.096-90.138 126.733-2.27 19.273 34.594 54.707 53.295 81.929 23.232 32.886 48.772 72.569 34.3 85.048z" />
<glyph unicode="&#xe90f;" glyph-name="arrow-down" horiz-adv-x="2276" d="M2060.334 911.389l-935.207-817.499-935.136 817.499-106.241-71.051 988.293-863.931c13.412-11.77 32.755-18.465 53.084-18.465 20.331 0 39.741 6.695 53.088 18.465l988.285 863.931-106.166 71.051z" />
<glyph unicode="&#xe910;" glyph-name="angle-up" horiz-adv-x="658" d="M614.286 274.286c0-4.571-2.286-9.714-5.714-13.143l-28.571-28.571c-3.429-3.429-8-5.714-13.143-5.714-4.571 0-9.714 2.286-13.143 5.714l-224.571 224.571-224.571-224.571c-3.429-3.429-8.571-5.714-13.143-5.714s-9.714 2.286-13.143 5.714l-28.571 28.571c-3.429 3.429-5.714 8.571-5.714 13.143s2.286 9.714 5.714 13.143l266.286 266.286c3.429 3.429 8.571 5.714 13.143 5.714s9.714-2.286 13.143-5.714l266.286-266.286c3.429-3.429 5.714-8.571 5.714-13.143z" />
<glyph unicode="&#xe911;" glyph-name="right" d="M809.11 476.138l-558.302 483.862-48.758-56.276 525.846-455.724-525.846-455.724 48.758-56.276 558.302 483.862c8.152 7.072 12.84 17.344 12.84 28.138s-4.69 21.066-12.84 28.138z" />
<glyph unicode="&#xe912;" glyph-name="site" d="M967.837 680.717c-84.902 165.598-257.293 279.283-455.837 279.283-198.609 0-371.022-113.728-455.902-279.446-0.337-0.663-0.739-1.261-1-1.957-35.152-69.359-55.098-147.674-55.098-230.598 0-82.946 19.946-161.261 55.098-230.598 0.261-0.696 0.663-1.293 1-1.957 84.859-165.717 257.293-279.446 455.902-279.446 198.543 0 370.935 113.663 455.837 279.283 0.38 0.739 0.826 1.402 1.109 2.185 35.13 69.337 55.054 147.63 55.054 230.533s-19.924 161.196-55.054 230.533c-0.304 0.783-0.728 1.446-1.109 2.185zM933.728 247.652h-195.674c10.87 54.848 17.326 114.826 18.543 178.087h221.75c-3.011-63.511-18.641-123.641-44.62-178.087zM512-19.478c-70.413 0-133.565 90.272-169.38 222.609h338.761c-35.815-132.337-98.967-222.609-169.38-222.609zM331.978 247.652c-11.511 54.739-18.478 114.935-19.815 178.087h399.696c-1.359-63.152-8.326-123.348-19.815-178.087zM45.652 425.739h221.75c1.239-63.261 7.674-123.239 18.543-178.087h-195.674c-25.978 54.446-41.609 114.576-44.62 178.087zM90.272 648.348h195.674c-10.87-54.848-17.326-114.826-18.543-178.087h-221.75c3.011 63.511 18.641 123.641 44.62 178.087zM512 915.478c70.413 0 133.565-90.272 169.38-222.609h-338.761c35.815 132.337 98.967 222.609 169.38 222.609zM692.022 648.348c11.511-54.717 18.478-114.935 19.815-178.087h-399.696c1.359 63.152 8.326 123.37 19.815 178.087zM756.598 470.261c-1.239 63.261-7.674 123.239-18.543 178.087h195.674c25.978-54.446 41.609-114.576 44.62-178.087zM909.446 692.87h-181.467c-22.533 88.326-57.076 160.37-99.402 207.293 118.228-30.522 218.228-105.989 280.87-207.293zM395.402 900.163c-42.304-46.924-76.848-118.967-99.402-207.293h-181.467c62.663 101.304 162.663 176.772 280.87 207.293zM114.554 203.13h181.446c22.533-88.326 57.076-160.37 99.402-207.293-118.207 30.522-218.207 106.011-280.848 207.293zM628.598-4.163c42.304 46.924 76.848 118.967 99.402 207.293h181.446c-62.641-101.283-162.641-176.772-280.848-207.293z" />
<glyph unicode="&#xe913;" glyph-name="totop" horiz-adv-x="1566" d="M230.213-21.582l571.91 557.167 571.85-557.167 181.085 168.749-714.559 784.074c-9.692 10.682-23.678 16.758-38.376 16.758s-28.738-6.077-38.382-16.758l-714.56-784.074 181.032-168.749z" />
<glyph unicode="&#xe914;" glyph-name="hourglass" horiz-adv-x="811" d="M597.325-64h-426.451c-24.678 0.026-49.060 5.372-71.482 15.68-22.422 10.313-42.355 25.335-58.439 44.053-15.822 18.325-27.504 39.851-34.249 63.104s-8.394 47.689-4.834 71.637c22.891 124.787 89.456 237.346 187.776 317.525-98.321 80.205-164.873 192.8-187.733 317.611-3.553 23.932-1.904 48.349 4.833 71.586s18.405 44.749 34.207 63.070c16.084 18.717 36.017 33.743 58.439 44.051s46.804 15.658 71.482 15.682h426.451c24.674-0.022 49.050-5.37 71.467-15.679 22.413-10.309 42.338-25.336 58.411-44.054 15.825-18.302 27.516-39.802 34.278-63.032 6.758-23.231 8.427-47.646 4.89-71.581-23.108-124.841-89.809-237.414-188.203-317.653 98.338-80.307 164.962-192.926 187.994-317.781 3.537-23.94 1.869-48.363-4.89-71.603-6.758-23.236-18.453-44.745-34.283-63.053-16.064-18.658-35.959-33.638-58.338-43.917-22.374-10.278-46.703-15.616-71.326-15.646zM597.325 874.667h-426.451c-12.377 0.010-24.61-2.653-35.862-7.808s-21.258-12.679-29.333-22.059c-7.889-8.976-13.716-19.572-17.070-31.042s-4.154-23.535-2.343-35.348c16-106.667 82.005-206.507 196.267-296.832 5.045-3.994 9.121-9.079 11.923-14.869 2.802-5.794 4.258-12.147 4.258-18.581s-1.456-12.787-4.258-18.581c-2.802-5.79-6.878-10.876-11.923-14.869-114.261-90.411-180.139-190.336-196.267-296.96-1.83-11.831-1.040-23.923 2.315-35.418 3.354-11.49 9.191-22.11 17.099-31.1 8.075-9.378 18.081-16.905 29.333-22.059s23.485-7.817 35.862-7.808h426.451c12.378-0.009 24.61 2.654 35.866 7.808 11.251 5.154 21.257 12.681 29.329 22.059 7.889 8.964 13.713 19.541 17.075 30.997 3.362 11.452 4.173 23.505 2.381 35.307-15.915 106.112-81.92 206.037-196.267 297.045-5.013 3.998-9.062 9.071-11.844 14.848s-4.228 12.105-4.228 18.517c0 6.413 1.446 12.74 4.228 18.517s6.831 10.85 11.844 14.848c114.389 91.008 180.395 190.933 196.267 297.088 1.788 11.838 0.951 23.924-2.449 35.403-3.396 11.479-9.276 22.072-17.216 31.029-8.055 9.353-18.027 16.861-29.239 22.015s-23.403 7.832-35.746 7.852z" />
<glyph unicode="&#xe915;" glyph-name="clock" d="M531.792 876.112v42.987c0 10.848-4.311 21.251-11.981 28.921s-18.071 11.98-28.921 11.98c-10.847 0-21.25-4.309-28.92-11.98s-11.98-18.074-11.98-28.921v-42.987c-82.343-7.383-161.050-37.351-227.45-86.605s-117.916-115.88-148.871-192.539c-30.955-76.659-40.149-160.374-26.569-241.923 13.58-81.554 49.409-157.769 103.537-220.262-21.376-10.572-39.239-27.102-51.438-47.596-12.198-20.49-18.212-44.076-17.317-67.906 0-10.85 4.31-21.25 11.98-28.921s18.074-11.981 28.921-11.981c10.848 0 21.251 4.311 28.921 11.981s11.98 18.071 11.98 28.921c-0.34 12.605 4.186 24.859 12.639 34.221 8.453 9.357 20.185 15.106 32.761 16.048 2.814 0.532 5.557 1.385 8.18 2.536 78.347-60.767 174.681-93.75 273.831-93.75 99.152 0 195.486 32.983 273.832 93.75 2.394-1.107 4.886-1.98 7.446-2.619 12.62-0.863 24.42-6.563 32.939-15.911 8.519-9.353 13.102-21.631 12.785-34.275 0-10.85 4.311-21.25 11.981-28.921s18.071-11.981 28.921-11.981c10.85 0 21.25 4.311 28.921 11.981s11.981 18.071 11.981 28.921c0.897 23.83-5.12 47.416-17.315 67.906-12.2 20.495-30.062 37.025-51.439 47.596 54.126 62.493 89.956 138.708 103.536 220.262 13.58 81.549 4.389 165.264-26.57 241.923-30.954 76.659-82.471 143.286-148.87 192.539s-145.106 79.222-227.45 86.605zM122.784 428.29c0 72.803 21.589 143.973 62.037 204.508s97.939 107.717 165.202 135.578c67.263 27.861 141.277 35.151 212.684 20.948s136.997-49.263 188.475-100.744c51.483-51.481 86.543-117.071 100.747-188.477 14.199-71.407 6.91-145.418-20.948-212.68-27.863-67.267-75.045-124.757-135.578-165.205-60.538-40.448-131.706-62.035-204.512-62.035-97.591 0.117-191.152 38.936-260.159 107.944s-107.829 162.572-107.948 260.164zM785.998 960.001c-10.85 0-21.25-4.309-28.926-11.98-7.67-7.67-11.976-18.074-11.976-28.921s4.306-21.251 11.976-28.921c7.675-7.671 18.076-11.98 28.926-11.98 14.263 1.084 28.594-0.731 42.135-5.337s26.014-11.906 36.654-21.461c10.645-9.555 19.246-21.166 25.278-34.134 6.037-12.968 9.382-27.024 9.84-41.32 0-10.848 4.311-21.251 11.981-28.921s18.071-11.979 28.921-11.979c10.845 0 21.25 4.309 28.921 11.979s11.981 18.074 11.981 28.921c-0.527 25.011-6.032 49.667-16.199 72.525s-24.791 43.458-43.013 60.596c-18.222 17.138-39.682 30.47-63.122 39.216-23.435 8.746-48.382 12.729-73.377 11.717zM81.897 775.911c0.456 14.297 3.802 28.352 9.837 41.32s14.634 24.579 25.278 34.134c10.644 9.555 23.113 16.855 36.655 21.461s27.876 6.421 42.139 5.337c10.848 0 21.251 4.309 28.921 11.98s11.98 18.074 11.98 28.921c0 10.848-4.309 21.251-11.98 28.921s-18.074 11.98-28.921 11.98c-24.996 1.012-49.943-2.972-73.381-11.717s-44.897-22.077-63.121-39.216c-18.224-17.138-32.846-37.739-43.013-60.597s-15.673-47.513-16.196-72.524c0-10.848 4.309-21.251 11.98-28.921s18.074-11.98 28.921-11.98c10.848 0 21.251 4.31 28.921 11.98s11.98 18.074 11.98 28.921zM531.802 486.123v187.571c0 10.848-4.311 21.251-11.981 28.921s-18.071 11.98-28.921 11.98c-10.848 0-21.251-4.31-28.921-11.98s-11.979-18.074-11.979-28.921v-204.503c0.002-10.85 4.313-21.25 11.984-28.921l122.701-122.7c7.714-7.451 18.047-11.576 28.77-11.483 10.728 0.098 20.987 4.398 28.57 11.981s11.883 17.842 11.976 28.565c0.093 10.723-4.028 21.055-11.479 28.77l-110.719 110.72z" />
<glyph unicode="&#xe916;" glyph-name="level" horiz-adv-x="725" d="M687.083 608.379c0.119 55.259-13.175 109.722-38.75 158.708s-62.656 91.031-108.066 122.522c-45.406 31.491-97.783 51.487-152.625 58.269s-110.51 0.148-162.222-19.333c-51.712-19.481-97.921-51.225-134.657-92.506s-62.9-90.863-76.244-144.487c-13.344-53.624-13.47-109.686-0.366-163.369s39.046-103.386 75.597-144.828v-350.976c0-20.096 5.675-39.778 16.372-56.789s25.982-30.652 44.093-39.356c18.111-8.704 38.312-12.113 58.277-9.839s38.881 10.142 54.57 22.699l69.376 55.467c3.78 3.017 8.474 4.663 13.312 4.663s9.532-1.647 13.312-4.663l69.376-55.467c15.689-12.557 34.607-20.425 54.571-22.699s40.166 1.135 58.274 9.839c18.112 8.704 33.395 22.345 44.096 39.356 10.697 17.011 16.371 36.693 16.371 56.789v350.976c54.967 62.071 85.321 142.11 85.333 225.023zM345.749 864.379c50.632 0 100.126-15.014 142.225-43.144s74.91-68.111 94.289-114.889c19.375-46.778 24.444-98.251 14.566-147.91-9.877-49.657-34.257-95.272-70.063-131.078-35.802-35.802-81.417-60.181-131.075-70.059-49.659-9.877-101.132-4.809-147.91 14.566s-86.76 52.19-114.889 94.289c-28.13 42.099-43.144 91.592-43.144 142.224 0.067 67.875 27.061 132.95 75.055 180.945s113.070 74.988 180.945 75.055zM504.341 13.265c-3.61-1.788-7.659-2.5-11.661-2.044-4.006 0.452-7.791 2.052-10.91 4.604l-69.376 55.467c-18.883 15.211-42.399 23.501-66.645 23.501s-47.763-8.29-66.645-23.501l-69.333-55.467c-3.131-2.513-6.907-4.092-10.895-4.557-3.988-0.461-8.025 0.209-11.648 1.937-3.623 1.732-6.685 4.446-8.833 7.838s-3.296 7.322-3.311 11.337v280.832c51.796-30.234 110.693-46.165 170.667-46.165s118.869 15.932 170.667 46.165v-280.832c0.047-4.011-1.067-7.953-3.209-11.345-2.146-3.392-5.222-6.089-8.866-7.77z" />
<glyph unicode="&#xe917;" glyph-name="kol-vo" horiz-adv-x="853" d="M649.335 933.229h-426.669c-56.559-0.068-110.781-22.566-150.775-62.559s-62.491-94.216-62.559-150.775v-639.998c0-45.265 17.981-88.674 49.987-120.683 32.006-32.004 75.416-49.984 120.68-49.984h469.335c56.555 0.064 110.78 22.562 150.771 62.558 39.996 39.991 62.494 94.217 62.562 150.775v597.332c-0.068 56.559-22.566 110.781-62.562 150.775-39.991 39.993-94.217 62.491-150.771 62.559v0zM777.335 719.896v-469.332h-512.002v597.332h384.002c33.946 0 66.505-13.486 90.509-37.49s37.491-56.562 37.491-90.51zM180 840.557v-589.993c-29.968 0.026-59.409-7.881-85.333-22.912v492.244c0.004 26.467 8.212 52.281 23.494 73.89s36.887 37.949 61.84 46.771zM649.335-5.436h-469.335c-22.632 0-44.337 8.99-60.34 24.99-16.003 16.004-24.994 37.709-24.994 60.343 0 22.63 8.99 44.335 24.994 60.339 16.003 16 37.708 24.994 60.34 24.994h597.335v-42.667c0-33.95-13.487-66.509-37.491-90.513s-56.563-37.487-90.509-37.487z" />
<glyph unicode="&#xe918;" glyph-name="statistics" horiz-adv-x="1056" d="M258.5 557.798h-219.367c-20.137 0-36.419-16.282-36.633-36.634v-548.419c0-20.352 16.495-36.634 36.633-36.634h219.367c20.351 0 36.633 16.496 36.633 36.634v548.419c0 20.352-16.496 36.634-36.633 36.634zM624.189 959.891h-219.37c-20.138 0-36.63-16.281-36.63-36.418v-950.736c0-20.349 16.493-36.63 36.63-36.63h219.37c20.349 0 36.63 16.496 36.63 36.63v950.522c0 20.352-16.493 36.633-36.63 36.633zM989.875 667.469h-219.366c-20.352 0-36.634-16.281-36.634-36.634v-658.102c0-20.349 16.496-36.63 36.634-36.63h219.366c20.352 0 36.634 16.496 36.634 36.63v658.102c0 20.352-16.496 36.634-36.634 36.634z" />
<glyph unicode="&#xe919;" glyph-name="fi-rr-list-check" horiz-adv-x="1067" d="M184.867 704.018c-16.821-0.044-33.484 3.248-49.025 9.685s-29.651 15.893-41.514 27.819l-65.877 58.624c-8.453 7.537-13.566 18.122-14.214 29.428s3.222 22.407 10.758 30.86c7.536 8.453 18.122 13.566 29.428 14.214s22.407-3.222 30.86-10.758l67.627-60.331c3.872-4.347 8.592-7.857 13.87-10.312s11.003-3.804 16.823-3.964c5.819-0.16 11.61 0.873 17.015 3.034s10.311 5.406 14.415 9.535l153.771 146.39c8.268 7.361 19.074 11.221 30.135 10.763s21.511-5.197 29.145-13.217c7.629-8.019 11.844-18.691 11.755-29.762s-4.48-21.672-12.241-29.566l-153.13-145.664c-11.786-11.717-25.766-20.996-41.14-27.307s-31.842-9.53-48.46-9.472zM1038.199 789.352c0 11.316-4.493 22.168-12.497 30.17-8 8.002-18.854 12.497-30.17 12.497h-426.667c-11.315 0-22.17-4.495-30.17-12.497s-12.497-18.854-12.497-30.17c0-11.316 4.497-22.168 12.497-30.17s18.854-12.497 30.17-12.497h426.667c11.315 0 22.17 4.495 30.17 12.497 8.004 8.001 12.497 18.854 12.497 30.17zM274.467 399.462l153.13 145.665c4.275 3.805 7.74 8.431 10.189 13.603s3.836 10.783 4.070 16.5c0.239 5.717-0.678 11.424-2.692 16.78s-5.086 10.253-9.028 14.398c-3.946 4.145-8.684 7.455-13.935 9.731s-10.904 3.473-16.626 3.52c-5.722 0.047-11.395-1.058-16.682-3.249s-10.078-5.422-14.090-9.503l-153.6-146.391c-8.122-7.765-18.927-12.1-30.165-12.1s-22.043 4.335-30.166 12.1l-67.84 67.627c-8.047 7.773-18.825 12.074-30.012 11.977s-21.888-4.585-29.799-12.493c-7.911-7.915-12.398-18.615-12.495-29.803s4.203-21.965 11.975-30.012l67.626-67.627c23.88-23.885 56.231-37.363 90.005-37.5s66.234 13.086 90.304 36.774h-0.171zM1038.199 448.017c0 11.319-4.493 22.17-12.497 30.17-8 8.004-18.854 12.497-30.17 12.497h-426.667c-11.315 0-22.17-4.493-30.17-12.497-8-8-12.497-18.85-12.497-30.17 0-11.315 4.497-22.165 12.497-30.17 8-8 18.854-12.497 30.17-12.497h426.667c11.315 0 22.17 4.497 30.17 12.497 8.004 8.004 12.497 18.854 12.497 30.17zM274.467 58.129l152.959 145.664c4.275 3.806 7.74 8.431 10.189 13.602s3.836 10.786 4.070 16.503c0.239 5.717-0.678 11.422-2.692 16.781-2.014 5.355-5.086 10.253-9.028 14.396-3.946 4.147-8.684 7.454-13.935 9.732-5.25 2.274-10.904 3.473-16.626 3.52s-11.395-1.058-16.682-3.247c-5.286-2.193-10.078-5.423-14.090-9.506l-153.6-146.389c-4.104-4.126-9.010-7.373-14.415-9.532-5.405-2.163-11.196-3.196-17.015-3.038-5.819 0.162-11.544 1.51-16.823 3.964-5.278 2.458-9.999 5.965-13.87 10.313l-67.627 60.331c-8.453 7.539-19.553 11.409-30.86 10.761s-21.892-5.76-29.428-14.217c-7.536-8.452-11.406-19.554-10.758-30.857 0.648-11.307 5.761-21.892 14.214-29.431l65.877-58.624c23.88-23.885 56.231-37.363 90.005-37.5s66.234 13.086 90.304 36.774h-0.171zM1038.199 106.684c0 11.315-4.493 22.17-12.497 30.17-8 8.004-18.854 12.497-30.17 12.497h-426.667c-11.315 0-22.17-4.493-30.17-12.497-8-8-12.497-18.854-12.497-30.17s4.497-22.165 12.497-30.17c8-8 18.854-12.497 30.17-12.497h426.667c11.315 0 22.17 4.497 30.17 12.497 8.004 8.004 12.497 18.854 12.497 30.17z" />
<glyph unicode="&#xe91a;" glyph-name="stop" horiz-adv-x="960" d="M480-32c264.659 0 480 215.322 480 480 0 128.32-49.901 248.877-140.518 339.482-90.624 90.616-211.162 140.518-339.482 140.518-264.678 0-480-215.322-480-480 0-128.32 49.902-248.877 140.518-339.482 90.605-90.618 211.162-140.518 339.482-140.518zM480 48c-93.476 0-182.002 31.776-253.242 90.195l563.047 563.047c58.419-71.24 90.195-159.766 90.195-253.242 0-220.557-179.443-400-400-400zM480 848c93.457 0 182.003-31.777 253.222-90.195l-563.027-563.046c-58.418 71.238-90.195 159.765-90.195 253.242 0 220.557 179.443 400 400 400z" />
<glyph unicode="&#xe91b;" glyph-name="attach" horiz-adv-x="866" d="M590.769 257.384c0-10.446-4.15-20.463-11.536-27.85s-17.403-11.535-27.849-11.535h-78.769v-78.767c0-10.445-4.15-20.464-11.536-27.853s-17.403-11.532-27.849-11.532c-10.446 0-20.463 4.143-27.849 11.532s-11.536 17.408-11.536 27.853v78.767h-78.769c-10.446 0-20.463 4.149-27.849 11.535s-11.536 17.404-11.536 27.85c0 10.446 4.15 20.463 11.536 27.849s17.403 11.536 27.849 11.536h78.769v78.769c0 10.446 4.15 20.463 11.536 27.849s17.403 11.536 27.849 11.536c10.446 0 20.463-4.15 27.849-11.536s11.536-17.403 11.536-27.849v-78.769h78.769c10.446 0 20.463-4.15 27.849-11.536s11.536-17.403 11.536-27.849zM827.077 474.59v-335.358c-0.063-52.208-20.827-102.266-57.747-139.177-36.917-36.919-86.968-57.683-139.177-57.746h-393.846c-52.208 0.063-102.26 20.827-139.177 57.746-36.917 36.911-57.684 86.969-57.747 139.177v551.382c0.063 52.207 20.83 102.26 57.747 139.177s86.968 57.684 139.177 57.746h177.822c36.219 0.093 72.097-6.994 105.559-20.852s63.846-34.213 89.394-59.886l137.216-137.295c25.688-25.531 46.056-55.905 59.92-89.363s20.953-69.334 20.858-105.552zM553.393 751.11c-12.395 12.006-26.311 22.333-41.393 30.72v-169.984c0-10.446 4.15-20.463 11.536-27.85s17.403-11.535 27.849-11.535h169.984c-8.39 15.076-18.733 28.981-30.759 41.354l-137.216 137.295zM748.308 474.59c0 6.498-1.26 12.721-1.851 19.102h-195.072c-31.336 0-61.39 12.448-83.547 34.606s-34.606 52.211-34.606 83.547v195.072c-6.38 0.591-12.642 1.851-19.102 1.851h-177.822c-31.336 0-61.39-12.449-83.547-34.606s-34.606-52.211-34.606-83.547v-551.382c0-31.342 12.449-61.393 34.606-83.551s52.211-34.603 83.547-34.603h393.846c31.336 0 61.39 12.446 83.547 34.603s34.606 52.208 34.606 83.551v335.358z" />
<glyph unicode="&#xe91c;" glyph-name="stopwatch" horiz-adv-x="970" d="M904.903 470.62c-26.867 186.141-173.088 332.366-359.23 359.233v65.445h30.3c33.469 0 60.599 27.13 60.599 60.597l-242.391-1.818c-0.083 0.604-0.083 1.216 0 1.818h-60.597c0-33.467 27.131-60.597 60.597-60.597h30.299v-65.445c-231.865-33.467-392.699-248.562-359.233-480.426 33.466-231.866 248.561-392.699 480.426-359.23 231.866 33.463 392.699 248.557 359.23 480.423zM485.078 46.937c-200.802 0-363.583 162.784-363.583 363.585s162.781 363.582 363.583 363.582c200.803 0 363.581-162.781 363.581-363.582s-162.784-363.585-363.581-363.585zM515.387 622.631h-60.597v-212.088c-0.047-8.057 3.115-15.797 8.786-21.515l121.192-121.193 42.722 42.722-112.104 112.407v199.667z" />
<glyph unicode="&#xe91d;" glyph-name="next" horiz-adv-x="614" d="M513.681 583.5l-313.275 313.071c-12.999 11.753-30.019 18.057-47.537 17.607s-34.192-7.619-46.57-20.024-19.512-29.094-19.925-46.613c-0.413-17.52 5.928-34.526 17.708-47.5l313.072-313.071c12.798-12.802 19.987-30.163 19.987-48.264s-7.19-35.463-19.987-48.265l-313.072-313.071c-12.8-12.809-19.988-30.179-19.981-48.289 0.006-18.108 7.206-35.473 20.016-48.274s30.179-19.988 48.289-19.981c18.108 0.006 35.473 7.206 48.274 20.015l313.002 313.072c38.395 38.405 59.963 90.488 59.963 144.794s-21.569 106.387-59.963 144.794z" />
<glyph unicode="&#xe91e;" glyph-name="prev" horiz-adv-x="512" d="M169.428 404.908c-13.153 12.802-20.542 30.163-20.542 48.264s7.389 35.463 20.542 48.264l321.698 313.072c12.781 12.875 19.852 30.119 19.693 48.019s-7.539 35.021-20.548 47.679c-13.009 12.657-30.606 19.837-49.004 19.992-18.396 0.156-36.12-6.725-49.353-19.161l-321.486-313.071c-39.461-38.405-61.628-90.488-61.628-144.794s22.168-106.387 61.628-144.794l321.767-313.071c13.233-12.435 30.957-19.317 49.354-19.161s35.994 7.336 49.002 19.993c13.009 12.658 20.388 29.779 20.548 47.678s-6.912 35.144-19.693 48.019l-321.978 313.071z" />
<glyph unicode="&#xe91f;" glyph-name="attach-1" horiz-adv-x="964" d="M317.544 454.955c-3.499 3.501-8.356 5.515-13.308 5.515s-9.807-2.014-13.306-5.515c-3.501-3.501-5.518-8.358-5.518-13.308s2.014-9.807 5.518-13.308c3.499-3.501 8.355-5.515 13.306-5.515 4.953 0 9.809 2.014 13.308 5.515 3.501 3.501 5.515 8.358 5.515 13.308s-2.012 9.807-5.515 13.308zM317.544 319.428c-3.499 3.5-8.356 5.512-13.308 5.512s-9.807-2.012-13.306-5.512c-3.501-3.506-5.518-8.343-5.518-13.312 0-4.951 2.014-9.806 5.518-13.306 3.499-3.5 8.355-5.518 13.306-5.518 4.953 0 9.809 2.018 13.308 5.518 3.501 3.5 5.515 8.355 5.515 13.306s-2.012 9.806-5.515 13.312zM317.544 183.898c-3.499 3.5-8.356 5.512-13.308 5.512s-9.807-2.012-13.306-5.512c-3.501-3.506-5.518-8.361-5.518-13.312s2.014-9.806 5.518-13.306c3.499-3.5 8.355-5.518 13.306-5.518 4.953 0 9.809 2.018 13.308 5.518 3.501 3.5 5.515 8.355 5.515 13.306s-2.012 9.806-5.515 13.312zM678.394 460.471h-292.335c-10.394 0-18.824-8.428-18.824-18.824s8.429-18.824 18.824-18.824h292.335c10.397 0 18.824 8.428 18.824 18.824s-8.427 18.824-18.824 18.824zM678.394 324.939h-292.335c-10.394 0-18.824-8.427-18.824-18.824s8.429-18.824 18.824-18.824h292.335c10.397 0 18.824 8.427 18.824 18.824s-8.427 18.824-18.824 18.824zM678.394 189.41h-292.335c-10.394 0-18.824-8.427-18.824-18.824s8.429-18.824 18.824-18.824h292.335c10.397 0 18.824 8.427 18.824 18.824s-8.427 18.824-18.824 18.824zM843.131 540.444c-0.006 0.072-0.018 0.143-0.024 0.214-0.018 0.298-0.054 0.565-0.096 0.808-0.44 4.21-2.247 8.25-5.367 11.373l-195.765 195.765c-3.409 3.407-7.903 5.291-12.529 5.483-0.241 0.019-0.494 0.030-0.783 0.030h-127.685v33.882c0 72.655-59.108 131.765-131.765 131.765s-131.765-59.11-131.765-131.765v-33.882h-41.412c-41.517 0-75.294-33.777-75.294-75.294v-647.531c0-41.514 33.777-75.294 75.294-75.294h571.92c41.52 0 75.294 33.78 75.294 75.294v508.237c0 0.329-0.012 0.632-0.024 0.915zM647.391 689.85l131.494-131.497h-89.142c-23.353 0-42.351 18.999-42.351 42.353v89.144zM369.116 882.118c51.896 0 94.118-42.221 94.118-94.118v-172.34c0-31.599-25.707-57.307-57.307-57.307s-57.306 25.707-57.306 57.307v173.735c0 11.072 9.007 20.079 20.077 20.079 11.072 0 20.079-9.007 20.079-20.079v-171.433c0-10.397 8.429-18.824 18.824-18.824s18.824 8.427 18.824 18.824v171.433c0 31.83-25.895 57.726-57.726 57.726-31.829 0-57.724-25.896-57.724-57.726v-35.277h-35.974v33.882h-0.002c0 51.896 42.221 94.118 94.118 94.118zM805.502 31.292c0.006-20.757-16.884-37.647-37.641-37.647h-571.922c-20.759 0-37.647 16.89-37.647 37.647v647.531c0 20.759 16.888 37.647 37.647 37.647h115.033v-100.811c0-52.358 42.595-94.954 94.953-94.954s94.954 42.596 94.954 94.954v100.811h108.859v-115.764c0-44.113 35.888-80 80.005-80h115.76v-489.414z" />
<glyph unicode="&#xe920;" glyph-name="dom-rab" horiz-adv-x="964" d="M762.982 66.391h-562.198c-53.232 0.066-104.265 21.239-141.905 58.88s-58.815 88.672-58.879 141.902v401.571c0.064 53.232 21.238 104.265 58.879 141.906s88.674 58.815 141.905 58.879h562.198c53.23-0.064 104.261-21.238 141.902-58.879s58.814-88.674 58.88-141.906v-401.571c-0.066-53.23-21.239-104.261-58.88-141.902s-88.672-58.814-141.902-58.88zM200.784 789.215c-31.951 0-62.593-12.692-85.185-35.285s-35.285-53.235-35.285-85.186v-401.571c0-31.949 12.693-62.59 35.285-85.185 22.592-22.588 53.235-35.286 85.185-35.286h562.198c31.949 0 62.59 12.698 85.185 35.286 22.594 22.594 35.286 53.236 35.286 85.185v401.571c0 31.951-12.692 62.593-35.286 85.186s-53.236 35.285-85.185 35.285h-562.198zM763 427.863h-321.255c-10.65 0-20.864 4.231-28.396 11.762s-11.762 17.745-11.762 28.396c0 10.65 4.231 20.864 11.762 28.395s17.745 11.762 28.396 11.762h321.255c10.65 0 20.866-4.23 28.395-11.762s11.764-17.745 11.764-28.395c0-10.65-4.235-20.864-11.764-28.396s-17.745-11.762-28.395-11.762zM281.118 427.863h-80.314c-10.65 0-20.864 4.231-28.396 11.762s-11.762 17.745-11.762 28.396c0 10.65 4.231 20.864 11.762 28.395s17.745 11.762 28.396 11.762h80.314c10.65 0 20.864-4.23 28.396-11.762s11.762-17.745 11.762-28.395c0-10.65-4.231-20.864-11.762-28.396s-17.745-11.762-28.396-11.762zM522.059 227.039h-321.255c-10.65 0-20.864 4.229-28.396 11.764-7.531 7.529-11.762 17.745-11.762 28.395s4.231 20.866 11.762 28.395c7.531 7.529 17.745 11.758 28.396 11.758h321.255c10.65 0 20.864-4.229 28.396-11.758s11.762-17.745 11.762-28.395c0-10.65-4.231-20.866-11.762-28.395-7.531-7.535-17.745-11.764-28.396-11.764zM763 227.039h-80.312c-10.656 0-20.866 4.229-28.395 11.764-7.535 7.529-11.764 17.745-11.764 28.395s4.229 20.866 11.764 28.395c7.529 7.529 17.739 11.758 28.395 11.758h80.312c10.65 0 20.866-4.229 28.395-11.758s11.764-17.745 11.764-28.395c0-10.65-4.235-20.866-11.764-28.395-7.529-7.535-17.745-11.764-28.395-11.764z" />
<glyph unicode="&#xe921;" glyph-name="dom-rab-asterisk" horiz-adv-x="1088" d="M939.629 418.118l-48.211 29.866 48.256 29.867c33.504 19.921 59.45 50.4 73.766 86.656 8.966 23.972 12.307 49.683 9.766 75.149s-10.886 50.012-24.41 71.743c-13.517 21.731-31.846 40.068-53.574 53.599-21.722 13.532-46.259 21.895-71.725 24.447-38.854 3.178-77.664-6.637-110.336-27.904l-17.114-10.624v31.061c0.723 43.317-14.592 85.372-43.002 118.081s-67.904 53.762-110.895 59.114c-23.712 2.341-47.652-0.309-70.278-7.78s-43.437-19.597-61.094-35.597c-17.656-16-31.766-35.521-41.422-57.304s-14.643-45.348-14.641-69.175v-38.4l-17.067 10.666c-32.666 21.327-71.495 31.189-110.379 28.032-25.47-2.529-50.019-10.874-71.755-24.39s-40.077-31.843-53.612-53.568c-13.533-21.725-21.898-46.268-24.448-71.736s0.782-51.182 9.74-75.159c14.321-36.268 40.285-66.749 73.813-86.656l48.341-30.123-48.256-29.866c-33.506-19.921-59.453-50.4-73.77-86.656-8.975-23.994-12.317-49.722-9.768-75.213 2.549-25.485 10.922-50.048 24.471-71.789 13.549-21.734 31.912-40.070 53.672-53.581 21.76-13.517 46.335-21.85 71.827-24.358 38.769-3.168 77.494 6.605 110.123 27.776l17.067 10.752v-38.4c0-45.261 17.981-88.672 49.987-120.678s75.416-49.984 120.68-49.984c45.264 0 88.675 17.978 120.681 49.984s49.984 75.418 49.984 120.678v38.4l17.069-10.707c32.608-21.19 71.315-30.989 110.080-27.859 25.485 2.515 50.048 10.861 71.802 24.378 21.747 13.517 40.102 31.853 53.638 53.594 13.542 21.734 21.907 46.291 24.448 71.77 2.547 25.485-0.794 51.213-9.773 75.196-14.291 36.256-40.205 66.747-73.683 86.699zM926.362 229.619c-11.469-18.4-29.773-31.488-50.886-36.397-21.114-4.902-43.315-1.222-61.715 10.24l-87.846 54.701c-6.47 4.019-13.894 6.234-21.504 6.419-7.61 0.179-15.136-1.677-21.786-5.382-6.656-3.706-12.192-9.12-16.045-15.686s-5.875-14.048-5.862-21.664v-115.2c0-22.63-8.992-44.333-24.994-60.339-16.003-16-37.708-24.992-60.34-24.992s-44.337 8.992-60.34 24.992c-16.003 16.006-24.993 37.709-24.993 60.339v115.2c-0.002 7.61-2.037 15.078-5.896 21.632s-9.399 11.962-16.048 15.654c-6.65 3.693-14.166 5.549-21.77 5.357-7.604-0.186-15.021-2.4-21.481-6.419l-87.85-54.784c-9.111-5.67-19.25-9.491-29.837-11.251-10.588-1.754-21.418-1.402-31.872 1.024-10.454 2.432-20.326 6.899-29.054 13.146s-16.14 14.15-21.812 23.258c-5.674 9.114-9.496 19.251-11.251 29.837-1.755 10.592-1.407 21.421 1.024 31.872 2.43 10.458 6.896 20.326 13.142 29.056 6.246 8.728 14.15 16.14 23.261 21.813l112 69.717c6.174 3.827 11.269 9.166 14.803 15.513s5.388 13.49 5.388 20.754c0 7.264-1.854 14.408-5.388 20.754s-8.628 11.686-14.803 15.513l-112 69.674c-18.4 11.458-31.494 29.755-36.403 50.867s-1.23 43.309 10.227 61.709c11.457 18.4 29.754 31.494 50.867 36.403s43.309 1.231 61.709-10.227l87.85-54.698c6.451-4.011 13.855-6.227 21.449-6.419s15.101 1.647 21.747 5.326c6.645 3.679 12.188 9.066 16.055 15.604s5.92 13.989 5.944 21.585v110.634c-0.461 20.772 6.399 41.045 19.379 57.27s31.252 27.367 51.619 31.477c12.248 2.088 24.804 1.475 36.791-1.795s23.115-9.117 32.607-17.134c9.492-8.017 17.12-18.010 22.349-29.281s7.93-23.548 7.923-35.972v-115.2c0.006-7.603 2.048-15.066 5.914-21.615 3.859-6.55 9.402-11.949 16.051-15.638 6.643-3.69 14.157-5.535 21.76-5.347s15.014 2.405 21.472 6.419l87.846 54.656c9.114 5.674 19.251 9.496 29.837 11.251 10.592 1.755 21.421 1.407 31.872-1.024 10.458-2.43 20.326-6.896 29.056-13.142s16.141-14.15 21.811-23.261c5.677-9.11 9.498-19.249 11.251-29.837s1.408-21.418-1.024-31.871c-2.432-10.454-6.893-20.326-13.139-29.054s-14.15-16.14-23.264-21.813l-112-69.717c-6.17-3.827-11.27-9.166-14.803-15.512s-5.382-13.491-5.382-20.755c0-7.263 1.85-14.407 5.382-20.754s8.634-11.686 14.803-15.512l112-69.718c9.12-5.665 17.024-13.072 23.277-21.797 6.253-8.722 10.72-18.597 13.158-29.048 2.432-10.458 2.778-21.286 1.024-31.872-1.76-10.592-5.581-20.73-11.258-29.837v0.301z" />
<glyph unicode="&#xe922;" glyph-name="dom-rab-komment" horiz-adv-x="964" d="M682.665 939.765c-10.65 0-20.859-4.231-28.395-11.762-7.529-7.531-11.758-17.745-11.758-28.395 0-118.423-103.727-160.628-200.787-160.628h-281.098c-42.601 0-83.457-16.923-113.581-47.047s-47.047-70.979-47.047-113.581v-80.314c0.088-24.044 5.6-47.757 16.127-69.374s25.796-40.579 44.67-55.474l143.441-320.13c10.201-22.932 26.832-42.418 47.877-56.097 21.046-13.673 45.606-20.956 70.705-20.962 19.97 0.012 39.621 5.018 57.162 14.565s32.417 23.323 43.272 40.087c10.856 16.763 17.347 35.973 18.882 55.886s-1.933 39.888-10.089 58.121l-88.345 192.753h98.023c97.060 0 200.787-42.207 200.787-160.629 0-10.65 4.229-20.866 11.758-28.395 7.535-7.529 17.745-11.764 28.395-11.764s20.866 4.235 28.395 11.764c7.535 7.529 11.764 17.745 11.764 28.395v722.824c0 10.65-4.229 20.864-11.764 28.395-7.529 7.531-17.745 11.762-28.395 11.762v0zM358.882 111.773c2.66-6.011 3.779-12.583 3.255-19.131-0.524-6.554-2.674-12.866-6.255-18.372s-8.481-10.035-14.253-13.173c-5.773-3.132-12.237-4.777-18.807-4.783-9.582 0.006-18.955 2.795-26.982 8.029-8.027 5.228-14.361 12.68-18.234 21.444l-112.76 251.627h90.513l103.525-225.641zM642.512 353.473c-57.374 44.207-128.409 66.938-200.787 64.253h-281.098c-21.301 0-41.729 8.461-56.79 23.523s-23.524 35.49-23.524 56.79v80.314c0 21.3 8.462 41.729 23.524 56.79s35.489 23.524 56.79 23.524h281.098c72.353-2.743 143.385 19.916 200.787 64.050v-369.244zM959.747 319.259c-2.355-4.722-5.614-8.933-9.602-12.39-3.982-3.458-8.608-6.102-13.613-7.77s-10.288-2.337-15.553-1.964c-5.265 0.367-10.403 1.777-15.119 4.138l-80.318 40.153c-9.529 4.765-16.782 13.113-20.155 23.221-3.373 10.106-2.596 21.139 2.168 30.671 4.759 9.532 13.113 16.782 23.215 20.156 10.107 3.374 21.143 2.595 30.672-2.166l80.318-40.156c9.481-4.758 16.697-13.075 20.064-23.136 3.373-10.059 2.626-21.040-2.078-30.551v-0.205zM807.557 680.673c-2.361 4.719-3.771 9.858-4.138 15.12-0.373 5.263 0.295 10.548 1.964 15.553s4.313 9.632 7.77 13.615c3.458 3.984 7.674 7.247 12.39 9.603l80.318 40.156c9.529 4.761 20.564 5.54 30.672 2.166 10.101-3.374 18.456-10.624 23.215-20.156 4.765-9.532 5.542-20.565 2.168-30.671s-10.626-18.459-20.155-23.22l-80.318-40.157c-4.716-2.359-9.854-3.766-15.119-4.138s-10.547 0.295-15.553 1.966c-5.006 1.67-9.632 4.311-13.613 7.771-3.988 3.459-7.246 7.67-9.602 12.392zM803.135 538.196c0 10.65 4.235 20.864 11.764 28.395s17.745 11.762 28.395 11.762h80.312c10.65 0 20.866-4.231 28.395-11.762 7.535-7.531 11.764-17.745 11.764-28.395s-4.229-20.864-11.764-28.396c-7.529-7.531-17.745-11.762-28.395-11.762h-80.312c-10.65 0-20.866 4.231-28.395 11.762s-11.764 17.745-11.764 28.396z" />
<glyph unicode="&#xe923;" glyph-name="down" horiz-adv-x="1707" d="M910.486 305.381c-21.335-21.922-50.27-34.237-80.44-34.237s-59.104 12.315-80.44 34.237l-521.784 536.162c-21.46 21.301-50.2 33.088-80.032 32.822s-58.369-12.565-79.464-34.246c-21.095-21.681-33.061-51.011-33.32-81.672s11.209-60.199 31.935-82.255l521.784-535.811c64.010-65.766 150.813-102.714 241.323-102.714s177.314 36.948 241.323 102.714l521.784 536.279c20.726 22.055 32.195 51.594 31.935 82.255s-12.225 59.991-33.321 81.672c-21.094 21.681-49.632 33.98-79.464 34.246s-58.573-11.52-80.031-32.822l-521.786-536.629z" />
<glyph unicode="&#xe924;" glyph-name="info" horiz-adv-x="983" d="M491.52 954.64c-97.213 0-192.244-28.827-273.074-82.836s-143.829-130.774-181.031-220.588c-37.202-89.813-46.936-188.643-27.97-283.986 18.965-95.347 65.778-182.927 134.518-251.666 68.74-68.743 156.321-115.556 251.666-134.521s194.174-9.232 283.987 27.972c89.813 37.2 166.58 100.2 220.586 181.031 54.010 80.83 82.838 175.862 82.838 273.072-0.139 130.318-51.97 255.256-144.118 347.403s-217.088 143.978-347.402 144.119v0zM491.52 53.518c-81.011 0-160.203 24.023-227.561 69.030-67.358 45.011-119.858 108.978-150.859 183.824s-39.113 157.2-23.309 236.655c15.804 79.456 54.815 152.44 112.099 209.724s130.267 96.294 209.722 112.099c79.454 15.805 161.812 7.693 236.655-23.308 74.846-31.002 138.818-83.501 183.824-150.86s69.030-146.548 69.030-227.563c-0.119-108.593-43.311-212.709-120.099-289.497-76.792-76.788-180.904-119.98-289.501-120.103zM491.52 545.038h-40.96c-10.863 0-21.283-4.313-28.963-11.997-7.68-7.68-11.997-18.096-11.997-28.963 0-10.863 4.317-21.279 11.997-28.963 7.68-7.68 18.1-11.997 28.963-11.997h40.96v-245.76c0-10.863 4.317-21.279 11.997-28.963 7.68-7.68 18.1-11.997 28.963-11.997s21.283 4.317 28.963 11.997c7.68 7.684 11.997 18.1 11.997 28.963v245.76c0 21.729-8.63 42.566-23.994 57.93-15.364 15.36-36.2 23.99-57.926 23.99zM491.52 626.96c33.931 0 61.44 27.508 61.44 61.44s-27.509 61.44-61.44 61.44c-33.931 0-61.44-27.508-61.44-61.44s27.509-61.44 61.44-61.44z" />
<glyph unicode="&#xe925;" glyph-name="skip" d="M859.634 147.784c73.141 83.736 113.295 190.046 113.295 299.934s-40.154 216.197-113.295 299.933l34.249 33.321c7.468 7.27 11.66 17.129 11.653 27.408 0 10.278-4.198 20.134-11.674 27.399-7.468 7.265-17.606 11.345-28.167 11.341-10.568-0.004-20.692-4.091-28.16-11.361l-34.249-33.321c-86.064 71.16-195.322 110.23-308.263 110.23s-222.202-39.070-308.264-110.23l-34.247 33.321c-7.515 7.053-17.577 10.952-28.019 10.856s-20.427-4.177-27.805-11.366c-7.378-7.188-11.559-16.91-11.642-27.069s3.938-19.943 11.197-27.246l34.247-33.322c-73.136-83.736-113.292-190.044-113.292-299.932s40.155-216.194 113.292-299.93l-34.247-33.328c-3.8-3.57-6.831-7.851-8.915-12.582-2.083-4.724-3.178-9.81-3.22-14.957-0.042-5.14 0.969-10.247 2.975-15.005s4.966-9.086 8.707-12.718c3.742-3.639 8.19-6.513 13.085-8.458s10.14-2.922 15.427-2.874c5.287 0.055 10.512 1.126 15.369 3.161 4.857 2.028 9.249 4.983 12.92 8.69l34.247 33.321c86.062-71.161 195.323-110.23 308.264-110.23s222.201 39.069 308.265 110.23l34.249-33.321c7.509-7.052 17.572-10.95 28.017-10.861 10.438 0.096 20.425 4.178 27.805 11.366 7.38 7.195 11.558 16.91 11.639 27.075 0.082 10.158-3.939 19.941-11.196 27.245l-34.249 33.28zM893.29 447.717c0.068-89.366-31.771-175.982-90.078-245.027l-142.208 138.359c21.629 31.594 33.173 68.707 33.173 106.667s-11.544 75.074-33.173 106.668l142.208 138.362c58.307-69.048 90.146-155.663 90.078-245.030zM375.598 447.717c0 22.99 7.006 45.464 20.133 64.579s31.786 34.013 53.615 42.811c21.83 8.798 45.851 11.099 69.025 6.614s44.461-15.556 61.168-31.812c16.708-16.256 28.086-36.968 32.696-59.516s2.244-45.92-6.798-67.159c-9.043-21.24-24.355-39.394-44.001-52.166s-42.744-19.59-66.372-19.59c-31.685 0-62.071 12.246-84.476 34.045s-34.991 51.365-34.991 82.192zM495.064 835.177c91.849 0.072 180.869-30.91 251.834-87.643l-142.204-138.362c-32.471 21.045-70.615 32.273-109.63 32.273s-77.159-11.229-109.631-32.273l-142.205 138.362c70.966 56.734 159.987 87.715 251.836 87.643zM96.842 447.717c-0.073 89.367 31.769 175.982 90.078 245.030l142.206-138.362c-21.629-31.594-33.17-68.707-33.17-106.668s11.541-75.074 33.17-106.667l-142.206-138.359c-58.309 69.045-90.151 155.661-90.078 245.027zM495.064 60.259c-91.849-0.075-180.87 30.911-251.836 87.641l142.205 138.364c32.472-21.047 70.615-32.27 109.631-32.27s77.159 11.223 109.63 32.27l142.204-138.364c-70.965-56.73-159.986-87.716-251.834-87.641z" />
<glyph unicode="&#xe926;" glyph-name="repeat" horiz-adv-x="956" d="M865.198 447.704c-9.216 0.121-18.145-3.299-25.040-9.59s-11.257-15.001-12.233-24.424c-7.407-88.091-43.882-170.94-103.383-234.803-59.496-63.863-138.445-104.905-223.754-116.333-85.309-11.421-171.855 7.462-245.29 53.521s-129.347 116.531-158.468 199.734c-29.121 83.2-29.702 174.131-1.645 257.716s83.065 154.806 155.905 201.854c72.84 47.047 159.137 67.097 244.584 56.824s164.912-50.252 225.219-113.308h-103.733c-9.997 0-19.585-4.082-26.654-11.347s-11.040-17.12-11.040-27.395c0-10.275 3.971-20.128 11.040-27.394s16.657-11.347 26.654-11.347h150.775c19.995 0 39.171 8.163 53.309 22.695s22.084 34.238 22.084 54.788v154.965c0 10.275-3.973 20.129-11.046 27.395-7.066 7.265-16.657 11.347-26.651 11.347-10.001 0-19.586-4.082-26.651-11.347-7.072-7.265-11.046-17.12-11.046-27.395v-93.56c-73.469 73.568-169.090 119.274-271.168 129.611s-204.543-15.309-290.567-72.727c-86.024-57.417-150.494-143.193-182.824-243.242s-30.597-208.422 4.914-307.324c35.511-98.903 102.689-182.455 190.503-236.939 87.813-54.477 191.042-76.65 292.735-62.874 101.693 13.783 195.807 62.689 266.879 138.704 71.079 76.008 114.893 174.598 124.252 279.58 0.485 5.392-0.13 10.829-1.795 15.965-1.673 5.136-4.362 9.858-7.905 13.867s-7.857 7.215-12.67 9.416c-4.813 2.201-10.022 3.348-15.292 3.368z" />
<glyph unicode="&#xe927;" glyph-name="answer" d="M512 960c-101.264 0-200.253-30.028-284.452-86.287s-149.822-136.223-188.574-229.779c-38.752-93.556-48.891-196.502-29.136-295.82 19.756-99.32 68.519-190.546 140.123-262.156 71.604-71.603 162.834-120.365 262.152-140.122s202.264-9.613 295.822 29.139c93.555 38.752 173.517 104.371 229.779 188.57 56.256 84.198 86.285 183.19 86.285 284.454-0.147 135.746-54.138 265.89-150.125 361.876s-226.131 149.977-361.875 150.124v0zM512 21.331c-84.387 0-166.878 25.024-237.043 71.91-70.165 46.88-124.852 113.517-157.145 191.482-32.294 77.962-40.743 163.75-24.28 246.515s57.099 158.79 116.769 218.461c59.67 59.67 135.695 100.306 218.46 116.769s168.554 8.013 246.515-24.28c77.965-32.294 144.602-86.98 191.482-157.146 46.886-70.165 71.91-152.657 71.91-237.043-0.128-113.121-45.12-221.574-125.107-301.562s-188.44-124.979-301.562-125.107zM542.571 743.986c-24.604 4.483-49.894 3.503-74.078-2.869s-46.672-17.982-65.873-34.008c-19.201-16.026-34.644-36.076-45.239-58.731s-16.080-47.361-16.068-72.371c0-11.316 4.495-22.168 12.497-30.17s18.854-12.497 30.17-12.497c11.316 0 22.168 4.495 30.17 12.497s12.497 18.854 12.497 30.17c-0.011 12.554 2.749 24.955 8.081 36.32s13.107 21.413 22.768 29.428c9.662 8.015 20.973 13.8 33.127 16.942s24.851 3.564 37.187 1.235c16.855-3.272 32.352-11.494 44.512-23.615s20.43-27.593 23.754-44.438c3.358-17.681 1.039-35.971-6.623-52.255s-20.279-29.729-36.043-38.412c-26.105-15.124-47.676-36.971-62.467-63.266s-22.26-56.075-21.629-86.238v-31.701c0-11.316 4.495-22.17 12.497-30.17s18.854-12.499 30.17-12.499c11.316 0 22.169 4.499 30.17 12.499s12.497 18.854 12.497 30.17v31.701c-0.535 14.848 2.851 29.574 9.816 42.697s17.266 24.179 29.864 32.055c30.913 16.979 55.805 43.117 71.255 74.82 15.456 31.704 20.704 67.415 15.027 102.224-5.67 34.809-21.99 67.005-46.709 92.161s-56.623 42.036-91.328 48.32zM554.646 192.019c0 23.565-19.103 42.669-42.667 42.669s-42.666-19.104-42.666-42.669c0-23.565 19.102-42.662 42.666-42.662s42.667 19.098 42.667 42.662z" />
<glyph unicode="&#xe928;" glyph-name="telegram" d="M679.429 204l84 396c7.429 34.857-12.571 48.571-35.429 40l-493.714-190.286c-33.714-13.143-33.143-32-5.714-40.571l126.286-39.429 293.143 184.571c13.714 9.143 26.286 4 16-5.143l-237.143-214.286-9.143-130.286c13.143 0 18.857 5.714 25.714 12.571l61.714 59.429 128-94.286c23.429-13.143 40-6.286 46.286 21.714zM1024 438.857c0-282.857-229.143-512-512-512s-512 229.143-512 512 229.143 512 512 512 512-229.143 512-512z" />
<glyph unicode="&#xe929;" glyph-name="edit" d="M774.145 887.842l-480.177-480.177c-18.34-18.241-32.879-39.938-42.776-63.836s-14.956-49.522-14.883-75.388v-52.894c0-10.446 4.15-20.463 11.536-27.849s17.403-11.536 27.849-11.536h52.894c25.866-0.072 51.491 4.986 75.388 14.883s45.596 24.437 63.836 42.776l480.176 480.177c23.016 23.073 35.942 54.333 35.942 86.922s-12.926 63.85-35.942 86.922c-23.41 22.375-54.54 34.861-86.922 34.861s-63.512-12.487-86.921-34.861zM892.298 769.688l-480.176-480.177c-22.208-22.072-52.224-34.498-83.535-34.58h-13.509v13.509c0.082 31.312 12.507 61.327 34.58 83.535l480.176 480.177c8.413 8.037 19.598 12.521 31.232 12.521s22.819-4.484 31.232-12.521c8.271-8.29 12.91-19.522 12.91-31.232s-4.64-22.941-12.91-31.232zM945.231 570.838c-10.445 0-20.464-4.15-27.853-11.536-7.381-7.386-11.532-17.403-11.532-27.849v-197.75h-157.538c-31.336 0-61.39-12.449-83.547-34.606s-34.606-52.211-34.606-83.547v-157.542h-393.846c-31.336 0-61.39 12.453-83.547 34.611s-34.606 52.208-34.606 83.546v551.385c0 31.336 12.449 61.389 34.606 83.547s52.211 34.606 83.547 34.606h356.116c10.446 0 20.463 4.15 27.849 11.536s11.536 17.403 11.536 27.849c0 10.445-4.15 20.463-11.536 27.849s-17.403 11.536-27.849 11.536h-356.116c-52.208-0.063-102.26-20.83-139.177-57.746s-57.684-86.968-57.747-139.177v-551.385c0.063-52.211 20.83-102.261 57.747-139.181 36.917-36.911 86.968-57.683 139.177-57.746h446.74c25.873-0.071 51.502 4.986 75.407 14.887 23.905 9.893 45.607 24.434 63.857 42.772l104.606 104.684c18.345 18.243 32.886 39.94 42.795 63.837 9.901 23.898 14.966 49.522 14.903 75.391v250.644c0 10.446-4.151 20.463-11.532 27.849-7.389 7.386-17.408 11.536-27.853 11.536zM766.622 92.587c-15.832-15.793-35.853-26.726-57.698-31.508v154.47c0 10.446 4.15 20.463 11.536 27.849s17.403 11.536 27.849 11.536h154.585c-4.876-21.8-15.793-41.785-31.508-57.659l-104.763-104.687z" />
<glyph unicode="&#xe92a;" glyph-name="book" horiz-adv-x="983" d="M696.32 911.417h-409.6c-54.296-0.065-106.35-21.663-144.744-60.056s-59.991-90.447-60.056-144.744v-614.4c0-43.454 17.262-85.127 47.988-115.851 30.726-30.728 72.399-47.989 115.852-47.989h450.56c54.297 0.066 106.349 21.664 144.744 60.056 38.392 38.396 59.99 90.448 60.056 144.744v573.44c-0.066 54.296-21.664 106.35-60.056 144.744-38.396 38.393-90.448 59.991-144.744 60.056v0zM819.2 706.617v-450.56h-491.52v573.44h368.64c32.588 0 63.844-12.946 86.888-35.991s35.992-54.299 35.992-86.889zM245.76 822.452v-566.395c-28.769 0.025-57.033-7.565-81.92-21.996v472.556c0.004 25.408 7.883 50.19 22.554 70.935s35.412 36.431 59.366 44.9zM696.32 10.297h-450.56c-21.726 0-42.563 8.63-57.926 23.994s-23.994 36.2-23.994 57.926c0 21.725 8.631 42.566 23.994 57.926 15.363 15.364 36.2 23.994 57.926 23.994h573.44v-40.96c0-32.588-12.947-63.844-35.992-86.888s-54.301-35.992-86.888-35.992z" />
<glyph unicode="&#xe92b;" glyph-name="rejected" horiz-adv-x="1088" d="M777.414 587.345l-84.851 84.853c-11.706 11.708-30.714 11.716-42.426 0l-106.068-106.065-106.065 106.065c-11.706 11.708-30.712 11.716-42.426 0l-84.852-84.853c-11.716-11.714-11.716-30.71 0-42.426l106.063-106.066-106.065-106.065c-11.716-11.714-11.716-30.712 0-42.424l84.852-84.858c11.706-11.706 30.712-11.712 42.426 0l106.067 106.068 106.068-106.068c11.706-11.706 30.707-11.712 42.426 0l84.851 84.858c11.712 11.712 11.712 30.708 0 42.424l-106.067 106.065 106.067 106.066c11.712 11.716 11.712 30.712 0 42.426zM607.709 460.065c-11.716-11.714-11.716-30.71 0-42.426l106.064-106.065-42.426-42.426-106.064 106.063c-11.716 11.716-30.71 11.716-42.426 0l-106.066-106.063-42.426 42.426 106.065 106.065c11.716 11.714 11.716 30.71 0 42.426l-106.065 106.065 42.426 42.428 106.066-106.065c11.714-11.714 30.71-11.714 42.426 0l106.064 106.065 42.426-42.428-106.064-106.065zM544 950.857c-281.918 0-512-230.098-512-512 0-281.92 230.098-512 512-512 281.92 0 512 230.099 512 512 0 281.918-230.099 512-512 512zM544-13.143c-249.234 0-452 202.765-452 452s202.766 452 452 452c249.235 0 452-202.766 452-452s-202.765-452-452-452z" />
<glyph unicode="&#xe92c;" glyph-name="elephant" horiz-adv-x="800" d="M737.261 11.068h-42.669v70.611c-0.090 22.874-4.762 45.498-13.738 66.538s-22.077 40.067-38.528 55.958c-82.090 79.318-115.584 170.198-118.016 318.976h42.154c11.315 0 22.17 4.496 30.17 12.496 8.003 8.003 12.499 18.854 12.499 30.173 0 11.315-4.496 22.166-12.499 30.17-8 8-18.854 12.496-30.17 12.496h-23.722c15.376 25.82 23.565 55.282 23.722 85.333 0 58.667-49.578 158.592-80.768 207.787-9.645 15.081-22.931 27.491-38.637 36.087-15.702 8.596-33.315 13.102-51.219 13.102-17.901 0-35.517-4.506-51.219-13.102s-28.989-21.006-38.636-36.087c-31.232-49.237-80.811-149.333-80.811-207.829 0.177-30.048 8.366-59.505 23.723-85.332h-23.595c-11.316 0-22.168-4.496-30.17-12.499-8.002-8-12.497-18.854-12.497-30.17s4.495-22.166 12.497-30.17c8.002-8 18.854-12.496 30.17-12.496h42.197c-2.475-148.778-36.011-239.616-118.016-318.934-16.421-15.901-29.496-34.928-38.457-55.955-8.961-21.030-13.627-43.638-13.724-66.496v-70.614h-42.667c-11.316 0-22.168-4.496-30.17-12.496-8.002-8.003-12.497-18.854-12.497-30.17 0-11.318 4.495-22.17 12.497-30.173 8.002-8 18.854-12.496 30.17-12.496h682.667c11.315 0 22.17 4.496 30.17 12.496 8.003 8.003 12.496 18.854 12.496 30.173 0 11.315-4.493 22.166-12.496 30.17-8 8-18.854 12.496-30.17 12.496l-0.042-0.042zM378.134 855.867c1.942 2.948 4.589 5.369 7.696 7.043 3.11 1.675 6.586 2.551 10.118 2.551 3.53 0 7.005-0.877 10.115-2.551s5.754-4.095 7.696-7.043c32.733-49.193 55.651-104.246 67.501-162.133 0-22.632-8.992-44.337-24.995-60.34s-37.709-24.994-60.339-24.994c-22.634 0-44.336 8.992-60.339 24.994s-24.995 37.708-24.995 60.34c11.878 57.872 34.812 112.908 67.542 162.091v0.043zM439.149 523.068c2.304-150.016 34.131-253.91 107.603-341.334h-301.61c73.387 87.424 105.303 191.36 107.648 341.334h86.358zM182.636 81.679c0.063 4.944 0.577 9.872 1.536 14.72h423.595c0.922-4.854 1.421-9.779 1.494-14.72v-70.611h-426.668l0.043 70.611z" />
<glyph unicode="&#xe92d;" glyph-name="dollar-green" d="M857.167 794.614c-92.579 92.582-215.678 143.568-346.605 143.568-130.931 0-254.026-50.986-346.608-143.568-92.58-92.582-143.568-215.677-143.568-346.61 0-130.928 50.988-254.022 143.568-346.605 92.582-92.584 215.677-143.569 346.608-143.569 130.928 0 254.026 50.986 346.605 143.569 92.584 92.584 143.569 215.678 143.569 346.605 0 130.932-50.986 254.028-143.569 346.61zM510.562 31.805c-238.61 0-421.671 177.594-421.671 416.2 0 238.612 183.060 418.413 421.671 418.413s419.812-179.801 419.812-418.413c0-238.606-181.201-416.2-419.812-416.2zM541.333 476.765h-61.528c-35.052 0-63.569 28.517-63.569 63.569s28.518 63.569 63.569 63.569h123.057c15.863 0 28.719 12.86 28.719 28.721s-12.856 28.721-28.719 28.721h-63.572v63.569c0 15.862-12.856 28.721-28.719 28.721s-28.723-12.86-28.723-28.721v-63.569h-2.039c-66.728 0-121.014-54.287-121.014-121.012s54.287-121.010 121.014-121.010h61.528c35.049 0 63.567-28.518 63.567-63.567 0-35.053-28.518-63.572-63.567-63.572h-123.056c-15.862 0-28.721-12.861-28.721-28.723 0-15.858 12.86-28.719 28.721-28.719h63.567v-63.572c0-15.863 12.861-28.723 28.723-28.723s28.719 12.861 28.719 28.723v63.572h2.043c66.728 0 121.014 54.286 121.014 121.014 0 66.723-54.286 121.009-121.014 121.009z" />
<glyph unicode="&#xe92e;" glyph-name="dollar-red" d="M540.677 476.765h-61.528c-35.055 0-63.571 28.517-63.571 63.569s28.518 63.569 63.571 63.569h123.052c15.863 0 28.723 12.86 28.723 28.721s-12.861 28.721-28.723 28.721h-63.567v63.569c0 15.862-12.861 28.721-28.723 28.721s-28.719-12.86-28.719-28.721v-63.569h-2.043c-66.727 0-121.012-54.287-121.012-121.012s54.287-121.010 121.012-121.010h61.528c35.053 0 63.567-28.518 63.567-63.567 0-35.053-28.514-63.572-63.567-63.572h-123.055c-15.862 0-28.721-12.861-28.721-28.723 0-15.858 12.859-28.719 28.721-28.719h63.569v-63.572c0-15.863 12.856-28.723 28.719-28.723s28.723 12.861 28.723 28.723v63.572h2.043c66.723 0 121.009 54.286 121.009 121.014 0 66.723-54.286 121.009-121.009 121.009zM62.651 123.997l97.727-14.48c-82.74 88.646-129.241 198.302-129.241 322.118 0 277.731 220.771 489.093 486.914 489.093 266.152 0 482.676-216.529 482.676-482.674 0-106.789-30.962-209.068-95.609-293.734-62.562-81.939-143.611-139.906-242.143-168.336-13.033-3.756-37.753 10.245-40.792 23.436-2.816 12.195 2.746 39.056 14.755 42.524 184.93 53.36 295.661 203.422 295.661 396.116 0 239.797-174.75 411.041-414.548 411.041-239.796 0-416.85-171.244-416.85-411.041 0-95.339 33.389-212.229 116.955-293.739l-4.364 108.954c0 13.196 10.697 23.892 23.896 23.892s23.896-10.696 23.896-23.892v-178.418c0-14.285-13.12-25.688-27.276-23.654l-178.414 25.488c-12.89 1.839-22.121 14.145-20.277 27.034 1.841 12.879 14.16 22.095 27.034 20.275z" />
<glyph unicode="&#xe92f;" glyph-name="sertifikat" horiz-adv-x="832" d="M341.334 448c11.315 0 22.166-4.496 30.17-12.496 8-8.003 12.496-18.854 12.496-30.17 0-11.318-4.496-22.17-12.496-30.17-8.003-8.003-18.854-12.499-30.17-12.499h-128.001c-11.316 0-22.168 4.496-30.17 12.499-8.002 8-12.497 18.851-12.497 30.17 0 11.315 4.495 22.166 12.497 30.17 8.002 8 18.854 12.496 30.17 12.496h128.001zM597.334 576c0 11.315-4.496 22.17-12.499 30.17-8 8.003-18.851 12.496-30.17 12.496h-341.332c-11.316 0-22.168-4.493-30.17-12.496-8.002-8-12.497-18.854-12.497-30.17s4.495-22.17 12.497-30.17c8.002-8.003 18.854-12.496 30.17-12.496h341.332c11.318 0 22.17 4.493 30.17 12.496 8.003 8 12.499 18.854 12.499 30.17zM213.333 704h341.332c11.318 0 22.17 4.495 30.17 12.497 8.003 8.002 12.499 18.854 12.499 30.17s-4.496 22.168-12.499 30.17c-8 8.002-18.851 12.497-30.17 12.497h-341.332c-11.316 0-22.168-4.495-30.17-12.497s-12.497-18.854-12.497-30.17c0-11.316 4.495-22.168 12.497-30.17s18.854-12.497 30.17-12.497zM725.334 130.39v-163.542c0.003-6.086-1.802-12.038-5.181-17.098-3.379-5.062-8.186-9.008-13.808-11.338s-11.811-2.938-17.779-1.75c-5.971 1.187-11.453 4.122-15.757 8.426l-32.81 32.768-32.81-32.768c-4.304-4.304-9.786-7.238-15.757-8.426-5.968-1.187-12.157-0.579-17.779 1.75s-10.429 6.275-13.808 11.338c-3.379 5.059-5.184 11.011-5.181 17.098v163.542c-32.538 18.694-57.984 47.626-72.368 82.288-14.387 34.662-16.909 73.107-7.171 109.35s31.187 68.25 61.008 91.034c29.821 22.784 66.336 35.066 103.866 34.938 14.422-0.179 28.765-2.218 42.666-6.058v304.724c0 33.948-13.485 66.505-37.488 90.51-24.006 24.005-56.563 37.49-90.512 37.49h-341.332c-33.948 0-66.505-13.485-90.51-37.49s-37.49-56.562-37.49-90.51v-512.001c0-33.946 13.485-66.502 37.49-90.509 24.005-24.003 56.562-37.491 90.51-37.491h213.332c11.318 0 22.17-4.493 30.17-12.496 8.003-8 12.499-18.854 12.499-30.17s-4.496-22.17-12.499-30.17c-8-8.003-18.851-12.496-30.17-12.496h-213.332c-56.559 0.067-110.782 22.563-150.775 62.557s-62.491 94.218-62.559 150.774v512.001c0.068 56.559 22.566 110.782 62.559 150.775s94.216 62.491 150.775 62.559h341.332c56.56-0.068 110.784-22.566 150.774-62.559 39.994-39.993 62.493-94.216 62.56-150.775v-357.633c16.714-18.768 29.018-41.037 36.013-65.174 6.992-24.141 8.499-49.539 4.41-74.336-4.090-24.794-13.677-48.362-28.051-68.976-14.378-20.614-33.181-37.75-55.037-50.157zM725.334 277.334c0 16.877-5.005 33.376-14.381 47.408-9.379 14.032-22.704 24.97-38.298 31.427-15.594 6.461-32.752 8.15-49.302 4.858-16.554-3.293-31.76-11.421-43.693-23.354-11.936-11.936-20.061-27.139-23.354-43.693s-1.603-33.712 4.854-49.302c6.461-15.594 17.395-28.922 31.43-38.298 14.032-9.376 30.531-14.381 47.408-14.381 22.63 0 44.336 8.992 60.339 24.992 16.003 16.003 24.995 37.709 24.995 60.342z" />
<glyph unicode="&#xe930;" glyph-name="prod-add-check" horiz-adv-x="1025" d="M512.549-64c-0.586-0.002-1.279-0.004-1.973-0.004-178.774 0-336.056 92.020-427.064 231.279l-1.196 1.951c-52.166 79.599-83.203 177.122-83.203 281.895 0 10.679 0.322 21.282 0.958 31.801l-0.070-1.447c18.45 268.286 240.605 478.929 511.959 478.929 75.52 0 147.229-16.315 211.795-45.614l-3.222 1.308c19.415-8.749 32.686-27.931 32.686-50.212 0-30.327-24.585-54.911-54.911-54.911-8.045 0-15.686 1.73-22.571 4.839l0.346-0.14c-48.097 21.948-104.321 34.742-163.533 34.742-222.155 0-402.247-180.092-402.247-402.247s180.092-402.247 402.247-402.247c222.095 0 402.15 179.995 402.246 402.067v41.715c0 30.308 24.569 54.877 54.877 54.877s54.877-24.569 54.877-54.877v0-42.255c-0.071-230.663-152.663-425.667-362.401-489.647l-3.626-0.951c-43.643-13.234-93.8-20.853-145.737-20.853-0.083 0-0.166 0-0.249 0h0.014zM512 301.479c-14.991 0.065-28.553 6.131-38.417 15.918l-137.188 137.188c-10.026 9.946-16.232 23.73-16.232 38.962s6.207 29.016 16.229 38.959l0.004 0.004c9.919 9.862 23.592 15.958 38.688 15.958s28.769-6.096 38.691-15.96l-0.003 0.003 98.229-99.327 420.905 417.063c9.919 9.862 23.592 15.958 38.688 15.958s28.769-6.096 38.691-15.96l-0.003 0.003c10.026-9.946 16.232-23.73 16.232-38.962s-6.207-29.016-16.229-38.959l-0.004-0.004-461.513-455.477c-9.543-9.216-22.446-15.007-36.698-15.364l-0.069-0.001z" />
<glyph unicode="&#xe931;" glyph-name="prod-add-close" d="M85.333-64c-0.147-0.001-0.32-0.001-0.493-0.001-23.442 0-44.676 9.452-60.099 24.754l0.006-0.005c-15.59 15.467-25.241 36.9-25.241 60.587s9.651 45.12 25.236 60.581l853.339 853.339c15.505 15.505 36.926 25.096 60.587 25.096 47.321 0 85.682-38.361 85.682-85.682 0-23.661-9.59-45.081-25.096-60.587l-853.333-853.333c-15.417-15.296-36.651-24.748-60.093-24.748-0.173 0-0.347 0.001-0.52 0.002h0.027zM938.667-64c-0.147-0.001-0.32-0.001-0.493-0.001-23.442 0-44.676 9.452-60.099 24.754l0.006-0.005-853.333 853.333c-15.505 15.505-25.096 36.926-25.096 60.587 0 47.321 38.361 85.682 85.682 85.682 23.661 0 45.081-9.59 60.587-25.096v0l853.333-853.333c15.59-15.467 25.241-36.9 25.241-60.587s-9.651-45.12-25.236-60.581l-0.006-0.006c-15.417-15.296-36.651-24.748-60.093-24.748-0.173 0-0.347 0.001-0.52 0.002h0.027z" />
<glyph unicode="&#xe932;" glyph-name="shopping-cart" horiz-adv-x="993" d="M939.722 775.804c-11.636 13.966-26.208 25.199-42.676 32.9s-34.428 11.682-52.609 11.66h-668.93l-1.738 14.522c-3.556 30.186-18.064 58.017-40.774 78.218s-52.042 31.367-82.437 31.381h-9.185c-10.973 0-21.496-4.359-29.256-12.118s-12.118-18.283-12.118-29.256c0-10.973 4.359-21.497 12.118-29.256s18.283-12.118 29.256-12.118h9.185c10.134-0.001 19.915-3.722 27.488-10.456s12.411-16.013 13.597-26.077l56.93-484.073c5.91-50.344 30.098-96.765 67.973-130.451 37.875-33.69 86.8-52.298 137.488-52.295h432.066c10.975 0 21.498 4.357 29.255 12.117 7.761 7.758 12.12 18.283 12.12 29.255s-4.36 21.498-12.12 29.255c-7.758 7.761-18.28 12.117-29.255 12.117h-432.066c-25.606 0.071-50.566 8.065-71.454 22.879s-36.683 35.725-45.219 59.87h493.176c48.5-0.003 95.462 17.036 132.676 48.14s62.318 74.296 70.923 122.030l32.479 180.141c3.24 17.873 2.513 36.241-2.135 53.801s-13.101 33.884-24.759 47.813zM885.397 688.878l-32.52-180.142c-5.167-28.672-20.253-54.613-42.62-73.281s-50.589-28.874-79.72-28.827h-506.333l-38.932 330.989h659.165c6.079 0.036 12.089-1.267 17.607-3.817s10.404-6.285 14.314-10.937c3.91-4.653 6.749-10.11 8.31-15.984 1.564-5.874 1.812-12.019 0.729-18zM289.615-48.525c45.702 0 82.749 37.047 82.749 82.749 0 45.698-37.047 82.745-82.749 82.745-45.7 0-82.747-37.047-82.747-82.745 0-45.701 37.047-82.749 82.747-82.749zM703.355-48.525c45.698 0 82.745 37.047 82.745 82.749 0 45.698-37.047 82.745-82.745 82.745-45.701 0-82.749-37.047-82.749-82.745 0-45.701 37.047-82.749 82.749-82.749z" />
<glyph unicode="&#xe933;" glyph-name="yandex-dzen" d="M960.389 468.767c0.082 0 0.143 0 0.225 0 5.714 0 11.162 2.396 15.032 6.595 3.932 4.26 5.878 9.974 5.366 15.749-20.562 226.161-199.619 405.279-425.8 425.882-5.734 0.451-11.51-1.413-15.77-5.366-4.26-3.932-6.636-9.482-6.574-15.278 3.564-300.564 43.213-423.383 427.52-427.581zM960.389 427.233c-384.307-4.198-423.936-127.017-427.5-427.581-0.061-5.796 2.314-11.346 6.574-15.278 3.809-3.502 8.786-5.448 13.906-5.448 0.614 0 1.249 0.020 1.864 0.082 226.181 20.603 405.238 199.7 425.779 425.882 0.512 5.775-1.413 11.489-5.366 15.749s-9.462 6.369-15.258 6.595zM467.415 916.89c-225.464-21.197-403.948-200.274-424.407-425.82-0.512-5.775 1.413-11.489 5.366-15.749 3.871-4.198 9.339-6.574 15.032-6.574 0.082 0 0.164 0 0.246 0 383.037 4.403 422.584 127.16 426.189 427.52 0.061 5.796-2.335 11.366-6.595 15.299-4.301 3.932-10.056 5.857-15.831 5.325zM63.631 427.254c-6.369 0.717-11.366-2.314-15.278-6.574-3.932-4.26-5.878-9.974-5.366-15.749 20.46-225.546 198.963-404.623 424.428-425.82 0.635-0.061 1.29-0.082 1.925-0.082 5.12 0 10.076 1.925 13.885 5.427 4.26 3.932 6.656 9.503 6.595 15.299-3.604 300.339-43.131 423.096-426.189 427.5z" />
</font>
</defs>
</svg>
