<svg width="17" height="17" viewBox="0 0 17 17" fill="none" xmlns="http://www.w3.org/2000/svg">
  <path d="M8.92627 0.970703C7.34402 0.970703 5.7973 1.43989 4.48171 2.31895C3.16612 3.198 2.14074 4.44743 1.53524 5.90924C0.929736 7.37104 0.771309 8.97958 1.07999 10.5314C1.38867 12.0833 2.1506 13.5087 3.26942 14.6276C4.38824 15.7464 5.8137 16.5083 7.36555 16.817C8.9174 17.1257 10.5259 16.9672 11.9877 16.3617C13.4495 15.7562 14.699 14.7309 15.578 13.4153C16.4571 12.0997 16.9263 10.553 16.9263 8.9707C16.924 6.84968 16.0804 4.81618 14.5806 3.31638C13.0808 1.81659 11.0473 0.972997 8.92627 0.970703V0.970703ZM8.92627 15.6374C7.60773 15.6374 6.3188 15.2464 5.22247 14.5138C4.12614 13.7813 3.27166 12.7401 2.76708 11.5219C2.26249 10.3038 2.13047 8.96331 2.3877 7.6701C2.64494 6.37689 3.27988 5.18901 4.21223 4.25666C5.14458 3.32431 6.33246 2.68937 7.62567 2.43213C8.91888 2.1749 10.2593 2.30692 11.4775 2.81151C12.6957 3.31609 13.7369 4.17057 14.4694 5.2669C15.2019 6.36323 15.5929 7.65216 15.5929 8.9707C15.591 10.7382 14.888 12.4328 13.6382 13.6826C12.3884 14.9324 10.6938 15.6354 8.92627 15.6374ZM12.2596 8.9707C12.2596 9.14751 12.1894 9.31708 12.0643 9.44211C11.9393 9.56713 11.7698 9.63737 11.5929 9.63737H9.59294V11.6374C9.59294 11.8142 9.5227 11.9838 9.39768 12.1088C9.27265 12.2338 9.10308 12.304 8.92627 12.304C8.74946 12.304 8.57989 12.2338 8.45487 12.1088C8.32984 11.9838 8.25961 11.8142 8.25961 11.6374V9.63737H6.25961C6.0828 9.63737 5.91323 9.56713 5.7882 9.44211C5.66318 9.31708 5.59294 9.14751 5.59294 8.9707C5.59294 8.79389 5.66318 8.62432 5.7882 8.4993C5.91323 8.37427 6.0828 8.30404 6.25961 8.30404H8.25961V6.30404C8.25961 6.12722 8.32984 5.95766 8.45487 5.83263C8.57989 5.70761 8.74946 5.63737 8.92627 5.63737C9.10308 5.63737 9.27265 5.70761 9.39768 5.83263C9.5227 5.95766 9.59294 6.12722 9.59294 6.30404V8.30404H11.5929C11.7698 8.30404 11.9393 8.37427 12.0643 8.4993C12.1894 8.62432 12.2596 8.79389 12.2596 8.9707Z" fill="#0772A0"/>
</svg>