<svg width="17" height="17" viewBox="0 0 17 17" fill="none" xmlns="http://www.w3.org/2000/svg">
<g clip-path="url(#clip0)">
<path d="M8.86792 2.83398C8.13258 2.83398 7.53458 3.43195 7.53458 4.16732C7.53458 4.9027 8.13255 5.50066 8.86792 5.50066C9.6033 5.50066 10.2013 4.9027 10.2013 4.16732C10.2013 3.43195 9.60326 2.83398 8.86792 2.83398ZM8.86792 4.83398C8.50042 4.83398 8.20126 4.53482 8.20126 4.16732C8.20126 3.79983 8.50042 3.50067 8.86792 3.50067C9.23542 3.50067 9.53458 3.79983 9.53458 4.16732C9.53458 4.53482 9.23542 4.83398 8.86792 4.83398Z" fill="#373A4C"/>
<path d="M9.86792 6.16602H7.20126C7.01701 6.16602 6.86792 6.31511 6.86792 6.49936V7.8327C6.86792 8.01695 7.01701 8.16605 7.20126 8.16605H7.53461V13.166C7.53461 13.3503 7.6837 13.4994 7.86795 13.4994H9.86795C10.0522 13.4994 10.2013 13.3503 10.2013 13.166V6.49936C10.2013 6.31511 10.0522 6.16602 9.86792 6.16602ZM9.53458 12.8327H8.20123V7.83267C8.20123 7.64842 8.05214 7.49933 7.86789 7.49933H7.53454V6.83267H9.53454V12.8327H9.53458Z" fill="#373A4C"/>
<path d="M8.86792 0.166016C4.45679 0.166016 0.86792 3.75489 0.86792 8.16602C0.86792 12.5771 4.45679 16.166 8.86792 16.166C13.279 16.166 16.8679 12.5771 16.8679 8.16602C16.8679 3.75489 13.279 0.166016 8.86792 0.166016ZM8.86792 15.4994C4.8243 15.4994 1.53458 12.2096 1.53458 8.16602C1.53458 4.12239 4.8243 0.832672 8.86792 0.832672C12.9115 0.832672 16.2013 4.12239 16.2013 8.16602C16.2013 12.2096 12.9115 15.4994 8.86792 15.4994Z" fill="#373A4C"/>
</g>
<defs>
<clipPath id="clip0">
<rect x="0.86792" y="0.166016" width="16" height="16" fill="white"/>
</clipPath>
</defs>
</svg>
