<svg width="24" height="24" viewBox="0 0 24 24" fill="none" xmlns="http://www.w3.org/2000/svg">
    <path d="M21.3906 11.9004C21.3906 11.3222 21.8593 10.8535 22.4375 10.8535C23.0157 10.8535 23.4844 11.3222 23.4844 11.9004C23.4844 12.4786 23.0157 12.9473 22.4375 12.9473C21.8593 12.9473 21.3906 12.4786 21.3906 11.9004Z" fill="#373A4C"/>
    <path d="M16.1718 1.46338C16.1718 0.885206 16.6405 0.416504 17.2187 0.416504C17.7969 0.416504 18.2656 0.885206 18.2656 1.46338C18.2656 2.04155 17.7969 2.51025 17.2187 2.51025C16.6405 2.51025 16.1718 2.04155 16.1718 1.46338Z" fill="#373A4C"/>
    <path d="M10.953 11.9004C10.953 11.3222 11.4217 10.8535 11.9999 10.8535C12.5781 10.8535 13.0468 11.3222 13.0468 11.9004C13.0468 12.4786 12.5781 12.9473 11.9999 12.9473C11.4217 12.9473 10.953 12.4786 10.953 11.9004Z" fill="#373A4C"/>
    <path d="M5.73419 1.46338C5.73419 0.885206 6.20289 0.416504 6.78107 0.416504C7.35924 0.416504 7.82794 0.885206 7.82794 1.46338C7.82794 2.04155 7.35924 2.51025 6.78107 2.51025C6.20289 2.51025 5.73419 2.04155 5.73419 1.46338Z" fill="#373A4C"/>
    <path d="M0.515381 11.9004C0.515381 11.3222 0.984083 10.8535 1.56226 10.8535C2.14043 10.8535 2.60913 11.3222 2.60913 11.9004C2.60913 12.4786 2.14043 12.9473 1.56226 12.9473C0.984083 12.9473 0.515381 12.4786 0.515381 11.9004Z" fill="#373A4C"/>
    <path d="M0.515381 6.68188C0.515381 6.10371 0.984083 5.63501 1.56226 5.63501C2.14043 5.63501 2.60913 6.10371 2.60913 6.68188C2.60913 7.26006 2.14043 7.72876 1.56226 7.72876C0.984083 7.72876 0.515381 7.26006 0.515381 6.68188Z" fill="#373A4C"/>
    <path d="M0.515381 1.46338C0.515381 0.885206 0.984083 0.416504 1.56226 0.416504C2.14043 0.416504 2.60913 0.885206 2.60913 1.46338C2.60913 2.04155 2.14043 2.51025 1.56226 2.51025C0.984083 2.51025 0.515381 2.04155 0.515381 1.46338Z" fill="#373A4C"/>
    <path d="M5.73419 11.9004C5.73419 11.3222 6.20289 10.8535 6.78107 10.8535C7.35924 10.8535 7.82794 11.3222 7.82794 11.9004C7.82794 12.4786 7.35924 12.9473 6.78107 12.9473C6.20289 12.9473 5.73419 12.4786 5.73419 11.9004Z" fill="#373A4C"/>
    <path d="M10.953 1.46338C10.953 0.885206 11.4217 0.416504 11.9999 0.416504C12.5781 0.416504 13.0468 0.885206 13.0468 1.46338C13.0468 2.04155 12.5781 2.51025 11.9999 2.51025C11.4217 2.51025 10.953 2.04155 10.953 1.46338Z" fill="#373A4C"/>
    <path d="M16.1718 11.9004C16.1718 11.3222 16.6405 10.8535 17.2187 10.8535C17.7969 10.8535 18.2656 11.3222 18.2656 11.9004C18.2656 12.4786 17.7969 12.9473 17.2187 12.9473C16.6405 12.9473 16.1718 12.4786 16.1718 11.9004Z" fill="#373A4C"/>
    <path d="M21.3906 1.46338C21.3906 0.885206 21.8593 0.416504 22.4375 0.416504C23.0157 0.416504 23.4844 0.885206 23.4844 1.46338C23.4844 2.04155 23.0157 2.51025 22.4375 2.51025C21.8593 2.51025 21.3906 2.04155 21.3906 1.46338Z" fill="#373A4C"/>
    <path d="M21.3906 6.68188C21.3906 6.10371 21.8593 5.63501 22.4375 5.63501C23.0157 5.63501 23.4844 6.10371 23.4844 6.68188C23.4844 7.26006 23.0157 7.72876 22.4375 7.72876C21.8593 7.72876 21.3906 7.26006 21.3906 6.68188Z" fill="#373A4C"/>
    <path d="M10.953 6.68188C10.953 6.10371 11.4217 5.63501 11.9999 5.63501C12.5781 5.63501 13.0468 6.10371 13.0468 6.68188C13.0468 7.26006 12.5781 7.72876 11.9999 7.72876C11.4217 7.72876 10.953 7.26006 10.953 6.68188Z" fill="#373A4C"/>
    <path d="M10.953 17.1189C10.953 16.5407 11.4217 16.072 11.9999 16.072C12.5781 16.072 13.0468 16.5407 13.0468 17.1189C13.0468 17.6971 12.5781 18.1658 11.9999 18.1658C11.4217 18.1658 10.953 17.6971 10.953 17.1189Z" fill="#373A4C"/>
    <path d="M21.3906 17.1189C21.3906 16.5407 21.8593 16.072 22.4375 16.072C23.0157 16.072 23.4844 16.5407 23.4844 17.1189C23.4844 17.6971 23.0157 18.1658 22.4375 18.1658C21.8593 18.1658 21.3906 17.6971 21.3906 17.1189Z" fill="#373A4C"/>
    <path d="M0.515381 17.1189C0.515381 16.5407 0.984083 16.072 1.56226 16.072C2.14043 16.072 2.60913 16.5407 2.60913 17.1189C2.60913 17.6971 2.14043 18.1658 1.56226 18.1658C0.984083 18.1658 0.515381 17.6971 0.515381 17.1189Z" fill="#373A4C"/>
    <path d="M23.4844 22.5352C23.4844 23.1133 23.0157 23.582 22.4375 23.582L1.56226 23.582C0.984083 23.582 0.515381 23.1133 0.515381 22.5352C0.515381 21.957 0.984083 21.4883 1.56226 21.4883L22.4375 21.4883C23.0157 21.4883 23.4844 21.957 23.4844 22.5352Z" fill="#373A4C"/>
</svg>
