<svg width="24" height="24" viewBox="0 0 24 24" fill="none" xmlns="http://www.w3.org/2000/svg">
    <path d="M11.9004 2.60937C11.3222 2.60937 10.8535 2.14067 10.8535 1.5625C10.8535 0.984327 11.3222 0.515625 11.9004 0.515625C12.4786 0.515625 12.9473 0.984327 12.9473 1.5625C12.9473 2.14067 12.4786 2.60937 11.9004 2.60937Z" fill="#373A4C"/>
    <path d="M1.46338 7.82819C0.885206 7.82819 0.416504 7.35948 0.416504 6.78131C0.416504 6.20314 0.885206 5.73444 1.46338 5.73444C2.04155 5.73444 2.51025 6.20314 2.51025 6.78131C2.51025 7.35948 2.04155 7.82819 1.46338 7.82819Z" fill="#373A4C"/>
    <path d="M11.9004 13.047C11.3222 13.047 10.8535 12.5783 10.8535 12.0001C10.8535 11.4219 11.3222 10.9532 11.9004 10.9532C12.4786 10.9532 12.9473 11.4219 12.9473 12.0001C12.9473 12.5783 12.4786 13.047 11.9004 13.047Z" fill="#373A4C"/>
    <path d="M1.46338 18.2658C0.885206 18.2658 0.416504 17.7971 0.416504 17.2189C0.416504 16.6408 0.885206 16.1721 1.46338 16.1721C2.04155 16.1721 2.51025 16.6408 2.51025 17.2189C2.51025 17.7971 2.04155 18.2658 1.46338 18.2658Z" fill="#373A4C"/>
    <path d="M11.9004 23.4846C11.3222 23.4846 10.8535 23.0159 10.8535 22.4377C10.8535 21.8596 11.3222 21.3909 11.9004 21.3909C12.4786 21.3909 12.9473 21.8596 12.9473 22.4377C12.9473 23.0159 12.4786 23.4846 11.9004 23.4846Z" fill="#373A4C"/>
    <path d="M6.68188 23.4846C6.10371 23.4846 5.63501 23.0159 5.63501 22.4377C5.63501 21.8596 6.10371 21.3909 6.68188 21.3909C7.26006 21.3909 7.72876 21.8596 7.72876 22.4377C7.72876 23.0159 7.26006 23.4846 6.68188 23.4846Z" fill="#373A4C"/>
    <path d="M1.46338 23.4846C0.885206 23.4846 0.416504 23.0159 0.416504 22.4377C0.416504 21.8596 0.885206 21.3909 1.46338 21.3909C2.04155 21.3909 2.51025 21.8596 2.51025 22.4377C2.51025 23.0159 2.04155 23.4846 1.46338 23.4846Z" fill="#373A4C"/>
    <path d="M11.9004 18.2658C11.3222 18.2658 10.8535 17.7971 10.8535 17.2189C10.8535 16.6408 11.3222 16.1721 11.9004 16.1721C12.4786 16.1721 12.9473 16.6408 12.9473 17.2189C12.9473 17.7971 12.4786 18.2658 11.9004 18.2658Z" fill="#373A4C"/>
    <path d="M1.46338 13.047C0.885206 13.047 0.416504 12.5783 0.416504 12.0001C0.416504 11.4219 0.885206 10.9532 1.46338 10.9532C2.04155 10.9532 2.51025 11.4219 2.51025 12.0001C2.51025 12.5783 2.04155 13.047 1.46338 13.047Z" fill="#373A4C"/>
    <path d="M11.9004 7.82819C11.3222 7.82819 10.8535 7.35948 10.8535 6.78131C10.8535 6.20314 11.3222 5.73444 11.9004 5.73444C12.4786 5.73444 12.9473 6.20314 12.9473 6.78131C12.9473 7.35948 12.4786 7.82819 11.9004 7.82819Z" fill="#373A4C"/>
    <path d="M1.46338 2.60937C0.885206 2.60937 0.416504 2.14067 0.416504 1.5625C0.416504 0.984327 0.885206 0.515625 1.46338 0.515625C2.04155 0.515625 2.51025 0.984327 2.51025 1.5625C2.51025 2.14067 2.04155 2.60937 1.46338 2.60937Z" fill="#373A4C"/>
    <path d="M6.68188 2.60937C6.10371 2.60937 5.63501 2.14067 5.63501 1.5625C5.63501 0.984327 6.10371 0.515625 6.68188 0.515625C7.26006 0.515625 7.72876 0.984327 7.72876 1.5625C7.72876 2.14067 7.26006 2.60937 6.68188 2.60937Z" fill="#373A4C"/>
    <path d="M6.68188 13.047C6.10371 13.047 5.63501 12.5783 5.63501 12.0001C5.63501 11.4219 6.10371 10.9532 6.68188 10.9532C7.26006 10.9532 7.72876 11.4219 7.72876 12.0001C7.72876 12.5783 7.26006 13.047 6.68188 13.047Z" fill="#373A4C"/>
    <path d="M17.1189 13.047C16.5407 13.047 16.072 12.5783 16.072 12.0001C16.072 11.4219 16.5407 10.9532 17.1189 10.9532C17.6971 10.9532 18.1658 11.4219 18.1658 12.0001C18.1658 12.5783 17.6971 13.047 17.1189 13.047Z" fill="#373A4C"/>
    <path d="M17.1189 2.60937C16.5407 2.60937 16.072 2.14067 16.072 1.5625C16.072 0.984327 16.5407 0.515625 17.1189 0.515625C17.6971 0.515625 18.1658 0.984327 18.1658 1.5625C18.1658 2.14067 17.6971 2.60937 17.1189 2.60937Z" fill="#373A4C"/>
    <path d="M17.1189 23.4846C16.5407 23.4846 16.072 23.0159 16.072 22.4377C16.072 21.8596 16.5407 21.3909 17.1189 21.3909C17.6971 21.3909 18.1658 21.8596 18.1658 22.4377C18.1658 23.0159 17.6971 23.4846 17.1189 23.4846Z" fill="#373A4C"/>
    <path d="M22.5352 0.515625C23.1133 0.515625 23.582 0.984327 23.582 1.5625L23.582 22.4377C23.582 23.0159 23.1133 23.4846 22.5352 23.4846C21.957 23.4846 21.4883 23.0159 21.4883 22.4377L21.4883 1.5625C21.4883 0.984327 21.957 0.515625 22.5352 0.515625Z" fill="#373A4C"/>
</svg>
