<svg width="24" height="24" viewBox="0 0 24 24" fill="none" xmlns="http://www.w3.org/2000/svg">
    <path d="M12.0996 21.3906C12.6778 21.3906 13.1465 21.8593 13.1465 22.4375C13.1465 23.0157 12.6778 23.4844 12.0996 23.4844C11.5214 23.4844 11.0527 23.0157 11.0527 22.4375C11.0527 21.8593 11.5214 21.3906 12.0996 21.3906Z" fill="#373A4C"/>
    <path d="M22.5366 16.1718C23.1148 16.1718 23.5835 16.6405 23.5835 17.2187C23.5835 17.7969 23.1148 18.2656 22.5366 18.2656C21.9584 18.2656 21.4897 17.7969 21.4897 17.2187C21.4897 16.6405 21.9584 16.1718 22.5366 16.1718Z" fill="#373A4C"/>
    <path d="M12.0996 10.953C12.6778 10.953 13.1465 11.4217 13.1465 11.9999C13.1465 12.5781 12.6778 13.0468 12.0996 13.0468C11.5214 13.0468 11.0527 12.5781 11.0527 11.9999C11.0527 11.4217 11.5214 10.953 12.0996 10.953Z" fill="#373A4C"/>
    <path d="M22.5366 5.73419C23.1148 5.73419 23.5835 6.20289 23.5835 6.78107C23.5835 7.35924 23.1148 7.82794 22.5366 7.82794C21.9584 7.82794 21.4897 7.35924 21.4897 6.78107C21.4897 6.20289 21.9584 5.73419 22.5366 5.73419Z" fill="#373A4C"/>
    <path d="M12.0996 0.515382C12.6778 0.515382 13.1465 0.984083 13.1465 1.56226C13.1465 2.14043 12.6778 2.60913 12.0996 2.60913C11.5214 2.60913 11.0527 2.14043 11.0527 1.56226C11.0527 0.984083 11.5214 0.515382 12.0996 0.515382Z" fill="#373A4C"/>
    <path d="M17.3181 0.515382C17.8963 0.515382 18.365 0.984083 18.365 1.56226C18.365 2.14043 17.8963 2.60913 17.3181 2.60913C16.7399 2.60913 16.2712 2.14043 16.2712 1.56226C16.2712 0.984083 16.7399 0.515382 17.3181 0.515382Z" fill="#373A4C"/>
    <path d="M22.5366 0.515382C23.1148 0.515382 23.5835 0.984083 23.5835 1.56226C23.5835 2.14043 23.1148 2.60913 22.5366 2.60913C21.9584 2.60913 21.4897 2.14043 21.4897 1.56226C21.4897 0.984083 21.9584 0.515382 22.5366 0.515382Z" fill="#373A4C"/>
    <path d="M12.0996 5.73419C12.6778 5.73419 13.1465 6.20289 13.1465 6.78107C13.1465 7.35924 12.6778 7.82794 12.0996 7.82794C11.5214 7.82794 11.0527 7.35924 11.0527 6.78107C11.0527 6.20289 11.5214 5.73419 12.0996 5.73419Z" fill="#373A4C"/>
    <path d="M22.5366 10.953C23.1148 10.953 23.5835 11.4217 23.5835 11.9999C23.5835 12.5781 23.1148 13.0468 22.5366 13.0468C21.9584 13.0468 21.4897 12.5781 21.4897 11.9999C21.4897 11.4217 21.9584 10.953 22.5366 10.953Z" fill="#373A4C"/>
    <path d="M12.0996 16.1718C12.6778 16.1718 13.1465 16.6405 13.1465 17.2187C13.1465 17.7969 12.6778 18.2656 12.0996 18.2656C11.5214 18.2656 11.0527 17.7969 11.0527 17.2187C11.0527 16.6405 11.5214 16.1718 12.0996 16.1718Z" fill="#373A4C"/>
    <path d="M22.5366 21.3906C23.1148 21.3906 23.5835 21.8593 23.5835 22.4375C23.5835 23.0157 23.1148 23.4844 22.5366 23.4844C21.9584 23.4844 21.4897 23.0157 21.4897 22.4375C21.4897 21.8593 21.9584 21.3906 22.5366 21.3906Z" fill="#373A4C"/>
    <path d="M17.3181 21.3906C17.8963 21.3906 18.365 21.8593 18.365 22.4375C18.365 23.0157 17.8963 23.4844 17.3181 23.4844C16.7399 23.4844 16.2712 23.0157 16.2712 22.4375C16.2712 21.8593 16.7399 21.3906 17.3181 21.3906Z" fill="#373A4C"/>
    <path d="M17.3181 10.953C17.8963 10.953 18.365 11.4217 18.365 11.9999C18.365 12.5781 17.8963 13.0468 17.3181 13.0468C16.7399 13.0468 16.2712 12.5781 16.2712 11.9999C16.2712 11.4217 16.7399 10.953 17.3181 10.953Z" fill="#373A4C"/>
    <path d="M6.8811 10.953C7.45928 10.953 7.92798 11.4217 7.92798 11.9999C7.92798 12.5781 7.45928 13.0468 6.8811 13.0468C6.30293 13.0468 5.83423 12.5781 5.83423 11.9999C5.83423 11.4217 6.30293 10.953 6.8811 10.953Z" fill="#373A4C"/>
    <path d="M6.8811 21.3906C7.45928 21.3906 7.92798 21.8593 7.92798 22.4375C7.92798 23.0157 7.45928 23.4844 6.8811 23.4844C6.30293 23.4844 5.83423 23.0157 5.83423 22.4375C5.83423 21.8593 6.30293 21.3906 6.8811 21.3906Z" fill="#373A4C"/>
    <path d="M6.8811 0.515382C7.45928 0.515382 7.92798 0.984083 7.92798 1.56226C7.92798 2.14043 7.45928 2.60913 6.8811 2.60913C6.30293 2.60913 5.83423 2.14043 5.83423 1.56226C5.83423 0.984083 6.30293 0.515382 6.8811 0.515382Z" fill="#373A4C"/>
    <path d="M1.46484 23.4844C0.886671 23.4844 0.417969 23.0157 0.417969 22.4375L0.417969 1.56226C0.417969 0.984083 0.886671 0.515382 1.46484 0.515382C2.04302 0.515382 2.51172 0.984083 2.51172 1.56226L2.51172 22.4375C2.51172 23.0157 2.04302 23.4844 1.46484 23.4844Z" fill="#373A4C"/>
</svg>
