<svg width="24" height="24" viewBox="0 0 24 24" fill="none" xmlns="http://www.w3.org/2000/svg">
    <path d="M2.68884 12.0984C2.68884 12.6775 2.2194 13.1469 1.64032 13.1469C1.06123 13.1469 0.591797 12.6775 0.591797 12.0984C0.591797 11.5193 1.06123 11.0499 1.64032 11.0499C2.2194 11.0499 2.68884 11.5193 2.68884 12.0984Z" fill="#373A4C"/>
    <path d="M7.91584 22.5518C7.91584 23.1309 7.4464 23.6003 6.86732 23.6003C6.28824 23.6003 5.8188 23.1309 5.8188 22.5518C5.8188 21.9727 6.28824 21.5033 6.86732 21.5033C7.4464 21.5033 7.91584 21.9727 7.91584 22.5518Z" fill="#373A4C"/>
    <path d="M13.1428 12.0984C13.1428 12.6775 12.6734 13.1469 12.0943 13.1469C11.5152 13.1469 11.0458 12.6775 11.0458 12.0984C11.0458 11.5193 11.5152 11.0499 12.0943 11.0499C12.6734 11.0499 13.1428 11.5193 13.1428 12.0984Z" fill="#373A4C"/>
    <path d="M18.3699 22.5518C18.3699 23.1309 17.9004 23.6003 17.3213 23.6003C16.7423 23.6003 16.2728 23.1309 16.2728 22.5518C16.2728 21.9727 16.7423 21.5033 17.3213 21.5033C17.9004 21.5033 18.3699 21.9727 18.3699 22.5518Z" fill="#373A4C"/>
    <path d="M23.5969 12.0984C23.5969 12.6775 23.1274 13.1469 22.5483 13.1469C21.9693 13.1469 21.4998 12.6775 21.4998 12.0984C21.4998 11.5193 21.9693 11.0499 22.5483 11.0499C23.1274 11.0499 23.5969 11.5193 23.5969 12.0984Z" fill="#373A4C"/>
    <path d="M23.5969 17.3251C23.5969 17.9042 23.1274 18.3736 22.5483 18.3736C21.9693 18.3736 21.4998 17.9042 21.4998 17.3251C21.4998 16.746 21.9693 16.2766 22.5483 16.2766C23.1274 16.2766 23.5969 16.746 23.5969 17.3251Z" fill="#373A4C"/>
    <path d="M23.5969 22.5518C23.5969 23.1309 23.1274 23.6003 22.5483 23.6003C21.9693 23.6003 21.4998 23.1309 21.4998 22.5518C21.4998 21.9727 21.9693 21.5033 22.5483 21.5033C23.1274 21.5033 23.5969 21.9727 23.5969 22.5518Z" fill="#373A4C"/>
    <path d="M18.3699 12.0984C18.3699 12.6775 17.9004 13.1469 17.3213 13.1469C16.7423 13.1469 16.2728 12.6775 16.2728 12.0984C16.2728 11.5193 16.7423 11.0499 17.3213 11.0499C17.9004 11.0499 18.3699 11.5193 18.3699 12.0984Z" fill="#373A4C"/>
    <path d="M13.1428 22.5518C13.1428 23.1309 12.6734 23.6003 12.0943 23.6003C11.5152 23.6003 11.0458 23.1309 11.0458 22.5518C11.0458 21.9727 11.5152 21.5033 12.0943 21.5033C12.6734 21.5033 13.1428 21.9727 13.1428 22.5518Z" fill="#373A4C"/>
    <path d="M7.91584 12.0984C7.91584 12.6775 7.4464 13.1469 6.86732 13.1469C6.28824 13.1469 5.8188 12.6775 5.8188 12.0984C5.8188 11.5193 6.28824 11.0499 6.86732 11.0499C7.4464 11.0499 7.91584 11.5193 7.91584 12.0984Z" fill="#373A4C"/>
    <path d="M2.68884 22.5518C2.68884 23.1309 2.2194 23.6003 1.64032 23.6003C1.06123 23.6003 0.591797 23.1309 0.591797 22.5518C0.591797 21.9727 1.06123 21.5033 1.64032 21.5033C2.2194 21.5033 2.68884 21.9727 2.68884 22.5518Z" fill="#373A4C"/>
    <path d="M2.68884 17.3251C2.68884 17.9042 2.2194 18.3736 1.64032 18.3736C1.06123 18.3736 0.591797 17.9042 0.591797 17.3251C0.591797 16.746 1.06123 16.2766 1.64032 16.2766C2.2194 16.2766 2.68884 16.746 2.68884 17.3251Z" fill="#373A4C"/>
    <path d="M13.1428 17.3251C13.1428 17.9042 12.6734 18.3736 12.0943 18.3736C11.5152 18.3736 11.0458 17.9042 11.0458 17.3251C11.0458 16.746 11.5152 16.2766 12.0943 16.2766C12.6734 16.2766 13.1428 16.746 13.1428 17.3251Z" fill="#373A4C"/>
    <path d="M13.1428 6.87172C13.1428 7.4508 12.6734 7.92024 12.0943 7.92024C11.5152 7.92024 11.0458 7.4508 11.0458 6.87172C11.0458 6.29264 11.5152 5.8232 12.0943 5.8232C12.6734 5.8232 13.1428 6.29264 13.1428 6.87172Z" fill="#373A4C"/>
    <path d="M2.68884 6.87172C2.68884 7.4508 2.2194 7.92024 1.64032 7.92024C1.06123 7.92024 0.591797 7.4508 0.591797 6.87172C0.591797 6.29264 1.06123 5.8232 1.64032 5.8232C2.2194 5.8232 2.68884 6.29264 2.68884 6.87172Z" fill="#373A4C"/>
    <path d="M23.5969 6.87172C23.5969 7.4508 23.1274 7.92024 22.5483 7.92024C21.9693 7.92024 21.4998 7.4508 21.4998 6.87172C21.4998 6.29264 21.9693 5.8232 22.5483 5.8232C23.1274 5.8232 23.5969 6.29264 23.5969 6.87172Z" fill="#373A4C"/>
    <path d="M0.591797 1.44696C0.591797 0.867876 1.06123 0.398438 1.64032 0.398438H22.5483C23.1274 0.398438 23.5969 0.867876 23.5969 1.44696C23.5969 2.02604 23.1274 2.49548 22.5483 2.49548H1.64032C1.06124 2.49548 0.591797 2.02604 0.591797 1.44696Z" fill="#373A4C"/>
</svg>
