<svg width="49" height="50" viewBox="0 0 49 50" fill="none" xmlns="http://www.w3.org/2000/svg">
<g clip-path="url(#clip0)">
<path d="M38.6146 3.24612C38.6058 2.79622 38.5985 2.40471 38.5985 2.082C38.5985 1.87081 38.4309 1.69995 38.2235 1.69995C38.0164 1.69995 37.8486 1.87081 37.8486 2.082C37.8486 2.40882 37.8559 2.80539 37.8647 3.26103C37.9783 9.20126 38.28 24.9805 24.6327 28.4572C24.4316 28.5079 24.3093 28.7154 24.3599 28.9199C24.4023 29.0937 24.5551 29.2094 24.7232 29.2094C24.7533 29.2094 24.784 29.2057 24.8144 29.1975C39.0417 25.5737 38.7319 9.35301 38.6146 3.24612Z" fill="black"/>
<path d="M37.0987 4.36966C37.0958 4.15885 36.9155 3.97719 36.7193 3.99248C36.5112 3.99515 36.3458 4.1686 36.3487 4.3794C36.4 8.38606 36.5537 20.5788 28.1059 25.438C27.9258 25.5418 27.8621 25.7753 27.9639 25.9589C28.0326 26.0827 28.16 26.1529 28.2905 26.1529C28.3535 26.1529 28.4164 26.1372 28.4751 26.1037C37.3095 21.0217 37.1507 8.48822 37.0987 4.36966Z" fill="black"/>
<path d="M21.341 25.4378C12.8935 20.5787 13.0477 8.3859 13.0986 4.37923C13.1012 4.16843 12.9356 3.99489 12.7284 3.99231C12.7269 3.99231 12.7251 3.99231 12.7236 3.99231C12.5185 3.99231 12.351 4.16021 12.3485 4.36949C12.2965 8.48805 12.1376 21.0216 20.9725 26.1035C21.0306 26.1371 21.094 26.1528 21.1563 26.1528C21.287 26.1528 21.414 26.0827 21.4835 25.9587C21.5852 25.7751 21.5215 25.5416 21.341 25.4378Z" fill="black"/>
<path d="M24.8204 28.4572C11.173 24.9804 11.4749 9.20117 11.5883 3.26103C11.5968 2.8054 11.6045 2.40882 11.6045 2.082C11.6045 1.87081 11.4368 1.69995 11.2295 1.69995C11.0221 1.69995 10.8544 1.87081 10.8544 2.082C10.8544 2.40471 10.8467 2.79622 10.8383 3.24612C10.7214 9.35301 10.4113 25.5738 24.6386 29.1975C24.6691 29.2057 24.6998 29.2094 24.7299 29.2094C24.8979 29.2094 25.0505 29.0938 25.0931 28.9199C25.1437 28.7154 25.0214 28.5079 24.8204 28.4572Z" fill="black"/>
<path d="M38.2235 1.70007L11.244 1.70007C11.0367 1.70007 10.869 1.87094 10.869 2.08212C10.869 2.29331 11.0367 2.46418 11.244 2.46418L38.2235 2.46418C38.4309 2.46418 38.5985 2.29331 38.5985 2.08212C38.5985 1.87094 38.4309 1.70007 38.2235 1.70007Z" fill="black"/>
<path d="M47.2237 3.99243C47.0163 3.99243 46.8487 4.16329 46.8487 4.37448C46.8487 9.3119 42.8863 13.4835 39.7032 16.8352C37.4839 19.1716 35.7305 21.0171 35.6 22.6835C35.5831 22.894 35.7378 23.0783 35.9437 23.0951C35.9539 23.0958 35.9641 23.0962 35.9737 23.0962C36.1676 23.0962 36.3318 22.9448 36.3472 22.7447C36.457 21.3515 38.2104 19.505 40.2421 17.3666C43.5192 13.9156 47.5987 9.62095 47.5987 4.37448C47.5987 4.16329 47.4309 3.99243 47.2237 3.99243Z" fill="black"/>
<path d="M45.7238 3.99243C45.5165 3.99243 45.3487 4.16329 45.3487 4.37448C45.3487 8.69296 41.6213 12.6174 38.625 15.7722C38.1884 16.2319 37.768 16.6748 37.3725 17.1031C37.2305 17.2564 37.2372 17.4982 37.3879 17.6431C37.4604 17.7128 37.5528 17.7471 37.6451 17.7471C37.7446 17.7471 37.8442 17.7068 37.9175 17.627C38.3116 17.2017 38.7291 16.761 39.1656 16.3024C42.2551 13.0499 46.0988 9.002 46.0988 4.37448C46.0988 4.16329 45.931 3.99243 45.7238 3.99243Z" fill="black"/>
<path d="M43.4736 0.171753C41.1987 0.171753 39.3486 2.05707 39.3486 4.3745C39.3486 4.58569 39.5162 4.75655 39.7236 4.75655C39.9308 4.75655 40.0986 4.58569 40.0986 4.3745C40.0986 2.47839 41.6124 0.935855 43.4736 0.935855C43.6807 0.935855 43.8485 0.764992 43.8485 0.553804C43.8485 0.342615 43.6807 0.171753 43.4736 0.171753Z" fill="black"/>
<path d="M43.4737 0.171753C43.2663 0.171753 43.0987 0.342615 43.0987 0.553804C43.0987 0.764992 43.2663 0.935855 43.4737 0.935855C45.3346 0.935855 46.8486 2.4783 46.8486 4.3745C46.8486 4.58569 47.0162 4.75655 47.2236 4.75655C47.4308 4.75655 47.5986 4.58569 47.5986 4.3745C47.5986 2.05707 45.7485 0.171753 43.4737 0.171753Z" fill="black"/>
<path d="M43.4735 1.70007C42.0262 1.70007 40.8485 2.89993 40.8485 4.37453C40.8485 4.58571 41.0163 4.75658 41.2235 4.75658C41.4309 4.75658 41.5986 4.58571 41.5985 4.37453C41.5985 3.32126 42.4393 2.46418 43.4735 2.46418C43.6807 2.46418 43.8485 2.29331 43.8485 2.08212C43.8485 1.87094 43.6807 1.70007 43.4735 1.70007Z" fill="black"/>
<path d="M43.4737 1.70007C43.2663 1.70007 43.0987 1.87094 43.0987 2.08212C43.0987 2.29331 43.2663 2.46417 43.4737 2.46417C44.5077 2.46417 45.3486 3.32126 45.3486 4.37452C45.3486 4.58571 45.5164 4.75658 45.7237 4.75658C45.9309 4.75658 46.0987 4.58571 46.0987 4.37452C46.0987 2.90003 44.9209 1.70007 43.4737 1.70007Z" fill="black"/>
<path d="M37.9094 21.568C37.2297 21.568 36.6767 22.1311 36.6767 22.8233C36.6767 23.0345 36.8445 23.2053 37.0517 23.2053C37.2591 23.2053 37.4267 23.0345 37.4267 22.8233C37.4267 22.5524 37.6435 22.3322 37.9093 22.3322C38.2939 22.3322 38.6058 22.6508 38.6058 23.0426C38.6058 23.584 38.173 24.0247 37.6414 24.0247C36.9249 24.0247 36.342 23.4307 36.342 22.7008C36.342 22.4896 36.1742 22.3187 35.967 22.3187C35.7596 22.3187 35.5919 22.4896 35.5919 22.7008C35.5919 23.8523 36.5111 24.7888 37.6414 24.7888C38.5868 24.7888 39.356 24.0055 39.3561 23.0426C39.3561 22.2296 38.707 21.568 37.9094 21.568Z" fill="black"/>
<path d="M9.74149 16.8352C6.55767 13.4835 2.59557 9.312 2.59557 4.37448C2.59557 4.16329 2.42777 3.99243 2.2205 3.99243C2.01322 3.99243 1.84552 4.16329 1.84552 4.37448C1.84552 9.62094 5.92477 13.9156 9.20248 17.3666C11.2334 19.505 12.9876 21.3515 13.0968 22.7447C13.1125 22.9448 13.2766 23.0962 13.4702 23.0962C13.4801 23.0962 13.4904 23.0958 13.5006 23.0951C13.7068 23.0782 13.861 22.8939 13.8445 22.6835C13.7134 21.0172 11.9607 19.1716 9.74149 16.8352Z" fill="black"/>
<path d="M12.0721 17.1029C11.6755 16.6748 11.2554 16.2319 10.8177 15.7711C7.82291 12.6175 4.09557 8.69296 4.09557 4.37448C4.09557 4.16329 3.92777 3.99243 3.7205 3.99243C3.51322 3.99243 3.34552 4.16329 3.34552 4.37448C3.34552 9.002 7.18972 13.0499 10.2801 16.3039C10.7141 16.761 11.1319 17.2017 11.5263 17.6274C11.6003 17.7068 11.6996 17.7471 11.7992 17.7471C11.8915 17.7471 11.9841 17.7124 12.0567 17.6432C12.2072 17.498 12.2142 17.2561 12.0721 17.1029Z" fill="black"/>
<path d="M5.97053 0.171753C5.76325 0.171753 5.59546 0.342615 5.59546 0.553804C5.59546 0.764992 5.76325 0.935855 5.97053 0.935855C7.83162 0.935855 9.3455 2.4783 9.3455 4.3745C9.3455 4.58569 9.51329 4.75655 9.72057 4.75655C9.92785 4.75655 10.0955 4.58569 10.0955 4.3745C10.0955 2.05707 8.24505 0.171753 5.97053 0.171753Z" fill="black"/>
<path d="M5.97054 0.171753C3.69592 0.171753 1.84552 2.05707 1.84552 4.3745C1.84552 4.58569 2.01322 4.75655 2.2205 4.75655C2.42777 4.75655 2.59557 4.58569 2.59557 4.3745C2.59557 2.47839 4.10944 0.935854 5.97054 0.935854C6.17781 0.935854 6.34561 0.764992 6.34561 0.553804C6.34561 0.342615 6.17781 0.171753 5.97054 0.171753Z" fill="black"/>
<path d="M5.97053 1.70007C5.76325 1.70007 5.59546 1.87094 5.59546 2.08212C5.59546 2.29331 5.76325 2.46417 5.97053 2.46417C7.00438 2.46417 7.84559 3.32126 7.84559 4.37452C7.84559 4.58571 8.01329 4.75658 8.22057 4.75658C8.42785 4.75658 8.59555 4.58571 8.59555 4.37452C8.59555 2.90003 7.41781 1.70007 5.97053 1.70007Z" fill="black"/>
<path d="M5.97066 1.70007C4.52337 1.70007 3.34564 2.89993 3.34564 4.37452C3.34564 4.58571 3.51334 4.75657 3.72062 4.75657C3.9279 4.75657 4.09559 4.58571 4.09569 4.37452C4.09569 3.32126 4.9369 2.46417 5.97066 2.46417C6.17794 2.46417 6.34573 2.29331 6.34573 2.08212C6.34573 1.87094 6.17794 1.70007 5.97066 1.70007Z" fill="black"/>
<path d="M13.4766 22.3187C13.2693 22.3187 13.1016 22.4896 13.1016 22.7008C13.1016 23.4307 12.5185 24.0247 11.8023 24.0247C11.2708 24.0247 10.8384 23.584 10.8384 23.0426C10.8384 22.6508 11.1503 22.3322 11.5341 22.3322C11.8007 22.3322 12.0175 22.5524 12.0175 22.8233C12.0175 23.0345 12.1852 23.2053 12.3925 23.2053C12.5998 23.2053 12.7675 23.0345 12.7675 22.8233C12.7675 22.1311 12.2142 21.568 11.5341 21.568C10.7369 21.568 10.0883 22.2296 10.0883 23.0426C10.0883 24.0056 10.8569 24.7888 11.8022 24.7888C12.9322 24.7888 13.8514 23.8523 13.8516 22.7008C13.8516 22.4896 13.6839 22.3187 13.4766 22.3187Z" fill="black"/>
<path d="M29.4485 34.6346C26.6463 32.4929 26.5986 29.6191 26.5986 29.59C26.5971 29.3803 26.4301 29.2095 26.2237 29.2095C26.2237 29.2095 26.2229 29.2095 26.2222 29.2095C26.0155 29.211 25.8487 29.3811 25.8487 29.5915C25.8487 29.7244 25.8844 32.8661 28.9988 35.2466C29.0661 35.2972 29.1445 35.3227 29.2237 35.3227C29.3378 35.3227 29.4499 35.2704 29.524 35.1697C29.6485 35.001 29.6148 34.7614 29.4485 34.6346Z" fill="black"/>
<path d="M23.2247 29.2095C23.2243 29.2095 23.2239 29.2095 23.2236 29.2095C23.0174 29.2095 22.8497 29.3803 22.8486 29.59C22.8486 29.6191 22.8009 32.4929 19.9987 34.6346C19.8328 34.7615 19.7991 35.001 19.9236 35.1697C19.9973 35.2704 20.1097 35.3227 20.2239 35.3227C20.3023 35.3227 20.3809 35.2973 20.4484 35.2466C23.5626 32.8661 23.5985 29.7244 23.5985 29.5915C23.5985 29.3811 23.4312 29.211 23.2247 29.2095Z" fill="black"/>
<path d="M32.9736 35.3226H16.4735C16.2662 35.3226 16.0984 35.4936 16.0984 35.7047V44.8746C16.0984 45.0858 16.2662 45.2566 16.4735 45.2566C16.6808 45.2566 16.8485 45.0858 16.8485 44.8746V36.0868H32.5987V44.8746C32.5987 45.0858 32.7663 45.2566 32.9737 45.2566C33.1809 45.2566 33.3487 45.0858 33.3486 44.8746V35.7047C33.3486 35.4936 33.1808 35.3226 32.9736 35.3226Z" fill="black"/>
<path d="M34.4736 45.2567H14.9735C14.7663 45.2567 14.5986 45.4277 14.5986 45.6388V48.6954C14.5986 48.9065 14.7663 49.0774 14.9735 49.0774H34.4736C34.681 49.0774 34.8486 48.9065 34.8486 48.6954V45.6388C34.8486 45.4277 34.681 45.2567 34.4736 45.2567ZM34.0986 48.3133H15.3485V46.0209H34.0986V48.3133Z" fill="black"/>
<path d="M29.9736 39.1435C29.767 39.1435 29.5986 38.972 29.5986 38.7614C29.5986 38.5503 29.4309 38.3794 29.2237 38.3794H20.2236C20.0163 38.3794 19.8486 38.5503 19.8486 38.7614C19.8486 38.972 19.6805 39.1435 19.4735 39.1435C19.2663 39.1435 19.0986 39.3145 19.0986 39.5256V42.5821C19.0986 42.7934 19.2663 42.9643 19.4735 42.9643C19.6805 42.9643 19.8486 43.1359 19.8486 43.3463C19.8486 43.5575 20.0163 43.7284 20.2236 43.7284H29.2237C29.4309 43.7284 29.5986 43.5575 29.5986 43.3463C29.5986 43.1359 29.767 42.9643 29.9736 42.9643C30.1808 42.9643 30.3486 42.7934 30.3486 42.5821V39.5256C30.3486 39.3145 30.1808 39.1435 29.9736 39.1435ZM29.5987 42.2657C29.2792 42.3808 29.0259 42.6389 28.913 42.9643H20.5345C20.4213 42.6389 20.1679 42.3808 19.8486 42.2657V39.842C20.1679 39.727 20.4213 39.4688 20.5345 39.1434H28.913C29.026 39.4689 29.2793 39.7271 29.5987 39.842V42.2657Z" fill="black"/>
<path d="M27.7235 39.9076H21.7235C21.5163 39.9076 21.3486 40.0785 21.3486 40.2896C21.3486 40.5008 21.5163 40.6718 21.7235 40.6718H27.7235C27.9309 40.6718 28.0985 40.5008 28.0985 40.2896C28.0985 40.0785 27.9309 39.9076 27.7235 39.9076Z" fill="black"/>
<path d="M26.2236 41.4359H23.2235C23.0163 41.4359 22.8486 41.6068 22.8486 41.818C22.8486 42.0291 23.0163 42.2 23.2235 42.2H26.2236C26.4308 42.2 26.5986 42.0291 26.5986 41.818C26.5986 41.6068 26.4308 41.4359 26.2236 41.4359Z" fill="black"/>
<path d="M32.9736 46.7849H16.4735C16.2662 46.7849 16.0984 46.9558 16.0984 47.167C16.0984 47.3782 16.2662 47.5491 16.4735 47.5491H32.9737C33.1809 47.5491 33.3486 47.3782 33.3486 47.167C33.3486 46.9558 33.1808 46.7849 32.9736 46.7849Z" fill="black"/>
<path d="M30.5153 12.1846C30.4716 12.0461 30.3544 11.9454 30.2122 11.9245L26.6608 11.398L25.0713 8.11714C24.9455 7.85597 24.5251 7.85597 24.399 8.11714L22.8097 11.398L19.2556 11.9245C19.1143 11.9454 18.9971 12.0462 18.9528 12.1846C18.9089 12.3227 18.9455 12.4745 19.0477 12.576L21.6195 15.13L21.0127 18.7362C20.9885 18.8795 21.0464 19.0242 21.1617 19.1098C21.2273 19.1583 21.3046 19.1829 21.3822 19.1829C21.4419 19.1829 21.5019 19.1682 21.5568 19.1389L24.7352 17.4364L27.9124 19.1389C28.039 19.2071 28.1922 19.1955 28.3079 19.1098C28.4236 19.0243 28.4807 18.8795 28.4573 18.7362L27.8501 15.1297L30.4202 12.576C30.5226 12.4745 30.5593 12.3226 30.5153 12.1846ZM27.1859 14.7229C27.0975 14.8107 27.0571 14.9371 27.0777 15.061L27.5895 18.1023L24.9101 16.6666C24.8001 16.6076 24.6705 16.6076 24.5606 16.6666L21.8803 18.1023L22.3919 15.061C22.4128 14.9371 22.3725 14.8107 22.2842 14.7229L20.1155 12.5693L23.1125 12.1253C23.2348 12.1074 23.3402 12.0291 23.3948 11.9163L24.7352 9.14967L26.0755 11.9163C26.1297 12.0291 26.2353 12.1074 26.3582 12.1253L29.3531 12.5693L27.1859 14.7229Z" fill="black"/>
</g>
<defs>
<clipPath id="clip0">
<rect x="0.722107" y="0.171753" width="48" height="48.9057" fill="white"/>
</clipPath>
</defs>
</svg>
