<svg width="35" height="34" viewBox="0 0 35 34" fill="none" xmlns="http://www.w3.org/2000/svg">
<g clip-path="url(#clip0)">
<path d="M5.96094 29.9492H30C32.7463 29.9492 34.9805 27.715 34.9805 24.9688V9.03125C34.9805 6.28499 32.7463 4.05078 30 4.05078H5.96094C3.21468 4.05078 0.980469 6.28499 0.980469 9.03125V24.9688C0.980469 27.715 3.21468 29.9492 5.96094 29.9492ZM2.97266 9.03125C2.97266 7.38354 4.31323 6.04297 5.96094 6.04297H30C31.6477 6.04297 32.9883 7.38354 32.9883 9.03125V24.9688C32.9883 26.6165 31.6477 27.957 30 27.957H5.96094C4.31323 27.957 2.97266 26.6165 2.97266 24.9688V9.03125Z" fill="#373A4C"/>
<path d="M13 10.3267V23.8668L24.9863 16.9857L13 10.3267ZM14.9922 13.7123L20.9355 17.0142L14.9922 20.4261V13.7123Z" fill="#373A4C"/>
</g>
<defs>
<clipPath id="clip0">
<rect x="0.980469" width="34" height="34" fill="white"/>
</clipPath>
</defs>
</svg>
