<svg width="64" height="48" viewBox="0 0 64 48" fill="none" xmlns="http://www.w3.org/2000/svg">
<path d="M63.4062 0.667144C63.0423 0.487644 62.6079 0.530019 62.2854 0.776519L44.9448 14.0358C44.0903 14.6954 43.8622 15.8888 44.4131 16.817L41.677 17.5629L37.6842 15.8629C37.6146 15.833 37.542 15.8106 37.4676 15.7963C33.6371 15.0644 31.6511 15.7703 30.625 16.5566H19.7237C20.0975 15.6618 19.8228 14.6274 19.0543 14.0358L1.71463 0.776394C1.39237 0.529644 0.958 0.487144 0.594125 0.666894C0.230125 0.846644 -0.000124943 1.21739 5.70972e-08 1.62327V27.2233C-0.000124943 27.6061 0.205 27.9596 0.5375 28.1493L7.13963 31.9211C7.4605 32.1051 7.824 32.2018 8.19375 32.2014C8.73638 32.1999 9.25812 31.9924 9.6535 31.6209L10.8909 32.6095C10.171 33.5288 10.0138 34.7691 10.4814 35.839C10.9491 36.9089 11.9664 37.6358 13.1301 37.7315C13.2207 37.7399 13.3104 37.743 13.3999 37.743C13.5639 37.7415 13.7276 37.7274 13.8895 37.7006C13.9561 38.462 14.2566 39.1841 14.7499 39.768L14.751 39.7691C15.3894 40.5266 16.3041 40.9974 17.2916 41.0764C17.3969 41.0858 17.502 41.0899 17.6073 41.0899C17.6234 41.0899 17.6389 41.086 17.6549 41.0858C17.6846 41.7791 17.9429 42.4431 18.3895 42.9743C18.997 43.6904 19.889 44.1028 20.828 44.1014C21.2012 44.1008 21.5714 44.0336 21.921 43.9033C22.277 45.1754 23.3891 46.0903 24.7061 46.1941C24.7968 46.2025 24.8864 46.2056 24.9759 46.2056C25.7098 46.21 26.4215 45.9539 26.9842 45.4828L28.657 44.1904L32.5957 46.8224C33.2054 47.2274 33.9211 47.4434 34.653 47.4431C34.9041 47.4433 35.1546 47.4185 35.4009 47.3691C37.0055 47.0496 38.2121 45.7179 38.3726 44.0898C39.4402 44.4155 40.5981 44.2389 41.52 43.6095C42.4419 42.9801 43.0281 41.9661 43.1136 40.8531C44.3491 41.2614 45.7081 40.9931 46.6958 40.1459C47.6834 39.2986 48.1553 37.9963 47.9398 36.7131C49.0086 36.5909 49.9701 36.0064 50.5708 35.1139C51.1661 34.2165 51.346 33.1059 51.064 32.0665L53.1674 29.9639L54.026 31.2514C54.6486 32.1839 55.8862 32.4763 56.8604 31.9211L63.4625 28.1493C63.795 27.9595 64.0001 27.606 64 27.2233V1.62327C64 1.21764 63.7699 0.847019 63.4062 0.667144ZM2.13337 26.6045V3.78164L14.0422 12.8879L4.27425 27.8276L2.13337 26.6045ZM8.19788 30.0691L6.1295 28.8875L15.7411 14.1871L17.7584 15.7295L8.19788 30.0691ZM14.0666 35.3629C13.8576 35.5454 13.5824 35.6333 13.3062 35.6056C12.8942 35.5709 12.5415 35.2965 12.4062 34.9058C12.271 34.515 12.3789 34.0814 12.6812 33.7994L15.349 31.7369C15.5366 31.577 15.7754 31.4894 16.0219 31.49C16.051 31.49 16.0801 31.491 16.1094 31.4931C16.5215 31.528 16.8745 31.8026 17.0096 32.1935C17.1449 32.5845 17.0369 33.0184 16.7344 33.3004L14.0666 35.3629ZM17.4678 38.9504C16.8311 38.8978 16.2866 38.4716 16.0826 37.8663C15.8786 37.2609 16.0541 36.5921 16.5292 36.165L19.8886 33.5671C20.3825 33.1486 21.0798 33.069 21.6554 33.3651C22.2309 33.6614 22.5714 34.2751 22.5179 34.9203C22.4875 35.3151 22.3095 35.6841 22.0194 35.9539L21.1052 36.6671L18.6335 38.5775C18.3106 38.8531 17.8906 38.9875 17.4678 38.9504ZM22.9156 40.6035L22.9132 40.606L21.4896 41.717C21.2785 41.8963 21.0049 41.9841 20.7289 41.9613C20.4529 41.9384 20.1974 41.8066 20.0187 41.5951C19.8386 41.3846 19.7509 41.1106 19.775 40.8348C19.7932 40.5726 19.9124 40.3276 20.1073 40.1514L22.6007 38.2053L23.3364 37.6368C23.3445 37.6299 23.35 37.6211 23.3581 37.6141L24.1114 37.0264C24.2986 36.8663 24.5369 36.7783 24.7833 36.7785C24.8129 36.7784 24.8424 36.7798 24.8717 36.7826C25.2846 36.8175 25.6379 37.0928 25.7725 37.4846C25.9071 37.8764 25.7978 38.3108 25.4936 38.592L22.9985 40.5394L22.9156 40.6035ZM28.3104 41.7629L25.6426 43.8254C25.4344 44.0093 25.1585 44.0973 24.8822 44.0681C24.4705 44.0334 24.1179 43.7593 23.9826 43.3689C23.8472 42.9785 23.9546 42.545 24.2565 42.2629L24.3053 42.2249L26.925 40.1995C27.3585 39.8335 28.0048 39.8804 28.381 40.3049C28.7571 40.7294 28.7259 41.3766 28.3104 41.7629ZM48.7948 33.9326C48.3066 34.6553 47.332 34.8584 46.5957 34.391L46.5874 34.3858L39.5821 29.5441C39.2688 29.3263 38.863 29.2925 38.5179 29.4556C38.1729 29.6186 37.9412 29.9538 37.9106 30.3341C37.88 30.7145 38.055 31.0823 38.3695 31.2984L45.1484 35.9846L45.1517 35.988C45.6892 36.3448 45.9585 36.9905 45.8334 37.6234C45.7082 38.2563 45.2137 38.7511 44.5809 38.8765C44.1709 38.9618 43.7439 38.88 43.3944 38.6494L36.384 33.8119C35.899 33.4783 35.2355 33.6004 34.9011 34.0848C34.5668 34.5691 34.6876 35.2329 35.1715 35.5681L40.2916 39.1006L40.2934 39.1025C41.0327 39.6218 41.2352 40.6296 40.7537 41.3941C40.273 42.1229 39.2956 42.3295 38.561 41.8576L36.6744 40.5188L36.6735 40.5181H36.6732L34.7506 39.1535C34.4399 38.9328 34.035 38.8946 33.6885 39.0535C33.342 39.2123 33.1065 39.5439 33.0708 39.9233C33.035 40.3026 33.2044 40.6724 33.5151 40.8931L35.4929 42.2963C35.5882 42.3734 35.6787 42.4561 35.7641 42.5441C36.3675 43.1163 36.4336 44.0545 35.9165 44.7055C35.3994 45.3565 34.4704 45.5044 33.7766 45.0461L30.2633 42.6981C30.8596 41.7773 30.9352 40.6129 30.4631 39.6226C29.991 38.6324 29.0389 37.958 27.948 37.8415C27.9726 36.181 26.7031 34.7869 25.0475 34.6566C24.9106 34.6485 24.7732 34.6496 24.6365 34.66C24.6024 33.347 23.8756 32.1503 22.7265 31.5144C21.5774 30.8785 20.1774 30.8984 19.0467 31.5668C18.7275 30.5635 17.9312 29.7839 16.9214 29.486C15.9116 29.188 14.8197 29.4104 14.0069 30.0796L12.5501 31.2054L10.8889 29.878L18.3481 18.69H27.7109C26.9011 19.4008 26.5233 20.484 26.7153 21.5441C26.9384 22.8309 27.9587 23.8311 29.2496 24.0285C31.2227 24.3078 33.2345 24.0179 35.0486 23.1931L37.7684 24.9234C37.8293 24.9584 37.8936 24.9873 37.9603 25.0096L48.359 31.7068C48.5644 31.848 48.737 32.0316 48.8652 32.2453C48.8705 32.2578 48.8768 32.2693 48.883 32.2818C49.159 32.8065 49.125 33.4403 48.7948 33.9326ZM49.8864 30.2278C49.7731 30.1181 49.6531 30.0158 49.5271 29.9213L38.9781 23.1265C38.9296 23.103 38.8792 23.0835 38.8276 23.068L35.6896 21.0723C35.3553 20.8596 34.9305 20.8495 34.5865 21.0463C33.0526 21.8424 31.3115 22.1489 29.598 21.9244C29.1982 21.8771 28.8786 21.5699 28.8158 21.1723C28.737 20.7559 28.94 20.337 29.3158 20.141C30.1146 19.7249 30.8653 19.2223 31.5543 18.6421C31.6281 18.5799 31.6887 18.5034 31.7324 18.4171C31.7661 18.375 31.8038 18.3364 31.8449 18.3015C32.1574 18.0338 33.446 17.2224 36.9552 17.8713L41.1824 19.6713C41.4026 19.767 41.6491 19.7839 41.8802 19.7191L45.6501 18.6911L51.9606 28.1541L49.8864 30.2278ZM55.8021 30.0691L46.2406 15.7306L48.259 14.1871L57.8705 28.8875L55.8021 30.0691ZM61.8666 26.6045L59.7257 27.8275L49.9579 12.888L61.8666 3.78152V26.6045Z" fill="#373A4C"/>
</svg>
