<svg width="65" height="65" viewBox="0 0 65 65" fill="none" xmlns="http://www.w3.org/2000/svg">
<g clip-path="url(#clip0)">
<path d="M64.0532 34.9655C64.0475 33.155 62.898 31.5459 61.187 30.9538C62.0702 29.6463 62.1597 27.958 61.4197 26.5645C60.6797 25.1709 59.231 24.2995 57.6532 24.2988H49.1198C47.0395 24.294 45.2605 25.7937 44.9135 27.8449C44.5665 29.8961 45.7531 31.8975 47.7193 32.5772C46.7422 34.0195 46.7422 35.9115 47.7193 37.3538C46.0052 37.9416 44.8539 39.5535 44.8539 41.3655C44.8539 43.1776 46.0052 44.7894 47.7193 45.3772C46.7422 46.8195 46.7422 48.7115 47.7193 50.1538C46.0052 50.7416 44.8539 52.3535 44.8539 54.1655C44.8539 55.9776 46.0052 57.5894 47.7193 58.1772C46.8361 59.4848 46.7466 61.173 47.4866 62.5665C48.2266 63.9601 49.6753 64.8315 51.2532 64.8322H59.7865C61.8668 64.837 63.6458 63.3373 63.9928 61.2861C64.3398 59.2349 63.1532 57.2335 61.187 56.5538C62.1641 55.1115 62.1641 53.2195 61.187 51.7772C62.9011 51.1894 64.0524 49.5776 64.0524 47.7655C64.0524 45.9535 62.9011 44.3416 61.187 43.7538C62.1641 42.3115 62.1641 40.4195 61.187 38.9772C62.898 38.3851 64.0475 36.776 64.0532 34.9655ZM46.9865 28.5655C46.9865 27.3873 47.9416 26.4322 49.1198 26.4322H57.6532C58.8314 26.4322 59.7865 27.3873 59.7865 28.5655C59.7865 29.7437 58.8314 30.6988 57.6532 30.6988H49.1198C47.9416 30.6988 46.9865 29.7437 46.9865 28.5655ZM46.9865 41.3655C46.9865 40.1873 47.9416 39.2322 49.1198 39.2322H57.6532C58.8314 39.2322 59.7865 40.1873 59.7865 41.3655C59.7865 42.5437 58.8314 43.4988 57.6532 43.4988H49.1198C47.9416 43.4988 46.9865 42.5437 46.9865 41.3655ZM46.9865 54.1655C46.9865 52.9873 47.9416 52.0322 49.1198 52.0322H57.6532C58.8314 52.0322 59.7865 52.9873 59.7865 54.1655C59.7865 55.3437 58.8314 56.2988 57.6532 56.2988H49.1198C47.9416 56.2988 46.9865 55.3437 46.9865 54.1655ZM61.9198 60.5655C61.9198 61.7437 60.9647 62.6988 59.7865 62.6988H51.2532C50.0749 62.6988 49.1198 61.7437 49.1198 60.5655C49.1198 59.3873 50.0749 58.4322 51.2532 58.4322H59.7865C60.9647 58.4322 61.9198 59.3873 61.9198 60.5655ZM61.9198 47.7655C61.9198 48.9437 60.9647 49.8988 59.7865 49.8988H51.2532C50.0749 49.8988 49.1198 48.9437 49.1198 47.7655C49.1198 46.5873 50.0749 45.6322 51.2532 45.6322H59.7865C60.9647 45.6322 61.9198 46.5873 61.9198 47.7655ZM59.7865 37.0988H51.2532C50.0749 37.0988 49.1198 36.1437 49.1198 34.9655C49.1198 33.7873 50.0749 32.8322 51.2532 32.8322H59.7865C60.9647 32.8322 61.9198 33.7873 61.9198 34.9655C61.9198 36.1437 60.9647 37.0988 59.7865 37.0988Z" fill="#373A4C"/>
<path d="M41.6532 47.7643C41.6476 45.9538 40.498 44.3448 38.787 43.7526C39.6703 42.4451 39.7598 40.7569 39.0198 39.3633C38.2797 37.9697 36.831 37.0983 35.2532 37.0977H26.7198C24.6395 37.0928 22.8605 38.5925 22.5135 40.6437C22.1665 42.6949 23.3532 44.6963 25.3193 45.3761C24.3422 46.8183 24.3422 48.7103 25.3193 50.1526C23.6052 50.7404 22.454 52.3523 22.454 54.1643C22.454 55.9764 23.6052 57.5883 25.3193 58.1761C24.4361 59.4836 24.3466 61.1718 25.0866 62.5654C25.8266 63.9589 27.2753 64.8303 28.8532 64.831H37.3865C39.4668 64.8359 41.2458 63.3361 41.5928 61.2849C41.9398 59.2338 40.7532 57.2323 38.787 56.5526C39.7641 55.1103 39.7641 53.2183 38.787 51.7761C40.498 51.1839 41.6476 49.5748 41.6532 47.7643ZM24.5865 41.3643C24.5865 40.1861 25.5416 39.231 26.7198 39.231H35.2532C36.4314 39.231 37.3865 40.1861 37.3865 41.3643C37.3865 42.5425 36.4314 43.4977 35.2532 43.4977H26.7198C25.5416 43.4977 24.5865 42.5425 24.5865 41.3643ZM24.5865 54.1643C24.5865 52.9861 25.5416 52.031 26.7198 52.031H35.2532C36.4314 52.031 37.3865 52.9861 37.3865 54.1643C37.3865 55.3425 36.4314 56.2977 35.2532 56.2977H26.7198C25.5416 56.2977 24.5865 55.3425 24.5865 54.1643ZM39.5198 60.5643C39.5198 61.7425 38.5647 62.6977 37.3865 62.6977H28.8532C27.675 62.6977 26.7198 61.7425 26.7198 60.5643C26.7198 59.3861 27.675 58.431 28.8532 58.431H37.3865C38.5647 58.431 39.5198 59.3861 39.5198 60.5643ZM37.3865 49.8977H28.8532C27.675 49.8977 26.7198 48.9425 26.7198 47.7643C26.7198 46.5861 27.675 45.631 28.8532 45.631H37.3865C38.5647 45.631 39.5198 46.5861 39.5198 47.7643C39.5198 48.9425 38.5647 49.8977 37.3865 49.8977Z" fill="#373A4C"/>
<path d="M2.9193 58.1769C2.03608 59.4844 1.94658 61.1726 2.68659 62.5662C3.4266 63.9597 4.87529 64.8311 6.45316 64.8318H14.9865C17.0668 64.8366 18.8458 63.3369 19.1928 61.2857C19.5398 59.2346 18.3532 57.2331 16.387 56.5534C17.2702 55.2459 17.3597 53.5577 16.6197 52.1641C15.8797 50.7705 14.431 49.8991 12.8532 49.8984H4.31983C2.23951 49.8936 0.460532 51.3933 0.113515 53.4445C-0.233502 55.4957 0.953146 57.4971 2.9193 58.1769ZM17.1198 60.5651C17.1198 61.7433 16.1647 62.6985 14.9865 62.6985H6.45316C5.27495 62.6985 4.31983 61.7433 4.31983 60.5651C4.31983 59.3869 5.27495 58.4318 6.45316 58.4318H14.9865C16.1647 58.4318 17.1198 59.3869 17.1198 60.5651ZM4.31983 52.0318H12.8532C14.0314 52.0318 14.9865 52.9869 14.9865 54.1651C14.9865 55.3433 14.0314 56.2985 12.8532 56.2985H4.31983C3.14162 56.2985 2.1865 55.3433 2.1865 54.1651C2.1865 52.9869 3.14162 52.0318 4.31983 52.0318Z" fill="#373A4C"/>
<path d="M13.8228 21.8817C14.008 21.322 13.7046 20.7182 13.1449 20.5329C12.5853 20.3476 11.9814 20.6511 11.7961 21.2108C10.0714 26.6895 9.04039 32.3629 8.7273 38.0982C8.70889 38.3807 8.80354 38.659 8.99041 38.8717C9.17728 39.0843 9.44104 39.214 9.72357 39.2321H9.7929C10.3567 39.2332 10.8241 38.7953 10.8596 38.2326C11.1614 32.68 12.1569 27.1871 13.8228 21.8817Z" fill="#373A4C"/>
<path d="M9.6425 41.3652H9.63183C9.04687 41.3652 8.57101 41.8363 8.56516 42.4212C8.5545 43.4804 8.5545 44.5727 8.5865 45.6628C8.60324 46.2398 9.07593 46.6988 9.65316 46.6986H9.6841C9.96703 46.6905 10.2352 46.5703 10.4294 46.3644C10.6237 46.1585 10.7282 45.8839 10.7198 45.601C10.6878 44.5343 10.6878 43.4751 10.6985 42.4426C10.7013 42.1597 10.5917 41.8872 10.3936 41.6852C10.1956 41.4831 9.9254 41.368 9.6425 41.3652Z" fill="#373A4C"/>
<path d="M15.1998 17.202C17.0014 13.5775 19.075 11.4986 20.8852 11.4986C24.4222 11.4986 28.9449 19.4292 30.434 32.7167C30.4058 33.0197 30.5073 33.3205 30.7134 33.5444C30.9208 33.7702 31.2133 33.8987 31.5198 33.8986C31.8228 33.8985 32.1114 33.7697 32.3137 33.5442C32.5159 33.3187 32.6128 33.0179 32.5801 32.7167C34.0734 19.4303 38.5972 11.4986 42.1342 11.4986C42.7233 11.4986 43.2009 11.021 43.2009 10.4319C43.2009 9.8428 42.7233 9.36523 42.1342 9.36523C37.6862 9.36523 33.6318 15.9082 31.5081 25.9252C29.3865 15.9082 25.3332 9.36523 20.8852 9.36523C18.1588 9.36523 15.5316 11.745 13.2852 16.2495C13.115 16.5906 13.1397 16.9965 13.35 17.3144C13.5603 17.6323 13.9243 17.8138 14.3047 17.7907C14.6852 17.7675 15.0243 17.5431 15.1945 17.202H15.1998Z" fill="#373A4C"/>
<path d="M63.4196 9.45698L44.2196 0.923651C43.8082 0.741227 43.3266 0.836573 43.0158 1.16197C42.705 1.48737 42.6318 1.97282 42.8329 2.37538L46.8606 10.4319L42.8265 18.4885C42.6254 18.891 42.6986 19.3765 43.0094 19.7019C43.3202 20.0273 43.8018 20.1226 44.2132 19.9402L63.4132 11.4069C63.7986 11.2358 64.0471 10.8536 64.0471 10.4319C64.0471 10.0102 63.7986 9.62808 63.4132 9.45698H63.4196ZM46.0702 16.7829L49.0132 10.9087C49.1632 10.6085 49.1632 10.2553 49.0132 9.95512L46.0702 4.08098L60.3604 10.4319L46.0702 16.7829Z" fill="#373A4C"/>
</g>
<defs>
<clipPath id="clip0">
<rect x="0.0531616" y="0.832031" width="64" height="64" fill="white"/>
</clipPath>
</defs>
</svg>
