<svg width="50" height="50" viewBox="0 0 50 50" fill="none" xmlns="http://www.w3.org/2000/svg">
<g clip-path="url(#clip0)">
<path d="M29.3023 10.3248C27.671 8.96535 25.3588 8.09637 22.43 7.74208C20.0743 7.45698 17.8219 7.5657 16.3471 7.70705C15.1891 7.81797 14.3159 8.7817 14.3159 9.94879V11.6434C14.3159 12.0399 14.6372 12.3612 15.0337 12.3612C15.4302 12.3612 15.7515 12.0399 15.7515 11.6434V9.94879C15.7515 9.5255 16.0663 9.17609 16.484 9.13608C18.9512 8.89951 25.0496 8.64934 28.3833 11.4276C28.6879 11.6815 29.1404 11.6403 29.3942 11.3357C29.6479 11.0311 29.6068 10.5785 29.3023 10.3248Z" fill="white"/>
<path d="M11.516 37.5248L11.0728 36.6382C10.8956 36.2836 10.4644 36.1398 10.1098 36.3172C9.75526 36.4945 9.61152 36.9255 9.78885 37.2802L10.2321 38.1668C10.3944 38.4914 10.4802 38.8549 10.4802 39.218V43.0965C10.4802 43.493 10.8015 43.8143 11.198 43.8143C11.5945 43.8143 11.9158 43.493 11.9158 43.0965V39.218C11.9158 38.6331 11.7776 38.0476 11.516 37.5248Z" fill="white"/>
<path d="M36.5145 30.8711C31.4655 30.8711 27.3579 34.9788 27.3579 40.0277C27.3579 45.0767 31.4655 49.1843 36.5145 49.1843C41.5635 49.1843 45.6711 45.0767 45.6711 40.0277C45.6711 34.9787 41.5635 30.8711 36.5145 30.8711ZM36.5145 47.7487C32.2571 47.7487 28.7935 44.285 28.7935 40.0276C28.7935 35.7701 32.257 32.3065 36.5145 32.3065C40.7719 32.3065 44.2356 35.7701 44.2356 40.0276C44.2356 44.285 40.772 47.7487 36.5145 47.7487Z" fill="white"/>
<path d="M29.6104 0.18457H19.637C18.2154 0.18457 16.8524 0.759266 15.8543 1.77056C13.2491 2.12322 11.2478 4.38421 11.2478 7.03968V9.17548C11.2478 10.3621 11.3937 11.5477 11.6815 12.6989L12.0148 14.0325V16.7075C12.0148 19.9604 13.5209 22.8844 15.8507 24.7648V27.3213C15.4345 27.3705 15.0431 27.5966 14.7909 27.9749L13.8005 29.4606L8.61289 31.347C6.51785 32.1087 5.11035 34.1182 5.11035 36.3474V43.0964C5.11035 43.4929 5.43163 43.8142 5.82812 43.8142C6.22462 43.8142 6.5459 43.4929 6.5459 43.0964V36.3474C6.5459 34.7196 7.57365 33.2523 9.10346 32.6962L13.9999 30.9156L16.9923 35.105C17.2464 35.4611 17.6422 35.6858 18.0781 35.7219C18.1193 35.7253 18.1604 35.727 18.2015 35.727C18.5937 35.727 18.9706 35.5721 19.2507 35.292L19.6994 34.8434C19.7413 35.1776 19.8936 35.4779 20.12 35.7052L19.6877 43.0544C19.6645 43.4501 19.9664 43.7899 20.3621 43.8132C20.3765 43.814 20.3908 43.8144 20.4049 43.8144C20.782 43.8144 21.0984 43.5201 21.1208 43.1387L21.5323 36.1427H22.3448L22.7563 43.1387C22.7787 43.5201 23.0951 43.8144 23.4722 43.8144C23.4864 43.8144 23.5006 43.814 23.515 43.8132C23.9107 43.7899 24.2127 43.4501 24.1894 43.0544L23.7571 35.7052C23.9835 35.4779 24.1358 35.1776 24.1778 34.8434L24.6265 35.292C24.9065 35.5722 25.2833 35.7271 25.6758 35.7271C25.7166 35.7271 25.7578 35.7254 25.7989 35.7219C26.2349 35.686 26.6306 35.4611 26.8848 35.1052L30.1943 30.4721C30.3677 30.2295 30.3729 29.9048 30.2075 29.6567L29.0864 27.9751C28.8342 27.5966 28.4428 27.3705 28.0265 27.3213V24.851C28.3264 24.6171 28.6153 24.365 28.8909 24.0943C30.8071 22.2129 31.8624 19.6979 31.8624 17.0129V14.0325L32.1957 12.699C32.4835 11.5481 32.6294 10.3626 32.6294 9.17548V3.2039C32.6296 1.53896 31.2752 0.18457 29.6104 0.18457ZM18.2356 34.2768C18.2312 34.2812 18.219 34.2923 18.1967 34.2912C18.1739 34.2893 18.1642 34.2758 18.1605 34.2706L15.1391 30.0405L15.9854 28.771C16.0002 28.7488 16.0297 28.7421 16.0527 28.7566L20.7932 31.7195L18.2356 34.2768ZM22.7058 34.7071H21.1715C21.1443 34.7071 21.1221 34.685 21.1221 34.6577V33.4208L21.9387 32.6042L22.7552 33.4208V34.6577H22.7553C22.7553 34.6849 22.7332 34.7071 22.7058 34.7071ZM21.9388 30.7426L17.2863 27.8348V25.7319C18.625 26.4725 20.144 26.9055 21.7532 26.935C21.8159 26.9361 21.8783 26.9367 21.9408 26.9367C23.5888 26.9366 25.175 26.5378 26.5912 25.7841V27.8331C26.5912 27.8336 26.5913 27.8343 26.5913 27.8349L21.9388 30.7426ZM28.7384 30.0406L25.7168 34.2708C25.7132 34.2759 25.7035 34.2894 25.6808 34.2913C25.6568 34.2925 25.6463 34.2813 25.6419 34.2769L23.0843 31.7196L27.8248 28.7567C27.8472 28.7427 27.8774 28.7492 27.8921 28.7711L28.7384 30.0406ZM31.1941 9.17548C31.1941 10.2452 31.0626 11.3136 30.8031 12.3509L30.4484 13.7702C30.4342 13.8271 30.4269 13.8855 30.4269 13.9442V17.0128C30.4269 19.3095 29.5243 21.4606 27.8852 23.0699C26.2466 24.6789 24.0751 25.5442 21.7793 25.4995C17.1867 25.4155 13.4504 21.4714 13.4504 16.7075V13.9442C13.4504 13.8855 13.4432 13.827 13.4289 13.7702L13.0742 12.3508C12.8147 11.3133 12.6832 10.245 12.6832 9.17548V7.03968C12.6832 5.03125 14.2515 3.33186 16.2534 3.17089C16.4382 3.15605 16.61 3.0703 16.733 2.93172C17.4723 2.09815 18.5308 1.62011 19.637 1.62011H29.6104C30.4836 1.62011 31.1941 2.33061 31.1941 3.2039V9.17548Z" fill="white"/>
<path d="M36.8682 34.8571C36.6729 34.6618 36.3564 34.6618 36.1611 34.8571L32.9791 38.0391C32.7839 38.2344 32.7839 38.5509 32.9791 38.7462C33.1744 38.9415 33.491 38.9415 33.6862 38.7462L36.5146 35.9178L39.3431 38.7462C39.5383 38.9415 39.8549 38.9415 40.0502 38.7462C40.2454 38.5509 40.2454 38.2344 40.0502 38.0391L36.8682 34.8571ZM37.0146 44.8447L37.0146 35.2107L36.0146 35.2107L36.0146 44.8447L37.0146 44.8447Z" fill="white"/>
</g>
<defs>
<clipPath id="clip0">
<rect x="0.890625" y="0.18457" width="49" height="49" fill="white"/>
</clipPath>
</defs>
</svg>
