<svg width="15" height="16" viewBox="0 0 15 16" fill="none" xmlns="http://www.w3.org/2000/svg">
    <path d="M11.2098 7.65672C12.4473 7.04922 13.3248 5.85672 13.3248 4.14672C13.3248 1.60422 11.2998 0.0742188 7.67731 0.0742188H0.612305V15.8242H8.12731C12.1098 15.8242 14.1573 14.2717 14.1573 11.5717C14.1573 9.47922 12.9873 8.15172 11.2098 7.65672ZM7.4748 1.89672C9.7698 1.89672 11.0748 2.75172 11.0748 4.41672C11.0748 6.08172 9.7698 6.93672 7.4748 6.93672H2.8623V1.89672H7.4748ZM8.03731 14.0017H2.8623V8.75922H8.03731C10.5348 8.75922 11.8848 9.56922 11.8848 11.3917C11.8848 13.2142 10.5348 14.0017 8.03731 14.0017Z" fill="#373A4C"/>
</svg>
