<svg width="64" height="58" viewBox="0 0 64 58" fill="none" xmlns="http://www.w3.org/2000/svg">
<path d="M29.9928 31.2808C29.3025 31.2808 28.7428 31.8405 28.7428 32.5308V32.5414C28.7428 33.2316 29.3025 33.786 29.9928 33.786C30.683 33.786 31.2428 33.221 31.2428 32.5308C31.2428 31.8405 30.6831 31.2808 29.9928 31.2808Z" fill="#373A4C"/>
<path d="M23.6184 31.2808C22.9281 31.2808 22.3684 31.8405 22.3684 32.5308V32.5414C22.3684 33.2316 22.9281 33.786 23.6184 33.786C24.3086 33.786 24.8684 33.221 24.8684 32.5308C24.8684 31.8405 24.3088 31.2808 23.6184 31.2808Z" fill="#373A4C"/>
<path d="M17.2406 31.2808C16.5504 31.2808 15.9906 31.8405 15.9906 32.5308V32.5414C15.9906 33.2316 16.5504 33.786 17.2406 33.786C17.9309 33.786 18.4906 33.221 18.4906 32.5308C18.4906 31.8405 17.9309 31.2808 17.2406 31.2808Z" fill="#373A4C"/>
<path d="M12.1951 5.45349C9.86663 5.45349 7.97238 7.34749 7.97238 9.67561C7.97238 12.0057 9.86663 13.9014 12.1951 13.9014C14.5216 13.9014 16.4144 12.0057 16.4144 9.67561C16.4143 7.34749 14.5216 5.45349 12.1951 5.45349ZM12.1951 11.4014C11.2451 11.4014 10.4724 10.6272 10.4724 9.67561C10.4724 8.72599 11.2453 7.95349 12.1951 7.95349C13.1431 7.95349 13.9144 8.72611 13.9144 9.67561C13.9143 10.6272 13.1431 11.4014 12.1951 11.4014Z" fill="#373A4C"/>
<path d="M24.0755 5.45349C21.749 5.45349 19.8562 7.34749 19.8562 9.67561C19.8562 12.0057 21.749 13.9014 24.0755 13.9014C26.402 13.9014 28.2947 12.0057 28.2947 9.67561C28.2947 7.34749 26.4021 5.45349 24.0755 5.45349ZM24.0755 11.4014C23.1275 11.4014 22.3562 10.6272 22.3562 9.67561C22.3562 8.72599 23.1275 7.95349 24.0755 7.95349C25.0235 7.95349 25.7947 8.72611 25.7947 9.67561C25.7947 10.6272 25.0235 11.4014 24.0755 11.4014Z" fill="#373A4C"/>
<path d="M51.8049 5.45349H38.2804C35.9539 5.45349 34.0611 7.34749 34.0611 9.67561C34.0611 12.0057 35.9539 13.9014 38.2804 13.9014H51.8049C54.1314 13.9014 56.0241 12.0057 56.0241 9.67561C56.0241 7.34749 54.1315 5.45349 51.8049 5.45349ZM51.8049 11.4014H38.2804C37.3324 11.4014 36.5611 10.6272 36.5611 9.67561C36.5611 8.72599 37.3324 7.95349 38.2804 7.95349H51.8049C52.7529 7.95349 53.5241 8.72611 53.5241 9.67561C53.5241 10.6272 52.7529 11.4014 51.8049 11.4014Z" fill="#373A4C"/>
<path d="M58.4485 0.0625H5.5515C2.49037 0.0625 0 2.55475 0 5.61825V35.212C0 35.9023 0.55975 36.462 1.25 36.462C1.94025 36.462 2.5 35.9023 2.5 35.212V19.2924H61.5V52.3817C61.5 54.0666 60.1311 55.4375 58.4485 55.4375H5.5515C3.86887 55.4375 2.5 54.0666 2.5 52.3817V46.4481C2.5 45.7579 1.94025 45.1981 1.25 45.1981C0.55975 45.1981 0 45.7579 0 46.4481V52.3817C0 55.4452 2.49037 57.9375 5.5515 57.9375H58.4485C61.5096 57.9375 64 55.4452 64 52.3817V5.61825C64 2.55475 61.5096 0.0625 58.4485 0.0625ZM61.5 16.7924H2.5V5.61825C2.5 3.93337 3.86887 2.5625 5.5515 2.5625H58.4485C60.1311 2.5625 61.5 3.93337 61.5 5.61825V16.7924Z" fill="#373A4C"/>
<path d="M41.193 39.7553C41.8832 39.7553 42.443 39.1901 42.443 38.4999C42.443 37.8096 41.8832 37.2499 41.193 37.2499C40.5027 37.2499 39.943 37.8096 39.943 38.4999V38.5105C39.943 39.2008 40.5026 39.7553 41.193 39.7553Z" fill="#373A4C"/>
<path d="M47.5672 39.7553C48.2575 39.7553 48.8172 39.1901 48.8172 38.4999C48.8172 37.8096 48.2575 37.2499 47.5672 37.2499C46.877 37.2499 46.3172 37.8096 46.3172 38.4999V38.5105C46.3172 39.2008 46.877 39.7553 47.5672 39.7553Z" fill="#373A4C"/>
<path d="M34.9179 23.3751H12.3155C10.962 23.3751 9.86075 24.4767 9.86075 25.831V39.7872C9.86075 41.1415 10.962 42.2431 12.3155 42.2431H14.7522L16.1928 46.1207C16.3336 46.5 16.6493 46.7876 17.04 46.8926C17.147 46.9214 17.2561 46.9355 17.3644 46.9355C17.6515 46.9355 17.9335 46.8366 18.16 46.6496L23.5005 42.2432H27.4353V45.7564C27.4353 47.1106 28.5365 48.2122 29.89 48.2122H41.307L46.6474 52.6219C46.874 52.809 47.1561 52.908 47.4434 52.908C47.5515 52.908 47.6604 52.894 47.7673 52.8652C48.158 52.7604 48.4738 52.4729 48.6148 52.0937L50.0588 48.2121H52.4924C53.8479 48.2121 54.9506 47.1105 54.9506 45.7562V31.8C54.9506 30.4457 53.8479 29.3441 52.4924 29.3441H37.3761V25.831C37.3761 24.4767 36.2734 23.3751 34.9179 23.3751ZM23.0515 39.7432C22.7613 39.7432 22.4799 39.8444 22.256 40.0291L17.9245 43.6031L16.7931 40.558C16.6111 40.0682 16.1439 39.7432 15.6214 39.7432H12.3609V25.8751H34.8761V30.5241C34.8749 30.5475 34.8726 30.5705 34.8726 30.5942C34.8726 30.618 34.8749 30.641 34.8761 30.6644V39.7434H23.0515V39.7432ZM52.4505 31.8442V45.7124H49.19C48.6678 45.7124 48.2005 46.0371 48.0185 46.5266L46.8843 49.5756L42.5523 45.9986C42.3283 45.8137 42.0469 45.7125 41.7564 45.7125H29.9354V42.2434H34.9179C36.2734 42.2434 37.3761 41.1417 37.3761 39.7875V31.8444H52.4505V31.8442Z" fill="#373A4C"/>
<path d="M1.25 42.08C1.94025 42.08 2.5 41.5203 2.5 40.83V40.8229C2.5 40.1327 1.94025 39.5764 1.25 39.5764C0.55975 39.5764 0 40.1397 0 40.8299C0 41.5202 0.55975 42.08 1.25 42.08Z" fill="#373A4C"/>
</svg>
