<svg width="48" height="49" viewBox="0 0 48 49" fill="none" xmlns="http://www.w3.org/2000/svg">
<path d="M44.25 1.58008H3.75C3.15347 1.58076 2.58157 1.81803 2.15976 2.23984C1.73795 2.66165 1.50068 3.23355 1.5 3.83008V44.3301C1.50068 44.9266 1.73795 45.4985 2.15976 45.9203C2.58157 46.3421 3.15347 46.5794 3.75 46.5801H44.25C44.8465 46.5794 45.4184 46.3421 45.8402 45.9203C46.262 45.4985 46.4993 44.9266 46.5 44.3301V3.83008C46.4993 3.23355 46.262 2.66165 45.8402 2.23984C45.4184 1.81803 44.8465 1.58076 44.25 1.58008ZM45 44.3301C44.9998 44.5289 44.9207 44.7196 44.7801 44.8602C44.6395 45.0008 44.4488 45.0798 44.25 45.0801H3.75C3.55116 45.0798 3.36052 45.0008 3.21992 44.8602C3.07932 44.7196 3.00023 44.5289 3 44.3301V3.83008C3.00023 3.63124 3.07932 3.4406 3.21992 3.3C3.36052 3.1594 3.55116 3.08031 3.75 3.08008H44.25C44.4488 3.08031 44.6395 3.1594 44.7801 3.3C44.9207 3.4406 44.9998 3.63124 45 3.83008V44.3301Z" fill="white"/>
<path d="M5.25 6.08008C5.66421 6.08008 6 5.74429 6 5.33008C6 4.91586 5.66421 4.58008 5.25 4.58008C4.83579 4.58008 4.5 4.91586 4.5 5.33008C4.5 5.74429 4.83579 6.08008 5.25 6.08008Z" fill="white"/>
<path d="M7.5 6.08008C7.91421 6.08008 8.25 5.74429 8.25 5.33008C8.25 4.91586 7.91421 4.58008 7.5 4.58008C7.08579 4.58008 6.75 4.91586 6.75 5.33008C6.75 5.74429 7.08579 6.08008 7.5 6.08008Z" fill="white"/>
<path d="M9.75 6.08008C10.1642 6.08008 10.5 5.74429 10.5 5.33008C10.5 4.91586 10.1642 4.58008 9.75 4.58008C9.33579 4.58008 9 4.91586 9 5.33008C9 5.74429 9.33579 6.08008 9.75 6.08008Z" fill="white"/>
<path d="M23.25 20.3301H20.25C20.1515 20.3301 20.054 20.3495 19.963 20.3872C19.872 20.4249 19.7893 20.4801 19.7197 20.5497C19.65 20.6194 19.5948 20.7021 19.5571 20.7931C19.5194 20.8841 19.5 20.9816 19.5 21.0801V24.0801C19.5 24.1786 19.5194 24.2761 19.5571 24.3671C19.5948 24.4581 19.65 24.5408 19.7197 24.6104C19.7893 24.6801 19.872 24.7353 19.963 24.773C20.054 24.8107 20.1515 24.8301 20.25 24.8301H23.25C23.3485 24.8301 23.446 24.8107 23.537 24.773C23.628 24.7353 23.7107 24.6801 23.7803 24.6104C23.85 24.5408 23.9052 24.4581 23.9429 24.3671C23.9806 24.2761 24 24.1786 24 24.0801V21.0801C24 20.9816 23.9806 20.8841 23.9429 20.7931C23.9052 20.7021 23.85 20.6194 23.7803 20.5497C23.7107 20.4801 23.628 20.4249 23.537 20.3872C23.446 20.3495 23.3485 20.3301 23.25 20.3301ZM22.5 23.3301H21V21.8301H22.5V23.3301Z" fill="white"/>
<path d="M26.25 21.8301H28.5V23.3301H26.25V21.8301Z" fill="white"/>
<path d="M30 21.8301H40.5V23.3301H30V21.8301Z" fill="white"/>
<path d="M23.25 26.3301H20.25C20.1515 26.3301 20.054 26.3495 19.963 26.3872C19.872 26.4249 19.7893 26.4801 19.7197 26.5497C19.65 26.6194 19.5948 26.7021 19.5571 26.7931C19.5194 26.8841 19.5 26.9816 19.5 27.0801V30.0801C19.5 30.1786 19.5194 30.2761 19.5571 30.3671C19.5948 30.4581 19.65 30.5408 19.7197 30.6104C19.7893 30.6801 19.872 30.7353 19.963 30.773C20.054 30.8107 20.1515 30.8301 20.25 30.8301H23.25C23.3485 30.8301 23.446 30.8107 23.537 30.773C23.628 30.7353 23.7107 30.6801 23.7803 30.6104C23.85 30.5408 23.9052 30.4581 23.9429 30.3671C23.9806 30.2761 24 30.1786 24 30.0801V27.0801C24 26.9816 23.9806 26.8841 23.9429 26.7931C23.9052 26.7021 23.85 26.6194 23.7803 26.5497C23.7107 26.4801 23.628 26.4249 23.537 26.3872C23.446 26.3495 23.3485 26.3301 23.25 26.3301ZM22.5 29.3301H21V27.8301H22.5V29.3301Z" fill="white"/>
<path d="M26.25 27.8301H28.5V29.3301H26.25V27.8301Z" fill="white"/>
<path d="M30 27.8301H40.5V29.3301H30V27.8301Z" fill="white"/>
<path d="M23.25 32.3301H20.25C20.1515 32.3301 20.054 32.3495 19.963 32.3872C19.872 32.4249 19.7893 32.4801 19.7197 32.5497C19.65 32.6194 19.5948 32.7021 19.5571 32.7931C19.5194 32.8841 19.5 32.9816 19.5 33.0801V36.0801C19.5 36.1786 19.5194 36.2761 19.5571 36.3671C19.5948 36.4581 19.65 36.5408 19.7197 36.6104C19.7893 36.6801 19.872 36.7353 19.963 36.773C20.054 36.8107 20.1515 36.8301 20.25 36.8301H23.25C23.3485 36.8301 23.446 36.8107 23.537 36.773C23.628 36.7353 23.7107 36.6801 23.7803 36.6104C23.85 36.5408 23.9052 36.4581 23.9429 36.3671C23.9806 36.2761 24 36.1786 24 36.0801V33.0801C24 32.9816 23.9806 32.8841 23.9429 32.7931C23.9052 32.7021 23.85 32.6194 23.7803 32.5497C23.7107 32.4801 23.628 32.4249 23.537 32.3872C23.446 32.3495 23.3485 32.3301 23.25 32.3301ZM22.5 35.3301H21V33.8301H22.5V35.3301Z" fill="white"/>
<path d="M26.25 33.8301H28.5V35.3301H26.25V33.8301Z" fill="white"/>
<path d="M30 33.8301H40.5V35.3301H30V33.8301Z" fill="white"/>
<path d="M23.25 38.3301H20.25C20.1515 38.3301 20.054 38.3495 19.963 38.3872C19.872 38.4249 19.7893 38.4801 19.7197 38.5497C19.65 38.6194 19.5948 38.7021 19.5571 38.7931C19.5194 38.8841 19.5 38.9816 19.5 39.0801V42.0801C19.5 42.1786 19.5194 42.2761 19.5571 42.3671C19.5948 42.4581 19.65 42.5408 19.7197 42.6104C19.7893 42.6801 19.872 42.7353 19.963 42.773C20.054 42.8107 20.1515 42.8301 20.25 42.8301H23.25C23.3485 42.8301 23.446 42.8107 23.537 42.773C23.628 42.7353 23.7107 42.6801 23.7803 42.6104C23.85 42.5408 23.9052 42.4581 23.9429 42.3671C23.9806 42.2761 24 42.1786 24 42.0801V39.0801C24 38.9816 23.9806 38.8841 23.9429 38.7931C23.9052 38.7021 23.85 38.6194 23.7803 38.5497C23.7107 38.4801 23.628 38.4249 23.537 38.3872C23.446 38.3495 23.3485 38.3301 23.25 38.3301ZM22.5 41.3301H21V39.8301H22.5V41.3301Z" fill="white"/>
<path d="M26.25 39.8301H28.5V41.3301H26.25V39.8301Z" fill="white"/>
<path d="M30 39.8301H40.5V41.3301H30V39.8301Z" fill="white"/>
<path d="M42 9.08008H6C5.90151 9.08008 5.80398 9.09947 5.71298 9.13716C5.62199 9.17485 5.53931 9.2301 5.46966 9.29974C5.40002 9.36939 5.34477 9.45207 5.30708 9.54306C5.26939 9.63406 5.25 9.73159 5.25 9.83008V42.0801C5.25 42.1786 5.26939 42.2761 5.30708 42.3671C5.34477 42.4581 5.40002 42.5408 5.46966 42.6104C5.53931 42.6801 5.62199 42.7353 5.71298 42.773C5.80398 42.8107 5.90151 42.8301 6 42.8301H16.5C16.5985 42.8301 16.696 42.8107 16.787 42.773C16.878 42.7353 16.9607 42.6801 17.0303 42.6104C17.1 42.5408 17.1552 42.4581 17.1929 42.3671C17.2306 42.2761 17.25 42.1786 17.25 42.0801V18.0801H42C42.0985 18.0801 42.196 18.0607 42.287 18.023C42.378 17.9853 42.4607 17.9301 42.5303 17.8604C42.6 17.7908 42.6552 17.7081 42.6929 17.6171C42.7306 17.5261 42.75 17.4286 42.75 17.3301V9.83008C42.75 9.73159 42.7306 9.63406 42.6929 9.54306C42.6552 9.45207 42.6 9.36939 42.5303 9.29974C42.4607 9.2301 42.378 9.17485 42.287 9.13716C42.196 9.09947 42.0985 9.08008 42 9.08008ZM15.75 41.3301H6.75V18.0801H15.75V41.3301ZM41.25 16.5801H6.75V10.5801H41.25V16.5801Z" fill="white"/>
</svg>
