<svg width="37" height="43" viewBox="0 0 37 43" fill="none" xmlns="http://www.w3.org/2000/svg">
    <path d="M27.3189 14.6718H9.60174V12.9479C9.6012 11.0369 10.2534 9.17987 11.4559 7.66882C12.6583 6.15777 14.3428 5.07839 16.2445 4.60037C18.1462 4.12236 20.1572 4.27282 21.9614 5.0281C23.7656 5.78338 25.2607 7.10065 26.2116 8.77281C26.3245 8.97077 26.4765 9.14515 26.6587 9.28599C26.8409 9.42683 27.0499 9.53137 27.2736 9.59363C27.4974 9.6559 27.7315 9.67468 27.9627 9.6489C28.1939 9.62312 28.4177 9.55328 28.6211 9.44338C28.8246 9.33347 29.0038 9.18565 29.1486 9.00835C29.2933 8.83105 29.4007 8.62775 29.4647 8.41005C29.5287 8.19235 29.548 7.96452 29.5215 7.73956C29.4951 7.51461 29.4233 7.29693 29.3103 7.09896C27.9785 4.75854 25.8851 2.91509 23.3592 1.85837C20.8333 0.801649 18.018 0.591587 15.356 1.2612C12.6941 1.93082 10.3362 3.44214 8.65321 5.5576C6.97019 7.67307 6.0574 10.2727 6.05831 12.9479V15.4027C4.48035 16.0727 3.13727 17.1757 2.19331 18.5766C1.24935 19.9775 0.745429 21.6158 0.743164 23.2909V33.6339C0.745977 35.919 1.68019 38.1097 3.34089 39.7255C5.00159 41.3414 7.25317 42.2503 9.60174 42.2531H27.3189C29.6675 42.2503 31.9191 41.3414 33.5798 39.7255C35.2405 38.1097 36.1747 35.919 36.1775 33.6339V23.2909C36.1747 21.0058 35.2405 18.8151 33.5798 17.1993C31.9191 15.5835 29.6675 14.6745 27.3189 14.6718V14.6718ZM32.6341 33.6339C32.6341 35.0055 32.0741 36.3209 31.0773 37.2907C30.0805 38.2605 28.7286 38.8054 27.3189 38.8054H9.60174C8.19208 38.8054 6.84015 38.2605 5.84337 37.2907C4.84658 36.3209 4.2866 35.0055 4.2866 33.6339V23.2909C4.2866 21.9193 4.84658 20.604 5.84337 19.6341C6.84015 18.6643 8.19208 18.1194 9.60174 18.1194H27.3189C28.7286 18.1194 30.0805 18.6643 31.0773 19.6341C32.0741 20.604 32.6341 21.9193 32.6341 23.2909V33.6339Z" fill="black"/>
    <path d="M18.4603 25.0148C17.9904 25.0148 17.5398 25.1964 17.2075 25.5197C16.8753 25.843 16.6886 26.2814 16.6886 26.7386V30.1863C16.6886 30.6435 16.8753 31.0819 17.2075 31.4052C17.5398 31.7285 17.9904 31.9101 18.4603 31.9101C18.9302 31.9101 19.3808 31.7285 19.7131 31.4052C20.0454 31.0819 20.232 30.6435 20.232 30.1863V26.7386C20.232 26.2814 20.0454 25.843 19.7131 25.5197C19.3808 25.1964 18.9302 25.0148 18.4603 25.0148Z" fill="black"/>
</svg>
