<svg width="14" height="15" viewBox="0 0 14 15" fill="none" xmlns="http://www.w3.org/2000/svg">
    <path d="M12.9128 8.90958L11.8045 4.92192C11.4796 3.7537 10.7736 2.72759 9.79859 2.00669C8.8236 1.2858 7.63563 0.911495 6.42349 0.943275C5.21136 0.975055 4.04463 1.4111 3.10876 2.18209C2.17289 2.95308 1.52159 4.01478 1.25839 5.19842L0.400306 9.05717C0.305524 9.48355 0.307715 9.92577 0.406719 10.3512C0.505722 10.7766 0.69901 11.1744 0.972312 11.5151C1.24561 11.8558 1.59195 12.1308 1.98575 12.3197C2.37956 12.5087 2.81077 12.6068 3.24756 12.6068H3.89739C4.03127 13.2661 4.38898 13.8589 4.90991 14.2846C5.43083 14.7104 6.08293 14.943 6.75572 14.943C7.42851 14.943 8.08062 14.7104 8.60154 14.2846C9.12246 13.8589 9.48017 13.2661 9.61406 12.6068H10.1029C10.5525 12.6068 10.9961 12.5029 11.3989 12.3031C11.8017 12.1033 12.1529 11.8131 12.425 11.4552C12.6971 11.0972 12.8828 10.6812 12.9675 10.2396C13.0522 9.79802 13.0337 9.34283 12.9134 8.90958H12.9128ZM6.75572 13.7734C6.39507 13.7719 6.04369 13.659 5.74965 13.4502C5.45561 13.2414 5.23327 12.9468 5.11306 12.6068H8.39839C8.27817 12.9468 8.05584 13.2414 7.7618 13.4502C7.46776 13.659 7.11637 13.7719 6.75572 13.7734ZM11.4959 10.7488C11.3333 10.9645 11.1227 11.1392 10.8808 11.2592C10.6389 11.3792 10.3723 11.4412 10.1023 11.4401H3.24756C2.98551 11.44 2.72683 11.3811 2.49059 11.2678C2.25435 11.1544 2.04659 10.9894 1.88265 10.7849C1.71871 10.5805 1.60277 10.3419 1.54338 10.0867C1.484 9.83144 1.48269 9.56613 1.53956 9.31034L2.39706 5.451C2.60376 4.52129 3.11532 3.68736 3.85041 3.08176C4.58549 2.47617 5.50192 2.13369 6.45401 2.10874C7.40609 2.0838 8.3392 2.37784 9.10498 2.94411C9.87077 3.51038 10.4253 4.31639 10.6804 5.234L11.7887 9.22167C11.862 9.48147 11.8736 9.75476 11.8228 10.0199C11.772 10.285 11.66 10.5346 11.4959 10.7488Z" fill="#E04265"/>
</svg>