<svg 
 xmlns="http://www.w3.org/2000/svg"
 xmlns:xlink="http://www.w3.org/1999/xlink"
 width="77px" height="57px">
<path fill-rule="evenodd"  fill="rgb(0, 200, 83)"
 d="M75.872,56.999 C75.249,56.999 74.744,56.490 74.744,55.862 L74.744,46.453 C74.744,45.338 74.001,44.345 72.938,44.039 L68.279,42.697 C68.111,42.648 67.951,42.583 67.800,42.504 L64.940,45.388 L64.940,55.862 C64.940,56.490 64.435,56.999 63.812,56.999 C63.189,56.999 62.684,56.490 62.684,55.862 L62.684,45.388 L59.804,42.485 C59.419,42.675 59.035,42.786 58.754,42.866 L58.475,42.947 C59.521,44.044 60.144,45.527 60.144,47.108 L60.144,55.862 C60.144,56.490 59.639,56.999 59.016,56.999 C58.393,56.999 57.888,56.490 57.888,55.862 L57.888,47.108 C57.888,45.547 56.910,44.139 55.455,43.605 L48.139,40.923 L45.092,45.530 C44.703,46.119 44.079,46.496 43.380,46.566 C43.302,46.574 43.225,46.578 43.148,46.578 C42.532,46.578 41.941,46.333 41.500,45.889 L39.642,44.014 L39.642,55.862 C39.642,56.490 39.137,56.999 38.514,56.999 C37.891,56.999 37.386,56.490 37.386,55.862 L37.386,44.014 L35.528,45.889 C35.086,46.333 34.496,46.578 33.880,46.578 C33.803,46.578 33.725,46.574 33.647,46.566 C32.949,46.496 32.325,46.119 31.935,45.530 L28.890,40.922 L21.573,43.605 C20.117,44.139 19.139,45.547 19.139,47.108 L19.139,55.862 C19.139,56.490 18.635,56.999 18.012,56.999 C17.389,56.999 16.884,56.490 16.884,55.862 L16.884,47.108 C16.884,45.961 17.212,44.866 17.791,43.932 L16.562,43.313 L15.251,44.569 C14.335,45.447 13.158,45.886 11.982,45.886 C10.805,45.886 9.629,45.448 8.712,44.569 L7.401,43.313 L3.632,45.213 C2.783,45.641 2.256,46.501 2.256,47.459 L2.256,55.861 C2.256,56.489 1.751,56.999 1.128,56.999 C0.505,56.999 -0.000,56.489 -0.000,55.861 L-0.000,47.459 C-0.000,45.635 1.005,43.994 2.623,43.178 L5.650,41.652 C2.400,40.226 1.374,38.228 1.325,38.128 C1.166,37.808 1.166,37.431 1.325,37.111 C2.138,35.471 2.237,32.466 2.315,30.051 C2.342,29.247 2.367,28.487 2.415,27.810 C2.799,22.355 6.912,18.241 11.982,18.241 C17.051,18.241 21.164,22.355 21.549,27.810 C21.596,28.487 21.621,29.246 21.648,30.050 C21.727,32.466 21.825,35.472 22.638,37.111 C22.797,37.432 22.797,37.809 22.638,38.129 C22.589,38.228 21.561,40.231 18.318,41.654 L19.407,42.204 C19.832,41.901 20.299,41.652 20.802,41.467 L27.741,38.923 C27.718,38.610 27.823,38.292 28.049,38.052 L30.150,35.826 L30.150,32.002 C27.201,29.476 25.326,25.646 25.326,21.394 L25.326,18.827 C24.526,17.070 24.120,15.212 24.120,13.298 L24.120,10.866 C24.120,4.874 28.954,-0.001 34.896,-0.001 L51.780,-0.001 C52.403,-0.001 52.908,0.509 52.908,1.137 L52.908,13.298 C52.908,15.212 52.503,17.070 51.702,18.826 L51.702,21.811 C51.702,25.473 50.182,29.010 47.531,31.515 C47.319,31.715 47.100,31.904 46.878,32.090 L46.878,35.826 L48.979,38.052 C49.205,38.292 49.310,38.610 49.286,38.923 L55.862,41.334 L58.135,40.679 C59.066,40.410 59.066,40.306 59.066,40.052 L59.066,38.409 C56.886,36.819 55.448,34.177 55.448,31.234 L55.448,29.375 L54.870,28.211 C54.459,27.382 54.242,26.453 54.242,25.527 L54.242,25.459 C54.242,21.479 57.453,18.241 61.400,18.241 L72.254,18.241 C72.877,18.241 73.382,18.750 73.382,19.379 L73.382,25.240 C73.382,26.354 73.121,27.470 72.626,28.468 L72.176,29.376 L72.176,31.539 C72.176,33.840 71.274,35.990 69.636,37.592 C69.298,37.923 68.937,38.220 68.558,38.485 L68.558,40.052 C68.558,40.263 68.698,40.451 68.899,40.509 L73.557,41.851 C75.584,42.435 77.000,44.327 77.000,46.453 L77.000,55.862 C77.000,56.490 76.495,56.999 75.872,56.999 ZM10.266,42.920 C11.228,43.842 12.735,43.842 13.698,42.920 L14.746,41.915 C14.569,41.581 14.472,41.202 14.472,40.804 L14.472,39.593 C13.684,39.839 12.848,39.974 11.982,39.974 C11.115,39.974 10.279,39.840 9.492,39.592 L9.492,40.804 C9.492,41.202 9.395,41.581 9.218,41.915 L10.266,42.920 ZM3.616,37.499 C4.068,38.056 5.126,39.077 7.236,39.842 L7.236,38.479 C5.923,37.563 4.881,36.279 4.259,34.775 C4.124,35.757 3.924,36.687 3.616,37.499 ZM19.393,30.126 C19.368,29.344 19.343,28.606 19.299,27.972 C19.155,25.929 18.345,24.045 17.019,22.669 C15.680,21.280 13.892,20.516 11.982,20.516 C10.072,20.516 8.283,21.280 6.945,22.669 C5.619,24.045 4.809,25.929 4.665,27.972 C4.620,28.606 4.596,29.344 4.571,30.126 C4.568,30.223 4.564,30.321 4.561,30.419 C4.621,30.409 4.683,30.402 4.746,30.402 C5.369,30.402 5.874,30.912 5.874,31.540 C5.874,34.936 8.614,37.699 11.982,37.699 C15.011,37.699 17.556,35.481 18.015,32.496 C16.191,28.444 11.499,27.894 10.040,27.822 L8.347,29.593 C7.914,30.045 7.201,30.058 6.752,29.622 C6.304,29.186 6.291,28.466 6.723,28.014 L8.758,25.886 C8.963,25.671 9.244,25.547 9.539,25.538 C9.621,25.536 11.567,25.491 13.829,26.224 C16.278,27.017 18.173,28.422 19.400,30.329 C19.398,30.261 19.396,30.193 19.393,30.126 ZM20.348,37.499 C20.040,36.689 19.841,35.761 19.705,34.782 C19.083,36.297 18.040,37.579 16.728,38.490 L16.727,39.846 C18.835,39.081 19.898,38.051 20.348,37.499 ZM43.095,44.280 C43.103,44.288 43.121,44.307 43.158,44.303 C43.195,44.299 43.210,44.277 43.216,44.268 L46.723,38.962 L45.595,37.766 L40.273,41.434 L43.095,44.280 ZM38.514,39.890 L44.622,35.681 L44.622,33.603 C42.758,34.590 40.682,35.109 38.526,35.109 C38.231,35.109 37.935,35.100 37.638,35.080 C35.756,34.958 33.986,34.419 32.406,33.557 L32.406,35.681 L38.514,39.890 ZM33.812,44.268 C33.819,44.277 33.833,44.299 33.870,44.302 C33.907,44.306 33.925,44.288 33.933,44.280 L36.755,41.434 L31.434,37.766 L30.305,38.962 L33.812,44.268 ZM49.446,21.811 L49.446,18.572 C49.446,18.401 49.485,18.232 49.559,18.078 C50.284,16.562 50.652,14.954 50.652,13.298 L50.652,2.274 L34.896,2.274 C30.198,2.274 26.376,6.128 26.376,10.866 L26.376,13.298 C26.376,14.954 26.744,16.562 27.470,18.077 C27.544,18.232 27.582,18.401 27.582,18.572 L27.582,21.394 C27.582,27.422 32.063,32.437 37.784,32.810 C40.456,32.985 43.014,32.208 45.103,30.609 C45.110,30.604 45.116,30.599 45.122,30.595 C45.421,30.365 45.710,30.118 45.988,29.855 C48.218,27.748 49.446,24.891 49.446,21.811 ZM63.812,43.308 L66.383,40.715 C66.330,40.501 66.302,40.279 66.302,40.052 L66.302,39.594 C65.506,39.843 64.671,39.974 63.815,39.974 C63.728,39.974 63.642,39.972 63.555,39.970 C62.781,39.946 62.032,39.807 61.322,39.572 L61.322,40.052 C61.322,40.299 61.296,40.523 61.252,40.727 L63.812,43.308 ZM69.920,31.539 L69.920,29.107 C69.920,28.931 69.961,28.757 70.039,28.599 L70.609,27.450 C70.947,26.767 71.126,26.003 71.126,25.240 L71.126,20.516 L61.400,20.516 C58.697,20.516 56.497,22.733 56.497,25.459 L56.497,25.527 C56.497,26.102 56.632,26.679 56.888,27.194 L57.584,28.599 C57.663,28.757 57.703,28.931 57.703,29.107 L57.703,31.234 C57.703,34.698 60.359,37.597 63.623,37.696 C65.291,37.748 66.870,37.130 68.065,35.960 C69.261,34.790 69.920,33.220 69.920,31.539 ZM67.429,27.813 C67.259,27.813 67.088,27.774 66.926,27.692 C65.142,26.793 61.462,26.596 60.194,26.596 C59.571,26.596 59.066,26.087 59.066,25.459 C59.066,24.831 59.571,24.321 60.194,24.321 C60.402,24.321 65.314,24.337 67.934,25.658 C68.492,25.939 68.717,26.622 68.438,27.184 C68.241,27.582 67.842,27.813 67.429,27.813 ZM38.587,12.672 C35.598,12.471 32.712,12.812 31.259,13.033 C31.225,13.038 31.200,13.071 31.200,13.110 L31.200,15.730 C31.200,16.358 30.695,16.868 30.072,16.868 C29.449,16.868 28.944,16.358 28.944,15.730 L28.944,13.110 C28.944,11.936 29.776,10.958 30.922,10.784 C34.562,10.231 43.487,9.408 47.754,13.710 C48.194,14.154 48.194,14.874 47.754,15.318 C47.313,15.763 46.599,15.763 46.158,15.318 C44.651,13.798 42.104,12.909 38.587,12.672 ZM5.952,48.931 C6.575,48.931 7.080,49.441 7.080,50.068 L7.080,55.861 C7.080,56.489 6.575,56.999 5.952,56.999 C5.329,56.999 4.824,56.489 4.824,55.861 L4.824,50.068 C4.824,49.440 5.329,48.931 5.952,48.931 ZM25.248,49.860 C25.871,49.860 26.376,50.369 26.376,50.997 L26.376,55.861 C26.376,56.490 25.871,56.999 25.248,56.999 C24.625,56.999 24.120,56.490 24.120,55.861 L24.120,50.997 C24.120,50.369 24.625,49.860 25.248,49.860 ZM51.780,49.860 C52.403,49.860 52.908,50.369 52.908,50.997 L52.908,55.861 C52.908,56.490 52.403,56.999 51.780,56.999 C51.157,56.999 50.652,56.490 50.652,55.861 L50.652,50.997 C50.652,50.369 51.157,49.860 51.780,49.860 ZM71.048,47.427 C71.671,47.427 72.175,47.937 72.175,48.565 L72.175,55.861 C72.175,56.489 71.671,56.999 71.048,56.999 C70.425,56.999 69.920,56.489 69.920,55.861 L69.920,48.565 C69.920,47.937 70.425,47.427 71.048,47.427 Z"/>
</svg>