<svg width="16" height="16" viewBox="0 0 16 16" fill="none" xmlns="http://www.w3.org/2000/svg">
    <path d="M13.6915 8.4669L12.9381 8.00024L13.6921 7.53357C14.2157 7.2223 14.6211 6.74607 14.8448 6.17957C14.9848 5.805 15.0371 5.40328 14.9974 5.00536C14.9577 4.60743 14.8272 4.22392 14.616 3.88438C14.4047 3.54483 14.1183 3.25831 13.7789 3.04689C13.4395 2.83546 13.056 2.70478 12.6581 2.6649C12.051 2.61524 11.4446 2.7686 10.9341 3.1009L10.6668 3.2669V2.78157C10.6781 2.10474 10.4388 1.44763 9.99488 0.936556C9.551 0.425483 8.93387 0.0965194 8.26213 0.0129022C7.89162 -0.0236768 7.51757 0.0177321 7.16403 0.134463C6.8105 0.251195 6.48533 0.440662 6.20945 0.690667C5.93357 0.940672 5.7131 1.24568 5.56223 1.58604C5.41136 1.92641 5.33343 2.2946 5.33346 2.6669V3.2669L5.0668 3.10024C4.5564 2.767 3.94968 2.61291 3.34213 2.66224C2.94416 2.70176 2.56057 2.83215 2.22095 3.04334C1.88133 3.25453 1.59474 3.54089 1.38328 3.88034C1.17182 4.2198 1.04112 4.60327 1.00128 5.00121C0.961432 5.39915 1.0135 5.80093 1.15346 6.17557C1.37722 6.74225 1.78291 7.21853 2.3068 7.52957L3.06213 8.00024L2.30813 8.4669C1.7846 8.77817 1.37918 9.2544 1.15546 9.8209C1.01522 10.1958 0.963007 10.5978 1.00284 10.9961C1.04268 11.3943 1.1735 11.7781 1.3852 12.1178C1.59691 12.4574 1.88384 12.7439 2.22384 12.955C2.56384 13.1662 2.94782 13.2964 3.34613 13.3356C3.95189 13.3851 4.55698 13.2324 5.0668 12.9016L5.33346 12.7336V13.3336C5.33346 14.0408 5.61441 14.7191 6.11451 15.2192C6.61461 15.7193 7.29289 16.0002 8.00013 16.0002C8.70737 16.0002 9.38565 15.7193 9.88575 15.2192C10.3858 14.7191 10.6668 14.0408 10.6668 13.3336V12.7336L10.9335 12.9009C11.443 13.232 12.0478 13.3851 12.6535 13.3362C13.0517 13.2969 13.4355 13.1665 13.7753 12.9553C14.1152 12.7441 14.4019 12.4576 14.6135 12.1179C14.825 11.7783 14.9557 11.3946 14.9955 10.9965C15.0353 10.5983 14.983 10.1963 14.8428 9.82157C14.6195 9.25507 14.2145 8.77865 13.6915 8.4669V8.4669ZM13.4841 11.4122C13.305 11.6997 13.019 11.9042 12.6891 11.9809C12.3592 12.0575 12.0123 12 11.7248 11.8209L10.3521 10.9662C10.2511 10.9034 10.1351 10.8688 10.0162 10.8659C9.89722 10.8631 9.77969 10.8921 9.67575 10.95C9.57181 11.0079 9.48526 11.0925 9.42507 11.1951C9.36488 11.2977 9.33325 11.4146 9.33346 11.5336V13.3336C9.33346 13.6872 9.19299 14.0263 8.94294 14.2764C8.69289 14.5264 8.35375 14.6669 8.00013 14.6669C7.64651 14.6669 7.30737 14.5264 7.05732 14.2764C6.80727 14.0263 6.6668 13.6872 6.6668 13.3336V11.5336C6.66677 11.4147 6.63496 11.298 6.57468 11.1956C6.51439 11.0932 6.42782 11.0087 6.32392 10.951C6.22003 10.8933 6.10259 10.8643 5.98377 10.8673C5.86495 10.8702 5.74907 10.9048 5.64813 10.9676L4.27546 11.8236C4.13311 11.9122 3.97469 11.9719 3.80925 11.9994C3.64381 12.0268 3.47459 12.0213 3.31126 11.9834C3.14792 11.9454 2.99366 11.8756 2.85729 11.778C2.72092 11.6804 2.6051 11.5569 2.51646 11.4146C2.42782 11.2722 2.36808 11.1138 2.34067 10.9484C2.31325 10.7829 2.31868 10.6137 2.35666 10.4504C2.39464 10.287 2.46442 10.1328 2.56201 9.9964C2.65961 9.86002 2.78311 9.74421 2.92546 9.65557L4.67546 8.56624C4.77194 8.50645 4.85155 8.42302 4.90676 8.32385C4.96196 8.22469 4.99094 8.11307 4.99094 7.99957C4.99094 7.88607 4.96196 7.77445 4.90676 7.67529C4.85155 7.57612 4.77194 7.49269 4.67546 7.4329L2.92546 6.34424C2.63797 6.16521 2.43336 5.87932 2.35666 5.54944C2.27996 5.21957 2.33744 4.87273 2.51646 4.58524C2.69548 4.29774 2.98138 4.09314 3.31126 4.01644C3.64113 3.93973 3.98797 3.99721 4.27546 4.17624L5.64813 5.0309C5.74892 5.09357 5.86462 5.12819 5.98327 5.1312C6.10192 5.1342 6.21922 5.10547 6.32305 5.04798C6.42689 4.99049 6.51349 4.90632 6.57392 4.80417C6.63435 4.70202 6.66641 4.58559 6.6668 4.4669V2.73824C6.6596 2.41367 6.76678 2.09691 6.96959 1.8434C7.17239 1.5899 7.4579 1.41579 7.77613 1.35157C7.9675 1.31895 8.16369 1.32852 8.35098 1.37961C8.53828 1.43069 8.71215 1.52206 8.86047 1.64733C9.00878 1.77259 9.12795 1.92873 9.20965 2.10484C9.29134 2.28095 9.3336 2.47277 9.33346 2.6669V4.4669C9.33361 4.5857 9.3655 4.7023 9.42583 4.80464C9.48617 4.90698 9.57275 4.99134 9.67663 5.04899C9.7805 5.10664 9.89789 5.13548 10.0167 5.13254C10.1354 5.12959 10.2512 5.09496 10.3521 5.03224L11.7248 4.17824C11.8671 4.08959 12.0256 4.02986 12.191 4.00244C12.3564 3.97502 12.5257 3.98046 12.689 4.01844C12.8523 4.05641 13.0066 4.12619 13.143 4.22379C13.2793 4.32138 13.3952 4.44488 13.4838 4.58724C13.5724 4.72959 13.6322 4.88801 13.6596 5.05345C13.687 5.21889 13.6816 5.3881 13.6436 5.55144C13.6056 5.71478 13.5358 5.86904 13.4382 6.00541C13.3406 6.14178 13.2171 6.25759 13.0748 6.34624L11.3248 7.43557C11.2283 7.49536 11.1487 7.57879 11.0935 7.67795C11.0383 7.77712 11.0093 7.88874 11.0093 8.00224C11.0093 8.11573 11.0383 8.22735 11.0935 8.32652C11.1487 8.42569 11.2283 8.50911 11.3248 8.5689L13.0748 9.65824C13.2172 9.74676 13.3408 9.86249 13.4385 9.99882C13.5362 10.1351 13.606 10.2894 13.644 10.4527C13.682 10.6161 13.6875 10.7853 13.66 10.9507C13.6326 11.1162 13.5728 11.2746 13.4841 11.4169V11.4122Z" fill="#373A4C"/>
</svg>