<svg width="14" height="16" viewBox="0 0 14 16" fill="none" xmlns="http://www.w3.org/2000/svg">
    <path d="M11.6654 5.616V4.66667C11.6654 3.42899 11.1737 2.242 10.2985 1.36683C9.42336 0.491665 8.23638 0 6.9987 0C5.76102 0 4.57404 0.491665 3.69887 1.36683C2.8237 2.242 2.33203 3.42899 2.33203 4.66667V5.616C1.73827 5.87514 1.23289 6.30168 0.877697 6.84347C0.522502 7.38527 0.332884 8.01882 0.332031 8.66667V12.6667C0.33309 13.5504 0.684619 14.3976 1.30951 15.0225C1.9344 15.6474 2.78164 15.9989 3.66537 16H10.332C11.2158 15.9989 12.063 15.6474 12.6879 15.0225C13.3128 14.3976 13.6643 13.5504 13.6654 12.6667V8.66667C13.6645 8.01882 13.4749 7.38527 13.1197 6.84347C12.7645 6.30168 12.2591 5.87514 11.6654 5.616ZM3.66537 4.66667C3.66537 3.78261 4.01655 2.93476 4.64168 2.30964C5.2668 1.68452 6.11464 1.33333 6.9987 1.33333C7.88275 1.33333 8.7306 1.68452 9.35572 2.30964C9.98084 2.93476 10.332 3.78261 10.332 4.66667V5.33333H3.66537V4.66667ZM12.332 12.6667C12.332 13.1971 12.1213 13.7058 11.7462 14.0809C11.3712 14.456 10.8625 14.6667 10.332 14.6667H3.66537C3.13493 14.6667 2.62622 14.456 2.25115 14.0809C1.87608 13.7058 1.66536 13.1971 1.66536 12.6667V8.66667C1.66536 8.13623 1.87608 7.62752 2.25115 7.25245C2.62622 6.87738 3.13493 6.66667 3.66537 6.66667H10.332C10.8625 6.66667 11.3712 6.87738 11.7462 7.25245C12.1213 7.62752 12.332 8.13623 12.332 8.66667V12.6667Z" fill="#373A4C"/>
    <path d="M7.00065 9.33203C6.82384 9.33203 6.65427 9.40227 6.52925 9.52729C6.40422 9.65232 6.33398 9.82189 6.33398 9.9987V11.332C6.33398 11.5089 6.40422 11.6784 6.52925 11.8034C6.65427 11.9285 6.82384 11.9987 7.00065 11.9987C7.17746 11.9987 7.34703 11.9285 7.47206 11.8034C7.59708 11.6784 7.66732 11.5089 7.66732 11.332V9.9987C7.66732 9.82189 7.59708 9.65232 7.47206 9.52729C7.34703 9.40227 7.17746 9.33203 7.00065 9.33203Z" fill="#373A4C"/>
</svg>
