<svg width="8" height="8" viewBox="0 0 8 8" fill="none" xmlns="http://www.w3.org/2000/svg">
    <path d="M7.7268 0.273202C7.55182 0.0982708 7.31452 0 7.06709 0C6.81966 0 6.58237 0.0982708 6.40738 0.273202L3.99437 2.68622L1.58135 0.273202C1.40536 0.103228 1.16966 0.00917637 0.925 0.0113024C0.680342 0.0134284 0.446307 0.111562 0.273301 0.284568C0.100295 0.457574 0.00216129 0.691609 3.52739e-05 0.936267C-0.00209074 1.18093 0.0919613 1.41663 0.261934 1.59262L2.67495 4.00563L0.261934 6.41865C0.0919613 6.59464 -0.00209074 6.83034 3.52739e-05 7.075C0.00216129 7.31966 0.100295 7.55369 0.273301 7.7267C0.446307 7.89971 0.680342 7.99784 0.925 7.99997C1.16966 8.00209 1.40536 7.90804 1.58135 7.73807L3.99437 5.32505L6.40738 7.73807C6.58337 7.90804 6.81908 8.00209 7.06373 7.99997C7.30839 7.99784 7.54243 7.89971 7.71543 7.7267C7.88844 7.55369 7.98657 7.31966 7.9887 7.075C7.99082 6.83034 7.89677 6.59464 7.7268 6.41865L5.31378 4.00563L7.7268 1.59262C7.90173 1.41763 8 1.18034 8 0.932909C8 0.685482 7.90173 0.448185 7.7268 0.273202Z" fill="#E04265"/>
</svg>
