<svg width="16" height="16" viewBox="0 0 16 16" fill="none" xmlns="http://www.w3.org/2000/svg">
    <path d="M0 8C0 12.411 3.5887 16 8 16C10.1387 16 12.1479 15.1683 13.658 13.658C15.1683 12.1476 16 10.1387 16 8C16 3.5887 12.4113 0 8 0C5.86133 0 3.85205 0.831706 2.34196 2.34196C0.831705 3.85205 0 5.86133 0 8ZM1.33333 8C1.33333 6.44206 1.86296 4.96663 2.83659 3.7793L12.2207 13.1634C11.0334 14.137 9.55794 14.6667 8 14.6667C4.32406 14.6667 1.33333 11.6759 1.33333 8ZM14.6667 8C14.6667 9.55762 14.137 11.0334 13.1634 12.2204L3.7793 2.83659C4.96663 1.86296 6.44206 1.33333 8 1.33333C11.6759 1.33333 14.6667 4.32406 14.6667 8Z" fill="#E04265"/>
</svg>