<svg 
 xmlns="http://www.w3.org/2000/svg"
 xmlns:xlink="http://www.w3.org/1999/xlink"
 width="49px" height="50px">
<path fill-rule="evenodd"  fill="rgb(104, 53, 146)"
 d="M43.692,49.999 L5.307,49.999 C2.376,49.999 -0.000,47.649 -0.000,44.749 L-0.000,11.312 C-0.000,8.412 2.376,6.060 5.307,6.060 L9.187,6.060 L9.187,1.515 C9.187,0.678 9.873,-0.000 10.718,-0.000 C11.564,-0.000 12.250,0.678 12.250,1.515 L12.250,6.060 L35.984,6.060 L35.984,1.515 C35.984,0.678 36.670,-0.000 37.516,-0.000 C38.361,-0.000 39.047,0.678 39.047,1.515 L39.047,6.060 L43.693,6.060 C46.623,6.060 49.000,8.412 49.000,11.312 L49.000,44.749 C49.000,47.649 46.623,49.999 43.692,49.999 ZM5.307,46.969 L43.693,46.969 C44.933,46.969 45.937,45.975 45.937,44.749 L45.937,20.454 L3.062,20.454 L3.062,44.749 C3.062,45.975 4.067,46.969 5.307,46.969 ZM43.692,9.090 L39.047,9.090 L39.047,12.878 C39.047,13.716 38.361,14.394 37.516,14.394 C36.670,14.394 35.984,13.715 35.984,12.878 L35.984,9.090 L12.250,9.090 L12.250,12.878 C12.250,13.716 11.564,14.394 10.718,14.394 C9.873,14.394 9.187,13.715 9.187,12.878 L9.187,9.090 L5.307,9.090 C4.067,9.090 3.062,10.085 3.062,11.312 L3.062,18.939 L45.937,18.939 L45.937,11.312 C45.937,10.085 44.933,9.090 43.692,9.090 ZM10.562,25.757 L11.327,25.757 C11.751,25.757 12.093,26.096 12.093,26.515 C12.093,26.934 11.751,27.272 11.327,27.272 L10.562,27.272 C10.138,27.272 9.796,26.934 9.796,26.515 C9.796,26.096 10.138,25.757 10.562,25.757 ZM10.562,30.303 L11.327,30.303 C11.751,30.303 12.093,30.641 12.093,31.060 C12.093,31.479 11.751,31.818 11.327,31.818 L10.562,31.818 C10.138,31.818 9.796,31.479 9.796,31.060 C9.796,30.641 10.138,30.303 10.562,30.303 ZM10.562,34.848 L11.327,34.848 C11.751,34.848 12.093,35.187 12.093,35.606 C12.093,36.025 11.751,36.363 11.327,36.363 L10.562,36.363 C10.138,36.363 9.796,36.025 9.796,35.606 C9.796,35.187 10.138,34.848 10.562,34.848 ZM10.562,39.394 L11.327,39.394 C11.751,39.394 12.093,39.732 12.093,40.151 C12.093,40.570 11.751,40.909 11.327,40.909 L10.562,40.909 C10.138,40.909 9.796,40.570 9.796,40.151 C9.796,39.732 10.138,39.394 10.562,39.394 ZM15.921,25.757 L16.686,25.757 C17.110,25.757 17.452,26.096 17.452,26.515 C17.452,26.934 17.110,27.272 16.686,27.272 L15.921,27.272 C15.497,27.272 15.155,26.934 15.155,26.515 C15.155,26.096 15.497,25.757 15.921,25.757 ZM15.921,30.303 L16.686,30.303 C17.110,30.303 17.452,30.641 17.452,31.060 C17.452,31.479 17.110,31.818 16.686,31.818 L15.921,31.818 C15.497,31.818 15.155,31.479 15.155,31.060 C15.155,30.641 15.497,30.303 15.921,30.303 ZM15.921,34.848 L16.686,34.848 C17.110,34.848 17.452,35.187 17.452,35.606 C17.452,36.025 17.110,36.363 16.686,36.363 L15.921,36.363 C15.497,36.363 15.155,36.025 15.155,35.606 C15.155,35.187 15.497,34.848 15.921,34.848 ZM15.921,39.394 L16.686,39.394 C17.110,39.394 17.452,39.732 17.452,40.151 C17.452,40.570 17.110,40.909 16.686,40.909 L15.921,40.909 C15.497,40.909 15.155,40.570 15.155,40.151 C15.155,39.732 15.497,39.394 15.921,39.394 ZM21.280,25.757 L22.046,25.757 C22.469,25.757 22.812,26.096 22.812,26.515 C22.812,26.934 22.469,27.272 22.046,27.272 L21.280,27.272 C20.857,27.272 20.514,26.934 20.514,26.515 C20.514,26.096 20.857,25.757 21.280,25.757 ZM21.280,30.303 L22.046,30.303 C22.469,30.303 22.812,30.641 22.812,31.060 C22.812,31.479 22.469,31.818 22.046,31.818 L21.280,31.818 C20.857,31.818 20.514,31.479 20.514,31.060 C20.514,30.641 20.857,30.303 21.280,30.303 ZM21.280,34.848 L22.046,34.848 C22.469,34.848 22.812,35.187 22.812,35.606 C22.812,36.025 22.469,36.363 22.046,36.363 L21.280,36.363 C20.857,36.363 20.514,36.025 20.514,35.606 C20.514,35.187 20.857,34.848 21.280,34.848 ZM21.280,39.394 L22.046,39.394 C22.469,39.394 22.812,39.732 22.812,40.151 C22.812,40.570 22.469,40.909 22.046,40.909 L21.280,40.909 C20.857,40.909 20.514,40.570 20.514,40.151 C20.514,39.732 20.857,39.394 21.280,39.394 ZM25.874,25.757 L26.640,25.757 C27.063,25.757 27.405,26.096 27.405,26.515 C27.405,26.934 27.063,27.272 26.640,27.272 L25.874,27.272 C25.451,27.272 25.109,26.934 25.109,26.515 C25.109,26.096 25.451,25.757 25.874,25.757 ZM25.874,30.303 L26.640,30.303 C27.063,30.303 27.405,30.641 27.405,31.060 C27.405,31.479 27.063,31.818 26.640,31.818 L25.874,31.818 C25.451,31.818 25.109,31.479 25.109,31.060 C25.109,30.641 25.451,30.303 25.874,30.303 ZM25.874,34.848 L26.640,34.848 C27.063,34.848 27.405,35.187 27.405,35.606 C27.405,36.025 27.063,36.363 26.640,36.363 L25.874,36.363 C25.451,36.363 25.109,36.025 25.109,35.606 C25.109,35.187 25.451,34.848 25.874,34.848 ZM25.874,39.394 L26.640,39.394 C27.063,39.394 27.405,39.732 27.405,40.151 C27.405,40.570 27.063,40.909 26.640,40.909 L25.874,40.909 C25.451,40.909 25.109,40.570 25.109,40.151 C25.109,39.732 25.451,39.394 25.874,39.394 ZM31.233,25.757 L31.999,25.757 C32.422,25.757 32.765,26.096 32.765,26.515 C32.765,26.934 32.422,27.272 31.999,27.272 L31.233,27.272 C30.810,27.272 30.468,26.934 30.468,26.515 C30.468,26.096 30.810,25.757 31.233,25.757 ZM31.233,30.303 L31.999,30.303 C32.422,30.303 32.765,30.641 32.765,31.060 C32.765,31.479 32.422,31.818 31.999,31.818 L31.233,31.818 C30.810,31.818 30.468,31.479 30.468,31.060 C30.468,30.641 30.810,30.303 31.233,30.303 ZM31.233,34.848 L31.999,34.848 C32.422,34.848 32.765,35.187 32.765,35.606 C32.765,36.025 32.422,36.363 31.999,36.363 L31.233,36.363 C30.810,36.363 30.468,36.025 30.468,35.606 C30.468,35.187 30.810,34.848 31.233,34.848 ZM35.826,43.181 L40.657,43.181 C41.415,43.181 41.951,43.053 41.951,41.394 C41.951,40.975 42.372,40.637 42.796,40.637 C43.219,40.637 43.640,40.975 43.640,41.394 L43.640,41.666 C43.640,41.711 43.558,41.753 43.551,41.796 C43.438,43.721 42.414,44.696 40.657,44.696 L35.826,44.696 C35.403,44.696 35.061,44.358 35.061,43.939 C35.061,43.520 35.403,43.181 35.826,43.181 ZM42.779,38.947 C42.572,38.947 42.380,38.863 42.235,38.727 C42.097,38.584 42.014,38.394 42.014,38.190 C42.014,37.991 42.097,37.795 42.235,37.651 C42.519,37.371 43.032,37.371 43.323,37.651 C43.461,37.794 43.545,37.991 43.545,38.190 C43.545,38.387 43.461,38.584 43.323,38.727 C43.177,38.862 42.978,38.947 42.779,38.947 ZM37.358,36.363 L36.593,36.363 C36.169,36.363 35.827,36.025 35.827,35.606 C35.827,35.187 36.169,34.848 36.593,34.848 L37.358,34.848 C37.782,34.848 38.124,35.187 38.124,35.606 C38.124,36.025 37.782,36.363 37.358,36.363 ZM37.358,31.818 L36.593,31.818 C36.169,31.818 35.827,31.479 35.827,31.060 C35.827,30.641 36.169,30.303 36.593,30.303 L37.358,30.303 C37.782,30.303 38.124,30.641 38.124,31.060 C38.124,31.479 37.782,31.818 37.358,31.818 ZM37.358,27.272 L36.593,27.272 C36.169,27.272 35.827,26.934 35.827,26.515 C35.827,26.096 36.169,25.757 36.593,25.757 L37.358,25.757 C37.782,25.757 38.124,26.096 38.124,26.515 C38.124,26.934 37.782,27.272 37.358,27.272 Z"/>
</svg>