<svg width="50" height="50" viewBox="0 0 50 50" fill="none" xmlns="http://www.w3.org/2000/svg">
<g clip-path="url(#clip0)">
<path d="M28.8997 10.2184C27.2684 8.8589 24.9562 7.98992 22.0274 7.63563C19.6717 7.35053 17.4193 7.45925 15.9445 7.6006C14.7865 7.71152 13.9133 8.67525 13.9133 9.84235V11.537C13.9133 11.9335 14.2346 12.2547 14.6311 12.2547C15.0276 12.2547 15.3489 11.9335 15.3489 11.537V9.84235C15.3489 9.41905 15.6637 9.06964 16.0814 9.02964C18.5486 8.79306 24.647 8.54289 27.9807 11.3211C28.2853 11.575 28.7378 11.5339 28.9916 11.2293C29.2453 10.9247 29.2043 10.4721 28.8997 10.2184Z" fill="white"/>
<path d="M11.1134 37.4184L10.6702 36.5318C10.493 36.1772 10.0618 36.0333 9.70725 36.2108C9.35267 36.388 9.20893 36.8191 9.38627 37.1737L9.82947 38.0603C9.99178 38.385 10.0776 38.7484 10.0776 39.1115V42.9901C10.0776 43.3866 10.3989 43.7079 10.7954 43.7079C11.1919 43.7079 11.5132 43.3866 11.5132 42.9901V39.1115C11.5132 38.5267 11.375 37.9412 11.1134 37.4184Z" fill="white"/>
<path d="M36.1119 30.7646C31.0629 30.7646 26.9553 34.8723 26.9553 39.9212C26.9553 44.9702 31.0629 49.0779 36.1119 49.0779C41.1609 49.0779 45.2686 44.9702 45.2686 39.9212C45.2686 34.8722 41.1609 30.7646 36.1119 30.7646ZM36.1119 47.6422C31.8545 47.6422 28.3909 44.1786 28.3909 39.9211C28.3909 35.6637 31.8545 32.2001 36.1119 32.2001C40.3693 32.2001 43.833 35.6637 43.833 39.9211C43.833 44.1786 40.3694 47.6422 36.1119 47.6422Z" fill="white"/>
<path d="M29.2076 0.078125H19.2342C17.8126 0.078125 16.4496 0.652821 15.4514 1.66411C12.8463 2.01678 10.8449 4.27776 10.8449 6.93323V9.06903C10.8449 10.2557 10.9909 11.4412 11.2787 12.5924L11.612 13.9261V16.601C11.612 19.854 13.1181 22.7779 15.4479 24.6584V27.2149C15.0317 27.2641 14.6402 27.4901 14.3881 27.8684L13.3976 29.3541L8.21006 31.2405C6.11502 32.0022 4.70752 34.0117 4.70752 36.2409V42.99C4.70752 43.3865 5.02879 43.7078 5.42529 43.7078C5.82179 43.7078 6.14306 43.3865 6.14306 42.99V36.2409C6.14306 34.6132 7.17082 33.1459 8.70063 32.5898L13.5971 30.8092L16.5894 34.9986C16.8436 35.3546 17.2393 35.5793 17.6753 35.6154C17.7165 35.6189 17.7576 35.6206 17.7986 35.6206C18.1909 35.6206 18.5678 35.4656 18.8479 35.1856L19.2966 34.7369C19.3385 35.0711 19.4908 35.3715 19.7172 35.5988L19.2849 42.948C19.2616 43.3437 19.5636 43.6834 19.9593 43.7067C19.9737 43.7076 19.9879 43.708 20.0021 43.708C20.3792 43.708 20.6956 43.4137 20.718 43.0323L21.1295 36.0362H21.942L22.3535 43.0323C22.3759 43.4137 22.6923 43.708 23.0694 43.708C23.0835 43.708 23.0978 43.7076 23.1122 43.7067C23.5079 43.6834 23.8098 43.3437 23.7866 42.948L23.3543 35.5988C23.5807 35.3715 23.733 35.0711 23.775 34.7369L24.2236 35.1856C24.5037 35.4657 24.8805 35.6207 25.2729 35.6207C25.3138 35.6207 25.3549 35.6189 25.3961 35.6155C25.832 35.5795 26.2278 35.3546 26.4819 34.9988L29.7915 30.3656C29.9649 30.123 29.97 29.7984 29.8047 29.5502L28.6836 27.8686C28.4314 27.4901 28.04 27.2641 27.6237 27.2149V24.7446C27.9236 24.5106 28.2124 24.2585 28.4881 23.9879C30.4042 22.1065 31.4596 19.5915 31.4596 16.9064V13.9261L31.7929 12.5925C32.0807 11.4416 32.2266 10.2561 32.2266 9.06903V3.09746C32.2268 1.43251 30.8723 0.078125 29.2076 0.078125ZM17.8328 34.1704C17.8284 34.1748 17.8161 34.1859 17.7938 34.1847C17.7711 34.1828 17.7614 34.1693 17.7577 34.1642L14.7362 29.9341L15.5825 28.6646C15.5974 28.6424 15.6268 28.6357 15.6499 28.6501L20.3904 31.613L17.8328 34.1704ZM22.303 34.6007H20.7687C20.7415 34.6007 20.7193 34.5786 20.7193 34.5513V33.3143L21.5358 32.4978L22.3524 33.3143V34.5513H22.3525C22.3525 34.5785 22.3304 34.6007 22.303 34.6007ZM21.5359 30.6362L16.8835 27.7283V25.6255C18.2222 26.3661 19.7412 26.7991 21.3504 26.8285C21.413 26.8297 21.4754 26.8303 21.5379 26.8303C23.1859 26.8302 24.7722 26.4314 26.1883 25.6776V27.7266C26.1883 27.7272 26.1884 27.7279 26.1884 27.7284L21.5359 30.6362ZM28.3355 29.9342L25.314 34.1644C25.3104 34.1694 25.3007 34.1829 25.278 34.1848C25.254 34.1861 25.2435 34.1749 25.2391 34.1705L22.6815 31.6131L27.4219 28.6502C27.4443 28.6363 27.4746 28.6428 27.4892 28.6647L28.3355 29.9342ZM30.7913 9.06903C30.7913 10.1388 30.6598 11.2071 30.4003 12.2445L30.0455 13.6637C30.0314 13.7207 30.0241 13.7791 30.0241 13.8377V16.9063C30.0241 19.203 29.1214 21.3541 27.4823 22.9635C25.8438 24.5724 23.6723 25.4378 21.3765 25.3931C16.7839 25.3091 13.0476 21.3649 13.0476 16.601V13.8377C13.0476 13.7791 13.0404 13.7206 13.0261 13.6637L12.6713 12.2444C12.4119 11.2068 12.2804 10.1385 12.2804 9.06903V6.93323C12.2804 4.92481 13.8487 3.22541 15.8506 3.06444C16.0354 3.04961 16.2072 2.96386 16.3302 2.82528C17.0695 1.99171 18.1279 1.51367 19.2342 1.51367H29.2076C30.0808 1.51367 30.7913 2.22417 30.7913 3.09746V9.06903Z" fill="white"/>
<path d="M35.7583 45.0921C35.9535 45.2874 36.2701 45.2874 36.4654 45.0921L39.6474 41.9101C39.8426 41.7149 39.8426 41.3983 39.6474 41.203C39.4521 41.0078 39.1355 41.0078 38.9402 41.203L36.1118 44.0314L33.2834 41.203C33.0881 41.0078 32.7715 41.0078 32.5763 41.203C32.381 41.3983 32.381 41.7149 32.5763 41.9101L35.7583 45.0921ZM35.6118 35.1045L35.6118 44.7386L36.6118 44.7386L36.6118 35.1045L35.6118 35.1045Z" fill="white"/>
</g>
<defs>
<clipPath id="clip0">
<rect x="0.488037" y="0.078125" width="49" height="49" fill="white"/>
</clipPath>
</defs>
</svg>
