<svg width="23" height="23" viewBox="0 0 23 23" fill="none" xmlns="http://www.w3.org/2000/svg">
  <path d="M20.4635 8.39238C20.1335 8.39238 19.8035 8.50238 19.5468 8.72238V8.39238C19.5468 7.51238 18.8502 6.55904 17.8968 6.55904C17.5668 6.55904 17.2368 6.66903 16.9802 6.88904C16.9802 6.04569 16.2468 5.09238 15.3302 5.09238C15.0002 5.09238 14.6702 5.20238 14.4135 5.42238V2.52573C14.4135 1.64573 13.7168 0.692383 12.7635 0.692383C11.8101 0.692383 11.1135 1.64573 11.1135 2.52573V10.2991C10.7835 9.60243 10.3435 8.94243 9.90349 8.50243C9.31684 7.91577 8.14349 7.87908 7.48349 8.42908C7.30015 8.61243 6.67684 9.27243 7.52015 10.4457C8.29015 11.5457 8.91349 13.9657 8.91349 15.3591C8.91349 18.2924 10.8201 19.6124 11.4801 19.9791V22.3257C11.4801 22.5457 11.6268 22.6924 11.8468 22.6924C12.0668 22.6924 12.2135 22.5457 12.2135 22.3257V19.7591C12.2135 19.6124 12.1401 19.5024 11.9935 19.4291C11.8835 19.3924 9.6468 18.3291 9.6468 15.3591C9.6468 14.0024 9.06015 11.3257 8.1068 10.0057C7.85015 9.67573 7.63015 9.23573 7.96015 8.97908C8.3268 8.68573 9.06015 8.68573 9.39015 9.01573C10.3068 9.93238 11.1135 11.8757 11.1135 12.7924C11.1135 13.0124 11.2601 13.159 11.4801 13.159C11.7001 13.159 11.8468 13.0124 11.8468 12.7924V2.52573C11.8468 2.01238 12.2501 1.42573 12.7635 1.42573C13.2768 1.42573 13.6801 2.01238 13.6801 2.52573V10.5924C13.6801 10.8124 13.8268 10.959 14.0468 10.959C14.2668 10.959 14.4134 10.8124 14.4134 10.5924V6.92573C14.4134 6.41238 14.8168 5.82573 15.3301 5.82573C15.8434 5.82573 16.2467 6.41238 16.2467 6.92573V10.9591C16.2467 11.1791 16.3934 11.3257 16.6134 11.3257C16.8334 11.3257 16.98 11.1791 16.98 10.9591V8.39238C16.98 7.87903 17.3834 7.29238 17.8967 7.29238C18.41 7.29238 18.8133 7.87903 18.8133 8.39238V10.1524C18.8133 10.189 18.8133 10.189 18.8133 10.2257V11.6924C18.8133 11.9124 18.96 12.059 19.18 12.059C19.4 12.059 19.5466 11.9124 19.5466 11.6924V10.1524C19.5833 9.67573 19.9866 9.12573 20.4633 9.12573C20.9766 9.12573 21.3799 9.71238 21.3799 10.2257V15.3591C21.3799 18.1457 21.3799 18.1457 20.3533 19.5391C20.2799 19.6124 20.2799 19.7224 20.2799 19.7957V22.3257C20.2799 22.5457 20.4266 22.6924 20.6466 22.6924C20.8666 22.6924 21.0132 22.5457 21.0132 22.3257V19.8691C22.1132 18.4024 22.1132 18.2191 22.1132 15.3591V10.2257C22.1135 9.34573 21.4168 8.39238 20.4635 8.39238Z" fill="black"/>
  <path d="M3.30359 2.41573L3.78024 1.93908V3.25908C3.78024 3.47908 3.9269 3.62573 4.1469 3.62573C4.3669 3.62573 4.51355 3.47908 4.51355 3.25908V1.93908L4.9902 2.41573C5.06355 2.48908 5.13685 2.52573 5.24685 2.52573C5.35685 2.52573 5.4302 2.48908 5.50351 2.41573C5.65016 2.26908 5.65016 2.04908 5.50351 1.90238L4.46633 0.865117C4.40638 0.757309 4.29299 0.692383 4.14694 0.692383C4.00089 0.692383 3.88749 0.757309 3.82755 0.865117L2.79029 1.90238C2.64363 2.04904 2.64363 2.26904 2.79029 2.41573C2.93694 2.56243 3.15694 2.56238 3.30359 2.41573Z" fill="black"/>
  <path d="M4.99021 7.03568L4.51356 7.51233V6.19234C4.51356 5.97234 4.3669 5.82568 4.1469 5.82568C3.9269 5.82568 3.78025 5.97234 3.78025 6.19234V7.51233L3.30356 7.03568C3.1569 6.88903 2.9369 6.88903 2.79021 7.03568C2.64351 7.18234 2.64356 7.40234 2.79021 7.54903L3.82747 8.5863C3.88741 8.6941 4.00081 8.75903 4.1469 8.75903C4.29295 8.75903 4.40635 8.6941 4.46633 8.5863L5.5036 7.54903C5.65025 7.40238 5.65025 7.18238 5.5036 7.03568C5.35695 6.88899 5.1369 6.88899 4.99021 7.03568Z" fill="black"/>
  <path d="M8.18029 4.72547C8.18029 4.72547 8.18029 4.72543 8.18029 4.72547C8.18029 4.57942 8.11537 4.46603 8.00756 4.40604L6.97029 3.36878C6.82364 3.22213 6.60364 3.22213 6.45695 3.36878C6.31025 3.51543 6.31029 3.73543 6.45695 3.88213L6.9336 4.35878H5.61364C5.39364 4.35878 5.24699 4.50543 5.24699 4.72543C5.24699 4.94543 5.39364 5.09208 5.61364 5.09208H6.93364L6.45699 5.56874C6.31034 5.71539 6.31034 5.93539 6.45699 6.08208C6.53034 6.15543 6.60364 6.19208 6.71364 6.19208C6.82364 6.19208 6.89699 6.15543 6.97029 6.08208L8.00756 5.04482C8.11541 4.98492 8.18029 4.87152 8.18029 4.72547Z" fill="black"/>
  <path d="M1.36018 5.09214H2.68018C2.90018 5.09214 3.04683 4.94549 3.04683 4.72549C3.04683 4.50549 2.90018 4.35884 2.68018 4.35884H1.36018L1.83687 3.88214C1.98353 3.73549 1.98353 3.51549 1.83687 3.36879C1.69022 3.2221 1.47022 3.22214 1.32353 3.36879L0.28626 4.40606C0.178451 4.466 0.113525 4.5794 0.113525 4.72545C0.113525 4.8715 0.178451 4.98489 0.28626 5.04488L1.32353 6.08214C1.39687 6.15549 1.47018 6.19214 1.58018 6.19214C1.69018 6.19214 1.76353 6.15549 1.83683 6.08214C1.98348 5.93549 1.98348 5.71549 1.83683 5.56879L1.36018 5.09214Z" fill="black"/>
</svg>
