<svg width="45" height="45" viewBox="0 0 45 45" fill="none" xmlns="http://www.w3.org/2000/svg">
<g clip-path="url(#clip0)">
<path d="M22.7641 20.144C22.657 20.144 22.5507 20.1204 22.4517 20.0738L9.98502 14.1627C9.72835 14.0408 9.56409 13.7799 9.56409 13.494C9.56409 13.208 9.72835 12.9472 9.98502 12.8253L22.4517 6.91413C22.6497 6.82029 22.8785 6.82029 23.0765 6.91413L35.5432 12.8253C35.7998 12.9472 35.9641 13.208 35.9641 13.494C35.9641 13.7799 35.7998 14.0408 35.5432 14.1627L23.0765 20.0738C22.9775 20.1204 22.8712 20.144 22.7641 20.144ZM12.02 13.494L22.7641 18.5887L33.5082 13.494L22.7641 8.39931L12.02 13.494Z" fill="white"/>
<path d="M22.764 26.0555C22.6518 26.0555 22.5389 26.0296 22.4362 25.9779L13.6362 21.5446C13.3876 21.4189 13.2307 21.1633 13.2307 20.8832V15.2329C13.2307 14.9802 13.359 14.7445 13.571 14.6093C13.7829 14.4733 14.0491 14.4578 14.2757 14.5642L22.764 18.589L31.2516 14.5642C31.479 14.4571 31.7452 14.4733 31.9564 14.6093C32.169 14.7445 32.2974 14.9802 32.2974 15.2329V20.8832C32.2974 21.1633 32.1404 21.4189 31.8918 21.5446L23.0918 25.9779C22.9892 26.0296 22.8762 26.0555 22.764 26.0555ZM14.6974 20.4266L22.764 24.4905L30.8307 20.4266V16.3974L23.0764 20.0742C22.8784 20.168 22.6496 20.168 22.4516 20.0742L14.6974 16.3974V20.4266Z" fill="white"/>
<path d="M35.2306 14.2317H22.764C22.3592 14.2317 22.0306 13.9007 22.0306 13.4928C22.0306 13.0849 22.3592 12.7539 22.764 12.7539H35.2306C35.6354 12.7539 35.964 13.0849 35.964 13.4928C35.964 13.9007 35.6354 14.2317 35.2306 14.2317Z" fill="white"/>
<path d="M35.2306 20.8817C34.8258 20.8817 34.4973 20.5507 34.4973 20.1429V13.4928C34.4973 13.0849 34.8258 12.7539 35.2306 12.7539C35.6354 12.7539 35.964 13.0849 35.964 13.4928V20.1429C35.964 20.5507 35.6354 20.8817 35.2306 20.8817Z" fill="white"/>
<path d="M22.764 15.7107C22.3592 15.7107 22.0306 15.3797 22.0306 14.9718V12.0162C22.0306 11.6084 22.3592 11.2773 22.764 11.2773C23.1688 11.2773 23.4973 11.6084 23.4973 12.0162V14.9718C23.4973 15.3797 23.1688 15.7107 22.764 15.7107Z" fill="white"/>
<path d="M33.7633 23.0995C33.6239 23.0995 33.4824 23.0596 33.357 22.9754C33.0204 22.7493 32.9295 22.2904 33.1539 21.9505L34.6205 19.7339C34.8449 19.394 35.2996 19.3016 35.6377 19.5292C35.9743 19.7553 36.0652 20.2141 35.8408 20.554L34.3741 22.7707C34.2326 22.9842 34.0001 23.0995 33.7633 23.0995Z" fill="white"/>
<path d="M36.6981 23.0995C36.4612 23.0995 36.2287 22.9842 36.0872 22.7707L34.6205 20.554C34.3961 20.2149 34.4871 19.7553 34.8237 19.5292C35.1603 19.3016 35.6157 19.394 35.8408 19.7339L37.3075 21.9505C37.5319 22.2897 37.4409 22.7493 37.1043 22.9754C36.9789 23.0596 36.8374 23.0995 36.6981 23.0995Z" fill="white"/>
<path d="M22.764 22.3605C22.3592 22.3605 22.0306 22.0295 22.0306 21.6216V19.4049C22.0306 18.997 22.3592 18.666 22.764 18.666C23.1688 18.666 23.4973 18.997 23.4973 19.4049V21.6216C23.4973 22.0295 23.1688 22.3605 22.764 22.3605Z" fill="white"/>
<path d="M44.0307 29.0096H1.49737C1.09257 29.0096 0.764038 28.6786 0.764038 28.2707V3.88796C0.764038 2.25796 2.08037 0.931641 3.6981 0.931641H41.83C43.4477 0.931641 44.764 2.25796 44.764 3.88796V28.2707C44.764 28.6786 44.4355 29.0096 44.0307 29.0096ZM2.2307 27.5318H43.2974V3.88796C43.2974 3.07222 42.6396 2.40943 41.83 2.40943H3.6981C2.8885 2.40943 2.2307 3.07222 2.2307 3.88796V27.5318Z" fill="white"/>
<path d="M41.83 34.9221H3.6981C2.08037 34.9221 0.764038 33.5958 0.764038 31.9658V28.2721C0.764038 27.8642 1.09257 27.5332 1.49737 27.5332H44.0307C44.4355 27.5332 44.764 27.8642 44.764 28.2721V31.9658C44.764 33.5958 43.4477 34.9221 41.83 34.9221ZM2.2307 29.011V31.9658C2.2307 32.7816 2.8885 33.4444 3.6981 33.4444H41.83C42.6396 33.4444 43.2974 32.7816 43.2974 31.9658V29.011H2.2307Z" fill="white"/>
<path d="M24.964 31.9661H20.564C20.1592 31.9661 19.8307 31.635 19.8307 31.2272C19.8307 30.8193 20.1592 30.4883 20.564 30.4883H24.964C25.3688 30.4883 25.6974 30.8193 25.6974 31.2272C25.6974 31.635 25.3688 31.9661 24.964 31.9661Z" fill="white"/>
<path d="M41.0974 29.0091H4.43072C4.02592 29.0091 3.69739 28.6781 3.69739 28.2702V4.62561C3.69739 4.21774 4.02592 3.88672 4.43072 3.88672H41.0974C41.5022 3.88672 41.8307 4.21774 41.8307 4.62561V28.2702C41.8307 28.6781 41.5022 29.0091 41.0974 29.0091ZM5.16405 27.5313H40.3641V5.36451H5.16405V27.5313Z" fill="white"/>
<path d="M32.2974 43.7888H13.2308C12.0178 43.7888 11.0308 42.7943 11.0308 41.5721C11.0308 40.35 12.0178 39.3555 13.2308 39.3555H32.2974C33.5104 39.3555 34.4974 40.35 34.4974 41.5721C34.4974 42.7943 33.5104 43.7888 32.2974 43.7888ZM13.2308 40.8333C12.8267 40.8333 12.4974 41.165 12.4974 41.5721C12.4974 41.9793 12.8267 42.311 13.2308 42.311H32.2974C32.7015 42.311 33.0308 41.9793 33.0308 41.5721C33.0308 41.165 32.7015 40.8333 32.2974 40.8333H13.2308Z" fill="white"/>
<path d="M30.8307 40.8323H14.6973C14.2925 40.8323 13.964 40.5013 13.964 40.0934C13.964 39.6855 14.2925 39.3545 14.6973 39.3545C17.1305 39.3545 18.364 37.6144 18.364 34.1823C18.364 33.7744 18.6925 33.4434 19.0973 33.4434H26.4307C26.8355 33.4434 27.164 33.7744 27.164 34.1823C27.164 37.6144 28.3975 39.3545 30.8307 39.3545C31.2355 39.3545 31.564 39.6855 31.564 40.0934C31.564 40.5013 31.2355 40.8323 30.8307 40.8323ZM18.2694 39.3545H27.2593C26.3559 38.3467 25.8242 36.846 25.7179 34.9211H19.8109C19.7038 36.846 19.1729 38.3467 18.2694 39.3545Z" fill="white"/>
</g>
<defs>
<clipPath id="clip0">
<rect x="0.764038" y="0.193359" width="44" height="44.3337" fill="white"/>
</clipPath>
</defs>
</svg>
