<svg width="49" height="48" viewBox="0 0 49 48" fill="none" xmlns="http://www.w3.org/2000/svg">
<g clip-path="url(#clip0)">
<path d="M24.7486 14.7773C19.6635 14.7773 15.5264 18.9144 15.5264 23.9996C15.5264 29.0847 19.6635 33.2218 24.7486 33.2218C29.8337 33.2218 33.9708 29.0847 33.9708 23.9996C33.9708 18.9144 29.8338 14.7773 24.7486 14.7773ZM24.7486 31.8154C20.4389 31.8154 16.9328 28.3093 16.9328 23.9996C16.9328 19.6899 20.4389 16.1837 24.7486 16.1837C29.0583 16.1837 32.5645 19.6899 32.5645 23.9996C32.5646 28.3092 29.0582 31.8154 24.7486 31.8154Z" fill="white"/>
<path d="M43.9269 19.3562C43.4471 17.3652 42.6635 15.4753 41.5921 13.7241L45.003 10.3134L38.4354 3.74579L35.0247 7.15661C33.2733 6.08523 31.3836 5.30176 29.3925 4.82185V0H20.1047V4.82176C18.1136 5.30167 16.2237 6.08514 14.4726 7.15651L11.0618 3.7457L4.49426 10.3133L7.90508 13.724C6.83361 15.4753 6.05014 17.3652 5.57032 19.3561H0.748657V28.644H5.57042C6.05023 30.635 6.8337 32.5249 7.90517 34.2761L4.49435 37.6868L11.0619 44.2544L14.4727 40.8436C16.224 41.915 18.1137 42.6984 20.1048 43.1783V48.0001H29.3926V43.1783C31.3837 42.6984 33.2735 41.915 35.0248 40.8436L38.4355 44.2544L45.0031 37.6868L41.5922 34.2761C42.6637 32.5248 43.4472 30.635 43.927 28.644H48.7488V19.3562H43.9269ZM47.3425 27.2378H42.7947L42.6769 27.7959C42.211 30.0078 41.3467 32.0925 40.1085 33.9919L39.797 34.4697L43.0141 37.6868L38.4354 42.2656L35.2184 39.0485L34.7405 39.36C32.8409 40.5982 30.7563 41.4624 28.5445 41.9284L27.9863 42.0459V46.5939H21.511V42.046L20.9529 41.9285C18.7409 41.4625 16.6563 40.5983 14.7568 39.3601L14.279 39.0485L11.0619 42.2657L6.48317 37.6869L9.7003 34.4698L9.38886 33.9919C8.15061 32.0925 7.28633 30.0077 6.82039 27.796L6.70283 27.2378H2.155V20.7626H6.70292L6.82048 20.2044C7.28642 17.9924 8.1507 15.9078 9.38896 14.0084L9.70039 13.5306L6.48326 10.3135L11.062 5.7347L14.2791 8.95183L14.7569 8.6403C16.6565 7.40205 18.7411 6.53786 20.9529 6.07192L21.5111 5.95436V1.40635H27.9864V5.95436L28.5446 6.07192C30.7565 6.53786 32.8411 7.40205 34.7406 8.6403L35.2184 8.95183L38.4355 5.7347L43.0142 10.3135L39.7971 13.5306L40.1086 14.0084C41.3468 15.9079 42.2111 17.9926 42.677 20.2044L42.7946 20.7626H47.3425V27.2378Z" fill="white"/>
<path d="M19.5641 40.374C20.0814 40.5376 20.6126 40.678 21.1426 40.7913L21.4365 39.416C20.9502 39.3121 20.463 39.1833 19.9883 39.0332L19.5641 40.374Z" fill="white"/>
<path d="M12.6639 34.125L11.5865 35.0288C13.1774 36.9254 15.1973 38.4845 17.4281 39.5374L18.0283 38.2657C15.98 37.2989 14.125 35.8671 12.6639 34.125Z" fill="white"/>
<path d="M21.4074 8.5896L21.1108 7.21484C16.5574 8.19725 12.5433 11.0493 10.0979 15.0397L11.2969 15.7745C13.5425 12.1102 17.2278 9.49138 21.4074 8.5896Z" fill="white"/>
<path d="M24.7486 8.23642L24.8623 8.2368L24.872 6.83045L24.7487 6.83008C24.204 6.83008 23.6546 6.85586 23.1152 6.90677L23.2474 8.30692C23.7429 8.26014 24.248 8.23642 24.7486 8.23642Z" fill="white"/>
<path d="M39.5784 18.6384C40.1986 20.3539 40.5133 22.1578 40.5133 23.9998C40.5133 26.6407 39.8477 29.2532 38.5886 31.5548L39.8223 32.2297C41.1944 29.7218 41.9195 26.876 41.9195 23.9998C41.9195 21.9942 41.5768 20.0293 40.9008 18.1602L39.5784 18.6384Z" fill="white"/>
<path d="M36.4139 34.6054L37.4541 35.5516C37.8294 35.139 38.1886 34.7035 38.5217 34.2569L37.3945 33.416C37.0884 33.8262 36.7585 34.2264 36.4139 34.6054Z" fill="white"/>
<path d="M24.7486 10.3242C17.208 10.3242 11.0735 16.4589 11.0735 23.9994C11.0735 31.5399 17.2081 37.6745 24.7486 37.6745C32.2891 37.6745 38.4239 31.54 38.4239 23.9995C38.4239 16.459 32.2892 10.3242 24.7486 10.3242ZM24.7486 36.2684C17.9835 36.2684 12.4797 30.7646 12.4797 23.9995C12.4797 17.2344 17.9835 11.7306 24.7486 11.7306C31.5137 11.7306 37.0175 17.2345 37.0175 23.9995C37.0175 30.7645 31.5137 36.2684 24.7486 36.2684Z" fill="white"/>
</g>
<defs>
<clipPath id="clip0">
<rect x="0.748657" width="48" height="48" fill="white"/>
</clipPath>
</defs>
</svg>
