<svg width="48" height="48" viewBox="0 0 48 48" fill="none" xmlns="http://www.w3.org/2000/svg">
<path d="M44.25 1.5H3.75C3.15347 1.50068 2.58157 1.73795 2.15976 2.15976C1.73795 2.58157 1.50068 3.15347 1.5 3.75V44.25C1.50068 44.8465 1.73795 45.4184 2.15976 45.8402C2.58157 46.262 3.15347 46.4993 3.75 46.5H44.25C44.8465 46.4993 45.4184 46.262 45.8402 45.8402C46.262 45.4184 46.4993 44.8465 46.5 44.25V3.75C46.4993 3.15347 46.262 2.58157 45.8402 2.15976C45.4184 1.73795 44.8465 1.50068 44.25 1.5ZM45 44.25C44.9998 44.4488 44.9207 44.6395 44.7801 44.7801C44.6395 44.9207 44.4488 44.9998 44.25 45H3.75C3.55116 44.9998 3.36052 44.9207 3.21992 44.7801C3.07932 44.6395 3.00023 44.4488 3 44.25V3.75C3.00023 3.55116 3.07932 3.36052 3.21992 3.21992C3.36052 3.07932 3.55116 3.00023 3.75 3H44.25C44.4488 3.00023 44.6395 3.07932 44.7801 3.21992C44.9207 3.36052 44.9998 3.55116 45 3.75V44.25Z" fill="#373A4C"/>
<path d="M5.25 6C5.66421 6 6 5.66421 6 5.25C6 4.83579 5.66421 4.5 5.25 4.5C4.83579 4.5 4.5 4.83579 4.5 5.25C4.5 5.66421 4.83579 6 5.25 6Z" fill="#373A4C"/>
<path d="M7.5 6C7.91421 6 8.25 5.66421 8.25 5.25C8.25 4.83579 7.91421 4.5 7.5 4.5C7.08579 4.5 6.75 4.83579 6.75 5.25C6.75 5.66421 7.08579 6 7.5 6Z" fill="#373A4C"/>
<path d="M9.75 6C10.1642 6 10.5 5.66421 10.5 5.25C10.5 4.83579 10.1642 4.5 9.75 4.5C9.33579 4.5 9 4.83579 9 5.25C9 5.66421 9.33579 6 9.75 6Z" fill="#373A4C"/>
<path d="M23.25 20.25H20.25C20.1515 20.25 20.054 20.2694 19.963 20.3071C19.872 20.3448 19.7893 20.4 19.7197 20.4697C19.65 20.5393 19.5948 20.622 19.5571 20.713C19.5194 20.804 19.5 20.9015 19.5 21V24C19.5 24.0985 19.5194 24.196 19.5571 24.287C19.5948 24.378 19.65 24.4607 19.7197 24.5303C19.7893 24.6 19.872 24.6552 19.963 24.6929C20.054 24.7306 20.1515 24.75 20.25 24.75H23.25C23.3485 24.75 23.446 24.7306 23.537 24.6929C23.628 24.6552 23.7107 24.6 23.7803 24.5303C23.85 24.4607 23.9052 24.378 23.9429 24.287C23.9806 24.196 24 24.0985 24 24V21C24 20.9015 23.9806 20.804 23.9429 20.713C23.9052 20.622 23.85 20.5393 23.7803 20.4697C23.7107 20.4 23.628 20.3448 23.537 20.3071C23.446 20.2694 23.3485 20.25 23.25 20.25ZM22.5 23.25H21V21.75H22.5V23.25Z" fill="#373A4C"/>
<path d="M26.25 21.75H28.5V23.25H26.25V21.75Z" fill="#373A4C"/>
<path d="M30 21.75H40.5V23.25H30V21.75Z" fill="#373A4C"/>
<path d="M23.25 26.25H20.25C20.1515 26.25 20.054 26.2694 19.963 26.3071C19.872 26.3448 19.7893 26.4 19.7197 26.4697C19.65 26.5393 19.5948 26.622 19.5571 26.713C19.5194 26.804 19.5 26.9015 19.5 27V30C19.5 30.0985 19.5194 30.196 19.5571 30.287C19.5948 30.378 19.65 30.4607 19.7197 30.5303C19.7893 30.6 19.872 30.6552 19.963 30.6929C20.054 30.7306 20.1515 30.75 20.25 30.75H23.25C23.3485 30.75 23.446 30.7306 23.537 30.6929C23.628 30.6552 23.7107 30.6 23.7803 30.5303C23.85 30.4607 23.9052 30.378 23.9429 30.287C23.9806 30.196 24 30.0985 24 30V27C24 26.9015 23.9806 26.804 23.9429 26.713C23.9052 26.622 23.85 26.5393 23.7803 26.4697C23.7107 26.4 23.628 26.3448 23.537 26.3071C23.446 26.2694 23.3485 26.25 23.25 26.25ZM22.5 29.25H21V27.75H22.5V29.25Z" fill="#373A4C"/>
<path d="M26.25 27.75H28.5V29.25H26.25V27.75Z" fill="#373A4C"/>
<path d="M30 27.75H40.5V29.25H30V27.75Z" fill="#373A4C"/>
<path d="M23.25 32.25H20.25C20.1515 32.25 20.054 32.2694 19.963 32.3071C19.872 32.3448 19.7893 32.4 19.7197 32.4697C19.65 32.5393 19.5948 32.622 19.5571 32.713C19.5194 32.804 19.5 32.9015 19.5 33V36C19.5 36.0985 19.5194 36.196 19.5571 36.287C19.5948 36.378 19.65 36.4607 19.7197 36.5303C19.7893 36.6 19.872 36.6552 19.963 36.6929C20.054 36.7306 20.1515 36.75 20.25 36.75H23.25C23.3485 36.75 23.446 36.7306 23.537 36.6929C23.628 36.6552 23.7107 36.6 23.7803 36.5303C23.85 36.4607 23.9052 36.378 23.9429 36.287C23.9806 36.196 24 36.0985 24 36V33C24 32.9015 23.9806 32.804 23.9429 32.713C23.9052 32.622 23.85 32.5393 23.7803 32.4697C23.7107 32.4 23.628 32.3448 23.537 32.3071C23.446 32.2694 23.3485 32.25 23.25 32.25ZM22.5 35.25H21V33.75H22.5V35.25Z" fill="#373A4C"/>
<path d="M26.25 33.75H28.5V35.25H26.25V33.75Z" fill="#373A4C"/>
<path d="M30 33.75H40.5V35.25H30V33.75Z" fill="#373A4C"/>
<path d="M23.25 38.25H20.25C20.1515 38.25 20.054 38.2694 19.963 38.3071C19.872 38.3448 19.7893 38.4 19.7197 38.4697C19.65 38.5393 19.5948 38.622 19.5571 38.713C19.5194 38.804 19.5 38.9015 19.5 39V42C19.5 42.0985 19.5194 42.196 19.5571 42.287C19.5948 42.378 19.65 42.4607 19.7197 42.5303C19.7893 42.6 19.872 42.6552 19.963 42.6929C20.054 42.7306 20.1515 42.75 20.25 42.75H23.25C23.3485 42.75 23.446 42.7306 23.537 42.6929C23.628 42.6552 23.7107 42.6 23.7803 42.5303C23.85 42.4607 23.9052 42.378 23.9429 42.287C23.9806 42.196 24 42.0985 24 42V39C24 38.9015 23.9806 38.804 23.9429 38.713C23.9052 38.622 23.85 38.5393 23.7803 38.4697C23.7107 38.4 23.628 38.3448 23.537 38.3071C23.446 38.2694 23.3485 38.25 23.25 38.25ZM22.5 41.25H21V39.75H22.5V41.25Z" fill="#373A4C"/>
<path d="M26.25 39.75H28.5V41.25H26.25V39.75Z" fill="#373A4C"/>
<path d="M30 39.75H40.5V41.25H30V39.75Z" fill="#373A4C"/>
<path d="M42 9H6C5.90151 9 5.80398 9.01939 5.71298 9.05708C5.62199 9.09477 5.53931 9.15002 5.46966 9.21966C5.40002 9.28931 5.34477 9.37199 5.30708 9.46298C5.26939 9.55398 5.25 9.65151 5.25 9.75V42C5.25 42.0985 5.26939 42.196 5.30708 42.287C5.34477 42.378 5.40002 42.4607 5.46966 42.5303C5.53931 42.6 5.62199 42.6552 5.71298 42.6929C5.80398 42.7306 5.90151 42.75 6 42.75H16.5C16.5985 42.75 16.696 42.7306 16.787 42.6929C16.878 42.6552 16.9607 42.6 17.0303 42.5303C17.1 42.4607 17.1552 42.378 17.1929 42.287C17.2306 42.196 17.25 42.0985 17.25 42V18H42C42.0985 18 42.196 17.9806 42.287 17.9429C42.378 17.9052 42.4607 17.85 42.5303 17.7803C42.6 17.7107 42.6552 17.628 42.6929 17.537C42.7306 17.446 42.75 17.3485 42.75 17.25V9.75C42.75 9.65151 42.7306 9.55398 42.6929 9.46298C42.6552 9.37199 42.6 9.28931 42.5303 9.21966C42.4607 9.15002 42.378 9.09477 42.287 9.05708C42.196 9.01939 42.0985 9 42 9ZM15.75 41.25H6.75V18H15.75V41.25ZM41.25 16.5H6.75V10.5H41.25V16.5Z" fill="#373A4C"/>
</svg>
