<?xml version="1.0" standalone="no"?>
<!DOCTYPE svg PUBLIC "-//W3C//DTD SVG 20010904//EN"
 "http://www.w3.org/TR/2001/REC-SVG-20010904/DTD/svg10.dtd">
<svg version="1.0" xmlns="http://www.w3.org/2000/svg"
 width="512.000000pt" height="512.000000pt" viewBox="0 0 512.000000 512.000000"
 preserveAspectRatio="xMidYMid meet">

<g transform="translate(0.000000,512.000000) scale(0.100000,-0.100000)"
fill="#e04265" stroke="none">
<path d="M2285 4675 c-720 -95 -1346 -552 -1657 -1213 -93 -197 -163 -445
-188 -667 -13 -118 -13 -351 1 -473 52 -477 267 -922 613 -1268 238 -238 508
-406 821 -513 532 -180 1119 -142 1619 103 884 435 1356 1406 1150 2366 -86
402 -282 760 -578 1056 -347 347 -788 560 -1271 614 -122 13 -387 11 -510 -5z
m414 -415 c531 -47 1001 -327 1288 -766 511 -784 298 -1829 -479 -2350 -642
-431 -1479 -376 -2075 136 -391 335 -618 891 -574 1406 77 892 782 1557 1681
1583 25 0 96 -4 159 -9z"/>
<path d="M1746 3520 c-127 -41 -189 -185 -130 -304 9 -17 156 -172 327 -343
l312 -313 -312 -312 c-171 -172 -318 -327 -327 -344 -43 -87 -28 -175 43 -245
70 -71 158 -86 245 -43 17 9 172 156 344 327 l312 312 313 -312 c171 -171 328
-319 347 -329 41 -22 142 -24 180 -5 36 19 89 71 108 106 22 42 21 141 -2 185
-10 19 -158 176 -329 348 l-312 312 312 313 c171 171 318 326 327 343 43 87
28 175 -43 245 -70 71 -158 86 -245 43 -17 -9 -172 -156 -343 -327 l-313 -312
-312 312 c-172 171 -328 318 -346 327 -40 21 -117 29 -156 16z"/>
</g>
</svg>
