<?xml version="1.0" standalone="no"?>
<!DOCTYPE svg PUBLIC "-//W3C//DTD SVG 20010904//EN"
        "http://www.w3.org/TR/2001/REC-SVG-20010904/DTD/svg10.dtd">
<svg version="1.0" xmlns="http://www.w3.org/2000/svg"
     width="512.000000pt" height="512.000000pt" viewBox="0 0 512.000000 512.000000"
     preserveAspectRatio="xMidYMid meet">

    <g transform="translate(0.000000,512.000000) scale(0.100000,-0.100000)"
       fill="#5dce59" stroke="none">
        <path d="M2285 4675 c-720 -95 -1346 -552 -1657 -1213 -93 -197 -163 -445
-188 -667 -13 -118 -13 -351 1 -473 52 -477 267 -922 613 -1268 238 -238 508
-406 821 -513 532 -180 1119 -142 1619 103 884 435 1356 1406 1150 2366 -86
402 -282 760 -578 1056 -347 347 -788 560 -1271 614 -122 13 -387 11 -510 -5z
m414 -415 c531 -47 1001 -327 1288 -766 511 -784 298 -1829 -479 -2350 -642
-431 -1479 -376 -2075 136 -391 335 -618 891 -574 1406 77 892 782 1557 1681
1583 25 0 96 -4 159 -9z"/>
        <path d="M3340 3371 c-14 -4 -39 -15 -55 -24 -17 -9 -271 -257 -565 -551
l-535 -536 -160 159 c-89 89 -179 168 -202 180 -77 39 -176 23 -240 -39 -59
-55 -80 -160 -47 -238 18 -45 479 -512 539 -547 53 -31 103 -38 162 -24 46 11
79 43 691 653 515 514 645 649 658 683 37 96 -4 211 -93 261 -45 25 -115 35
-153 23z"/>
    </g>
</svg>
