<svg width="17" height="16" viewBox="0 0 17 16" fill="none" xmlns="http://www.w3.org/2000/svg">
  <path d="M14.4807 7.95129H13.3507C13.1167 7.95129 12.9269 8.14102 12.9269 8.37505V13.5272C12.9269 13.8007 12.7044 14.0232 12.4309 14.0232H2.55685C2.28344 14.0232 2.06105 13.8007 2.06105 13.5272V3.65333C2.06105 3.3798 2.28344 3.15724 2.55685 3.15724H7.97281C8.20684 3.15724 8.39657 2.96751 8.39657 2.73348V1.60345C8.39657 1.36942 8.20684 1.17969 7.97281 1.17969H2.55685C1.19302 1.17969 0.0834961 2.28938 0.0834961 3.65333V13.5273C0.0834961 14.8912 1.19307 16.0008 2.55685 16.0008H12.4308C13.7948 16.0008 14.9044 14.8911 14.9044 13.5273V8.3751C14.9045 8.14102 14.7147 7.95129 14.4807 7.95129Z" fill="#0772A0"/>
  <path d="M15.6596 0H11.1647C10.9307 0 10.741 0.189732 10.741 0.423762V1.55379C10.741 1.78782 10.9307 1.97755 11.1647 1.97755H12.7075L6.9022 7.78269C6.7367 7.94819 6.7367 8.21646 6.9022 8.38201L7.70124 9.18111C7.78074 9.26061 7.88849 9.30524 8.00093 9.30524C8.11331 9.30524 8.22111 9.26061 8.30056 9.18111L14.1058 3.37586V4.91852C14.1058 5.15255 14.2955 5.34228 14.5296 5.34228H15.6596C15.8936 5.34228 16.0834 5.15255 16.0834 4.91852V0.423762C16.0834 0.189732 15.8936 0 15.6596 0Z" fill="#0772A0"/>
</svg>