<svg width="14" height="14" viewBox="0 0 14 14" fill="none" xmlns="http://www.w3.org/2000/svg">
  <path d="M12.5976 6.9564H12.145C11.9456 6.9564 11.7235 6.9564 11.7235 7.32724V11.8354C11.7235 12.707 11.0433 12.8141 10.804 12.8141L2.10261 12.7654C1.86337 12.7654 1.20535 12.7069 1.20535 11.8353V3.19568C1.20535 3.19568 1.20535 2.32903 2.16423 2.32903H6.90319C7.10797 2.32903 7.27399 2.0953 7.27399 1.89053V1.40204C7.27399 1.19727 7.10797 1.03125 6.90319 1.03125H2.16423C0.970877 1.03125 4.57764e-05 2.00223 4.57764e-05 3.19568V11.8354C4.57764e-05 13.0288 0.970926 13.9997 2.16423 13.9997H10.804C11.9974 13.9997 12.9684 13.0288 12.9684 11.8354V7.32724C12.9684 7.12242 12.8024 6.9564 12.5976 6.9564Z" fill="#0772A0"/>
  <path d="M13.1284 0.462891H9.69615C9.49137 0.462891 9.32536 0.581692 9.32536 0.786468V1.35995C9.32536 1.56473 9.49137 1.73074 9.69615 1.73074H11.5226L6.10305 6.94687C5.95824 7.09168 5.85564 7.22379 6.00045 7.36865L6.62249 7.99075C6.62249 7.99075 6.74873 8.09351 6.9899 7.85074L12.2696 2.58853V4.30409C12.2696 4.50886 12.4356 4.67488 12.6404 4.67488H13.2C13.4047 4.67488 13.5847 4.50886 13.5847 4.30409V0.919362C13.5847 0.714587 13.3331 0.462891 13.1284 0.462891Z" fill="#0772A0"/>
</svg>