<svg width="44" height="43" viewBox="0 0 44 43" fill="none" xmlns="http://www.w3.org/2000/svg">
<path d="M29.3866 27.3252C28.3441 27.3252 27.496 26.6078 27.496 25.726C27.496 24.8442 28.3441 24.1268 29.3866 24.1268C30.4291 24.1268 31.2772 24.8442 31.2772 25.726C31.2772 26.1898 31.662 26.5659 32.1366 26.5659C32.6111 26.5659 32.996 26.1898 32.996 25.726C32.996 24.187 31.8226 22.893 30.246 22.5418V22.105C30.246 21.6412 29.8611 21.2651 29.3866 21.2651C28.912 21.2651 28.5272 21.6412 28.5272 22.105V22.5418C26.9506 22.893 25.7772 24.187 25.7772 25.726C25.7772 27.534 27.3964 29.0049 29.3866 29.0049C30.4291 29.0049 31.2772 29.7223 31.2772 30.6041C31.2772 31.4859 30.4291 32.2033 29.3866 32.2033C28.3441 32.2033 27.496 31.4859 27.496 30.6041C27.496 30.1403 27.1111 29.7643 26.6366 29.7643C26.162 29.7643 25.7772 30.1403 25.7772 30.6041C25.7772 32.1431 26.9506 33.4371 28.5272 33.7884V34.1512C28.5272 34.6149 28.912 34.991 29.3866 34.991C29.8611 34.991 30.246 34.6149 30.246 34.1512V33.7884C31.8226 33.4371 32.996 32.1431 32.996 30.6041C32.996 28.7961 31.3768 27.3252 29.3866 27.3252Z" fill="white"/>
<path d="M38.7991 22.3294C37.6765 20.6199 36.095 19.252 34.2254 18.3737C33.7975 18.1726 33.284 18.3487 33.0785 18.7667C32.8728 19.1848 33.0529 19.6865 33.4807 19.8875C36.7386 21.418 38.8437 24.6883 38.8437 28.2188C38.8437 29.7295 38.4626 31.2277 37.7419 32.5517C37.5189 32.9611 37.6778 33.4697 38.0969 33.6875C38.2254 33.7544 38.3636 33.7861 38.4997 33.7861C38.8072 33.7861 39.1047 33.6244 39.2592 33.3406C40.1118 31.7748 40.5624 30.0037 40.5624 28.2188C40.5624 26.1226 39.9527 24.086 38.7991 22.3294Z" fill="white"/>
<path d="M30.7375 17.3009L30.6797 17.3008C30.2051 17.3008 29.8203 17.6768 29.8203 18.1406C29.8203 18.6045 30.2051 18.9805 30.6797 18.9805L30.7294 18.9805C30.7308 18.9805 30.7321 18.9805 30.7336 18.9805C31.2063 18.9805 31.5906 18.6072 31.5929 18.1447C31.595 17.6808 31.2121 17.303 30.7375 17.3009Z" fill="white"/>
<path d="M25.3005 36.55C22.0427 35.0194 19.9376 31.7491 19.9376 28.2187C19.9376 26.708 20.3187 25.2098 21.0394 23.8858C21.2623 23.4764 21.1034 22.9678 20.6844 22.7499C20.2656 22.5321 19.7449 22.6874 19.5221 23.0969C18.6695 24.6628 18.2189 26.4338 18.2189 28.2187C18.2189 30.3149 18.8286 32.3514 19.9821 34.1081C21.1047 35.8176 22.6863 37.1855 24.5559 38.0639C24.6759 38.1203 24.8028 38.1469 24.9277 38.1469C25.2477 38.1469 25.5548 37.9715 25.7028 37.6708C25.9083 37.2528 25.7283 36.751 25.3005 36.55Z" fill="white"/>
<path d="M28.1016 37.4572L28.0518 37.457C27.5751 37.4562 27.1908 37.829 27.1886 38.2929C27.1864 38.7568 27.5695 39.1345 28.044 39.1367L28.1016 39.1369C28.5762 39.1369 28.961 38.7608 28.961 38.297C28.961 37.8333 28.5762 37.4572 28.1016 37.4572Z" fill="white"/>
<path d="M33.2929 14.4594C33.1883 14.2158 33.0602 13.9863 32.9111 13.7734H35.1484C37.3281 13.7734 39.1015 12.0403 39.1015 9.91014C39.1015 7.77996 37.3281 6.04686 35.1484 6.04686H28.2665C28.704 5.42521 28.9609 4.67313 28.9609 3.86327C28.9609 1.7331 27.1875 0 25.0078 0H3.95312C1.7734 0 0 1.7331 0 3.86327C0 5.99345 1.7734 7.72655 3.95312 7.72655H10.835C10.3975 8.3482 10.1406 9.10028 10.1406 9.91014C10.1406 10.72 10.3974 11.4721 10.835 12.0937H8.59373C6.41402 12.0937 4.64062 13.8268 4.64062 15.957C4.64062 17.1804 5.22619 18.2721 6.13722 18.9804C5.22619 19.6888 4.64062 20.7805 4.64062 22.0039C4.64062 23.2273 5.22619 24.319 6.13722 25.0273C5.22619 25.7356 4.64062 26.8273 4.64062 28.0507C4.64062 29.2741 5.22619 30.3658 6.13722 31.0742C5.22619 31.7825 4.64062 32.8742 4.64062 34.0976C4.64062 36.2278 6.41402 37.9609 8.59373 37.9609H18.7214C21.3895 40.7497 25.185 42.4961 29.3907 42.4961C37.4463 42.4961 44 36.0913 44 28.2188C44 21.6666 39.4599 16.1319 33.2929 14.4594ZM35.1484 7.72655C36.3805 7.72655 37.3827 8.70614 37.3827 9.91014C37.3827 11.1141 36.3805 12.0937 35.1484 12.0937H29.6484H14.0937C12.8616 12.0937 11.8594 11.1141 11.8594 9.91014C11.8594 8.70614 12.8616 7.72655 14.0937 7.72655H35.1484ZM3.95312 6.04686C2.72103 6.04686 1.71875 5.06727 1.71875 3.86327C1.71875 2.65928 2.72103 1.67968 3.95312 1.67968H25.0078C26.2398 1.67968 27.2421 2.65928 27.2421 3.86327C27.2421 5.06727 26.2398 6.04686 25.0078 6.04686H3.95312ZM8.59373 13.7734H29.6484C29.9945 13.7734 30.326 13.852 30.6233 13.9928C30.2169 13.9594 29.8059 13.9415 29.3907 13.9415C25.3563 13.9415 21.6988 15.548 19.0525 18.1406H8.59373C7.36174 18.1406 6.35936 17.161 6.35936 15.957C6.35936 14.753 7.36174 13.7734 8.59373 13.7734ZM8.59373 19.8203H17.5841C16.6085 21.1265 15.8542 22.5997 15.3752 24.1875H8.59373C7.36165 24.1875 6.35936 23.2079 6.35936 22.0039C6.35936 20.7999 7.36165 19.8203 8.59373 19.8203ZM8.59373 25.8671H14.9806C14.8502 26.6325 14.7813 27.4178 14.7813 28.2188C14.7813 28.9029 14.8319 29.5756 14.9276 30.2343H8.59373C7.36165 30.2343 6.35936 29.2548 6.35936 28.0507C6.35936 26.8466 7.36165 25.8671 8.59373 25.8671ZM8.59373 36.2812C7.36165 36.2812 6.35936 35.3017 6.35936 34.0976C6.35936 32.8935 7.36165 31.914 8.59373 31.914H15.2785C15.7121 33.494 16.4165 34.9665 17.3404 36.2812H8.59373ZM29.3907 40.8164C22.2828 40.8164 16.5001 35.1651 16.5001 28.2188C16.5001 21.2724 22.2828 15.6211 29.3907 15.6211C36.4985 15.6211 42.2813 21.2724 42.2813 28.2188C42.2813 35.1651 36.4985 40.8164 29.3907 40.8164Z" fill="white"/>
</svg>
