<svg width="64" height="62" viewBox="0 0 64 62" fill="none" xmlns="http://www.w3.org/2000/svg">
<path d="M56.4352 32.4861C54.8023 29.9996 52.5018 28.0098 49.7824 26.7323C49.1601 26.4398 48.4132 26.6959 48.1142 27.304C47.8151 27.9121 48.077 28.6419 48.6992 28.9342C53.4381 31.1604 56.4999 35.9172 56.4999 41.0525C56.4999 43.2499 55.9457 45.4291 54.8973 47.3548C54.5731 47.9503 54.8042 48.6901 55.4137 49.007C55.6007 49.1042 55.8017 49.1504 55.9997 49.1504C56.4469 49.1504 56.8796 48.9151 57.1043 48.5023C58.3444 46.2248 58.9999 43.6486 58.9999 41.0525C58.9999 38.0034 58.1131 35.0412 56.4352 32.4861Z" fill="#E04265"/>
<path d="M44.7091 25.172L44.625 25.1719C43.9348 25.1719 43.375 25.7188 43.375 26.3935C43.375 27.0681 43.9348 27.6151 44.625 27.6151L44.6974 27.6152C44.6994 27.6152 44.7013 27.6152 44.7034 27.6152C45.391 27.6152 45.95 27.0721 45.9533 26.3993C45.9564 25.7246 45.3994 25.1752 44.7091 25.172Z" fill="#E04265"/>
<path d="M36.8008 53.1703C32.062 50.9439 29.0002 46.1872 29.0002 41.052C29.0002 38.8546 29.5544 36.6754 30.6028 34.7497C30.927 34.1542 30.6959 33.4144 30.0864 33.0975C29.4772 32.7806 28.7199 33.0065 28.3958 33.6021C27.1557 35.8798 26.5002 38.4559 26.5002 41.052C26.5002 44.1011 27.3871 47.0632 29.0649 49.6184C30.6978 52.1049 32.9983 54.0946 35.7177 55.3723C35.8923 55.4544 36.0768 55.4931 36.2584 55.4931C36.7239 55.4931 37.1707 55.2379 37.3859 54.8006C37.6848 54.1925 37.423 53.4626 36.8008 53.1703Z" fill="#E04265"/>
<path d="M40.8751 54.49L40.8027 54.4897C40.1092 54.4885 39.5502 55.0308 39.5471 55.7056C39.5438 56.3803 40.1011 56.9298 40.7913 56.9329L40.8751 56.9332C41.5653 56.9332 42.1251 56.3862 42.1251 55.7116C42.1251 55.037 41.5653 54.49 40.8751 54.49Z" fill="#E04265"/>
<path d="M48.426 21.0387C48.2739 20.6844 48.0875 20.3506 47.8707 20.0409H51.1249C54.2954 20.0409 56.8749 17.52 56.8749 14.4216C56.8749 11.3231 54.2954 8.80227 51.1249 8.80227H41.1149C41.7513 7.89805 42.1249 6.80412 42.1249 5.62614C42.1249 2.52771 39.5454 0.00683594 36.3749 0.00683594H5.74999C2.57949 0.00683594 0 2.52771 0 5.62614C0 8.72458 2.57949 11.2455 5.74999 11.2455H15.76C15.1236 12.1497 14.75 13.2436 14.75 14.4216C14.75 15.5996 15.1235 16.6935 15.76 17.5977H12.5C9.32948 17.5977 6.74999 20.1186 6.74999 23.217C6.74999 24.9965 7.60174 26.5844 8.92686 27.6147C7.60174 28.645 6.74999 30.233 6.74999 32.0125C6.74999 33.7919 7.60174 35.3799 8.92686 36.4102C7.60174 37.4405 6.74999 39.0284 6.74999 40.8079C6.74999 42.5874 7.60174 44.1753 8.92686 45.2056C7.60174 46.2359 6.74999 47.8238 6.74999 49.6033C6.74999 52.7018 9.32948 55.2226 12.5 55.2226H27.2312C31.1119 59.2792 36.6327 61.8193 42.75 61.8193C54.4673 61.8193 64 52.5033 64 41.0523C64 31.5219 57.3963 23.4715 48.426 21.0387ZM51.1249 11.2455C52.917 11.2455 54.3749 12.6703 54.3749 14.4216C54.3749 16.1728 52.917 17.5977 51.1249 17.5977H43.1249H20.5C18.7078 17.5977 17.25 16.1728 17.25 14.4216C17.25 12.6703 18.7078 11.2455 20.5 11.2455H51.1249ZM5.74999 8.80227C3.95787 8.80227 2.5 7.37741 2.5 5.62614C2.5 3.87487 3.95787 2.45001 5.74999 2.45001H36.3749C38.1671 2.45001 39.6249 3.87487 39.6249 5.62614C39.6249 7.37741 38.1671 8.80227 36.3749 8.80227H5.74999ZM12.5 20.0409H43.1249C43.6284 20.0409 44.1105 20.1552 44.543 20.36C43.9518 20.3115 43.354 20.2853 42.75 20.2853C36.8819 20.2853 31.5619 22.6221 27.7127 26.3931H12.5C10.708 26.3931 9.24998 24.9683 9.24998 23.217C9.24998 21.4657 10.708 20.0409 12.5 20.0409ZM12.5 28.8363H25.5768C24.1578 30.7363 23.0607 32.8792 22.364 35.1886H12.5C10.7079 35.1886 9.24998 33.7638 9.24998 32.0125C9.24998 30.2612 10.7079 28.8363 12.5 28.8363ZM12.5 37.6318H21.79C21.6003 38.745 21.5001 39.8873 21.5001 41.0523C21.5001 42.0474 21.5737 43.0259 21.7128 43.984H12.5C10.7079 43.984 9.24998 42.5593 9.24998 40.8079C9.24998 39.0565 10.7079 37.6318 12.5 37.6318ZM12.5 52.7795C10.7079 52.7795 9.24998 51.3547 9.24998 49.6033C9.24998 47.8519 10.7079 46.4272 12.5 46.4272H22.2232C22.854 48.7254 23.8786 50.8672 25.2223 52.7795H12.5ZM42.75 59.3762C32.4113 59.3762 24.0001 51.1561 24.0001 41.0523C24.0001 30.9486 32.4113 22.7285 42.75 22.7285C53.0888 22.7285 61.5 30.9486 61.5 41.0523C61.5 51.1561 53.0888 59.3762 42.75 59.3762Z" fill="#373A4C"/>
<rect x="47.8459" y="33.9541" width="2.68986" height="18.4882" rx="1.34493" transform="rotate(45.6351 47.8459 33.9541)" fill="#E04265"/>
</svg>
