<svg width="64" height="63" viewBox="0 0 64 63" fill="none" xmlns="http://www.w3.org/2000/svg">
<path d="M42.7441 40.4333C41.2277 40.4333 39.9941 39.3898 39.9941 38.1072C39.9941 36.8246 41.2277 35.7811 42.7441 35.7811C44.2604 35.7811 45.4941 36.8246 45.4941 38.1072C45.4941 38.7818 46.0538 39.3288 46.7441 39.3288C47.4343 39.3288 47.9941 38.7818 47.9941 38.1072C47.9941 35.8687 46.2873 33.9865 43.9941 33.4756V32.8402C43.9941 32.1657 43.4343 31.6187 42.7441 31.6187C42.0538 31.6187 41.4941 32.1657 41.4941 32.8402V33.4756C39.2008 33.9865 37.4941 35.8687 37.4941 38.1072C37.4941 40.737 39.8492 42.8764 42.7441 42.8764C44.2604 42.8764 45.4941 43.9199 45.4941 45.2026C45.4941 46.4853 44.2604 47.5287 42.7441 47.5287C41.2277 47.5287 39.9941 46.4853 39.9941 45.2026C39.9941 44.528 39.4343 43.981 38.7441 43.981C38.0538 43.981 37.4941 44.528 37.4941 45.2026C37.4941 47.4412 39.2008 49.3234 41.4941 49.8342V50.362C41.4941 51.0365 42.0538 51.5836 42.7441 51.5836C43.4343 51.5836 43.9941 51.0365 43.9941 50.362V49.8342C46.2873 49.3234 47.9941 47.4412 47.9941 45.2026C47.9941 42.5728 45.6389 40.4333 42.7441 40.4333Z" fill="#5DCE59"/>
<path d="M56.4352 33.1668C54.8023 30.6802 52.5018 28.6905 49.7824 27.413C49.1601 27.1205 48.4132 27.3766 48.1142 27.9847C47.8151 28.5928 48.0769 29.3225 48.6992 29.6149C53.4381 31.8411 56.4999 36.5978 56.4999 41.7332C56.4999 43.9305 55.9457 46.1097 54.8973 48.0355C54.573 48.631 54.8042 49.3708 55.4137 49.6877C55.6007 49.7849 55.8017 49.8311 55.9997 49.8311C56.4469 49.8311 56.8795 49.5958 57.1043 49.183C58.3444 46.9055 58.9999 44.3293 58.9999 41.7332C58.9999 38.6841 58.113 35.7218 56.4352 33.1668Z" fill="#5DCE59"/>
<path d="M44.7091 25.8522L44.625 25.8521C43.9348 25.8521 43.375 26.399 43.375 27.0736C43.375 27.7483 43.9348 28.2952 44.625 28.2952L44.6974 28.2953C44.6994 28.2953 44.7013 28.2953 44.7034 28.2953C45.391 28.2953 45.95 27.7522 45.9533 27.0795C45.9564 26.4048 45.3994 25.8553 44.7091 25.8522Z" fill="#5DCE59"/>
<path d="M36.8008 53.8509C32.0621 51.6246 29.0002 46.8678 29.0002 41.7327C29.0002 39.5353 29.5544 37.3561 30.6028 35.4304C30.9271 34.8348 30.6959 34.095 30.0864 33.7782C29.4772 33.4613 28.72 33.6871 28.3958 34.2828C27.1557 36.5604 26.5002 39.1365 26.5002 41.7327C26.5002 44.7817 27.3871 47.7438 29.065 50.299C30.6978 52.7856 32.9983 54.7753 35.7177 56.053C35.8923 56.1351 36.0768 56.1738 36.2584 56.1738C36.7239 56.1738 37.1707 55.9186 37.3859 55.4813C37.6848 54.8732 37.4231 54.1433 36.8008 53.8509Z" fill="#5DCE59"/>
<path d="M40.8751 55.1707L40.8027 55.1704C40.1092 55.1692 39.5502 55.7115 39.5471 56.3863C39.5439 57.061 40.1011 57.6104 40.7913 57.6136L40.8751 57.6138C41.5653 57.6138 42.1251 57.0668 42.1251 56.3923C42.1251 55.7177 41.5653 55.1707 40.8751 55.1707Z" fill="#5DCE59"/>
<path d="M48.426 21.7193C48.2739 21.3651 48.0875 21.0312 47.8707 20.7216H51.1249C54.2954 20.7216 56.8749 18.2007 56.8749 15.1022C56.8749 12.0038 54.2954 9.48294 51.1249 9.48294H41.1149C41.7513 8.57872 42.1249 7.48479 42.1249 6.30681C42.1249 3.20837 39.5454 0.6875 36.3749 0.6875H5.74999C2.57949 0.6875 0 3.20837 0 6.30681C0 9.40524 2.57949 11.9261 5.74999 11.9261H15.76C15.1236 12.8303 14.75 13.9243 14.75 15.1022C14.75 16.2802 15.1235 17.3742 15.76 18.2784H12.5C9.32948 18.2784 6.74999 20.7992 6.74999 23.8977C6.74999 25.6772 7.60174 27.2651 8.92686 28.2954C7.60174 29.3257 6.74999 30.9136 6.74999 32.6931C6.74999 34.4726 7.60174 36.0606 8.92686 37.0908C7.60174 38.1211 6.74999 39.7091 6.74999 41.4886C6.74999 43.268 7.60174 44.856 8.92686 45.8863C7.60174 46.9166 6.74999 48.5045 6.74999 50.284C6.74999 53.3824 9.32948 55.9033 12.5 55.9033H27.2312C31.1119 59.9598 36.6327 62.5 42.75 62.5C54.4673 62.5 64 53.1839 64 41.733C64 32.2025 57.3963 24.1521 48.426 21.7193ZM51.1249 11.9261C52.917 11.9261 54.3749 13.351 54.3749 15.1022C54.3749 16.8535 52.917 18.2784 51.1249 18.2784H43.1249H20.5C18.7078 18.2784 17.25 16.8535 17.25 15.1022C17.25 13.351 18.7078 11.9261 20.5 11.9261H51.1249ZM5.74999 9.48294C3.95787 9.48294 2.5 8.05808 2.5 6.30681C2.5 4.55554 3.95787 3.13068 5.74999 3.13068H36.3749C38.1671 3.13068 39.6249 4.55554 39.6249 6.30681C39.6249 8.05808 38.1671 9.48294 36.3749 9.48294H5.74999ZM12.5 20.7216H43.1249C43.6284 20.7216 44.1105 20.8359 44.543 21.0406C43.9518 20.9921 43.354 20.966 42.75 20.966C36.8819 20.966 31.5619 23.3028 27.7127 27.0738H12.5C10.708 27.0738 9.24998 25.649 9.24998 23.8977C9.24998 22.1464 10.708 20.7216 12.5 20.7216ZM12.5 29.517H25.5768C24.1578 31.4169 23.0607 33.5598 22.364 35.8693H12.5C10.7079 35.8693 9.24998 34.4445 9.24998 32.6931C9.24998 30.9418 10.7079 29.517 12.5 29.517ZM12.5 38.3124H21.79C21.6003 39.4257 21.5001 40.568 21.5001 41.733C21.5001 42.7281 21.5737 43.7066 21.7128 44.6647H12.5C10.7079 44.6647 9.24998 43.2399 9.24998 41.4886C9.24998 39.7372 10.7079 38.3124 12.5 38.3124ZM12.5 53.4601C10.7079 53.4601 9.24998 52.0354 9.24998 50.284C9.24998 48.5326 10.7079 47.1079 12.5 47.1079H22.2232C22.854 49.406 23.8786 51.5479 25.2223 53.4601H12.5ZM42.75 60.0568C32.4113 60.0568 24.0001 51.8368 24.0001 41.733C24.0001 31.6292 32.4113 23.4092 42.75 23.4092C53.0888 23.4092 61.5 31.6292 61.5 41.733C61.5 51.8368 53.0888 60.0568 42.75 60.0568Z" fill="#373A4C"/>
</svg>
