<svg width="47" height="47" viewBox="0 0 47 47" fill="none" xmlns="http://www.w3.org/2000/svg">
<g clip-path="url(#clip0)">
<path fill-rule="evenodd" clip-rule="evenodd" d="M23.8814 0.118164C24.9637 0.118164 25.7106 0.969925 26.4505 1.81361C26.8886 2.31337 27.3229 2.80856 27.5887 2.85664C27.8609 2.90613 28.4453 2.5822 29.0262 2.26003C29.9872 1.72693 30.943 1.19734 31.9216 1.56093C32.9111 1.92873 33.2818 2.96404 33.651 3.99583C33.8697 4.60649 34.0874 5.21504 34.2955 5.33682C34.5041 5.4586 35.1451 5.34665 35.7851 5.23505C36.8597 5.04729 37.9329 4.85988 38.7297 5.53055C39.5223 6.19806 39.5174 7.28777 39.5124 8.37747C39.5096 9.02077 39.5065 9.66406 39.6622 9.84831C39.818 10.0329 40.4531 10.1396 41.0885 10.2463C42.167 10.4277 43.2472 10.6092 43.7757 11.5094C44.3028 12.4075 43.9392 13.4319 43.5742 14.4598C43.3552 15.0764 43.1354 15.6952 43.224 15.9328C43.3126 16.1697 43.8749 16.496 44.44 16.8242C45.3978 17.3801 46.3613 17.9392 46.5523 18.9889C46.74 20.0207 46.0568 20.8787 45.3676 21.7449C44.9449 22.2762 44.5184 22.8121 44.5184 23.1182C44.5184 23.4245 44.9449 23.9604 45.3676 24.4918C46.0568 25.3576 46.74 26.2157 46.5523 27.2475C46.3613 28.2972 45.3978 28.8566 44.44 29.4125C43.8749 29.7403 43.3126 30.0667 43.224 30.3039C43.1354 30.5415 43.3552 31.1602 43.5742 31.7769C43.9392 32.8048 44.3028 33.8292 43.7757 34.727C43.2472 35.6275 42.167 35.8089 41.0885 35.99C40.4531 36.0971 39.818 36.2038 39.6622 36.388C39.5065 36.5726 39.5096 37.2159 39.5124 37.8592C39.5174 38.9489 39.5223 40.0386 38.7297 40.7061C37.9329 41.3768 36.8597 41.1894 35.7851 41.0016C35.1451 40.89 34.5041 40.7781 34.2955 40.8999C34.0874 41.0216 33.8697 41.6302 33.651 42.2408C33.2818 43.2726 32.9111 44.308 31.9216 44.6758C30.943 45.0393 29.9872 44.5094 29.0262 43.9767C28.4453 43.6545 27.8612 43.3306 27.5887 43.38C27.3229 43.4281 26.8886 43.9233 26.4505 44.4227C25.7106 45.2664 24.9637 46.1182 23.8814 46.1182C22.7994 46.1182 22.0525 45.2664 21.3123 44.4227C20.8745 43.923 20.4403 43.4278 20.1741 43.3797C19.9019 43.3302 19.3178 43.6541 18.7366 43.9763C17.7755 44.5094 16.8201 45.039 15.8415 44.6754C14.8517 44.3076 14.4814 43.2723 14.1118 42.2405C13.8934 41.6302 13.6754 41.0213 13.4673 40.8995C13.2591 40.7777 12.618 40.8897 11.9777 41.0016C10.9031 41.189 9.8299 41.3764 9.03308 40.7058C8.24049 40.0383 8.24541 38.9486 8.25034 37.8589C8.2535 37.2156 8.25631 36.5723 8.10054 36.388C7.94476 36.2034 7.31005 36.0967 6.67429 35.99C5.59581 35.8089 4.51558 35.6272 3.98707 34.727C3.46031 33.8289 3.8239 32.8044 4.18891 31.7765C4.40798 31.1599 4.6274 30.5412 4.53879 30.3036C4.45053 30.0667 3.88825 29.7403 3.32282 29.4121C2.36531 28.8562 1.40146 28.2972 1.21088 27.2475C1.0231 26.2157 1.70598 25.3572 2.3952 24.4914C2.81822 23.9601 3.24476 23.4242 3.24476 23.1178C3.24476 22.8118 2.81822 22.2759 2.3952 21.7445C1.70598 20.8784 1.0231 20.0207 1.21088 18.9885C1.40146 17.9388 2.36531 17.3797 3.32282 16.8238C3.88825 16.4957 4.45053 16.1693 4.53879 15.9324C4.6274 15.6948 4.40798 15.0761 4.18891 14.4595C3.8239 13.4315 3.45996 12.4071 3.98707 11.5094C4.51558 10.6088 5.59581 10.4274 6.67429 10.2463C7.31005 10.1393 7.94476 10.0326 8.10054 9.84831C8.25631 9.66371 8.2535 9.02042 8.25034 8.37712C8.24541 7.28741 8.24049 6.19736 9.03308 5.53055C9.8299 4.85988 10.9031 5.04694 11.9777 5.2347C12.618 5.3463 13.2591 5.45825 13.4673 5.33647C13.6754 5.21504 13.8934 4.60614 14.1118 3.99548C14.481 2.96404 14.852 1.92838 15.8415 1.56058C16.8201 1.19699 17.7755 1.72693 18.7366 2.25967C19.3178 2.58185 19.9019 2.90578 20.1741 2.85629C20.4403 2.80821 20.8745 2.31302 21.3123 1.81361C22.0525 0.969925 22.7994 0.118164 23.8814 0.118164V0.118164ZM35.0368 11.7238C34.5396 11.7238 34.1366 12.126 34.1366 12.6222C34.1366 12.8433 34.2168 13.0458 34.3497 13.2024V13.2027L34.3493 13.2024L34.3521 13.2055C34.3704 13.2269 34.3898 13.2473 34.4098 13.2666C36.8308 15.8426 38.3134 19.3075 38.3134 23.1182C38.3134 27.0959 36.6983 30.6966 34.0867 33.3031C31.475 35.91 27.8669 37.5219 23.8814 37.5219C22.1752 37.5219 20.5384 37.2264 19.0193 36.6839C18.9922 36.6726 18.9641 36.6628 18.9356 36.654L18.9335 36.653V36.6533C18.8508 36.6284 18.7629 36.6147 18.6722 36.6147C18.1753 36.6147 17.772 37.0169 17.772 37.5132C17.772 37.9203 18.0435 38.2639 18.4152 38.3744C20.1231 38.984 21.9636 39.3164 23.8814 39.3164C28.363 39.3164 32.4206 37.503 35.3575 34.5718C38.2947 31.6403 40.1113 27.591 40.1113 23.1182C40.1113 18.838 38.4477 14.9459 35.7313 12.0502C35.566 11.8508 35.3163 11.7238 35.0368 11.7238ZM32.32 9.44331C31.8232 9.44331 31.4198 9.8455 31.4198 10.3418C31.4198 10.8376 31.8232 11.2402 32.32 11.2402C32.8172 11.2402 33.2202 10.8376 33.2202 10.3418C33.2202 9.8455 32.8172 9.44331 32.32 9.44331ZM29.3983 7.88017C27.6759 7.25899 25.8186 6.91997 23.8814 6.91997C19.3998 6.91997 15.3425 8.73299 12.4053 11.6645C9.46841 14.5956 7.65149 18.6453 7.65149 23.1182C7.65149 27.3893 9.30807 31.2739 12.0143 34.1679C12.1795 34.3651 12.4278 34.4908 12.7056 34.4908C13.2028 34.4908 13.6058 34.0886 13.6058 33.5923C13.6058 33.3719 13.5263 33.1701 13.3941 33.014V33.0133L13.3906 33.0094C13.373 32.9887 13.3544 32.969 13.335 32.9504C10.9249 30.3762 9.44942 26.9193 9.44942 23.1182C9.44942 19.1405 11.0649 15.5394 13.6765 12.9332C16.2881 10.3263 19.8963 8.71439 23.8814 8.71439C25.6037 8.71439 27.2554 9.0155 28.7868 9.5679H28.7871C28.8954 9.61388 29.0143 9.63914 29.1394 9.63914C29.6367 9.63914 30.0396 9.23695 30.0396 8.74071C30.0396 8.3343 29.7692 7.99107 29.3983 7.88017ZM15.4428 34.9961C14.9459 34.9961 14.5426 35.3983 14.5426 35.8946C14.5426 36.3908 14.9459 36.793 15.4428 36.793C15.94 36.793 16.343 36.3908 16.343 35.8946C16.343 35.3983 15.94 34.9961 15.4428 34.9961ZM18.6406 14.2882C17.6085 14.2882 16.6742 14.7055 15.9976 15.3807C15.3214 16.056 14.903 16.9884 14.903 18.0185C14.903 19.0482 15.3214 19.981 15.9976 20.6559C16.6742 21.3311 17.6085 21.7487 18.6406 21.7487C19.6726 21.7487 20.6069 21.3311 21.2835 20.6559C21.9597 19.981 22.3781 19.0482 22.3781 18.0185C22.3781 16.9884 21.9597 16.056 21.2835 15.3807C20.6069 14.7055 19.6726 14.2882 18.6406 14.2882ZM20.0123 16.6494C19.6614 16.2992 19.1765 16.0823 18.6406 16.0823C18.105 16.0823 17.6198 16.2992 17.2688 16.6494C16.9179 16.9997 16.7009 17.4836 16.7009 18.0185C16.7009 18.553 16.9179 19.0373 17.2688 19.3875C17.6198 19.7374 18.105 19.9543 18.6406 19.9543C19.1765 19.9543 19.6614 19.7378 20.0123 19.3875C20.3632 19.0373 20.5802 18.553 20.5802 18.0185C20.5802 17.4836 20.3632 16.9997 20.0123 16.6494ZM28.3746 14.6946L17.8926 30.5605C17.6212 30.9728 17.7358 31.5266 18.149 31.7976C18.5621 32.0685 19.117 31.9541 19.3885 31.5417L29.8705 15.6759C30.142 15.2635 30.0273 14.7097 29.6142 14.4388C29.201 14.1678 28.6461 14.2822 28.3746 14.6946ZM29.1226 24.4876C28.0905 24.4876 27.1559 24.9052 26.4797 25.5801C25.8034 26.2553 25.385 27.1882 25.385 28.2178C25.385 29.2479 25.8034 30.1804 26.4797 30.8556C27.1562 31.5305 28.0905 31.9481 29.1226 31.9481C30.1546 31.9481 31.0889 31.5305 31.7651 30.8556C32.4417 30.1804 32.8601 29.2479 32.8601 28.2178C32.8601 27.1878 32.4417 26.2553 31.7651 25.5801C31.0889 24.9052 30.1546 24.4876 29.1226 24.4876ZM30.494 26.8488C30.1434 26.4989 29.6581 26.282 29.1226 26.282C28.5867 26.282 28.1018 26.4985 27.7508 26.8488C27.3999 27.199 27.1826 27.6833 27.1826 28.2178C27.1826 28.7527 27.3999 29.2367 27.7508 29.5869C28.1018 29.9372 28.5867 30.1537 29.1226 30.1537C29.6581 30.1537 30.1434 29.9372 30.494 29.5869C30.8452 29.2367 31.0622 28.7527 31.0622 28.2178C31.0622 27.6833 30.8452 27.1994 30.494 26.8488ZM25.1023 2.99141C24.6314 2.45445 24.1564 1.91258 23.8817 1.91258C23.6068 1.91258 23.1317 2.45445 22.6609 2.99141C22.0163 3.7263 21.377 4.45523 20.4902 4.61597C19.59 4.77916 18.7257 4.29976 17.8659 3.82281C17.2667 3.49046 16.6707 3.16022 16.4667 3.23602C16.2656 3.31078 16.0346 3.95583 15.8046 4.59842C15.4772 5.51265 15.1512 6.42407 14.3734 6.87856C13.5903 7.33655 12.6289 7.16879 11.669 7.00104C11.0061 6.88557 10.3436 6.76976 10.1924 6.89751C10.0356 7.02946 10.0384 7.70013 10.0416 8.37045C10.0462 9.34435 10.0504 10.3182 9.47017 11.0051C8.89173 11.6898 7.93105 11.8512 6.96932 12.0126C6.30366 12.1246 5.63625 12.2365 5.53252 12.4138C5.42914 12.5896 5.65489 13.2259 5.8817 13.8639C6.20802 14.7831 6.53539 15.705 6.21751 16.5564C5.90385 17.3969 5.06519 17.8837 4.22196 18.3733C3.62066 18.7221 3.01549 19.0734 2.97364 19.3044C2.93109 19.5385 3.36361 20.0817 3.79999 20.6303C4.41888 21.4076 5.04304 22.1917 5.04304 23.1182C5.04304 24.045 4.41888 24.8287 3.79999 25.6064C3.36361 26.1546 2.93109 26.6979 2.97364 26.9323C3.01549 27.1632 3.62066 27.5142 4.22196 27.8634C5.06519 28.3526 5.90385 28.8394 6.21751 29.6799C6.53539 30.5317 6.20802 31.4536 5.8817 32.3728C5.65489 33.0108 5.42914 33.6467 5.53252 33.8229C5.63625 33.9998 6.30331 34.1121 6.96932 34.2237C7.9314 34.3855 8.89173 34.5466 9.47017 35.2316C10.0504 35.9181 10.0462 36.892 10.0416 37.8662C10.0384 38.5365 10.0356 39.2069 10.1924 39.3392C10.344 39.4666 11.0061 39.3511 11.669 39.2353C12.6289 39.0679 13.5903 38.8998 14.3734 39.3578C15.1512 39.8123 15.4776 40.7237 15.8046 41.6379C16.0346 42.2805 16.2656 42.9259 16.4667 43.0003C16.6707 43.0761 17.2667 42.7459 17.8659 42.4135C18.7257 41.9369 19.59 41.4575 20.4902 41.6207C21.3774 41.7811 22.0163 42.51 22.6609 43.2453C23.1317 43.7822 23.6068 44.3241 23.8817 44.3241C24.1564 44.3241 24.6314 43.7822 25.1023 43.2453C25.7468 42.51 26.3861 41.7811 27.2726 41.6207C28.1728 41.4575 29.0375 41.9369 29.8972 42.4135C30.4964 42.7459 31.0924 43.0761 31.2964 43.0003C31.4975 42.9259 31.7286 42.2805 31.9585 41.6379C32.2859 40.7237 32.6119 39.8126 33.3894 39.3578C34.1728 38.8998 35.1338 39.0675 36.0938 39.2353C36.757 39.3511 37.4191 39.4669 37.571 39.3392C37.7275 39.2069 37.7247 38.5365 37.7215 37.8662C37.717 36.8923 37.7128 35.9181 38.293 35.2316C38.8714 34.5466 39.8317 34.3855 40.7935 34.2237C41.4595 34.1121 42.1269 33.9998 42.2306 33.8229C42.334 33.6467 42.1082 33.0108 41.8814 32.3728C41.5551 31.4536 41.2277 30.5317 41.5456 29.6799C41.8589 28.8394 42.6979 28.3526 43.5408 27.8634C44.1425 27.5142 44.7473 27.1632 44.7895 26.9323C44.832 26.6979 44.3995 26.1546 43.9631 25.6064C43.3443 24.8287 42.7201 24.045 42.7201 23.1182C42.7201 22.1917 43.3443 21.4076 43.9631 20.6303C44.3995 20.0817 44.832 19.5385 44.7895 19.3044C44.7473 19.0734 44.1425 18.7221 43.5408 18.3733C42.6979 17.8837 41.8589 17.3969 41.5456 16.5564C41.2277 15.705 41.5551 14.7831 41.8814 13.8639C42.1082 13.2259 42.334 12.5896 42.2306 12.4138C42.1269 12.2365 41.4595 12.1246 40.7935 12.0126C39.8317 11.8512 38.8714 11.6898 38.293 11.0051C37.7128 10.3182 37.717 9.34435 37.7215 8.37045C37.7247 7.70013 37.7275 7.02946 37.571 6.89751C37.4191 6.76976 36.757 6.88557 36.0938 7.00104C35.1338 7.16879 34.1728 7.33655 33.3897 6.87856C32.6119 6.42407 32.2856 5.51265 31.9585 4.59842C31.7286 3.95583 31.4975 3.31078 31.2964 3.23602C31.0924 3.16022 30.4964 3.49046 29.8972 3.82281C29.0371 4.29976 28.1728 4.77916 27.2726 4.61597C26.3858 4.45523 25.7468 3.7263 25.1023 2.99141Z" fill="white"/>
</g>
<defs>
<clipPath id="clip0">
<rect x="0.774048" y="0.118164" width="46" height="46" fill="white"/>
</clipPath>
</defs>
</svg>
