<svg width="60" height="58" viewBox="0 0 60 58" fill="none" xmlns="http://www.w3.org/2000/svg">
  <path d="M29.9794 16.7012C29.3709 16.7012 28.7873 16.9429 28.3571 17.3732C27.9268 17.8035 27.6851 18.387 27.6851 18.9955V28.173C27.6851 28.7815 27.9268 29.3651 28.3571 29.7953C28.7873 30.2256 29.3709 30.4673 29.9794 30.4673C30.5879 30.4673 31.1715 30.2256 31.6018 29.7953C32.0321 29.3651 32.2738 28.7815 32.2738 28.173V18.9955C32.2738 18.387 32.0321 17.8035 31.6018 17.3732C31.1715 16.9429 30.5879 16.7012 29.9794 16.7012Z" fill="#373A4C"/>
  <path d="M36.8627 12.1113C36.2542 12.1113 35.6706 12.3531 35.2404 12.7833C34.8101 13.2136 34.5684 13.7972 34.5684 14.4057V28.1719C34.5684 28.7804 34.8101 29.3639 35.2404 29.7942C35.6706 30.2245 36.2542 30.4662 36.8627 30.4662C37.4712 30.4662 38.0548 30.2245 38.4851 29.7942C38.9154 29.3639 39.1571 28.7804 39.1571 28.1719V14.4057C39.1571 13.7972 38.9154 13.2136 38.4851 12.7833C38.0548 12.3531 37.4712 12.1113 36.8627 12.1113V12.1113Z" fill="#373A4C"/>
  <path d="M23.0966 21.2891C22.4881 21.2891 21.9045 21.5308 21.4742 21.9611C21.044 22.3913 20.8022 22.9749 20.8022 23.5834V28.1721C20.8022 28.7807 21.044 29.3642 21.4742 29.7945C21.9045 30.2248 22.4881 30.4665 23.0966 30.4665C23.7051 30.4665 24.2887 30.2248 24.719 29.7945C25.1492 29.3642 25.391 28.7807 25.391 28.1721V23.5834C25.391 22.9749 25.1492 22.3913 24.719 21.9611C24.2887 21.5308 23.7051 21.2891 23.0966 21.2891Z" fill="#373A4C"/>
  <path d="M59 38H1C0.448 38 0 37.552 0 37V4.001C0 1.795 1.795 0 4.001 0H55.999C58.205 0 60 1.795 60 4.001V37C60 37.552 59.552 38 59 38ZM2 36H58V4.001C58 2.897 57.103 2 55.999 2H4.001C2.897 2 2 2.897 2 4.001V36Z" fill="#373A4C"/>
  <path d="M55.999 46H4.001C1.795 46 0 44.205 0 41.999V37C0 36.448 0.448 36 1 36H59C59.552 36 60 36.448 60 37V41.999C60 44.205 58.205 46 55.999 46ZM2 38V41.999C2 43.103 2.897 44 4.001 44H55.999C57.103 44 58 43.103 58 41.999V38H2Z" fill="#373A4C"/>
  <path d="M55 38H5C4.448 38 4 37.552 4 37V5C4 4.448 4.448 4 5 4H55C55.552 4 56 4.448 56 5V37C56 37.552 55.552 38 55 38ZM6 36H54V6H6V36Z" fill="#373A4C"/>
  <path d="M43 58H17C15.346 58 14 56.654 14 55C14 53.346 15.346 52 17 52H43C44.654 52 46 53.346 46 55C46 56.654 44.654 58 43 58ZM17 54C16.449 54 16 54.449 16 55C16 55.551 16.449 56 17 56H43C43.551 56 44 55.551 44 55C44 54.449 43.551 54 43 54H17Z" fill="#373A4C"/>
  <path d="M41 54H19C18.448 54 18 53.552 18 53C18 52.448 18.448 52 19 52C22.318 52 24 49.645 24 45C24 44.448 24.448 44 25 44H35C35.552 44 36 44.448 36 45C36 49.645 37.682 52 41 52C41.552 52 42 52.448 42 53C42 53.552 41.552 54 41 54ZM23.871 52H36.13C34.898 50.636 34.173 48.605 34.028 46H25.973C25.827 48.605 25.103 50.636 23.871 52Z" fill="#373A4C"/>
</svg>