<svg width="44" height="46" viewBox="0 0 44 46" fill="none" xmlns="http://www.w3.org/2000/svg">
<g clip-path="url(#clip0)">
<path d="M39.2633 0H22.5649C22.2232 0 21.8952 0.139271 21.6535 0.386865L1.38473 21.1493C-0.461577 23.0413 -0.461577 26.1194 1.38473 28.0107L16.6557 43.6538C17.5473 44.5672 18.7367 45.0703 20.0042 45.0706H20.0046C21.2725 45.0706 22.4618 44.5672 23.3538 43.6535L43.6219 22.8907C43.8636 22.6431 43.9995 22.3071 43.9995 21.9571L43.9999 4.85146C43.9995 2.17642 41.8746 0 39.2633 0ZM41.4214 21.4103L21.5306 41.7862C21.1258 42.2013 20.5837 42.4296 20.0046 42.4296C19.4252 42.4296 18.8834 42.2013 18.4785 41.7866L3.20754 26.1435C2.3663 25.2817 2.3663 23.8787 3.20754 23.0166L23.0987 2.641H39.2633C40.4533 2.641 41.4218 3.63275 41.4218 4.8518L41.4214 21.4103Z" fill="white"/>
<path d="M32.6379 7.48926C31.5559 7.48926 30.5388 7.92117 29.7737 8.70488C29.0087 9.48824 28.5874 10.5302 28.5874 11.6385C28.5874 12.7469 29.0087 13.7888 29.7737 14.5725C30.5388 15.3562 31.5559 15.7878 32.6379 15.7878C33.7195 15.7878 34.7366 15.3562 35.5017 14.5725C36.2667 13.7888 36.688 12.7469 36.688 11.6385C36.688 10.5302 36.2667 9.48824 35.502 8.70488C34.737 7.92117 33.7198 7.48926 32.6379 7.48926ZM33.6789 12.7049C33.4009 12.99 33.031 13.1468 32.6379 13.1468C32.2444 13.1468 31.8748 12.99 31.5969 12.7049C31.3186 12.4202 31.1655 12.0412 31.1655 11.6385C31.1655 11.2358 31.3186 10.8569 31.5969 10.5722C31.8748 10.2871 32.2448 10.1303 32.6379 10.1303C33.031 10.1303 33.4006 10.2871 33.6789 10.5722C33.9572 10.8569 34.1102 11.2358 34.1102 11.6385C34.1102 12.0412 33.9568 12.4202 33.6789 12.7049Z" fill="white"/>
</g>
<defs>
<clipPath id="clip0">
<rect width="44" height="45.0732" fill="white"/>
</clipPath>
</defs>
</svg>
