<svg width="24" height="24" viewBox="0 0 24 24" fill="none" xmlns="http://www.w3.org/2000/svg">
    <g clip-path="url(#clip0_390_663)">
        <path d="M1.36167 6.25068H22.6387C22.8952 6.25068 23.1412 6.14879 23.3226 5.96741C23.504 5.78604 23.6058 5.54005 23.6058 5.28354C23.6058 5.02704 23.504 4.78105 23.3226 4.59967C23.1412 4.4183 22.8952 4.31641 22.6387 4.31641H1.36167C1.10517 4.31641 0.859173 4.4183 0.677799 4.59967C0.496426 4.78105 0.394531 5.02704 0.394531 5.28354C0.394531 5.54005 0.496426 5.78604 0.677799 5.96741C0.859173 6.14879 1.10517 6.25068 1.36167 6.25068Z" fill="#373A4C"/>
        <path d="M5.2302 9.15234C4.9737 9.15234 4.7277 9.25424 4.54633 9.43561C4.36496 9.61699 4.26306 9.86298 4.26306 10.1195C4.26306 10.376 4.36496 10.622 4.54633 10.8034C4.7277 10.9847 4.9737 11.0866 5.2302 11.0866H18.7701C19.0266 11.0866 19.2726 10.9847 19.454 10.8034C19.6354 10.622 19.7373 10.376 19.7373 10.1195C19.7373 9.86298 19.6354 9.61699 19.454 9.43561C19.2726 9.25424 19.0266 9.15234 18.7701 9.15234H5.2302Z" fill="#373A4C"/>
        <path d="M18.7701 18.8242H5.2302C4.9737 18.8242 4.7277 18.9261 4.54633 19.1075C4.36496 19.2889 4.26306 19.5349 4.26306 19.7914C4.26306 20.0479 4.36496 20.2939 4.54633 20.4752C4.7277 20.6566 4.9737 20.7585 5.2302 20.7585H18.7701C19.0266 20.7585 19.2726 20.6566 19.454 20.4752C19.6354 20.2939 19.7373 20.0479 19.7373 19.7914C19.7373 19.5349 19.6354 19.2889 19.454 19.1075C19.2726 18.9261 19.0266 18.8242 18.7701 18.8242Z" fill="#373A4C"/>
        <path d="M22.6387 13.9883H1.36167C1.10517 13.9883 0.859173 14.0902 0.677799 14.2715C0.496426 14.4529 0.394531 14.6989 0.394531 14.9554C0.394531 15.2119 0.496426 15.4579 0.677799 15.6393C0.859173 15.8207 1.10517 15.9226 1.36167 15.9226H22.6387C22.8952 15.9226 23.1412 15.8207 23.3226 15.6393C23.504 15.4579 23.6058 15.2119 23.6058 14.9554C23.6058 14.6989 23.504 14.4529 23.3226 14.2715C23.1412 14.0902 22.8952 13.9883 22.6387 13.9883Z" fill="#373A4C"/>
    </g>
    <defs>
        <clipPath id="clip0_390_663">
            <rect width="23.2113" height="23.2113" fill="white" transform="translate(0.394531 0.449219)"/>
        </clipPath>
    </defs>
</svg>
