<svg width="24" height="24" viewBox="0 0 24 24" fill="none" xmlns="http://www.w3.org/2000/svg">
    <g clip-path="url(#clip0_390_1289)">
        <path d="M1.36143 6.25069H22.6385C22.895 6.25069 23.141 6.14879 23.3224 5.96742C23.5038 5.78604 23.6057 5.54005 23.6057 5.28355C23.6057 5.02704 23.5038 4.78105 23.3224 4.59968C23.141 4.4183 22.895 4.31641 22.6385 4.31641H1.36143C1.10493 4.31641 0.85893 4.4183 0.677556 4.59968C0.496182 4.78105 0.394287 5.02704 0.394287 5.28355C0.394287 5.54005 0.496182 5.78604 0.677556 5.96742C0.85893 6.14879 1.10493 6.25069 1.36143 6.25069Z" fill="#373A4C"/>
        <path d="M1.36143 11.0866H14.9014C15.1579 11.0866 15.4039 10.9847 15.5853 10.8034C15.7666 10.622 15.8685 10.376 15.8685 10.1195C15.8685 9.86298 15.7666 9.61699 15.5853 9.43561C15.4039 9.25424 15.1579 9.15234 14.9014 9.15234H1.36143C1.10493 9.15234 0.85893 9.25424 0.677556 9.43561C0.496182 9.61699 0.394287 9.86298 0.394287 10.1195C0.394287 10.376 0.496182 10.622 0.677556 10.8034C0.85893 10.9847 1.10493 11.0866 1.36143 11.0866Z" fill="#373A4C"/>
        <path d="M14.9014 18.8242H1.36143C1.10493 18.8242 0.85893 18.9261 0.677556 19.1075C0.496182 19.2889 0.394287 19.5349 0.394287 19.7914C0.394287 20.0479 0.496182 20.2939 0.677556 20.4752C0.85893 20.6566 1.10493 20.7585 1.36143 20.7585H14.9014C15.1579 20.7585 15.4039 20.6566 15.5853 20.4752C15.7666 20.2939 15.8685 20.0479 15.8685 19.7914C15.8685 19.5349 15.7666 19.2889 15.5853 19.1075C15.4039 18.9261 15.1579 18.8242 14.9014 18.8242Z" fill="#373A4C"/>
        <path d="M22.6385 13.9883H1.36143C1.10493 13.9883 0.85893 14.0902 0.677556 14.2716C0.496182 14.4529 0.394287 14.6989 0.394287 14.9554C0.394287 15.2119 0.496182 15.4579 0.677556 15.6393C0.85893 15.8207 1.10493 15.9226 1.36143 15.9226H22.6385C22.895 15.9226 23.141 15.8207 23.3224 15.6393C23.5038 15.4579 23.6057 15.2119 23.6057 14.9554C23.6057 14.6989 23.5038 14.4529 23.3224 14.2716C23.141 14.0902 22.895 13.9883 22.6385 13.9883Z" fill="#373A4C"/>
    </g>
    <defs>
        <clipPath id="clip0_390_1289">
            <rect width="23.2114" height="23.2114" fill="white" transform="translate(0.394287 0.449219)"/>
        </clipPath>
    </defs>
</svg>
