<svg width="24" height="24" viewBox="0 0 24 24" fill="none" xmlns="http://www.w3.org/2000/svg">
    <g clip-path="url(#clip0_390_1244)">
        <path d="M1.35348 6.40293H22.6463C22.903 6.40293 23.1492 6.30371 23.3307 6.12711C23.5122 5.95051 23.6141 5.71098 23.6141 5.46123C23.6141 5.21147 23.5122 4.97195 23.3307 4.79535C23.1492 4.61875 22.903 4.51953 22.6463 4.51953H1.35348C1.09678 4.51953 0.850607 4.61875 0.669098 4.79535C0.48759 4.97195 0.38562 5.21147 0.38562 5.46123C0.38562 5.71098 0.48759 5.95051 0.669098 6.12711C0.850607 6.30371 1.09678 6.40293 1.35348 6.40293Z" fill="#373A4C"/>
        <path d="M22.6463 9.23047H9.09633C8.83964 9.23047 8.59347 9.32968 8.41196 9.50629C8.23045 9.68289 8.12848 9.92241 8.12848 10.1722C8.12848 10.4219 8.23045 10.6614 8.41196 10.838C8.59347 11.0146 8.83964 11.1139 9.09633 11.1139H22.6463C22.903 11.1139 23.1492 11.0146 23.3307 10.838C23.5122 10.6614 23.6142 10.4219 23.6142 10.1722C23.6142 9.92241 23.5122 9.68289 23.3307 9.50629C23.1492 9.32968 22.903 9.23047 22.6463 9.23047Z" fill="#373A4C"/>
        <path d="M22.6463 18.6445H9.09633C8.83964 18.6445 8.59347 18.7437 8.41196 18.9203C8.23045 19.0969 8.12848 19.3365 8.12848 19.5862C8.12848 19.836 8.23045 20.0755 8.41196 20.2521C8.59347 20.4287 8.83964 20.5279 9.09633 20.5279H22.6463C22.903 20.5279 23.1492 20.4287 23.3307 20.2521C23.5122 20.0755 23.6142 19.836 23.6142 19.5862C23.6142 19.3365 23.5122 19.0969 23.3307 18.9203C23.1492 18.7437 22.903 18.6445 22.6463 18.6445Z" fill="#373A4C"/>
        <path d="M22.6463 13.9375H1.35348C1.09678 13.9375 0.850607 14.0367 0.669098 14.2133C0.48759 14.3899 0.38562 14.6294 0.38562 14.8792C0.38562 15.129 0.48759 15.3685 0.669098 15.5451C0.850607 15.7217 1.09678 15.8209 1.35348 15.8209H22.6463C22.903 15.8209 23.1492 15.7217 23.3307 15.5451C23.5122 15.3685 23.6141 15.129 23.6141 14.8792C23.6141 14.6294 23.5122 14.3899 23.3307 14.2133C23.1492 14.0367 22.903 13.9375 22.6463 13.9375Z" fill="#373A4C"/>
    </g>
    <defs>
        <clipPath id="clip0_390_1244">
            <rect width="23.2285" height="22.6007" fill="white" transform="translate(0.38562 0.753906)"/>
        </clipPath>
    </defs>
</svg>
