<svg width="65" height="64" viewBox="0 0 65 64" fill="none" xmlns="http://www.w3.org/2000/svg">
<g clip-path="url(#clip0)">
<path d="M32.9139 28.8C32.7581 28.8 32.6035 28.7659 32.4595 28.6987L14.3261 20.1653C13.9528 19.9893 13.7139 19.6128 13.7139 19.2C13.7139 18.7872 13.9528 18.4107 14.3261 18.2347L32.4595 9.70133C32.7475 9.56586 33.0803 9.56586 33.3683 9.70133L51.5016 18.2347C51.8749 18.4107 52.1139 18.7872 52.1139 19.2C52.1139 19.6128 51.8749 19.9893 51.5016 20.1653L33.3683 28.6987C33.2243 28.7659 33.0696 28.8 32.9139 28.8ZM17.2861 19.2L32.9139 26.5547L48.5416 19.2L32.9139 11.8453L17.2861 19.2Z" fill="white"/>
<path d="M32.9138 37.3334C32.7506 37.3334 32.5863 37.2961 32.437 37.2214L19.637 30.8214C19.2754 30.6401 19.0471 30.271 19.0471 29.8667V21.7099C19.0471 21.3451 19.2338 21.0049 19.5421 20.8097C19.8503 20.6134 20.2375 20.591 20.5671 20.7446L32.9138 26.5547L45.2594 20.7446C45.5901 20.5899 45.9773 20.6134 46.2845 20.8097C46.5938 21.0049 46.7805 21.3451 46.7805 21.7099V29.8667C46.7805 30.271 46.5522 30.6401 46.1906 30.8214L33.3906 37.2214C33.2413 37.2961 33.077 37.3334 32.9138 37.3334ZM21.1805 29.2075L32.9138 35.0742L44.6471 29.2075V23.391L33.3682 28.6987C33.0802 28.8342 32.7474 28.8342 32.4594 28.6987L21.1805 23.391V29.2075Z" fill="white"/>
<path d="M51.0472 20.2666H32.9138C32.325 20.2666 31.8472 19.7888 31.8472 19.2C31.8472 18.6112 32.325 18.1333 32.9138 18.1333H51.0472C51.636 18.1333 52.1138 18.6112 52.1138 19.2C52.1138 19.7888 51.636 20.2666 51.0472 20.2666Z" fill="white"/>
<path d="M51.0471 29.8666C50.4583 29.8666 49.9805 29.3888 49.9805 28.8V19.2C49.9805 18.6112 50.4583 18.1333 51.0471 18.1333C51.6359 18.1333 52.1138 18.6112 52.1138 19.2V28.8C52.1138 29.3888 51.6359 29.8666 51.0471 29.8666Z" fill="white"/>
<path d="M32.9138 22.4C32.325 22.4 31.8472 21.9221 31.8472 21.3333V17.0667C31.8472 16.4779 32.325 16 32.9138 16C33.5026 16 33.9805 16.4779 33.9805 17.0667V21.3333C33.9805 21.9221 33.5026 22.4 32.9138 22.4Z" fill="white"/>
<path d="M48.9128 33.0667C48.7101 33.0667 48.5042 33.0091 48.3218 32.8875C47.8322 32.5611 47.7 31.8987 48.0264 31.408L50.1597 28.208C50.4861 27.7174 51.1474 27.584 51.6392 27.9126C52.1288 28.239 52.261 28.9014 51.9346 29.392L49.8013 32.592C49.5954 32.9003 49.2573 33.0667 48.9128 33.0667Z" fill="white"/>
<path d="M53.1815 33.0667C52.837 33.0667 52.4989 32.9003 52.293 32.592L50.1597 29.392C49.8333 28.9024 49.9655 28.239 50.4551 27.9126C50.9447 27.584 51.6071 27.7174 51.9346 28.208L54.0679 31.408C54.3943 31.8976 54.2621 32.5611 53.7725 32.8875C53.5901 33.0091 53.3842 33.0667 53.1815 33.0667Z" fill="white"/>
<path d="M32.9138 32C32.325 32 31.8472 31.5221 31.8472 30.9333V27.7333C31.8472 27.1445 32.325 26.6666 32.9138 26.6666C33.5026 26.6666 33.9805 27.1445 33.9805 27.7333V30.9333C33.9805 31.5221 33.5026 32 32.9138 32Z" fill="white"/>
<path d="M63.8471 41.6H1.98048C1.39168 41.6 0.913818 41.1221 0.913818 40.5333V5.33438C0.913818 2.98132 2.82848 1.06665 5.18155 1.06665H60.6461C62.9991 1.06665 64.9138 2.98132 64.9138 5.33438V40.5333C64.9138 41.1221 64.4359 41.6 63.8471 41.6ZM3.04715 39.4667H62.7805V5.33438C62.7805 4.15678 61.8237 3.19998 60.6461 3.19998H5.18155C4.00395 3.19998 3.04715 4.15678 3.04715 5.33438V39.4667Z" fill="white"/>
<path d="M60.6461 50.1333H5.18155C2.82848 50.1333 0.913818 48.2187 0.913818 45.8656V40.5333C0.913818 39.9445 1.39168 39.4667 1.98048 39.4667H63.8471C64.4359 39.4667 64.9138 39.9445 64.9138 40.5333V45.8656C64.9138 48.2187 62.9991 50.1333 60.6461 50.1333ZM3.04715 41.6V45.8656C3.04715 47.0432 4.00395 48 5.18155 48H60.6461C61.8237 48 62.7805 47.0432 62.7805 45.8656V41.6H3.04715Z" fill="white"/>
<path d="M36.1138 45.8666H29.7138C29.125 45.8666 28.6471 45.3887 28.6471 44.7999C28.6471 44.2111 29.125 43.7333 29.7138 43.7333H36.1138C36.7026 43.7333 37.1804 44.2111 37.1804 44.7999C37.1804 45.3887 36.7026 45.8666 36.1138 45.8666Z" fill="white"/>
<path d="M59.5805 41.6H6.24721C5.65841 41.6 5.18054 41.1222 5.18054 40.5334V6.40004C5.18054 5.81124 5.65841 5.33337 6.24721 5.33337H59.5805C60.1693 5.33337 60.6472 5.81124 60.6472 6.40004V40.5334C60.6472 41.1222 60.1693 41.6 59.5805 41.6ZM7.31388 39.4667H58.5139V7.46671H7.31388V39.4667Z" fill="white"/>
<path d="M46.7805 62.9333H19.0472C17.2829 62.9333 15.8472 61.4976 15.8472 59.7333C15.8472 57.9691 17.2829 56.5333 19.0472 56.5333H46.7805C48.5448 56.5333 49.9805 57.9691 49.9805 59.7333C49.9805 61.4976 48.5448 62.9333 46.7805 62.9333ZM19.0472 58.6667C18.4594 58.6667 17.9805 59.1456 17.9805 59.7333C17.9805 60.3211 18.4594 60.8 19.0472 60.8H46.7805C47.3682 60.8 47.8472 60.3211 47.8472 59.7333C47.8472 59.1456 47.3682 58.6667 46.7805 58.6667H19.0472Z" fill="white"/>
<path d="M44.6471 58.6667H21.1804C20.5916 58.6667 20.1138 58.1888 20.1138 57.6C20.1138 57.0112 20.5916 56.5333 21.1804 56.5333C24.7196 56.5333 26.5138 54.0213 26.5138 49.0667C26.5138 48.4779 26.9916 48 27.5804 48H38.2471C38.8359 48 39.3138 48.4779 39.3138 49.0667C39.3138 54.0213 41.1079 56.5333 44.6471 56.5333C45.2359 56.5333 45.7138 57.0112 45.7138 57.6C45.7138 58.1888 45.2359 58.6667 44.6471 58.6667ZM26.3762 56.5333H39.4524C38.1383 55.0784 37.365 52.912 37.2103 50.1333H28.6183C28.4626 52.912 27.6903 55.0784 26.3762 56.5333Z" fill="white"/>
</g>
<defs>
<clipPath id="clip0">
<rect x="0.913818" width="64" height="64" fill="white"/>
</clipPath>
</defs>
</svg>
