<svg width="65" height="64" viewBox="0 0 65 64" fill="none" xmlns="http://www.w3.org/2000/svg">
<g clip-path="url(#clip0)">
<path d="M32.9139 28.8C32.7581 28.8 32.6035 28.7659 32.4595 28.6987L14.3261 20.1653C13.9528 19.9893 13.7139 19.6128 13.7139 19.2C13.7139 18.7872 13.9528 18.4107 14.3261 18.2347L32.4595 9.70133C32.7475 9.56586 33.0803 9.56586 33.3683 9.70133L51.5016 18.2347C51.8749 18.4107 52.1139 18.7872 52.1139 19.2C52.1139 19.6128 51.8749 19.9893 51.5016 20.1653L33.3683 28.6987C33.2243 28.7659 33.0696 28.8 32.9139 28.8ZM17.2861 19.2L32.9139 26.5547L48.5416 19.2L32.9139 11.8453L17.2861 19.2Z" fill="#373A4C"/>
<path d="M32.9139 37.3333C32.7507 37.3333 32.5864 37.296 32.4371 37.2213L19.6371 30.8213C19.2755 30.64 19.0472 30.2709 19.0472 29.8667V21.7099C19.0472 21.3451 19.2339 21.0048 19.5421 20.8096C19.8504 20.6133 20.2376 20.5909 20.5672 20.7445L32.9139 26.5547L45.2595 20.7445C45.5901 20.5899 45.9773 20.6133 46.2845 20.8096C46.5939 21.0048 46.7805 21.3451 46.7805 21.7099V29.8667C46.7805 30.2709 46.5523 30.64 46.1907 30.8213L33.3907 37.2213C33.2413 37.296 33.0771 37.3333 32.9139 37.3333ZM21.1805 29.2075L32.9139 35.0741L44.6472 29.2075V23.3909L33.3683 28.6987C33.0803 28.8341 32.7475 28.8341 32.4595 28.6987L21.1805 23.3909V29.2075Z" fill="#373A4C"/>
<path d="M51.0472 20.2667H32.9139C32.3251 20.2667 31.8472 19.7888 31.8472 19.2C31.8472 18.6112 32.3251 18.1333 32.9139 18.1333H51.0472C51.636 18.1333 52.1139 18.6112 52.1139 19.2C52.1139 19.7888 51.636 20.2667 51.0472 20.2667Z" fill="#373A4C"/>
<path d="M51.0472 29.8667C50.4584 29.8667 49.9805 29.3888 49.9805 28.8V19.2C49.9805 18.6112 50.4584 18.1333 51.0472 18.1333C51.636 18.1333 52.1139 18.6112 52.1139 19.2V28.8C52.1139 29.3888 51.636 29.8667 51.0472 29.8667Z" fill="#373A4C"/>
<path d="M32.9139 22.4C32.3251 22.4 31.8472 21.9221 31.8472 21.3333V17.0667C31.8472 16.4779 32.3251 16 32.9139 16C33.5027 16 33.9805 16.4779 33.9805 17.0667V21.3333C33.9805 21.9221 33.5027 22.4 32.9139 22.4Z" fill="#373A4C"/>
<path d="M48.9128 33.0666C48.7101 33.0666 48.5043 33.009 48.3219 32.8874C47.8323 32.561 47.7 31.8986 48.0264 31.408L50.1597 28.208C50.4861 27.7173 51.1475 27.584 51.6392 27.9125C52.1288 28.2389 52.2611 28.9013 51.9347 29.392L49.8013 32.592C49.5955 32.9002 49.2573 33.0666 48.9128 33.0666Z" fill="#373A4C"/>
<path d="M53.1816 33.0666C52.8371 33.0666 52.4989 32.9002 52.2931 32.592L50.1597 29.392C49.8333 28.9024 49.9656 28.2389 50.4552 27.9125C50.9448 27.584 51.6072 27.7173 51.9347 28.208L54.068 31.408C54.3944 31.8976 54.2621 32.561 53.7725 32.8874C53.5901 33.009 53.3843 33.0666 53.1816 33.0666Z" fill="#373A4C"/>
<path d="M32.9139 32C32.3251 32 31.8472 31.5222 31.8472 30.9334V27.7334C31.8472 27.1446 32.3251 26.6667 32.9139 26.6667C33.5027 26.6667 33.9805 27.1446 33.9805 27.7334V30.9334C33.9805 31.5222 33.5027 32 32.9139 32Z" fill="#373A4C"/>
<path d="M63.8472 41.6H1.98055C1.39175 41.6 0.913879 41.1221 0.913879 40.5333V5.33438C0.913879 2.98132 2.82855 1.06665 5.18161 1.06665H60.6461C62.9992 1.06665 64.9139 2.98132 64.9139 5.33438V40.5333C64.9139 41.1221 64.436 41.6 63.8472 41.6ZM3.04721 39.4667H62.7805V5.33438C62.7805 4.15678 61.8237 3.19998 60.6461 3.19998H5.18161C4.00401 3.19998 3.04721 4.15678 3.04721 5.33438V39.4667Z" fill="#373A4C"/>
<path d="M60.6461 50.1333H5.18161C2.82855 50.1333 0.913879 48.2187 0.913879 45.8656V40.5333C0.913879 39.9445 1.39175 39.4667 1.98055 39.4667H63.8472C64.436 39.4667 64.9139 39.9445 64.9139 40.5333V45.8656C64.9139 48.2187 62.9992 50.1333 60.6461 50.1333ZM3.04721 41.6V45.8656C3.04721 47.0432 4.00401 48 5.18161 48H60.6461C61.8237 48 62.7805 47.0432 62.7805 45.8656V41.6H3.04721Z" fill="#373A4C"/>
<path d="M36.1139 45.8666H29.7139C29.1251 45.8666 28.6472 45.3888 28.6472 44.8C28.6472 44.2112 29.1251 43.7333 29.7139 43.7333H36.1139C36.7027 43.7333 37.1806 44.2112 37.1806 44.8C37.1806 45.3888 36.7027 45.8666 36.1139 45.8666Z" fill="#373A4C"/>
<path d="M59.5805 41.6H6.24721C5.65841 41.6 5.18054 41.1222 5.18054 40.5333V6.40001C5.18054 5.81121 5.65841 5.33334 6.24721 5.33334H59.5805C60.1693 5.33334 60.6472 5.81121 60.6472 6.40001V40.5333C60.6472 41.1222 60.1693 41.6 59.5805 41.6ZM7.31388 39.4667H58.5139V7.46668H7.31388V39.4667Z" fill="#373A4C"/>
<path d="M46.7806 62.9333H19.0472C17.2829 62.9333 15.8472 61.4976 15.8472 59.7333C15.8472 57.9691 17.2829 56.5333 19.0472 56.5333H46.7806C48.5448 56.5333 49.9806 57.9691 49.9806 59.7333C49.9806 61.4976 48.5448 62.9333 46.7806 62.9333ZM19.0472 58.6667C18.4595 58.6667 17.9805 59.1456 17.9805 59.7333C17.9805 60.3211 18.4595 60.8 19.0472 60.8H46.7806C47.3683 60.8 47.8472 60.3211 47.8472 59.7333C47.8472 59.1456 47.3683 58.6667 46.7806 58.6667H19.0472Z" fill="#373A4C"/>
<path d="M44.6472 58.6667H21.1805C20.5917 58.6667 20.1139 58.1888 20.1139 57.6C20.1139 57.0112 20.5917 56.5333 21.1805 56.5333C24.7197 56.5333 26.5139 54.0213 26.5139 49.0667C26.5139 48.4779 26.9917 48 27.5805 48H38.2472C38.836 48 39.3139 48.4779 39.3139 49.0667C39.3139 54.0213 41.108 56.5333 44.6472 56.5333C45.236 56.5333 45.7139 57.0112 45.7139 57.6C45.7139 58.1888 45.236 58.6667 44.6472 58.6667ZM26.3763 56.5333H39.4525C38.1384 55.0784 37.3651 52.912 37.2104 50.1333H28.6184C28.4627 52.912 27.6904 55.0784 26.3763 56.5333Z" fill="#373A4C"/>
</g>
<defs>
<clipPath id="clip0">
<rect x="0.913879" width="64" height="64" fill="white"/>
</clipPath>
</defs>
</svg>
