<svg width="30" height="21" viewBox="0 0 30 21" fill="none" xmlns="http://www.w3.org/2000/svg">
<path d="M14.2106 14.5569C14.0953 14.5569 13.9808 14.5317 13.8742 14.4819L0.453159 8.16615C0.176843 8.03588 0 7.7572 0 7.45167C0 7.14614 0.176843 6.86746 0.453159 6.73719L13.8742 0.421389C14.0874 0.321126 14.3337 0.321126 14.5469 0.421389L27.968 6.73719C28.2443 6.86746 28.4211 7.14614 28.4211 7.45167C28.4211 7.7572 28.2443 8.03588 27.968 8.16615L14.5469 14.4819C14.4403 14.5317 14.3258 14.5569 14.2106 14.5569ZM2.64395 7.45167L14.2106 12.8951L25.7772 7.45167L14.2106 2.00823L2.64395 7.45167Z" fill="#FFCA10"/>
<path d="M14.2104 20.8728C14.0896 20.8728 13.968 20.8452 13.8575 20.7899L4.38378 16.0531C4.11615 15.9189 3.9472 15.6457 3.9472 15.3465V9.30937C3.9472 9.03937 4.08536 8.78752 4.31352 8.64305C4.54168 8.49779 4.82826 8.48121 5.07221 8.59489L14.2104 12.8952L23.3478 8.59489C23.5925 8.48042 23.8791 8.49779 24.1065 8.64305C24.3354 8.78752 24.4736 9.03937 24.4736 9.30937V15.3465C24.4736 15.6457 24.3046 15.9189 24.037 16.0531L14.5633 20.7899C14.4528 20.8452 14.3312 20.8728 14.2104 20.8728ZM5.52616 14.8586L14.2104 19.2007L22.8946 14.8586V10.5536L14.5467 14.482C14.3335 14.5823 14.0872 14.5823 13.8741 14.482L5.52616 10.5536V14.8586Z" fill="#FFCA10"/>
<path d="M27.6317 8.24131H14.2106C13.7748 8.24131 13.4211 7.88762 13.4211 7.45183C13.4211 7.01604 13.7748 6.66235 14.2106 6.66235H27.6317C28.0675 6.66235 28.4211 7.01604 28.4211 7.45183C28.4211 7.88762 28.0675 8.24131 27.6317 8.24131Z" fill="#FFCA10"/>
<path d="M27.6317 15.3466C27.1959 15.3466 26.8422 14.9929 26.8422 14.5571V7.45183C26.8422 7.01604 27.1959 6.66235 27.6317 6.66235C28.0675 6.66235 28.4212 7.01604 28.4212 7.45183V14.5571C28.4212 14.9929 28.0675 15.3466 27.6317 15.3466Z" fill="#FFCA10"/>
<path d="M14.2106 9.82035C13.7748 9.82035 13.4211 9.46666 13.4211 9.03087V5.87297C13.4211 5.43718 13.7748 5.0835 14.2106 5.0835C14.6464 5.0835 15.0001 5.43718 15.0001 5.87297V9.03087C15.0001 9.46666 14.6464 9.82035 14.2106 9.82035Z" fill="#FFCA10"/>
<path d="M26.0516 17.715C25.9016 17.715 25.7493 17.6724 25.6143 17.5824C25.2519 17.3408 25.154 16.8505 25.3956 16.4874L26.9745 14.119C27.2161 13.7558 27.7056 13.6571 28.0695 13.9003C28.4319 14.1419 28.5298 14.6321 28.2882 14.9953L26.7093 17.3637C26.5569 17.5919 26.3066 17.715 26.0516 17.715Z" fill="#FFCA10"/>
<path d="M29.2113 17.715C28.9563 17.715 28.7061 17.5919 28.5537 17.3637L26.9748 14.9953C26.7332 14.6329 26.8311 14.1419 27.1934 13.9003C27.5558 13.6571 28.0461 13.7558 28.2884 14.119L29.8674 16.4874C30.109 16.8498 30.0111 17.3408 29.6487 17.5824C29.5137 17.6724 29.3613 17.715 29.2113 17.715Z" fill="#FFCA10"/>
<path d="M14.2106 16.9252C13.7748 16.9252 13.4211 16.5715 13.4211 16.1357V13.7673C13.4211 13.3315 13.7748 12.9778 14.2106 12.9778C14.6464 12.9778 15.0001 13.3315 15.0001 13.7673V16.1357C15.0001 16.5715 14.6464 16.9252 14.2106 16.9252Z" fill="#FFCA10"/>
</svg>
