<svg width="50" height="49" viewBox="0 0 50 49" fill="none" xmlns="http://www.w3.org/2000/svg">
<path d="M28.5941 10.1402C26.9627 8.78078 24.6505 7.9118 21.7217 7.55751C19.366 7.27241 17.1136 7.38113 15.6389 7.52248C14.4809 7.6334 13.6077 8.59713 13.6077 9.76422V11.4588C13.6077 11.8553 13.9289 12.1766 14.3254 12.1766C14.7219 12.1766 15.0432 11.8553 15.0432 11.4588V9.76422C15.0432 9.34093 15.3581 8.99152 15.7757 8.95151C18.2429 8.71494 24.3413 8.46477 27.675 11.243C27.9797 11.4969 28.4321 11.4558 28.6859 11.1511C28.9396 10.8465 28.8986 10.3939 28.5941 10.1402Z" fill="white"/>
<path d="M28.9018 0H18.9284C17.5068 0 16.1438 0.574696 15.1456 1.58599C12.5405 1.93865 10.5392 4.19964 10.5392 6.85511V8.99091C10.5392 10.1775 10.6851 11.3631 10.9729 12.5143L11.3062 13.8479V16.5229C11.3062 19.7759 12.8123 22.6998 15.1421 24.5802V27.1368C14.7259 27.186 14.3345 27.412 14.0823 27.7903L13.0918 29.276L7.90427 31.1624C5.80924 31.9241 4.40173 33.9336 4.40173 36.1628V42.9119C4.40173 43.3084 4.72301 43.6296 5.11951 43.6296C5.516 43.6296 5.83728 43.3084 5.83728 42.9119V36.1628C5.83728 34.5351 6.86503 33.0678 8.39484 32.5116L13.2913 30.7311L16.2836 34.9205C16.5378 35.2765 16.9336 35.5012 17.3695 35.5373C17.4107 35.5407 17.4518 35.5424 17.4928 35.5424C17.8851 35.5424 18.262 35.3875 18.5421 35.1075L18.9908 34.6588C19.0327 34.993 19.185 35.2933 19.4114 35.5206L18.9791 42.8698C18.9559 43.2656 19.2578 43.6053 19.6535 43.6286C19.6679 43.6294 19.6821 43.6298 19.6963 43.6298C20.0734 43.6298 20.3898 43.3355 20.4122 42.9542L20.8237 35.9581H21.6362L22.0477 42.9542C22.0701 43.3355 22.3865 43.6298 22.7636 43.6298C22.7778 43.6298 22.792 43.6294 22.8064 43.6286C23.2021 43.6053 23.504 43.2656 23.4808 42.8698L23.0485 35.5206C23.2749 35.2933 23.4272 34.993 23.4692 34.6588L23.9179 35.1075C24.1979 35.3876 24.5747 35.5425 24.9671 35.5425C25.008 35.5425 25.0492 35.5408 25.0903 35.5374C25.5262 35.5014 25.922 35.2765 26.1762 34.9207L29.4857 30.2875C29.6591 30.0449 29.6642 29.7203 29.4989 29.4721L28.3778 27.7905C28.1256 27.412 27.7342 27.186 27.3179 27.1368V24.6665C27.6178 24.4325 27.9067 24.1804 28.1823 23.9098C30.0984 22.0283 31.1538 19.5134 31.1538 16.8283V13.8479L31.4871 12.5144C31.7749 11.3635 31.9208 10.178 31.9208 8.99091V3.01933C31.921 1.35439 30.5665 0 28.9018 0ZM17.527 34.0923C17.5226 34.0967 17.5104 34.1078 17.4881 34.1066C17.4653 34.1047 17.4556 34.0912 17.4519 34.086L14.4304 29.856L15.2767 28.5865C15.2916 28.5643 15.3211 28.5576 15.3441 28.572L20.0846 31.5349L17.527 34.0923ZM21.9972 34.5225H20.4629C20.4357 34.5225 20.4135 34.5004 20.4135 34.4732V33.2362L21.23 32.4197L22.0466 33.2362V34.4732H22.0467C22.0467 34.5003 22.0246 34.5225 21.9972 34.5225ZM21.2301 30.558L16.5777 27.6502V25.5473C17.9164 26.288 19.4354 26.7209 21.0446 26.7504C21.1073 26.7516 21.1697 26.7521 21.2321 26.7521C22.8802 26.752 24.4664 26.3532 25.8825 25.5995V27.6485C25.8825 27.6491 25.8826 27.6497 25.8826 27.6503L21.2301 30.558ZM28.0297 29.8561L25.0082 34.0862C25.0046 34.0913 24.9949 34.1048 24.9722 34.1067C24.9482 34.108 24.9377 34.0968 24.9333 34.0924L22.3757 31.535L27.1162 28.5721C27.1385 28.5581 27.1688 28.5646 27.1834 28.5866L28.0297 29.8561ZM30.4855 8.99091C30.4855 10.0607 30.354 11.129 30.0945 12.1663L29.7398 13.5856C29.7256 13.6426 29.7183 13.7009 29.7183 13.7596V16.8282C29.7183 19.1249 28.8156 21.276 27.1765 22.8853C25.538 24.4943 23.3665 25.3597 21.0707 25.315C16.4781 25.2309 12.7418 21.2868 12.7418 16.5229V13.7596C12.7418 13.7009 12.7346 13.6425 12.7203 13.5856L12.3656 12.1662C12.1061 11.1287 11.9746 10.0604 11.9746 8.99091V6.85511C11.9746 4.84668 13.5429 3.14729 15.5448 2.98631C15.7296 2.97148 15.9014 2.88573 16.0244 2.74715C16.7637 1.91358 17.8222 1.43554 18.9284 1.43554H28.9018C29.775 1.43554 30.4855 2.14604 30.4855 3.01933V8.99091Z" fill="white"/>
<path d="M10.8078 37.3402L10.3646 36.4536C10.1873 36.0991 9.75617 35.9552 9.40159 36.1326C9.04701 36.3099 8.90326 36.7409 9.0806 37.0956L9.5238 37.9822C9.68611 38.3068 9.77196 38.6703 9.77196 39.0334V42.912C9.77196 43.3085 10.0932 43.6297 10.4897 43.6297C10.8862 43.6297 11.2075 43.3085 11.2075 42.912V39.0334C11.2075 38.4486 11.0693 37.8631 10.8078 37.3402Z" fill="white"/>
<path d="M35.8061 30.6865C30.7571 30.6865 26.6495 34.7942 26.6495 39.8431C26.6495 44.8921 30.7571 48.9998 35.8061 48.9998C40.8551 48.9998 44.9628 44.8921 44.9628 39.8431C44.9628 34.7941 40.8551 30.6865 35.8061 30.6865ZM35.8061 47.5641C31.5488 47.5641 28.0851 44.1004 28.0851 39.843C28.0851 35.5856 31.5487 32.122 35.8061 32.122C40.0635 32.122 43.5272 35.5856 43.5272 39.843C43.5272 44.1004 40.0636 47.5641 35.8061 47.5641Z" fill="white"/>
<path d="M39.1817 39.1255H36.524V36.4678C36.524 36.0713 36.2027 35.75 35.8062 35.75C35.4097 35.75 35.0884 36.0713 35.0884 36.4678V39.1255H32.4307C32.0342 39.1255 31.7129 39.4468 31.7129 39.8433C31.7129 40.2398 32.0342 40.5611 32.4307 40.5611H35.0884V43.2189C35.0884 43.6153 35.4097 43.9366 35.8062 43.9366C36.2027 43.9366 36.524 43.6153 36.524 43.2189V40.5611H39.1817C39.5782 40.5611 39.8995 40.2398 39.8995 39.8433C39.8995 39.4468 39.5781 39.1255 39.1817 39.1255Z" fill="white"/>
</svg>
