<svg width="41" height="49" viewBox="0 0 41 49" fill="none" xmlns="http://www.w3.org/2000/svg">
    <path d="M24.4117 10.1402C22.7803 8.78078 20.4682 7.9118 17.5394 7.55751C15.1836 7.27241 12.9313 7.38113 11.4565 7.52248C10.2985 7.6334 9.42529 8.59713 9.42529 9.76422V11.4588C9.42529 11.8553 9.74657 12.1766 10.1431 12.1766C10.5396 12.1766 10.8608 11.8553 10.8608 11.4588V9.76422C10.8608 9.34093 11.1757 8.99152 11.5933 8.95151C14.0606 8.71494 20.1589 8.46477 23.4927 11.243C23.7973 11.4969 24.2498 11.4558 24.5036 11.1511C24.7573 10.8465 24.7162 10.3939 24.4117 10.1402Z" fill="#373A4C"/>
    <path d="M24.7193 0H14.7459C13.3243 0 11.9613 0.574696 10.9631 1.58599C8.35801 1.93865 6.35667 4.19964 6.35667 6.85511V8.99091C6.35667 10.1775 6.50261 11.3631 6.79039 12.5143L7.12373 13.8479V16.5229C7.12373 19.7759 8.6298 22.6998 10.9596 24.5802V27.1368C10.5434 27.186 10.152 27.412 9.89978 27.7903L8.90935 29.276L3.72177 31.1624C1.62674 31.9241 0.219238 33.9336 0.219238 36.1628V42.9119C0.219238 43.3084 0.540513 43.6296 0.93701 43.6296C1.33351 43.6296 1.65478 43.3084 1.65478 42.9119V36.1628C1.65478 34.5351 2.68254 33.0678 4.21235 32.5116L9.1088 30.7311L12.1011 34.9205C12.3553 35.2765 12.7511 35.5012 13.187 35.5373C13.2282 35.5407 13.2693 35.5424 13.3103 35.5424C13.7026 35.5424 14.0795 35.3875 14.3596 35.1075L14.8083 34.6588C14.8502 34.993 15.0025 35.2933 15.2289 35.5206L14.7966 42.8698C14.7734 43.2656 15.0753 43.6053 15.471 43.6286C15.4854 43.6294 15.4996 43.6298 15.5138 43.6298C15.8909 43.6298 16.2073 43.3355 16.2297 42.9542L16.6412 35.9581H17.4537L17.8652 42.9542C17.8876 43.3355 18.204 43.6298 18.5811 43.6298C18.5953 43.6298 18.6095 43.6294 18.6239 43.6286C19.0196 43.6053 19.3215 43.2656 19.2983 42.8698L18.866 35.5206C19.0924 35.2933 19.2447 34.993 19.2867 34.6588L19.7354 35.1075C20.0154 35.3876 20.3922 35.5425 20.7846 35.5425C20.8255 35.5425 20.8667 35.5408 20.9078 35.5374C21.3437 35.5014 21.7395 35.2765 21.9937 34.9207L25.3032 30.2875C25.4766 30.0449 25.4818 29.7203 25.3164 29.4721L24.1953 27.7905C23.9431 27.412 23.5517 27.186 23.1354 27.1368V24.6665C23.4353 24.4325 23.7242 24.1804 23.9998 23.9098C25.916 22.0283 26.9713 19.5134 26.9713 16.8283V13.8479L27.3046 12.5144C27.5924 11.3635 27.7383 10.178 27.7383 8.99091V3.01933C27.7385 1.35439 26.384 0 24.7193 0ZM13.3445 34.0923C13.3401 34.0967 13.3279 34.1078 13.3056 34.1066C13.2828 34.1047 13.2731 34.0912 13.2694 34.086L10.2479 29.856L11.0942 28.5865C11.1091 28.5643 11.1386 28.5576 11.1616 28.572L15.9021 31.5349L13.3445 34.0923ZM17.8147 34.5225H16.2804C16.2532 34.5225 16.231 34.5004 16.231 34.4732V33.2362L17.0475 32.4197L17.8641 33.2362V34.4732H17.8642C17.8642 34.5003 17.8421 34.5225 17.8147 34.5225ZM17.0476 30.558L12.3952 27.6502V25.5473C13.7339 26.288 15.2529 26.7209 16.8621 26.7504C16.9248 26.7516 16.9872 26.7521 17.0497 26.7521C18.6977 26.752 20.2839 26.3532 21.7 25.5995V27.6485C21.7 27.6491 21.7001 27.6497 21.7001 27.6503L17.0476 30.558ZM23.8472 29.8561L20.8257 34.0862C20.8221 34.0913 20.8124 34.1048 20.7897 34.1067C20.7657 34.108 20.7552 34.0968 20.7508 34.0924L18.1932 31.535L22.9337 28.5721C22.9561 28.5581 22.9863 28.5646 23.0009 28.5866L23.8472 29.8561ZM26.303 8.99091C26.303 10.0607 26.1715 11.129 25.912 12.1663L25.5573 13.5856C25.5431 13.6426 25.5358 13.7009 25.5358 13.7596V16.8282C25.5358 19.1249 24.6332 21.276 22.994 22.8853C21.3555 24.4943 19.184 25.3597 16.8882 25.315C12.2956 25.2309 8.55927 21.2868 8.55927 16.5229V13.7596C8.55927 13.7009 8.55209 13.6425 8.53783 13.5856L8.18306 12.1662C7.92361 11.1287 7.79212 10.0604 7.79212 8.99091V6.85511C7.79212 4.84668 9.3604 3.14729 11.3623 2.98631C11.5471 2.97148 11.7189 2.88573 11.8419 2.74715C12.5812 1.91358 13.6397 1.43554 14.7459 1.43554H24.7193C25.5925 1.43554 26.303 2.14604 26.303 3.01933V8.99091Z" fill="#373A4C"/>
    <path d="M6.62538 37.3383L6.18218 36.4517C6.00494 36.0971 5.5738 35.9533 5.21922 36.1307C4.86464 36.3079 4.72089 36.739 4.89823 37.0937L5.34143 37.9803C5.50374 38.3049 5.58959 38.6684 5.58959 39.0315V42.91C5.58959 43.3065 5.91086 43.6278 6.30736 43.6278C6.70385 43.6278 7.02513 43.3065 7.02513 42.91V39.0315C7.02513 38.4466 6.88693 37.8611 6.62538 37.3383Z" fill="#373A4C"/>
    <path d="M31.6239 30.6875C26.5749 30.6875 22.4673 34.7952 22.4673 39.8441C22.4673 44.8931 26.5749 49.0007 31.6239 49.0007C36.6729 49.0007 40.7805 44.8931 40.7805 39.8441C40.7805 34.7951 36.6729 30.6875 31.6239 30.6875ZM31.6239 47.5651C27.3665 47.5651 23.9028 44.1014 23.9028 39.844C23.9028 35.5865 27.3664 32.1229 31.6239 32.1229C35.8813 32.1229 39.345 35.5865 39.345 39.844C39.345 44.1014 35.8814 47.5651 31.6239 47.5651Z" fill="#373A4C"/>
    <path fill-rule="evenodd" clip-rule="evenodd" d="M35.4844 35.7802C35.4925 35.8296 35.4821 35.882 35.4497 35.9252C35.4426 35.9344 35.433 35.9397 35.4246 35.9473L34.9804 36.5368L35.1316 36.6508C35.1417 36.6558 35.1526 36.6582 35.1618 36.6652C35.2048 36.6977 35.2293 36.7452 35.2351 36.7948C35.2432 36.8442 35.2328 36.8966 35.2004 36.9398C35.1935 36.949 35.1837 36.9543 35.1753 36.9619L29.938 43.9128C29.9224 43.9567 29.8934 43.9959 29.8505 44.0193L28.0712 45.0226C28.0609 45.0302 28.0501 45.0356 28.0384 45.0412L28.0362 45.0425C28.0348 45.0432 28.033 45.0431 28.0317 45.0439C28.0145 45.0512 27.9972 45.0577 27.978 45.0602C27.9592 45.0635 27.9412 45.0625 27.9225 45.06C27.9185 45.0594 27.9149 45.0607 27.9107 45.0599C27.9091 45.0595 27.9079 45.0583 27.9063 45.058C27.8885 45.054 27.8726 45.0464 27.8564 45.0374C27.8481 45.033 27.8396 45.0293 27.8324 45.0239C27.8251 45.0184 27.8192 45.0112 27.8128 45.0045C27.7996 44.9916 27.7881 44.9782 27.7792 44.9622C27.7782 44.9607 27.7769 44.96 27.7761 44.9585C27.7743 44.9548 27.7745 44.9509 27.7728 44.947C27.7655 44.93 27.7595 44.9128 27.7573 44.8941C27.7546 44.8749 27.7559 44.8565 27.7582 44.8378C27.7588 44.8361 27.758 44.8347 27.7583 44.8332L27.7591 44.8306C27.7613 44.8179 27.7633 44.8059 27.7677 44.7939L28.2417 42.807C28.2526 42.7592 28.2822 42.7205 28.3202 42.6934L32.9051 36.6092C32.8319 36.4561 32.6673 36.3599 32.4901 36.3848C32.3731 36.4012 32.2762 36.4676 32.2151 36.5585L32.2145 36.5582L31.6778 37.2704L31.6784 37.2709L30.5493 38.7693C30.4864 38.8528 30.3677 38.8695 30.284 38.8066C30.2005 38.7437 30.1838 38.6248 30.2467 38.5413L31.9062 36.3391C31.909 36.3354 31.9129 36.3338 31.916 36.3305C32.0354 36.1636 32.2187 36.0432 32.438 36.0124C32.7166 35.9732 32.9777 36.0901 33.1429 36.2938L33.5581 35.743C33.5632 35.7331 33.5656 35.7222 33.5725 35.713C33.6051 35.6698 33.6526 35.6453 33.7023 35.6397C33.7517 35.6314 33.8041 35.6419 33.8473 35.6744C33.8565 35.6813 33.8618 35.6912 33.8694 35.6993L34.0206 35.8133L34.4649 35.2237C34.47 35.2138 34.4723 35.2029 34.4793 35.1937C34.5118 35.1505 34.5593 35.126 34.6091 35.1204C34.6585 35.112 34.7109 35.1225 34.7541 35.155C34.7633 35.162 34.7686 35.1718 34.7762 35.18L35.3815 35.6361C35.3916 35.6412 35.4023 35.6436 35.4117 35.6505C35.4541 35.6831 35.4786 35.7306 35.4844 35.7802ZM28.2547 44.4639L29.4123 43.8109L28.563 43.1709L28.2547 44.4639ZM33.7661 36.0963L28.7096 42.8068L29.7219 43.5697L34.7784 36.8592L33.7661 36.0963ZM34.6729 35.577L34.3229 36.0414L34.6777 36.3088L35.0277 35.8444L34.6729 35.577Z" fill="#373A4C"/>
</svg>
