<svg width="17" height="13" viewBox="0 0 17 13" fill="none" xmlns="http://www.w3.org/2000/svg">
    <path d="M16.2699 5.00152C15.2359 3.31752 12.8839 0.492188 8.75589 0.492188C4.62789 0.492188 2.27589 3.31752 1.24189 5.00152C0.922246 5.51852 0.75293 6.11435 0.75293 6.72219C0.75293 7.33003 0.922246 7.92585 1.24189 8.44285C2.27589 10.1269 4.62789 12.9522 8.75589 12.9522C12.8839 12.9522 15.2359 10.1269 16.2699 8.44285C16.5895 7.92585 16.7589 7.33003 16.7589 6.72219C16.7589 6.11435 16.5895 5.51852 16.2699 5.00152ZM15.1332 7.74485C14.2452 9.18885 12.2352 11.6189 8.75589 11.6189C5.27656 11.6189 3.26656 9.18885 2.37856 7.74485C2.18865 7.43755 2.08806 7.08344 2.08806 6.72219C2.08806 6.36094 2.18865 6.00682 2.37856 5.69952C3.26656 4.25552 5.27656 1.82552 8.75589 1.82552C12.2352 1.82552 14.2452 4.25285 15.1332 5.69952C15.3231 6.00682 15.4237 6.36094 15.4237 6.72219C15.4237 7.08344 15.3231 7.43755 15.1332 7.74485Z" fill="#373A4C"/>
    <path d="M8.7557 3.39062C8.09643 3.39063 7.45196 3.58612 6.9038 3.95239C6.35563 4.31866 5.92839 4.83926 5.6761 5.44835C5.42381 6.05743 5.3578 6.72766 5.48641 7.37426C5.61503 8.02086 5.9325 8.6148 6.39868 9.08098C6.86485 9.54715 7.45879 9.86462 8.1054 9.99324C8.752 10.1219 9.42222 10.0558 10.0313 9.80356C10.6404 9.55126 11.161 9.12402 11.5273 8.57586C11.8935 8.02769 12.089 7.38323 12.089 6.72396C12.088 5.84023 11.7364 4.993 11.1116 4.3681C10.4867 3.74321 9.63943 3.39168 8.7557 3.39062ZM8.7557 8.72396C8.36014 8.72396 7.97346 8.60666 7.64456 8.3869C7.31566 8.16713 7.05931 7.85478 6.90794 7.48932C6.75656 7.12387 6.71696 6.72174 6.79413 6.33378C6.8713 5.94582 7.06178 5.58945 7.34148 5.30974C7.62119 5.03004 7.97756 4.83956 8.36552 4.76239C8.75348 4.68522 9.15561 4.72482 9.52107 4.8762C9.88652 5.02757 10.1989 5.28392 10.4186 5.61282C10.6384 5.94172 10.7557 6.32839 10.7557 6.72396C10.7557 7.25439 10.545 7.7631 10.1699 8.13817C9.79484 8.51324 9.28613 8.72396 8.7557 8.72396Z" fill="#373A4C"/>
</svg>