<svg width="17" height="16" viewBox="0 0 17 16" fill="none" xmlns="http://www.w3.org/2000/svg">
    <path d="M16.2698 6.06732C15.6679 5.0818 14.9088 4.20149 14.0224 3.46132L15.8891 1.59465C16.0105 1.46892 16.0777 1.30052 16.0762 1.12572C16.0747 0.95092 16.0046 0.783711 15.881 0.660106C15.7574 0.536501 15.5902 0.466388 15.4154 0.464869C15.2406 0.46335 15.0722 0.530546 14.9464 0.651985L12.9164 2.68465C11.658 1.9372 10.2194 1.54763 8.75577 1.55798C4.62844 1.55798 2.27644 4.38332 1.24177 6.06732C0.922123 6.58432 0.752808 7.18014 0.752808 7.78798C0.752808 8.39582 0.922123 8.99165 1.24177 9.50865C1.84361 10.4942 2.60276 11.3745 3.4891 12.1147L1.62244 13.9813C1.55876 14.0428 1.50798 14.1164 1.47304 14.1977C1.4381 14.279 1.41971 14.3665 1.41894 14.455C1.41817 14.5436 1.43504 14.6314 1.46856 14.7133C1.50208 14.7952 1.55158 14.8697 1.61417 14.9322C1.67677 14.9948 1.7512 15.0443 1.83314 15.0779C1.91507 15.1114 2.00285 15.1283 2.09137 15.1275C2.17989 15.1267 2.26737 15.1083 2.34871 15.0734C2.43004 15.0384 2.50361 14.9877 2.5651 14.924L4.59977 12.8893C5.85662 13.6366 7.29355 14.0269 8.75577 14.018C12.8831 14.018 15.2351 11.1926 16.2698 9.50865C16.5894 8.99165 16.7587 8.39582 16.7587 7.78798C16.7587 7.18014 16.5894 6.58432 16.2698 6.06732ZM2.37777 8.81065C2.18786 8.50335 2.08727 8.14923 2.08727 7.78798C2.08727 7.42673 2.18786 7.07262 2.37777 6.76532C3.2671 5.32132 5.2771 2.89132 8.75577 2.89132C9.86262 2.88512 10.9539 3.15188 11.9331 3.66798L10.5911 5.00998C9.95106 4.58505 9.18371 4.39465 8.41926 4.47108C7.65481 4.54751 6.94035 4.88608 6.39711 5.42932C5.85386 5.97256 5.5153 6.68702 5.43887 7.45147C5.36243 8.21592 5.55284 8.98327 5.97777 9.62332L4.43777 11.1633C3.62117 10.5031 2.92433 9.70728 2.37777 8.81065ZM10.7558 7.78798C10.7558 8.31842 10.5451 8.82712 10.17 9.2022C9.79491 9.57727 9.2862 9.78798 8.75577 9.78798C8.45878 9.78683 8.1659 9.71846 7.8991 9.58798L10.5558 6.93132C10.6862 7.19812 10.7546 7.49099 10.7558 7.78798ZM6.75577 7.78798C6.75577 7.25755 6.96648 6.74884 7.34156 6.37377C7.71663 5.9987 8.22534 5.78798 8.75577 5.78798C9.05276 5.78913 9.34564 5.85751 9.61244 5.98798L6.95577 8.64465C6.8253 8.37785 6.75692 8.08497 6.75577 7.78798ZM15.1338 8.81065C14.2444 10.2547 12.2344 12.6846 8.75577 12.6846C7.64892 12.6909 6.55761 12.4241 5.57844 11.908L6.92044 10.566C7.56048 10.9909 8.32783 11.1813 9.09228 11.1049C9.85673 11.0285 10.5712 10.6899 11.1144 10.1466C11.6577 9.60341 11.9962 8.88894 12.0727 8.1245C12.1491 7.36005 11.9587 6.5927 11.5338 5.95265L13.0738 4.41265C13.8904 5.07284 14.5872 5.86868 15.1338 6.76532C15.3237 7.07262 15.4243 7.42673 15.4243 7.78798C15.4243 8.14923 15.3237 8.50335 15.1338 8.81065Z" fill="#373A4C"/>
</svg>