<svg width="50" height="50" viewBox="0 0 50 50" fill="none" xmlns="http://www.w3.org/2000/svg">
    <path d="M49.4062 29.502V23.4816L47.1734 22.9134C47.0786 22.6592 46.9718 22.4042 46.8547 22.1508L48.0332 20.1674L43.7763 15.9105L41.7929 17.0899C41.5403 16.9727 41.2845 16.8659 41.0311 16.7711L40.4629 14.5391H38.25V4.17969C38.25 1.9827 36.4626 0.195312 34.2656 0.195312H3.98438C1.78739 0.195312 0 1.9827 0 4.17969V11.3516H6.375V32.0703H3.98438C1.78739 32.0703 0 33.8577 0 36.0547C0 38.2517 1.78739 40.0391 3.98438 40.0391H6.375V45.6172C6.375 47.8142 8.16239 49.6016 10.3594 49.6016H40.6406C42.8376 49.6016 44.625 47.8142 44.625 45.6172V41.6328H38.25V38.4453H40.4629L41.0311 36.2125C41.2845 36.1176 41.5403 36.0117 41.7929 35.8937L43.7763 37.0731L48.0332 32.8162L46.8547 30.8328C46.9718 30.5802 47.0786 30.3252 47.1734 30.071L49.4062 29.502ZM1.59375 9.75781V4.17969C1.59375 2.86166 2.66634 1.78906 3.98438 1.78906C5.30241 1.78906 6.375 2.86166 6.375 4.17969V9.75781H1.59375ZM6.375 36.8516H20.7188V38.4453H6.375V36.8516ZM22.3125 34.1565L25.2275 35.614C25.3956 35.6985 25.5 35.8666 25.5 36.0547C25.5 36.2427 25.3956 36.4109 25.2275 36.4954L22.3125 37.9528V34.1565ZM20.7188 35.2578H6.375V33.6641H20.7188V35.2578ZM1.59375 36.0547C1.59375 34.7367 2.66634 33.6641 3.98438 33.6641H4.78125V38.4453H3.98438C2.66634 38.4453 1.59375 37.3727 1.59375 36.0547ZM43.0312 45.6172C43.0312 46.9352 41.9587 48.0078 40.6406 48.0078H13.5453C14.0465 47.3416 14.3438 46.5137 14.3438 45.6172V43.2266H43.0312V45.6172ZM36.6562 41.6328H12.75V45.6172C12.75 46.9352 11.6774 48.0078 10.3594 48.0078C9.04134 48.0078 7.96875 46.9352 7.96875 45.6172V40.0391H21.7037L25.9399 37.921C26.6515 37.5656 27.0938 36.85 27.0938 36.0547C27.0938 35.2594 26.6515 34.5438 25.9407 34.1884L21.7037 32.0703H7.96875V4.17969C7.96875 3.27922 7.65717 2.45684 7.15116 1.78906H34.2656C35.5837 1.78906 36.6562 2.86166 36.6562 4.17969V14.5391H34.4433L33.8752 16.7719C33.6217 16.8667 33.366 16.9727 33.1133 17.0907L31.1299 15.9113L26.873 20.1682L28.0516 22.1516C27.9345 22.405 27.8277 22.6592 27.7328 22.9142L25.5 23.4824V29.5028L27.7328 30.071C27.8277 30.3252 27.9345 30.5802 28.0516 30.8328L26.873 32.8162L31.1299 37.0731L33.1133 35.8937C33.366 36.0109 33.6217 36.1176 33.8752 36.2125L34.4433 38.4453H36.6562V41.6328ZM46.0307 32.5652L43.5261 35.0698L41.8567 34.0768L41.4646 34.2793C41.0183 34.5095 40.5673 34.6976 40.1211 34.8403L39.7003 34.9749L39.2246 36.8516H35.6825L35.2059 34.9757L34.7852 34.841C34.3389 34.6984 33.8879 34.5103 33.4417 34.28L33.0496 34.0776L31.3801 35.0705L28.8756 32.566L29.8685 30.8957L29.6645 30.5029C29.435 30.0582 29.2461 29.6072 29.1035 29.1617L28.9696 28.741L27.0938 28.2636V24.7215L28.9696 24.2442L29.1035 23.8235C29.2461 23.3788 29.435 22.927 29.6653 22.4823L29.8685 22.0895L28.8756 20.42L31.3801 17.9154L33.0496 18.9083L33.4417 18.7059C33.8879 18.4756 34.3389 18.2876 34.7852 18.1449L35.2059 18.0103L35.6817 16.1328H39.2238L39.7003 18.0087L40.1211 18.1433C40.5673 18.286 41.0183 18.474 41.4646 18.7043L41.8567 18.9067L43.5261 17.9138L46.0307 20.4184L45.0378 22.0879L45.241 22.4807C45.4713 22.9262 45.6601 23.3772 45.8028 23.8219L45.9367 24.2426L47.8125 24.7207V28.2628L45.9367 28.7402L45.8028 29.1609C45.6601 29.6064 45.4713 30.0574 45.2418 30.5021L45.0378 30.8949L46.0307 32.5652Z" fill="#373A4C"/>
    <path d="M37.4531 19.3203C33.4982 19.3203 30.2812 22.5381 30.2812 26.4922C30.2812 30.4463 33.4982 33.6641 37.4531 33.6641C41.408 33.6641 44.625 30.4463 44.625 26.4922C44.625 22.5381 41.408 19.3203 37.4531 19.3203ZM37.4531 32.0703C34.378 32.0703 31.875 29.5681 31.875 26.4922C31.875 23.4162 34.378 20.9141 37.4531 20.9141C40.5283 20.9141 43.0312 23.4162 43.0312 26.4922C43.0312 29.5681 40.5283 32.0703 37.4531 32.0703Z" fill="#373A4C"/>
    <path d="M35.0625 3.38281H9.5625V12.9453H35.0625V3.38281ZM33.4688 11.3516H11.1562V4.97656H33.4688V11.3516Z" fill="#373A4C"/>
    <path d="M9.5625 14.5391H23.9062V16.1328H9.5625V14.5391Z" fill="#373A4C"/>
    <path d="M22.3125 17.7266H23.9062V19.3203H22.3125V17.7266Z" fill="#373A4C"/>
    <path d="M9.5625 17.7266H20.7188V19.3203H9.5625V17.7266Z" fill="#373A4C"/>
    <path d="M9.5625 20.9141H23.9062V22.5078H9.5625V20.9141Z" fill="#373A4C"/>
    <path d="M12.75 24.1016H23.9062V25.6953H12.75V24.1016Z" fill="#373A4C"/>
    <path d="M9.5625 24.1016H11.1562V25.6953H9.5625V24.1016Z" fill="#373A4C"/>
    <path d="M9.5625 27.2891H23.9062V28.8828H9.5625V27.2891Z" fill="#373A4C"/>
</svg>
